ISO-10303-21;
HEADER;
/* Generated by software containing ST-Developer
 * from STEP Tools, Inc. (www.steptools.com) 
 */
/* OPTION: using custom renumber hook */

FILE_DESCRIPTION(
/* description */ ('STEP AP242 Edition 2',
'CAx-IF Rec.Pracs.---Representation and Presentation of Product Manufa
cturing Information (PMI)---4.0---2014-10-13',
'CAx-IF Rec.Pracs.---3D Tessellated Geometry---0.4---2014-09-14','2;1',
'CAx-IF Rec.Pracs.---User Defined Attributes---1.5---2016-08-15'),
/* implementation_level */ '2;1');

FILE_NAME(
/* name */ 'Coral ground intake packaging',
/* time_stamp */ '2026-09-11T12:42:10Z',
/* author */ (''),
/* organization */ (''),
/* preprocessor_version */ 'ST-DEVELOPER v20',
/* originating_system */ 'ONSHAPE BY PTC INC, 1.220',
/* authorisation */ '  ');

FILE_SCHEMA (('AP242_MANAGED_MODEL_BASED_3D_ENGINEERING_MIM_LF { 1 0 10303 442 3 1 4 }'));
ENDSEC;

DATA;
#10=CYLINDRICAL_SURFACE('',#900,0.00645);
#11=CYLINDRICAL_SURFACE('',#901,0.00645);
#12=CYLINDRICAL_SURFACE('',#902,0.0033);
#13=CYLINDRICAL_SURFACE('',#903,0.0033);
#14=CYLINDRICAL_SURFACE('',#904,0.00645);
#15=CYLINDRICAL_SURFACE('',#906,0.00635);
#16=CYLINDRICAL_SURFACE('',#912,0.0381);
#17=CYLINDRICAL_SURFACE('',#919,0.00635);
#18=CYLINDRICAL_SURFACE('',#944,0.00645);
#19=CYLINDRICAL_SURFACE('',#945,0.00645);
#20=CYLINDRICAL_SURFACE('',#946,0.0033);
#21=CYLINDRICAL_SURFACE('',#947,0.0033);
#22=CYLINDRICAL_SURFACE('',#948,0.00645);
#23=CYLINDRICAL_SURFACE('',#950,0.05715);
#24=CYLINDRICAL_SURFACE('',#957,0.0508);
#25=CYLINDRICAL_SURFACE('',#959,0.0381);
#26=CYLINDRICAL_SURFACE('',#966,0.00635);
#27=CYLINDRICAL_SURFACE('',#968,0.00635);
#28=CIRCLE('',#885,0.00645);
#29=CIRCLE('',#886,0.0033);
#30=CIRCLE('',#887,0.0033);
#31=CIRCLE('',#888,0.00645);
#32=CIRCLE('',#889,0.00645);
#33=CIRCLE('',#892,0.00645);
#34=CIRCLE('',#893,0.0033);
#35=CIRCLE('',#894,0.0033);
#36=CIRCLE('',#895,0.00645);
#37=CIRCLE('',#896,0.00645);
#38=CIRCLE('',#907,0.00635);
#39=CIRCLE('',#908,0.00635);
#40=CIRCLE('',#913,0.0381);
#41=CIRCLE('',#914,0.0381);
#42=CIRCLE('',#916,0.00635);
#43=CIRCLE('',#918,0.00635);
#44=CIRCLE('',#929,0.00645);
#45=CIRCLE('',#930,0.0033);
#46=CIRCLE('',#931,0.0033);
#47=CIRCLE('',#932,0.00645);
#48=CIRCLE('',#933,0.00645);
#49=CIRCLE('',#936,0.00645);
#50=CIRCLE('',#937,0.0033);
#51=CIRCLE('',#938,0.0033);
#52=CIRCLE('',#939,0.00645);
#53=CIRCLE('',#940,0.00645);
#54=CIRCLE('',#951,0.05715);
#55=CIRCLE('',#952,0.05715);
#56=CIRCLE('',#954,0.0508);
#57=CIRCLE('',#956,0.0508);
#58=CIRCLE('',#960,0.0381);
#59=CIRCLE('',#961,0.0381);
#60=CIRCLE('',#963,0.00635);
#61=CIRCLE('',#965,0.00635);
#62=CIRCLE('',#969,0.00635);
#63=CIRCLE('',#970,0.00635);
#64=SHAPE_REPRESENTATION_RELATIONSHIP('','',#867,#73);
#65=SHAPE_REPRESENTATION_RELATIONSHIP('','',#868,#74);
#66=SHAPE_REPRESENTATION_RELATIONSHIP('','',#869,#75);
#67=SHAPE_REPRESENTATION_RELATIONSHIP('','',#870,#76);
#68=SHAPE_REPRESENTATION_RELATIONSHIP('','',#871,#77);
#69=SHAPE_REPRESENTATION_RELATIONSHIP('','',#872,#78);
#70=SHAPE_REPRESENTATION_RELATIONSHIP('','',#873,#79);
#71=SHAPE_REPRESENTATION_RELATIONSHIP('','',#874,#80);
#72=SHAPE_REPRESENTATION_RELATIONSHIP('','',#875,#81);
#73=ADVANCED_BREP_SHAPE_REPRESENTATION('',(#849),#1437);
#74=ADVANCED_BREP_SHAPE_REPRESENTATION('',(#850),#1438);
#75=ADVANCED_BREP_SHAPE_REPRESENTATION('',(#851),#1439);
#76=ADVANCED_BREP_SHAPE_REPRESENTATION('',(#852),#1440);
#77=ADVANCED_BREP_SHAPE_REPRESENTATION('',(#853),#1441);
#78=ADVANCED_BREP_SHAPE_REPRESENTATION('',(#854),#1442);
#79=ADVANCED_BREP_SHAPE_REPRESENTATION('',(#855),#1443);
#80=ADVANCED_BREP_SHAPE_REPRESENTATION('',(#856),#1444);
#81=ADVANCED_BREP_SHAPE_REPRESENTATION('',(#857),#1445);
#82=ORIENTED_EDGE('',*,*,#250,.F.);
#83=ORIENTED_EDGE('',*,*,#251,.F.);
#84=ORIENTED_EDGE('',*,*,#252,.T.);
#85=ORIENTED_EDGE('',*,*,#253,.T.);
#86=ORIENTED_EDGE('',*,*,#254,.T.);
#87=ORIENTED_EDGE('',*,*,#255,.F.);
#88=ORIENTED_EDGE('',*,*,#256,.F.);
#89=ORIENTED_EDGE('',*,*,#251,.T.);
#90=ORIENTED_EDGE('',*,*,#257,.T.);
#91=ORIENTED_EDGE('',*,*,#258,.F.);
#92=ORIENTED_EDGE('',*,*,#259,.F.);
#93=ORIENTED_EDGE('',*,*,#255,.T.);
#94=ORIENTED_EDGE('',*,*,#260,.F.);
#95=ORIENTED_EDGE('',*,*,#253,.F.);
#96=ORIENTED_EDGE('',*,*,#261,.T.);
#97=ORIENTED_EDGE('',*,*,#258,.T.);
#98=ORIENTED_EDGE('',*,*,#252,.F.);
#99=ORIENTED_EDGE('',*,*,#256,.T.);
#100=ORIENTED_EDGE('',*,*,#259,.T.);
#101=ORIENTED_EDGE('',*,*,#261,.F.);
#102=ORIENTED_EDGE('',*,*,#250,.T.);
#103=ORIENTED_EDGE('',*,*,#260,.T.);
#104=ORIENTED_EDGE('',*,*,#257,.F.);
#105=ORIENTED_EDGE('',*,*,#254,.F.);
#106=ORIENTED_EDGE('',*,*,#262,.T.);
#107=ORIENTED_EDGE('',*,*,#263,.T.);
#108=ORIENTED_EDGE('',*,*,#264,.T.);
#109=ORIENTED_EDGE('',*,*,#265,.T.);
#110=ORIENTED_EDGE('',*,*,#266,.T.);
#111=ORIENTED_EDGE('',*,*,#267,.F.);
#112=ORIENTED_EDGE('',*,*,#268,.F.);
#113=ORIENTED_EDGE('',*,*,#269,.T.);
#114=ORIENTED_EDGE('',*,*,#270,.T.);
#115=ORIENTED_EDGE('',*,*,#271,.T.);
#116=ORIENTED_EDGE('',*,*,#272,.F.);
#117=ORIENTED_EDGE('',*,*,#273,.F.);
#118=ORIENTED_EDGE('',*,*,#268,.T.);
#119=ORIENTED_EDGE('',*,*,#274,.F.);
#120=ORIENTED_EDGE('',*,*,#275,.F.);
#121=ORIENTED_EDGE('',*,*,#276,.F.);
#122=ORIENTED_EDGE('',*,*,#277,.F.);
#123=ORIENTED_EDGE('',*,*,#278,.F.);
#124=ORIENTED_EDGE('',*,*,#279,.T.);
#125=ORIENTED_EDGE('',*,*,#280,.F.);
#126=ORIENTED_EDGE('',*,*,#281,.F.);
#127=ORIENTED_EDGE('',*,*,#272,.T.);
#128=ORIENTED_EDGE('',*,*,#282,.F.);
#129=ORIENTED_EDGE('',*,*,#270,.F.);
#130=ORIENTED_EDGE('',*,*,#283,.T.);
#131=ORIENTED_EDGE('',*,*,#280,.T.);
#132=ORIENTED_EDGE('',*,*,#269,.F.);
#133=ORIENTED_EDGE('',*,*,#273,.T.);
#134=ORIENTED_EDGE('',*,*,#281,.T.);
#135=ORIENTED_EDGE('',*,*,#283,.F.);
#136=ORIENTED_EDGE('',*,*,#267,.T.);
#137=ORIENTED_EDGE('',*,*,#282,.T.);
#138=ORIENTED_EDGE('',*,*,#279,.F.);
#139=ORIENTED_EDGE('',*,*,#271,.F.);
#140=ORIENTED_EDGE('',*,*,#266,.F.);
#141=ORIENTED_EDGE('',*,*,#278,.T.);
#142=ORIENTED_EDGE('',*,*,#265,.F.);
#143=ORIENTED_EDGE('',*,*,#277,.T.);
#144=ORIENTED_EDGE('',*,*,#264,.F.);
#145=ORIENTED_EDGE('',*,*,#276,.T.);
#146=ORIENTED_EDGE('',*,*,#263,.F.);
#147=ORIENTED_EDGE('',*,*,#275,.T.);
#148=ORIENTED_EDGE('',*,*,#262,.F.);
#149=ORIENTED_EDGE('',*,*,#274,.T.);
#150=ORIENTED_EDGE('',*,*,#284,.F.);
#151=ORIENTED_EDGE('',*,*,#285,.T.);
#152=ORIENTED_EDGE('',*,*,#284,.T.);
#153=ORIENTED_EDGE('',*,*,#285,.F.);
#154=ORIENTED_EDGE('',*,*,#286,.F.);
#155=ORIENTED_EDGE('',*,*,#287,.T.);
#156=ORIENTED_EDGE('',*,*,#288,.T.);
#157=ORIENTED_EDGE('',*,*,#286,.T.);
#158=ORIENTED_EDGE('',*,*,#289,.F.);
#159=ORIENTED_EDGE('',*,*,#287,.F.);
#160=ORIENTED_EDGE('',*,*,#288,.F.);
#161=ORIENTED_EDGE('',*,*,#289,.T.);
#162=ORIENTED_EDGE('',*,*,#290,.F.);
#163=ORIENTED_EDGE('',*,*,#291,.F.);
#164=ORIENTED_EDGE('',*,*,#292,.T.);
#165=ORIENTED_EDGE('',*,*,#293,.T.);
#166=ORIENTED_EDGE('',*,*,#294,.T.);
#167=ORIENTED_EDGE('',*,*,#295,.F.);
#168=ORIENTED_EDGE('',*,*,#296,.F.);
#169=ORIENTED_EDGE('',*,*,#291,.T.);
#170=ORIENTED_EDGE('',*,*,#297,.T.);
#171=ORIENTED_EDGE('',*,*,#298,.F.);
#172=ORIENTED_EDGE('',*,*,#299,.F.);
#173=ORIENTED_EDGE('',*,*,#295,.T.);
#174=ORIENTED_EDGE('',*,*,#300,.F.);
#175=ORIENTED_EDGE('',*,*,#293,.F.);
#176=ORIENTED_EDGE('',*,*,#301,.T.);
#177=ORIENTED_EDGE('',*,*,#298,.T.);
#178=ORIENTED_EDGE('',*,*,#292,.F.);
#179=ORIENTED_EDGE('',*,*,#296,.T.);
#180=ORIENTED_EDGE('',*,*,#299,.T.);
#181=ORIENTED_EDGE('',*,*,#301,.F.);
#182=ORIENTED_EDGE('',*,*,#290,.T.);
#183=ORIENTED_EDGE('',*,*,#300,.T.);
#184=ORIENTED_EDGE('',*,*,#297,.F.);
#185=ORIENTED_EDGE('',*,*,#294,.F.);
#186=ORIENTED_EDGE('',*,*,#302,.T.);
#187=ORIENTED_EDGE('',*,*,#303,.T.);
#188=ORIENTED_EDGE('',*,*,#304,.T.);
#189=ORIENTED_EDGE('',*,*,#305,.T.);
#190=ORIENTED_EDGE('',*,*,#306,.T.);
#191=ORIENTED_EDGE('',*,*,#307,.F.);
#192=ORIENTED_EDGE('',*,*,#308,.F.);
#193=ORIENTED_EDGE('',*,*,#309,.T.);
#194=ORIENTED_EDGE('',*,*,#310,.T.);
#195=ORIENTED_EDGE('',*,*,#311,.T.);
#196=ORIENTED_EDGE('',*,*,#312,.F.);
#197=ORIENTED_EDGE('',*,*,#313,.F.);
#198=ORIENTED_EDGE('',*,*,#308,.T.);
#199=ORIENTED_EDGE('',*,*,#314,.F.);
#200=ORIENTED_EDGE('',*,*,#315,.F.);
#201=ORIENTED_EDGE('',*,*,#316,.F.);
#202=ORIENTED_EDGE('',*,*,#317,.F.);
#203=ORIENTED_EDGE('',*,*,#318,.F.);
#204=ORIENTED_EDGE('',*,*,#319,.T.);
#205=ORIENTED_EDGE('',*,*,#320,.F.);
#206=ORIENTED_EDGE('',*,*,#321,.F.);
#207=ORIENTED_EDGE('',*,*,#312,.T.);
#208=ORIENTED_EDGE('',*,*,#322,.F.);
#209=ORIENTED_EDGE('',*,*,#310,.F.);
#210=ORIENTED_EDGE('',*,*,#323,.T.);
#211=ORIENTED_EDGE('',*,*,#320,.T.);
#212=ORIENTED_EDGE('',*,*,#309,.F.);
#213=ORIENTED_EDGE('',*,*,#313,.T.);
#214=ORIENTED_EDGE('',*,*,#321,.T.);
#215=ORIENTED_EDGE('',*,*,#323,.F.);
#216=ORIENTED_EDGE('',*,*,#307,.T.);
#217=ORIENTED_EDGE('',*,*,#322,.T.);
#218=ORIENTED_EDGE('',*,*,#319,.F.);
#219=ORIENTED_EDGE('',*,*,#311,.F.);
#220=ORIENTED_EDGE('',*,*,#306,.F.);
#221=ORIENTED_EDGE('',*,*,#318,.T.);
#222=ORIENTED_EDGE('',*,*,#305,.F.);
#223=ORIENTED_EDGE('',*,*,#317,.T.);
#224=ORIENTED_EDGE('',*,*,#304,.F.);
#225=ORIENTED_EDGE('',*,*,#316,.T.);
#226=ORIENTED_EDGE('',*,*,#303,.F.);
#227=ORIENTED_EDGE('',*,*,#315,.T.);
#228=ORIENTED_EDGE('',*,*,#302,.F.);
#229=ORIENTED_EDGE('',*,*,#314,.T.);
#230=ORIENTED_EDGE('',*,*,#324,.F.);
#231=ORIENTED_EDGE('',*,*,#325,.T.);
#232=ORIENTED_EDGE('',*,*,#326,.T.);
#233=ORIENTED_EDGE('',*,*,#324,.T.);
#234=ORIENTED_EDGE('',*,*,#327,.F.);
#235=ORIENTED_EDGE('',*,*,#325,.F.);
#236=ORIENTED_EDGE('',*,*,#326,.F.);
#237=ORIENTED_EDGE('',*,*,#327,.T.);
#238=ORIENTED_EDGE('',*,*,#328,.F.);
#239=ORIENTED_EDGE('',*,*,#329,.T.);
#240=ORIENTED_EDGE('',*,*,#330,.T.);
#241=ORIENTED_EDGE('',*,*,#328,.T.);
#242=ORIENTED_EDGE('',*,*,#331,.F.);
#243=ORIENTED_EDGE('',*,*,#329,.F.);
#244=ORIENTED_EDGE('',*,*,#330,.F.);
#245=ORIENTED_EDGE('',*,*,#331,.T.);
#246=ORIENTED_EDGE('',*,*,#332,.F.);
#247=ORIENTED_EDGE('',*,*,#333,.T.);
#248=ORIENTED_EDGE('',*,*,#332,.T.);
#249=ORIENTED_EDGE('',*,*,#333,.F.);
#250=EDGE_CURVE('',#334,#335,#402,.T.);
#251=EDGE_CURVE('',#336,#334,#403,.T.);
#252=EDGE_CURVE('',#336,#337,#404,.T.);
#253=EDGE_CURVE('',#337,#335,#405,.T.);
#254=EDGE_CURVE('',#334,#338,#406,.T.);
#255=EDGE_CURVE('',#339,#338,#407,.T.);
#256=EDGE_CURVE('',#336,#339,#408,.T.);
#257=EDGE_CURVE('',#338,#340,#409,.T.);
#258=EDGE_CURVE('',#341,#340,#410,.T.);
#259=EDGE_CURVE('',#339,#341,#411,.T.);
#260=EDGE_CURVE('',#335,#340,#412,.T.);
#261=EDGE_CURVE('',#337,#341,#413,.T.);
#262=EDGE_CURVE('',#342,#342,#28,.F.);
#263=EDGE_CURVE('',#343,#343,#29,.F.);
#264=EDGE_CURVE('',#344,#344,#30,.F.);
#265=EDGE_CURVE('',#345,#345,#31,.F.);
#266=EDGE_CURVE('',#346,#346,#32,.F.);
#267=EDGE_CURVE('',#347,#348,#414,.T.);
#268=EDGE_CURVE('',#349,#347,#415,.T.);
#269=EDGE_CURVE('',#349,#350,#416,.T.);
#270=EDGE_CURVE('',#350,#348,#417,.T.);
#271=EDGE_CURVE('',#347,#351,#418,.T.);
#272=EDGE_CURVE('',#352,#351,#419,.T.);
#273=EDGE_CURVE('',#349,#352,#420,.T.);
#274=EDGE_CURVE('',#353,#353,#33,.F.);
#275=EDGE_CURVE('',#354,#354,#34,.F.);
#276=EDGE_CURVE('',#355,#355,#35,.F.);
#277=EDGE_CURVE('',#356,#356,#36,.F.);
#278=EDGE_CURVE('',#357,#357,#37,.F.);
#279=EDGE_CURVE('',#351,#358,#421,.T.);
#280=EDGE_CURVE('',#359,#358,#422,.T.);
#281=EDGE_CURVE('',#352,#359,#423,.T.);
#282=EDGE_CURVE('',#348,#358,#424,.T.);
#283=EDGE_CURVE('',#350,#359,#425,.T.);
#284=EDGE_CURVE('',#360,#360,#38,.T.);
#285=EDGE_CURVE('',#361,#361,#39,.T.);
#286=EDGE_CURVE('',#362,#362,#40,.T.);
#287=EDGE_CURVE('',#363,#363,#41,.T.);
#288=EDGE_CURVE('',#364,#364,#42,.F.);
#289=EDGE_CURVE('',#365,#365,#43,.F.);
#290=EDGE_CURVE('',#366,#367,#426,.T.);
#291=EDGE_CURVE('',#368,#366,#427,.T.);
#292=EDGE_CURVE('',#368,#369,#428,.T.);
#293=EDGE_CURVE('',#369,#367,#429,.T.);
#294=EDGE_CURVE('',#366,#370,#430,.T.);
#295=EDGE_CURVE('',#371,#370,#431,.T.);
#296=EDGE_CURVE('',#368,#371,#432,.T.);
#297=EDGE_CURVE('',#370,#372,#433,.T.);
#298=EDGE_CURVE('',#373,#372,#434,.T.);
#299=EDGE_CURVE('',#371,#373,#435,.T.);
#300=EDGE_CURVE('',#367,#372,#436,.T.);
#301=EDGE_CURVE('',#369,#373,#437,.T.);
#302=EDGE_CURVE('',#374,#374,#44,.F.);
#303=EDGE_CURVE('',#375,#375,#45,.F.);
#304=EDGE_CURVE('',#376,#376,#46,.F.);
#305=EDGE_CURVE('',#377,#377,#47,.F.);
#306=EDGE_CURVE('',#378,#378,#48,.F.);
#307=EDGE_CURVE('',#379,#380,#438,.T.);
#308=EDGE_CURVE('',#381,#379,#439,.T.);
#309=EDGE_CURVE('',#381,#382,#440,.T.);
#310=EDGE_CURVE('',#382,#380,#441,.T.);
#311=EDGE_CURVE('',#379,#383,#442,.T.);
#312=EDGE_CURVE('',#384,#383,#443,.T.);
#313=EDGE_CURVE('',#381,#384,#444,.T.);
#314=EDGE_CURVE('',#385,#385,#49,.F.);
#315=EDGE_CURVE('',#386,#386,#50,.F.);
#316=EDGE_CURVE('',#387,#387,#51,.F.);
#317=EDGE_CURVE('',#388,#388,#52,.F.);
#318=EDGE_CURVE('',#389,#389,#53,.F.);
#319=EDGE_CURVE('',#383,#390,#445,.T.);
#320=EDGE_CURVE('',#391,#390,#446,.T.);
#321=EDGE_CURVE('',#384,#391,#447,.T.);
#322=EDGE_CURVE('',#380,#390,#448,.T.);
#323=EDGE_CURVE('',#382,#391,#449,.T.);
#324=EDGE_CURVE('',#392,#392,#54,.T.);
#325=EDGE_CURVE('',#393,#393,#55,.T.);
#326=EDGE_CURVE('',#394,#394,#56,.F.);
#327=EDGE_CURVE('',#395,#395,#57,.F.);
#328=EDGE_CURVE('',#396,#396,#58,.T.);
#329=EDGE_CURVE('',#397,#397,#59,.T.);
#330=EDGE_CURVE('',#398,#398,#60,.F.);
#331=EDGE_CURVE('',#399,#399,#61,.F.);
#332=EDGE_CURVE('',#400,#400,#62,.T.);
#333=EDGE_CURVE('',#401,#401,#63,.T.);
#334=VERTEX_POINT('',#1218);
#335=VERTEX_POINT('',#1219);
#336=VERTEX_POINT('',#1221);
#337=VERTEX_POINT('',#1223);
#338=VERTEX_POINT('',#1227);
#339=VERTEX_POINT('',#1229);
#340=VERTEX_POINT('',#1233);
#341=VERTEX_POINT('',#1235);
#342=VERTEX_POINT('',#1245);
#343=VERTEX_POINT('',#1247);
#344=VERTEX_POINT('',#1249);
#345=VERTEX_POINT('',#1251);
#346=VERTEX_POINT('',#1253);
#347=VERTEX_POINT('',#1255);
#348=VERTEX_POINT('',#1256);
#349=VERTEX_POINT('',#1258);
#350=VERTEX_POINT('',#1260);
#351=VERTEX_POINT('',#1264);
#352=VERTEX_POINT('',#1266);
#353=VERTEX_POINT('',#1270);
#354=VERTEX_POINT('',#1272);
#355=VERTEX_POINT('',#1274);
#356=VERTEX_POINT('',#1276);
#357=VERTEX_POINT('',#1278);
#358=VERTEX_POINT('',#1280);
#359=VERTEX_POINT('',#1282);
#360=VERTEX_POINT('',#1297);
#361=VERTEX_POINT('',#1299);
#362=VERTEX_POINT('',#1305);
#363=VERTEX_POINT('',#1307);
#364=VERTEX_POINT('',#1310);
#365=VERTEX_POINT('',#1313);
#366=VERTEX_POINT('',#1318);
#367=VERTEX_POINT('',#1319);
#368=VERTEX_POINT('',#1321);
#369=VERTEX_POINT('',#1323);
#370=VERTEX_POINT('',#1327);
#371=VERTEX_POINT('',#1329);
#372=VERTEX_POINT('',#1333);
#373=VERTEX_POINT('',#1335);
#374=VERTEX_POINT('',#1345);
#375=VERTEX_POINT('',#1347);
#376=VERTEX_POINT('',#1349);
#377=VERTEX_POINT('',#1351);
#378=VERTEX_POINT('',#1353);
#379=VERTEX_POINT('',#1355);
#380=VERTEX_POINT('',#1356);
#381=VERTEX_POINT('',#1358);
#382=VERTEX_POINT('',#1360);
#383=VERTEX_POINT('',#1364);
#384=VERTEX_POINT('',#1366);
#385=VERTEX_POINT('',#1370);
#386=VERTEX_POINT('',#1372);
#387=VERTEX_POINT('',#1374);
#388=VERTEX_POINT('',#1376);
#389=VERTEX_POINT('',#1378);
#390=VERTEX_POINT('',#1380);
#391=VERTEX_POINT('',#1382);
#392=VERTEX_POINT('',#1397);
#393=VERTEX_POINT('',#1399);
#394=VERTEX_POINT('',#1402);
#395=VERTEX_POINT('',#1405);
#396=VERTEX_POINT('',#1410);
#397=VERTEX_POINT('',#1412);
#398=VERTEX_POINT('',#1415);
#399=VERTEX_POINT('',#1418);
#400=VERTEX_POINT('',#1423);
#401=VERTEX_POINT('',#1425);
#402=LINE('',#1217,#450);
#403=LINE('',#1220,#451);
#404=LINE('',#1222,#452);
#405=LINE('',#1224,#453);
#406=LINE('',#1226,#454);
#407=LINE('',#1228,#455);
#408=LINE('',#1230,#456);
#409=LINE('',#1232,#457);
#410=LINE('',#1234,#458);
#411=LINE('',#1236,#459);
#412=LINE('',#1238,#460);
#413=LINE('',#1239,#461);
#414=LINE('',#1254,#462);
#415=LINE('',#1257,#463);
#416=LINE('',#1259,#464);
#417=LINE('',#1261,#465);
#418=LINE('',#1263,#466);
#419=LINE('',#1265,#467);
#420=LINE('',#1267,#468);
#421=LINE('',#1279,#469);
#422=LINE('',#1281,#470);
#423=LINE('',#1283,#471);
#424=LINE('',#1285,#472);
#425=LINE('',#1286,#473);
#426=LINE('',#1317,#474);
#427=LINE('',#1320,#475);
#428=LINE('',#1322,#476);
#429=LINE('',#1324,#477);
#430=LINE('',#1326,#478);
#431=LINE('',#1328,#479);
#432=LINE('',#1330,#480);
#433=LINE('',#1332,#481);
#434=LINE('',#1334,#482);
#435=LINE('',#1336,#483);
#436=LINE('',#1338,#484);
#437=LINE('',#1339,#485);
#438=LINE('',#1354,#486);
#439=LINE('',#1357,#487);
#440=LINE('',#1359,#488);
#441=LINE('',#1361,#489);
#442=LINE('',#1363,#490);
#443=LINE('',#1365,#491);
#444=LINE('',#1367,#492);
#445=LINE('',#1379,#493);
#446=LINE('',#1381,#494);
#447=LINE('',#1383,#495);
#448=LINE('',#1385,#496);
#449=LINE('',#1386,#497);
#450=VECTOR('',#977,1.);
#451=VECTOR('',#978,1.);
#452=VECTOR('',#979,1.);
#453=VECTOR('',#980,1.);
#454=VECTOR('',#983,1.);
#455=VECTOR('',#984,1.);
#456=VECTOR('',#985,1.);
#457=VECTOR('',#988,1.);
#458=VECTOR('',#989,1.);
#459=VECTOR('',#990,1.);
#460=VECTOR('',#993,1.);
#461=VECTOR('',#994,1.);
#462=VECTOR('',#1013,1.);
#463=VECTOR('',#1014,1.);
#464=VECTOR('',#1015,1.);
#465=VECTOR('',#1016,1.);
#466=VECTOR('',#1019,1.);
#467=VECTOR('',#1020,1.);
#468=VECTOR('',#1021,1.);
#469=VECTOR('',#1034,1.);
#470=VECTOR('',#1035,1.);
#471=VECTOR('',#1036,1.);
#472=VECTOR('',#1039,1.);
#473=VECTOR('',#1040,1.);
#474=VECTOR('',#1089,1.);
#475=VECTOR('',#1090,1.);
#476=VECTOR('',#1091,1.);
#477=VECTOR('',#1092,1.);
#478=VECTOR('',#1095,1.);
#479=VECTOR('',#1096,1.);
#480=VECTOR('',#1097,1.);
#481=VECTOR('',#1100,1.);
#482=VECTOR('',#1101,1.);
#483=VECTOR('',#1102,1.);
#484=VECTOR('',#1105,1.);
#485=VECTOR('',#1106,1.);
#486=VECTOR('',#1125,1.);
#487=VECTOR('',#1126,1.);
#488=VECTOR('',#1127,1.);
#489=VECTOR('',#1128,1.);
#490=VECTOR('',#1131,1.);
#491=VECTOR('',#1132,1.);
#492=VECTOR('',#1133,1.);
#493=VECTOR('',#1146,1.);
#494=VECTOR('',#1147,1.);
#495=VECTOR('',#1148,1.);
#496=VECTOR('',#1151,1.);
#497=VECTOR('',#1152,1.);
#498=EDGE_LOOP('',(#82,#83,#84,#85));
#499=EDGE_LOOP('',(#86,#87,#88,#89));
#500=EDGE_LOOP('',(#90,#91,#92,#93));
#501=EDGE_LOOP('',(#94,#95,#96,#97));
#502=EDGE_LOOP('',(#98,#99,#100,#101));
#503=EDGE_LOOP('',(#102,#103,#104,#105));
#504=EDGE_LOOP('',(#106));
#505=EDGE_LOOP('',(#107));
#506=EDGE_LOOP('',(#108));
#507=EDGE_LOOP('',(#109));
#508=EDGE_LOOP('',(#110));
#509=EDGE_LOOP('',(#111,#112,#113,#114));
#510=EDGE_LOOP('',(#115,#116,#117,#118));
#511=EDGE_LOOP('',(#119));
#512=EDGE_LOOP('',(#120));
#513=EDGE_LOOP('',(#121));
#514=EDGE_LOOP('',(#122));
#515=EDGE_LOOP('',(#123));
#516=EDGE_LOOP('',(#124,#125,#126,#127));
#517=EDGE_LOOP('',(#128,#129,#130,#131));
#518=EDGE_LOOP('',(#132,#133,#134,#135));
#519=EDGE_LOOP('',(#136,#137,#138,#139));
#520=EDGE_LOOP('',(#140));
#521=EDGE_LOOP('',(#141));
#522=EDGE_LOOP('',(#142));
#523=EDGE_LOOP('',(#143));
#524=EDGE_LOOP('',(#144));
#525=EDGE_LOOP('',(#145));
#526=EDGE_LOOP('',(#146));
#527=EDGE_LOOP('',(#147));
#528=EDGE_LOOP('',(#148));
#529=EDGE_LOOP('',(#149));
#530=EDGE_LOOP('',(#150));
#531=EDGE_LOOP('',(#151));
#532=EDGE_LOOP('',(#152));
#533=EDGE_LOOP('',(#153));
#534=EDGE_LOOP('',(#154));
#535=EDGE_LOOP('',(#155));
#536=EDGE_LOOP('',(#156));
#537=EDGE_LOOP('',(#157));
#538=EDGE_LOOP('',(#158));
#539=EDGE_LOOP('',(#159));
#540=EDGE_LOOP('',(#160));
#541=EDGE_LOOP('',(#161));
#542=EDGE_LOOP('',(#162,#163,#164,#165));
#543=EDGE_LOOP('',(#166,#167,#168,#169));
#544=EDGE_LOOP('',(#170,#171,#172,#173));
#545=EDGE_LOOP('',(#174,#175,#176,#177));
#546=EDGE_LOOP('',(#178,#179,#180,#181));
#547=EDGE_LOOP('',(#182,#183,#184,#185));
#548=EDGE_LOOP('',(#186));
#549=EDGE_LOOP('',(#187));
#550=EDGE_LOOP('',(#188));
#551=EDGE_LOOP('',(#189));
#552=EDGE_LOOP('',(#190));
#553=EDGE_LOOP('',(#191,#192,#193,#194));
#554=EDGE_LOOP('',(#195,#196,#197,#198));
#555=EDGE_LOOP('',(#199));
#556=EDGE_LOOP('',(#200));
#557=EDGE_LOOP('',(#201));
#558=EDGE_LOOP('',(#202));
#559=EDGE_LOOP('',(#203));
#560=EDGE_LOOP('',(#204,#205,#206,#207));
#561=EDGE_LOOP('',(#208,#209,#210,#211));
#562=EDGE_LOOP('',(#212,#213,#214,#215));
#563=EDGE_LOOP('',(#216,#217,#218,#219));
#564=EDGE_LOOP('',(#220));
#565=EDGE_LOOP('',(#221));
#566=EDGE_LOOP('',(#222));
#567=EDGE_LOOP('',(#223));
#568=EDGE_LOOP('',(#224));
#569=EDGE_LOOP('',(#225));
#570=EDGE_LOOP('',(#226));
#571=EDGE_LOOP('',(#227));
#572=EDGE_LOOP('',(#228));
#573=EDGE_LOOP('',(#229));
#574=EDGE_LOOP('',(#230));
#575=EDGE_LOOP('',(#231));
#576=EDGE_LOOP('',(#232));
#577=EDGE_LOOP('',(#233));
#578=EDGE_LOOP('',(#234));
#579=EDGE_LOOP('',(#235));
#580=EDGE_LOOP('',(#236));
#581=EDGE_LOOP('',(#237));
#582=EDGE_LOOP('',(#238));
#583=EDGE_LOOP('',(#239));
#584=EDGE_LOOP('',(#240));
#585=EDGE_LOOP('',(#241));
#586=EDGE_LOOP('',(#242));
#587=EDGE_LOOP('',(#243));
#588=EDGE_LOOP('',(#244));
#589=EDGE_LOOP('',(#245));
#590=EDGE_LOOP('',(#246));
#591=EDGE_LOOP('',(#247));
#592=EDGE_LOOP('',(#248));
#593=EDGE_LOOP('',(#249));
#594=FACE_BOUND('',#498,.T.);
#595=FACE_BOUND('',#499,.T.);
#596=FACE_BOUND('',#500,.T.);
#597=FACE_BOUND('',#501,.T.);
#598=FACE_BOUND('',#502,.T.);
#599=FACE_BOUND('',#503,.T.);
#600=FACE_BOUND('',#504,.T.);
#601=FACE_BOUND('',#505,.T.);
#602=FACE_BOUND('',#506,.T.);
#603=FACE_BOUND('',#507,.T.);
#604=FACE_BOUND('',#508,.T.);
#605=FACE_BOUND('',#509,.T.);
#606=FACE_BOUND('',#510,.T.);
#607=FACE_BOUND('',#511,.T.);
#608=FACE_BOUND('',#512,.T.);
#609=FACE_BOUND('',#513,.T.);
#610=FACE_BOUND('',#514,.T.);
#611=FACE_BOUND('',#515,.T.);
#612=FACE_BOUND('',#516,.T.);
#613=FACE_BOUND('',#517,.T.);
#614=FACE_BOUND('',#518,.T.);
#615=FACE_BOUND('',#519,.T.);
#616=FACE_BOUND('',#520,.T.);
#617=FACE_BOUND('',#521,.T.);
#618=FACE_BOUND('',#522,.T.);
#619=FACE_BOUND('',#523,.T.);
#620=FACE_BOUND('',#524,.T.);
#621=FACE_BOUND('',#525,.T.);
#622=FACE_BOUND('',#526,.T.);
#623=FACE_BOUND('',#527,.T.);
#624=FACE_BOUND('',#528,.T.);
#625=FACE_BOUND('',#529,.T.);
#626=FACE_BOUND('',#530,.T.);
#627=FACE_BOUND('',#531,.T.);
#628=FACE_BOUND('',#532,.T.);
#629=FACE_BOUND('',#533,.T.);
#630=FACE_BOUND('',#534,.T.);
#631=FACE_BOUND('',#535,.T.);
#632=FACE_BOUND('',#536,.T.);
#633=FACE_BOUND('',#537,.T.);
#634=FACE_BOUND('',#538,.T.);
#635=FACE_BOUND('',#539,.T.);
#636=FACE_BOUND('',#540,.T.);
#637=FACE_BOUND('',#541,.T.);
#638=FACE_BOUND('',#542,.T.);
#639=FACE_BOUND('',#543,.T.);
#640=FACE_BOUND('',#544,.T.);
#641=FACE_BOUND('',#545,.T.);
#642=FACE_BOUND('',#546,.T.);
#643=FACE_BOUND('',#547,.T.);
#644=FACE_BOUND('',#548,.T.);
#645=FACE_BOUND('',#549,.T.);
#646=FACE_BOUND('',#550,.T.);
#647=FACE_BOUND('',#551,.T.);
#648=FACE_BOUND('',#552,.T.);
#649=FACE_BOUND('',#553,.T.);
#650=FACE_BOUND('',#554,.T.);
#651=FACE_BOUND('',#555,.T.);
#652=FACE_BOUND('',#556,.T.);
#653=FACE_BOUND('',#557,.T.);
#654=FACE_BOUND('',#558,.T.);
#655=FACE_BOUND('',#559,.T.);
#656=FACE_BOUND('',#560,.T.);
#657=FACE_BOUND('',#561,.T.);
#658=FACE_BOUND('',#562,.T.);
#659=FACE_BOUND('',#563,.T.);
#660=FACE_BOUND('',#564,.T.);
#661=FACE_BOUND('',#565,.T.);
#662=FACE_BOUND('',#566,.T.);
#663=FACE_BOUND('',#567,.T.);
#664=FACE_BOUND('',#568,.T.);
#665=FACE_BOUND('',#569,.T.);
#666=FACE_BOUND('',#570,.T.);
#667=FACE_BOUND('',#571,.T.);
#668=FACE_BOUND('',#572,.T.);
#669=FACE_BOUND('',#573,.T.);
#670=FACE_BOUND('',#574,.T.);
#671=FACE_BOUND('',#575,.T.);
#672=FACE_BOUND('',#576,.T.);
#673=FACE_BOUND('',#577,.T.);
#674=FACE_BOUND('',#578,.T.);
#675=FACE_BOUND('',#579,.T.);
#676=FACE_BOUND('',#580,.T.);
#677=FACE_BOUND('',#581,.T.);
#678=FACE_BOUND('',#582,.T.);
#679=FACE_BOUND('',#583,.T.);
#680=FACE_BOUND('',#584,.T.);
#681=FACE_BOUND('',#585,.T.);
#682=FACE_BOUND('',#586,.T.);
#683=FACE_BOUND('',#587,.T.);
#684=FACE_BOUND('',#588,.T.);
#685=FACE_BOUND('',#589,.T.);
#686=FACE_BOUND('',#590,.T.);
#687=FACE_BOUND('',#591,.T.);
#688=FACE_BOUND('',#592,.T.);
#689=FACE_BOUND('',#593,.T.);
#690=PLANE('',#877);
#691=PLANE('',#878);
#692=PLANE('',#879);
#693=PLANE('',#880);
#694=PLANE('',#881);
#695=PLANE('',#882);
#696=PLANE('',#884);
#697=PLANE('',#890);
#698=PLANE('',#891);
#699=PLANE('',#897);
#700=PLANE('',#898);
#701=PLANE('',#899);
#702=PLANE('',#909);
#703=PLANE('',#910);
#704=PLANE('',#915);
#705=PLANE('',#917);
#706=PLANE('',#921);
#707=PLANE('',#922);
#708=PLANE('',#923);
#709=PLANE('',#924);
#710=PLANE('',#925);
#711=PLANE('',#926);
#712=PLANE('',#928);
#713=PLANE('',#934);
#714=PLANE('',#935);
#715=PLANE('',#941);
#716=PLANE('',#942);
#717=PLANE('',#943);
#718=PLANE('',#953);
#719=PLANE('',#955);
#720=PLANE('',#962);
#721=PLANE('',#964);
#722=PLANE('',#971);
#723=PLANE('',#972);
#724=ADVANCED_FACE('',(#594),#690,.T.);
#725=ADVANCED_FACE('',(#595),#691,.F.);
#726=ADVANCED_FACE('',(#596),#692,.F.);
#727=ADVANCED_FACE('',(#597),#693,.T.);
#728=ADVANCED_FACE('',(#598),#694,.T.);
#729=ADVANCED_FACE('',(#599),#695,.F.);
#730=ADVANCED_FACE('',(#600,#601,#602,#603,#604,#605),#696,.T.);
#731=ADVANCED_FACE('',(#606),#697,.F.);
#732=ADVANCED_FACE('',(#607,#608,#609,#610,#611,#612),#698,.F.);
#733=ADVANCED_FACE('',(#613),#699,.T.);
#734=ADVANCED_FACE('',(#614),#700,.T.);
#735=ADVANCED_FACE('',(#615),#701,.F.);
#736=ADVANCED_FACE('',(#616,#617),#10,.F.);
#737=ADVANCED_FACE('',(#618,#619),#11,.F.);
#738=ADVANCED_FACE('',(#620,#621),#12,.F.);
#739=ADVANCED_FACE('',(#622,#623),#13,.F.);
#740=ADVANCED_FACE('',(#624,#625),#14,.F.);
#741=ADVANCED_FACE('',(#626,#627),#15,.T.);
#742=ADVANCED_FACE('',(#628),#702,.T.);
#743=ADVANCED_FACE('',(#629),#703,.F.);
#744=ADVANCED_FACE('',(#630,#631),#16,.T.);
#745=ADVANCED_FACE('',(#632,#633),#704,.T.);
#746=ADVANCED_FACE('',(#634,#635),#705,.F.);
#747=ADVANCED_FACE('',(#636,#637),#17,.F.);
#748=ADVANCED_FACE('',(#638),#706,.T.);
#749=ADVANCED_FACE('',(#639),#707,.F.);
#750=ADVANCED_FACE('',(#640),#708,.F.);
#751=ADVANCED_FACE('',(#641),#709,.T.);
#752=ADVANCED_FACE('',(#642),#710,.T.);
#753=ADVANCED_FACE('',(#643),#711,.F.);
#754=ADVANCED_FACE('',(#644,#645,#646,#647,#648,#649),#712,.T.);
#755=ADVANCED_FACE('',(#650),#713,.F.);
#756=ADVANCED_FACE('',(#651,#652,#653,#654,#655,#656),#714,.F.);
#757=ADVANCED_FACE('',(#657),#715,.T.);
#758=ADVANCED_FACE('',(#658),#716,.T.);
#759=ADVANCED_FACE('',(#659),#717,.F.);
#760=ADVANCED_FACE('',(#660,#661),#18,.F.);
#761=ADVANCED_FACE('',(#662,#663),#19,.F.);
#762=ADVANCED_FACE('',(#664,#665),#20,.F.);
#763=ADVANCED_FACE('',(#666,#667),#21,.F.);
#764=ADVANCED_FACE('',(#668,#669),#22,.F.);
#765=ADVANCED_FACE('',(#670,#671),#23,.T.);
#766=ADVANCED_FACE('',(#672,#673),#718,.T.);
#767=ADVANCED_FACE('',(#674,#675),#719,.F.);
#768=ADVANCED_FACE('',(#676,#677),#24,.F.);
#769=ADVANCED_FACE('',(#678,#679),#25,.T.);
#770=ADVANCED_FACE('',(#680,#681),#720,.T.);
#771=ADVANCED_FACE('',(#682,#683),#721,.F.);
#772=ADVANCED_FACE('',(#684,#685),#26,.F.);
#773=ADVANCED_FACE('',(#686,#687),#27,.T.);
#774=ADVANCED_FACE('',(#688),#722,.T.);
#775=ADVANCED_FACE('',(#689),#723,.F.);
#776=CLOSED_SHELL('',(#724,#725,#726,#727,#728,#729));
#777=CLOSED_SHELL('',(#730,#731,#732,#733,#734,#735,#736,#737,#738,#739,
#740));
#778=CLOSED_SHELL('',(#741,#742,#743));
#779=CLOSED_SHELL('',(#744,#745,#746,#747));
#780=CLOSED_SHELL('',(#748,#749,#750,#751,#752,#753));
#781=CLOSED_SHELL('',(#754,#755,#756,#757,#758,#759,#760,#761,#762,#763,
#764));
#782=CLOSED_SHELL('',(#765,#766,#767,#768));
#783=CLOSED_SHELL('',(#769,#770,#771,#772));
#784=CLOSED_SHELL('',(#773,#774,#775));
#785=STYLED_ITEM('',(#794),#849);
#786=STYLED_ITEM('',(#795),#850);
#787=STYLED_ITEM('',(#796),#851);
#788=STYLED_ITEM('',(#797),#852);
#789=STYLED_ITEM('',(#798),#853);
#790=STYLED_ITEM('',(#799),#854);
#791=STYLED_ITEM('',(#800),#855);
#792=STYLED_ITEM('',(#801),#856);
#793=STYLED_ITEM('',(#802),#857);
#794=PRESENTATION_STYLE_ASSIGNMENT((#803));
#795=PRESENTATION_STYLE_ASSIGNMENT((#804));
#796=PRESENTATION_STYLE_ASSIGNMENT((#805));
#797=PRESENTATION_STYLE_ASSIGNMENT((#806));
#798=PRESENTATION_STYLE_ASSIGNMENT((#807));
#799=PRESENTATION_STYLE_ASSIGNMENT((#808));
#800=PRESENTATION_STYLE_ASSIGNMENT((#809));
#801=PRESENTATION_STYLE_ASSIGNMENT((#810));
#802=PRESENTATION_STYLE_ASSIGNMENT((#811));
#803=SURFACE_STYLE_USAGE(.BOTH.,#812);
#804=SURFACE_STYLE_USAGE(.BOTH.,#813);
#805=SURFACE_STYLE_USAGE(.BOTH.,#814);
#806=SURFACE_STYLE_USAGE(.BOTH.,#815);
#807=SURFACE_STYLE_USAGE(.BOTH.,#816);
#808=SURFACE_STYLE_USAGE(.BOTH.,#817);
#809=SURFACE_STYLE_USAGE(.BOTH.,#818);
#810=SURFACE_STYLE_USAGE(.BOTH.,#819);
#811=SURFACE_STYLE_USAGE(.BOTH.,#820);
#812=SURFACE_SIDE_STYLE('',(#821));
#813=SURFACE_SIDE_STYLE('',(#822));
#814=SURFACE_SIDE_STYLE('',(#823));
#815=SURFACE_SIDE_STYLE('',(#824));
#816=SURFACE_SIDE_STYLE('',(#825));
#817=SURFACE_SIDE_STYLE('',(#826));
#818=SURFACE_SIDE_STYLE('',(#827));
#819=SURFACE_SIDE_STYLE('',(#828));
#820=SURFACE_SIDE_STYLE('',(#829));
#821=SURFACE_STYLE_FILL_AREA(#830);
#822=SURFACE_STYLE_FILL_AREA(#831);
#823=SURFACE_STYLE_FILL_AREA(#832);
#824=SURFACE_STYLE_FILL_AREA(#833);
#825=SURFACE_STYLE_FILL_AREA(#834);
#826=SURFACE_STYLE_FILL_AREA(#835);
#827=SURFACE_STYLE_FILL_AREA(#836);
#828=SURFACE_STYLE_FILL_AREA(#837);
#829=SURFACE_STYLE_FILL_AREA(#838);
#830=FILL_AREA_STYLE('',(#839));
#831=FILL_AREA_STYLE('',(#840));
#832=FILL_AREA_STYLE('',(#841));
#833=FILL_AREA_STYLE('',(#842));
#834=FILL_AREA_STYLE('',(#843));
#835=FILL_AREA_STYLE('',(#844));
#836=FILL_AREA_STYLE('',(#845));
#837=FILL_AREA_STYLE('',(#846));
#838=FILL_AREA_STYLE('',(#847));
#839=FILL_AREA_STYLE_COLOUR('',#848);
#840=FILL_AREA_STYLE_COLOUR('',#848);
#841=FILL_AREA_STYLE_COLOUR('',#848);
#842=FILL_AREA_STYLE_COLOUR('',#848);
#843=FILL_AREA_STYLE_COLOUR('',#848);
#844=FILL_AREA_STYLE_COLOUR('',#848);
#845=FILL_AREA_STYLE_COLOUR('',#848);
#846=FILL_AREA_STYLE_COLOUR('',#848);
#847=FILL_AREA_STYLE_COLOUR('',#848);
#848=COLOUR_RGB('',0.615686274509804,0.811764705882353,0.929411764705882);
#849=MANIFOLD_SOLID_BREP('rearCrossmember',#776);
#850=MANIFOLD_SOLID_BREP('rightPlate',#777);
#851=MANIFOLD_SOLID_BREP('frontShaft',#778);
#852=MANIFOLD_SOLID_BREP('frontRoller',#779);
#853=MANIFOLD_SOLID_BREP('frontCrossmember',#780);
#854=MANIFOLD_SOLID_BREP('leftPlate',#781);
#855=MANIFOLD_SOLID_BREP('coralReference [REFERENCE - NON-BOM]',#782);
#856=MANIFOLD_SOLID_BREP('rearRoller',#783);
#857=MANIFOLD_SOLID_BREP('rearShaft',#784);
#858=SHAPE_DEFINITION_REPRESENTATION(#1482,#867);
#859=SHAPE_DEFINITION_REPRESENTATION(#1483,#868);
#860=SHAPE_DEFINITION_REPRESENTATION(#1484,#869);
#861=SHAPE_DEFINITION_REPRESENTATION(#1485,#870);
#862=SHAPE_DEFINITION_REPRESENTATION(#1486,#871);
#863=SHAPE_DEFINITION_REPRESENTATION(#1487,#872);
#864=SHAPE_DEFINITION_REPRESENTATION(#1488,#873);
#865=SHAPE_DEFINITION_REPRESENTATION(#1489,#874);
#866=SHAPE_DEFINITION_REPRESENTATION(#1490,#875);
#867=SHAPE_REPRESENTATION('rearCrossmember',(#876),#1437);
#868=SHAPE_REPRESENTATION('rightPlate',(#883),#1438);
#869=SHAPE_REPRESENTATION('frontShaft',(#905),#1439);
#870=SHAPE_REPRESENTATION('frontRoller',(#911),#1440);
#871=SHAPE_REPRESENTATION('frontCrossmember',(#920),#1441);
#872=SHAPE_REPRESENTATION('leftPlate',(#927),#1442);
#873=SHAPE_REPRESENTATION('coralReference [REFERENCE - NON-BOM]',(#949),
#1443);
#874=SHAPE_REPRESENTATION('rearRoller',(#958),#1444);
#875=SHAPE_REPRESENTATION('rearShaft',(#967),#1445);
#876=AXIS2_PLACEMENT_3D('',#1215,#973,#974);
#877=AXIS2_PLACEMENT_3D('',#1216,#975,#976);
#878=AXIS2_PLACEMENT_3D('',#1225,#981,#982);
#879=AXIS2_PLACEMENT_3D('',#1231,#986,#987);
#880=AXIS2_PLACEMENT_3D('',#1237,#991,#992);
#881=AXIS2_PLACEMENT_3D('',#1240,#995,#996);
#882=AXIS2_PLACEMENT_3D('',#1241,#997,#998);
#883=AXIS2_PLACEMENT_3D('',#1242,#999,#1000);
#884=AXIS2_PLACEMENT_3D('',#1243,#1001,#1002);
#885=AXIS2_PLACEMENT_3D('',#1244,#1003,#1004);
#886=AXIS2_PLACEMENT_3D('',#1246,#1005,#1006);
#887=AXIS2_PLACEMENT_3D('',#1248,#1007,#1008);
#888=AXIS2_PLACEMENT_3D('',#1250,#1009,#1010);
#889=AXIS2_PLACEMENT_3D('',#1252,#1011,#1012);
#890=AXIS2_PLACEMENT_3D('',#1262,#1017,#1018);
#891=AXIS2_PLACEMENT_3D('',#1268,#1022,#1023);
#892=AXIS2_PLACEMENT_3D('',#1269,#1024,#1025);
#893=AXIS2_PLACEMENT_3D('',#1271,#1026,#1027);
#894=AXIS2_PLACEMENT_3D('',#1273,#1028,#1029);
#895=AXIS2_PLACEMENT_3D('',#1275,#1030,#1031);
#896=AXIS2_PLACEMENT_3D('',#1277,#1032,#1033);
#897=AXIS2_PLACEMENT_3D('',#1284,#1037,#1038);
#898=AXIS2_PLACEMENT_3D('',#1287,#1041,#1042);
#899=AXIS2_PLACEMENT_3D('',#1288,#1043,#1044);
#900=AXIS2_PLACEMENT_3D('',#1289,#1045,#1046);
#901=AXIS2_PLACEMENT_3D('',#1290,#1047,#1048);
#902=AXIS2_PLACEMENT_3D('',#1291,#1049,#1050);
#903=AXIS2_PLACEMENT_3D('',#1292,#1051,#1052);
#904=AXIS2_PLACEMENT_3D('',#1293,#1053,#1054);
#905=AXIS2_PLACEMENT_3D('',#1294,#1055,#1056);
#906=AXIS2_PLACEMENT_3D('',#1295,#1057,#1058);
#907=AXIS2_PLACEMENT_3D('',#1296,#1059,#1060);
#908=AXIS2_PLACEMENT_3D('',#1298,#1061,#1062);
#909=AXIS2_PLACEMENT_3D('',#1300,#1063,#1064);
#910=AXIS2_PLACEMENT_3D('',#1301,#1065,#1066);
#911=AXIS2_PLACEMENT_3D('',#1302,#1067,#1068);
#912=AXIS2_PLACEMENT_3D('',#1303,#1069,#1070);
#913=AXIS2_PLACEMENT_3D('',#1304,#1071,#1072);
#914=AXIS2_PLACEMENT_3D('',#1306,#1073,#1074);
#915=AXIS2_PLACEMENT_3D('',#1308,#1075,#1076);
#916=AXIS2_PLACEMENT_3D('',#1309,#1077,#1078);
#917=AXIS2_PLACEMENT_3D('',#1311,#1079,#1080);
#918=AXIS2_PLACEMENT_3D('',#1312,#1081,#1082);
#919=AXIS2_PLACEMENT_3D('',#1314,#1083,#1084);
#920=AXIS2_PLACEMENT_3D('',#1315,#1085,#1086);
#921=AXIS2_PLACEMENT_3D('',#1316,#1087,#1088);
#922=AXIS2_PLACEMENT_3D('',#1325,#1093,#1094);
#923=AXIS2_PLACEMENT_3D('',#1331,#1098,#1099);
#924=AXIS2_PLACEMENT_3D('',#1337,#1103,#1104);
#925=AXIS2_PLACEMENT_3D('',#1340,#1107,#1108);
#926=AXIS2_PLACEMENT_3D('',#1341,#1109,#1110);
#927=AXIS2_PLACEMENT_3D('',#1342,#1111,#1112);
#928=AXIS2_PLACEMENT_3D('',#1343,#1113,#1114);
#929=AXIS2_PLACEMENT_3D('',#1344,#1115,#1116);
#930=AXIS2_PLACEMENT_3D('',#1346,#1117,#1118);
#931=AXIS2_PLACEMENT_3D('',#1348,#1119,#1120);
#932=AXIS2_PLACEMENT_3D('',#1350,#1121,#1122);
#933=AXIS2_PLACEMENT_3D('',#1352,#1123,#1124);
#934=AXIS2_PLACEMENT_3D('',#1362,#1129,#1130);
#935=AXIS2_PLACEMENT_3D('',#1368,#1134,#1135);
#936=AXIS2_PLACEMENT_3D('',#1369,#1136,#1137);
#937=AXIS2_PLACEMENT_3D('',#1371,#1138,#1139);
#938=AXIS2_PLACEMENT_3D('',#1373,#1140,#1141);
#939=AXIS2_PLACEMENT_3D('',#1375,#1142,#1143);
#940=AXIS2_PLACEMENT_3D('',#1377,#1144,#1145);
#941=AXIS2_PLACEMENT_3D('',#1384,#1149,#1150);
#942=AXIS2_PLACEMENT_3D('',#1387,#1153,#1154);
#943=AXIS2_PLACEMENT_3D('',#1388,#1155,#1156);
#944=AXIS2_PLACEMENT_3D('',#1389,#1157,#1158);
#945=AXIS2_PLACEMENT_3D('',#1390,#1159,#1160);
#946=AXIS2_PLACEMENT_3D('',#1391,#1161,#1162);
#947=AXIS2_PLACEMENT_3D('',#1392,#1163,#1164);
#948=AXIS2_PLACEMENT_3D('',#1393,#1165,#1166);
#949=AXIS2_PLACEMENT_3D('',#1394,#1167,#1168);
#950=AXIS2_PLACEMENT_3D('',#1395,#1169,#1170);
#951=AXIS2_PLACEMENT_3D('',#1396,#1171,#1172);
#952=AXIS2_PLACEMENT_3D('',#1398,#1173,#1174);
#953=AXIS2_PLACEMENT_3D('',#1400,#1175,#1176);
#954=AXIS2_PLACEMENT_3D('',#1401,#1177,#1178);
#955=AXIS2_PLACEMENT_3D('',#1403,#1179,#1180);
#956=AXIS2_PLACEMENT_3D('',#1404,#1181,#1182);
#957=AXIS2_PLACEMENT_3D('',#1406,#1183,#1184);
#958=AXIS2_PLACEMENT_3D('',#1407,#1185,#1186);
#959=AXIS2_PLACEMENT_3D('',#1408,#1187,#1188);
#960=AXIS2_PLACEMENT_3D('',#1409,#1189,#1190);
#961=AXIS2_PLACEMENT_3D('',#1411,#1191,#1192);
#962=AXIS2_PLACEMENT_3D('',#1413,#1193,#1194);
#963=AXIS2_PLACEMENT_3D('',#1414,#1195,#1196);
#964=AXIS2_PLACEMENT_3D('',#1416,#1197,#1198);
#965=AXIS2_PLACEMENT_3D('',#1417,#1199,#1200);
#966=AXIS2_PLACEMENT_3D('',#1419,#1201,#1202);
#967=AXIS2_PLACEMENT_3D('',#1420,#1203,#1204);
#968=AXIS2_PLACEMENT_3D('',#1421,#1205,#1206);
#969=AXIS2_PLACEMENT_3D('',#1422,#1207,#1208);
#970=AXIS2_PLACEMENT_3D('',#1424,#1209,#1210);
#971=AXIS2_PLACEMENT_3D('',#1426,#1211,#1212);
#972=AXIS2_PLACEMENT_3D('',#1427,#1213,#1214);
#973=DIRECTION('',(0.,0.,1.));
#974=DIRECTION('',(1.,0.,0.));
#975=DIRECTION('',(-1.,0.,0.));
#976=DIRECTION('',(0.,0.,1.));
#977=DIRECTION('',(0.,1.,0.));
#978=DIRECTION('',(0.,0.,-1.));
#979=DIRECTION('',(0.,1.,0.));
#980=DIRECTION('',(0.,0.,-1.));
#981=DIRECTION('',(0.,1.,0.));
#982=DIRECTION('',(0.,0.,1.));
#983=DIRECTION('',(1.,0.,0.));
#984=DIRECTION('',(0.,0.,-1.));
#985=DIRECTION('',(1.,0.,0.));
#986=DIRECTION('',(-1.,0.,0.));
#987=DIRECTION('',(0.,0.,1.));
#988=DIRECTION('',(0.,1.,0.));
#989=DIRECTION('',(0.,0.,-1.));
#990=DIRECTION('',(0.,1.,0.));
#991=DIRECTION('',(0.,1.,0.));
#992=DIRECTION('',(0.,0.,1.));
#993=DIRECTION('',(1.,0.,0.));
#994=DIRECTION('',(1.,0.,0.));
#995=DIRECTION('',(0.,0.,1.));
#996=DIRECTION('',(1.,0.,0.));
#997=DIRECTION('',(0.,0.,1.));
#998=DIRECTION('',(1.,0.,0.));
#999=DIRECTION('',(0.,0.,1.));
#1000=DIRECTION('',(1.,0.,0.));
#1001=DIRECTION('',(-1.,0.,0.));
#1002=DIRECTION('',(0.,0.,1.));
#1003=DIRECTION('',(-1.,0.,0.));
#1004=DIRECTION('',(0.,0.,1.));
#1005=DIRECTION('',(-1.,0.,0.));
#1006=DIRECTION('',(0.,0.,1.));
#1007=DIRECTION('',(-1.,0.,0.));
#1008=DIRECTION('',(0.,0.,1.));
#1009=DIRECTION('',(-1.,0.,0.));
#1010=DIRECTION('',(0.,0.,1.));
#1011=DIRECTION('',(-1.,0.,0.));
#1012=DIRECTION('',(0.,0.,1.));
#1013=DIRECTION('',(0.,1.,0.));
#1014=DIRECTION('',(0.,0.,-1.));
#1015=DIRECTION('',(0.,1.,0.));
#1016=DIRECTION('',(0.,0.,-1.));
#1017=DIRECTION('',(0.,1.,0.));
#1018=DIRECTION('',(0.,0.,1.));
#1019=DIRECTION('',(1.,0.,0.));
#1020=DIRECTION('',(0.,0.,-1.));
#1021=DIRECTION('',(1.,0.,0.));
#1022=DIRECTION('',(-1.,0.,0.));
#1023=DIRECTION('',(0.,0.,1.));
#1024=DIRECTION('',(-1.,0.,0.));
#1025=DIRECTION('',(0.,0.,1.));
#1026=DIRECTION('',(-1.,0.,0.));
#1027=DIRECTION('',(0.,0.,1.));
#1028=DIRECTION('',(-1.,0.,0.));
#1029=DIRECTION('',(0.,0.,1.));
#1030=DIRECTION('',(-1.,0.,0.));
#1031=DIRECTION('',(0.,0.,1.));
#1032=DIRECTION('',(-1.,0.,0.));
#1033=DIRECTION('',(0.,0.,1.));
#1034=DIRECTION('',(0.,1.,0.));
#1035=DIRECTION('',(0.,0.,-1.));
#1036=DIRECTION('',(0.,1.,0.));
#1037=DIRECTION('',(0.,1.,0.));
#1038=DIRECTION('',(0.,0.,1.));
#1039=DIRECTION('',(1.,0.,0.));
#1040=DIRECTION('',(1.,0.,0.));
#1041=DIRECTION('',(0.,0.,1.));
#1042=DIRECTION('',(1.,0.,0.));
#1043=DIRECTION('',(0.,0.,1.));
#1044=DIRECTION('',(1.,0.,0.));
#1045=DIRECTION('',(-1.,0.,0.));
#1046=DIRECTION('',(0.,0.,1.));
#1047=DIRECTION('',(-1.,0.,0.));
#1048=DIRECTION('',(0.,0.,1.));
#1049=DIRECTION('',(-1.,0.,0.));
#1050=DIRECTION('',(0.,0.,1.));
#1051=DIRECTION('',(-1.,0.,0.));
#1052=DIRECTION('',(0.,0.,1.));
#1053=DIRECTION('',(-1.,0.,0.));
#1054=DIRECTION('',(0.,0.,1.));
#1055=DIRECTION('',(0.,0.,1.));
#1056=DIRECTION('',(1.,0.,0.));
#1057=DIRECTION('',(-1.,0.,0.));
#1058=DIRECTION('',(0.,0.,1.));
#1059=DIRECTION('',(1.,0.,0.));
#1060=DIRECTION('',(0.,0.,-1.));
#1061=DIRECTION('',(1.,0.,0.));
#1062=DIRECTION('',(0.,0.,-1.));
#1063=DIRECTION('',(1.,0.,0.));
#1064=DIRECTION('',(0.,1.,0.));
#1065=DIRECTION('',(1.,0.,0.));
#1066=DIRECTION('',(0.,1.,0.));
#1067=DIRECTION('',(0.,0.,1.));
#1068=DIRECTION('',(1.,0.,0.));
#1069=DIRECTION('',(-1.,0.,0.));
#1070=DIRECTION('',(0.,0.,1.));
#1071=DIRECTION('',(1.,0.,0.));
#1072=DIRECTION('',(0.,0.,-1.));
#1073=DIRECTION('',(1.,0.,0.));
#1074=DIRECTION('',(0.,0.,-1.));
#1075=DIRECTION('',(1.,0.,0.));
#1076=DIRECTION('',(0.,1.,0.));
#1077=DIRECTION('',(1.,0.,0.));
#1078=DIRECTION('',(0.,0.,-1.));
#1079=DIRECTION('',(1.,0.,0.));
#1080=DIRECTION('',(0.,1.,0.));
#1081=DIRECTION('',(1.,0.,0.));
#1082=DIRECTION('',(0.,0.,-1.));
#1083=DIRECTION('',(-1.,0.,0.));
#1084=DIRECTION('',(0.,0.,1.));
#1085=DIRECTION('',(0.,0.,1.));
#1086=DIRECTION('',(1.,0.,0.));
#1087=DIRECTION('',(-1.,0.,0.));
#1088=DIRECTION('',(0.,0.,1.));
#1089=DIRECTION('',(0.,1.,0.));
#1090=DIRECTION('',(0.,0.,-1.));
#1091=DIRECTION('',(0.,1.,0.));
#1092=DIRECTION('',(0.,0.,-1.));
#1093=DIRECTION('',(0.,1.,0.));
#1094=DIRECTION('',(0.,0.,1.));
#1095=DIRECTION('',(1.,0.,0.));
#1096=DIRECTION('',(0.,0.,-1.));
#1097=DIRECTION('',(1.,0.,0.));
#1098=DIRECTION('',(-1.,0.,0.));
#1099=DIRECTION('',(0.,0.,1.));
#1100=DIRECTION('',(0.,1.,0.));
#1101=DIRECTION('',(0.,0.,-1.));
#1102=DIRECTION('',(0.,1.,0.));
#1103=DIRECTION('',(0.,1.,0.));
#1104=DIRECTION('',(0.,0.,1.));
#1105=DIRECTION('',(1.,0.,0.));
#1106=DIRECTION('',(1.,0.,0.));
#1107=DIRECTION('',(0.,0.,1.));
#1108=DIRECTION('',(1.,0.,0.));
#1109=DIRECTION('',(0.,0.,1.));
#1110=DIRECTION('',(1.,0.,0.));
#1111=DIRECTION('',(0.,0.,1.));
#1112=DIRECTION('',(1.,0.,0.));
#1113=DIRECTION('',(-1.,0.,0.));
#1114=DIRECTION('',(0.,0.,1.));
#1115=DIRECTION('',(-1.,0.,0.));
#1116=DIRECTION('',(0.,0.,1.));
#1117=DIRECTION('',(-1.,0.,0.));
#1118=DIRECTION('',(0.,0.,1.));
#1119=DIRECTION('',(-1.,0.,0.));
#1120=DIRECTION('',(0.,0.,1.));
#1121=DIRECTION('',(-1.,0.,0.));
#1122=DIRECTION('',(0.,0.,1.));
#1123=DIRECTION('',(-1.,0.,0.));
#1124=DIRECTION('',(0.,0.,1.));
#1125=DIRECTION('',(0.,1.,0.));
#1126=DIRECTION('',(0.,0.,-1.));
#1127=DIRECTION('',(0.,1.,0.));
#1128=DIRECTION('',(0.,0.,-1.));
#1129=DIRECTION('',(0.,1.,0.));
#1130=DIRECTION('',(0.,0.,1.));
#1131=DIRECTION('',(1.,0.,0.));
#1132=DIRECTION('',(0.,0.,-1.));
#1133=DIRECTION('',(1.,0.,0.));
#1134=DIRECTION('',(-1.,0.,0.));
#1135=DIRECTION('',(0.,0.,1.));
#1136=DIRECTION('',(-1.,0.,0.));
#1137=DIRECTION('',(0.,0.,1.));
#1138=DIRECTION('',(-1.,0.,0.));
#1139=DIRECTION('',(0.,0.,1.));
#1140=DIRECTION('',(-1.,0.,0.));
#1141=DIRECTION('',(0.,0.,1.));
#1142=DIRECTION('',(-1.,0.,0.));
#1143=DIRECTION('',(0.,0.,1.));
#1144=DIRECTION('',(-1.,0.,0.));
#1145=DIRECTION('',(0.,0.,1.));
#1146=DIRECTION('',(0.,1.,0.));
#1147=DIRECTION('',(0.,0.,-1.));
#1148=DIRECTION('',(0.,1.,0.));
#1149=DIRECTION('',(0.,1.,0.));
#1150=DIRECTION('',(0.,0.,1.));
#1151=DIRECTION('',(1.,0.,0.));
#1152=DIRECTION('',(1.,0.,0.));
#1153=DIRECTION('',(0.,0.,1.));
#1154=DIRECTION('',(1.,0.,0.));
#1155=DIRECTION('',(0.,0.,1.));
#1156=DIRECTION('',(1.,0.,0.));
#1157=DIRECTION('',(-1.,0.,0.));
#1158=DIRECTION('',(0.,0.,1.));
#1159=DIRECTION('',(-1.,0.,0.));
#1160=DIRECTION('',(0.,0.,1.));
#1161=DIRECTION('',(-1.,0.,0.));
#1162=DIRECTION('',(0.,0.,1.));
#1163=DIRECTION('',(-1.,0.,0.));
#1164=DIRECTION('',(0.,0.,1.));
#1165=DIRECTION('',(-1.,0.,0.));
#1166=DIRECTION('',(0.,0.,1.));
#1167=DIRECTION('',(0.,0.,1.));
#1168=DIRECTION('',(1.,0.,0.));
#1169=DIRECTION('',(-1.,0.,0.));
#1170=DIRECTION('',(0.,0.,1.));
#1171=DIRECTION('',(1.,0.,0.));
#1172=DIRECTION('',(0.,0.,-1.));
#1173=DIRECTION('',(1.,0.,0.));
#1174=DIRECTION('',(0.,0.,-1.));
#1175=DIRECTION('',(1.,0.,0.));
#1176=DIRECTION('',(0.,1.,0.));
#1177=DIRECTION('',(1.,0.,0.));
#1178=DIRECTION('',(0.,0.,-1.));
#1179=DIRECTION('',(1.,0.,0.));
#1180=DIRECTION('',(0.,1.,0.));
#1181=DIRECTION('',(1.,0.,0.));
#1182=DIRECTION('',(0.,0.,-1.));
#1183=DIRECTION('',(-1.,0.,0.));
#1184=DIRECTION('',(0.,0.,1.));
#1185=DIRECTION('',(0.,0.,1.));
#1186=DIRECTION('',(1.,0.,0.));
#1187=DIRECTION('',(-1.,0.,0.));
#1188=DIRECTION('',(0.,0.,1.));
#1189=DIRECTION('',(1.,0.,0.));
#1190=DIRECTION('',(0.,0.,-1.));
#1191=DIRECTION('',(1.,0.,0.));
#1192=DIRECTION('',(0.,0.,-1.));
#1193=DIRECTION('',(1.,0.,0.));
#1194=DIRECTION('',(0.,1.,0.));
#1195=DIRECTION('',(1.,0.,0.));
#1196=DIRECTION('',(0.,0.,-1.));
#1197=DIRECTION('',(1.,0.,0.));
#1198=DIRECTION('',(0.,1.,0.));
#1199=DIRECTION('',(1.,0.,0.));
#1200=DIRECTION('',(0.,0.,-1.));
#1201=DIRECTION('',(-1.,0.,0.));
#1202=DIRECTION('',(0.,0.,1.));
#1203=DIRECTION('',(0.,0.,1.));
#1204=DIRECTION('',(1.,0.,0.));
#1205=DIRECTION('',(-1.,0.,0.));
#1206=DIRECTION('',(0.,0.,1.));
#1207=DIRECTION('',(1.,0.,0.));
#1208=DIRECTION('',(0.,0.,-1.));
#1209=DIRECTION('',(1.,0.,0.));
#1210=DIRECTION('',(0.,0.,-1.));
#1211=DIRECTION('',(1.,0.,0.));
#1212=DIRECTION('',(0.,1.,0.));
#1213=DIRECTION('',(1.,0.,0.));
#1214=DIRECTION('',(0.,1.,0.));
#1215=CARTESIAN_POINT('',(0.,0.,0.));
#1216=CARTESIAN_POINT('',(-0.18,0.3,0.1477));
#1217=CARTESIAN_POINT('',(-0.18,0.3,0.1223));
#1218=CARTESIAN_POINT('',(-0.18,0.2873,0.1223));
#1219=CARTESIAN_POINT('',(-0.18,0.3127,0.1223));
#1220=CARTESIAN_POINT('',(-0.18,0.2873,0.1477));
#1221=CARTESIAN_POINT('',(-0.18,0.2873,0.1477));
#1222=CARTESIAN_POINT('',(-0.18,0.3,0.1477));
#1223=CARTESIAN_POINT('',(-0.18,0.3127,0.1477));
#1224=CARTESIAN_POINT('',(-0.18,0.3127,0.1477));
#1225=CARTESIAN_POINT('',(0.,0.2873,0.1477));
#1226=CARTESIAN_POINT('',(0.,0.2873,0.1223));
#1227=CARTESIAN_POINT('',(0.18,0.2873,0.1223));
#1228=CARTESIAN_POINT('',(0.18,0.2873,0.1477));
#1229=CARTESIAN_POINT('',(0.18,0.2873,0.1477));
#1230=CARTESIAN_POINT('',(0.,0.2873,0.1477));
#1231=CARTESIAN_POINT('',(0.18,0.3,0.1477));
#1232=CARTESIAN_POINT('',(0.18,0.3,0.1223));
#1233=CARTESIAN_POINT('',(0.18,0.3127,0.1223));
#1234=CARTESIAN_POINT('',(0.18,0.3127,0.1477));
#1235=CARTESIAN_POINT('',(0.18,0.3127,0.1477));
#1236=CARTESIAN_POINT('',(0.18,0.3,0.1477));
#1237=CARTESIAN_POINT('',(0.,0.3127,0.1477));
#1238=CARTESIAN_POINT('',(0.,0.3127,0.1223));
#1239=CARTESIAN_POINT('',(0.,0.3127,0.1477));
#1240=CARTESIAN_POINT('',(0.,0.3,0.1477));
#1241=CARTESIAN_POINT('',(0.,0.3,0.1223));
#1242=CARTESIAN_POINT('',(0.,0.,0.));
#1243=CARTESIAN_POINT('',(0.18,0.16,0.1627));
#1244=CARTESIAN_POINT('',(0.18,0.025,0.13));
#1245=CARTESIAN_POINT('',(0.18,0.025,0.13645));
#1246=CARTESIAN_POINT('',(0.18,0.3,0.135));
#1247=CARTESIAN_POINT('',(0.18,0.3,0.1383));
#1248=CARTESIAN_POINT('',(0.18,0.14,0.135));
#1249=CARTESIAN_POINT('',(0.18,0.14,0.1383));
#1250=CARTESIAN_POINT('',(0.18,0.2412,0.065));
#1251=CARTESIAN_POINT('',(0.18,0.2412,0.07145));
#1252=CARTESIAN_POINT('',(0.18,0.07,0.065));
#1253=CARTESIAN_POINT('',(0.18,0.07,0.07145));
#1254=CARTESIAN_POINT('',(0.18,0.16,0.0127));
#1255=CARTESIAN_POINT('',(0.18,0.,0.0127));
#1256=CARTESIAN_POINT('',(0.18,0.32,0.0127));
#1257=CARTESIAN_POINT('',(0.18,0.,0.1627));
#1258=CARTESIAN_POINT('',(0.18,0.,0.1627));
#1259=CARTESIAN_POINT('',(0.18,0.16,0.1627));
#1260=CARTESIAN_POINT('',(0.18,0.32,0.1627));
#1261=CARTESIAN_POINT('',(0.18,0.32,0.1627));
#1262=CARTESIAN_POINT('',(0.183175,0.,0.1627));
#1263=CARTESIAN_POINT('',(0.183175,0.,0.0127));
#1264=CARTESIAN_POINT('',(0.18635,0.,0.0127));
#1265=CARTESIAN_POINT('',(0.18635,0.,0.1627));
#1266=CARTESIAN_POINT('',(0.18635,0.,0.1627));
#1267=CARTESIAN_POINT('',(0.183175,0.,0.1627));
#1268=CARTESIAN_POINT('',(0.18635,0.16,0.1627));
#1269=CARTESIAN_POINT('',(0.18635,0.025,0.13));
#1270=CARTESIAN_POINT('',(0.18635,0.025,0.13645));
#1271=CARTESIAN_POINT('',(0.18635,0.3,0.135));
#1272=CARTESIAN_POINT('',(0.18635,0.3,0.1383));
#1273=CARTESIAN_POINT('',(0.18635,0.14,0.135));
#1274=CARTESIAN_POINT('',(0.18635,0.14,0.1383));
#1275=CARTESIAN_POINT('',(0.18635,0.2412,0.065));
#1276=CARTESIAN_POINT('',(0.18635,0.2412,0.07145));
#1277=CARTESIAN_POINT('',(0.18635,0.07,0.065));
#1278=CARTESIAN_POINT('',(0.18635,0.07,0.07145));
#1279=CARTESIAN_POINT('',(0.18635,0.16,0.0127));
#1280=CARTESIAN_POINT('',(0.18635,0.32,0.0127));
#1281=CARTESIAN_POINT('',(0.18635,0.32,0.1627));
#1282=CARTESIAN_POINT('',(0.18635,0.32,0.1627));
#1283=CARTESIAN_POINT('',(0.18635,0.16,0.1627));
#1284=CARTESIAN_POINT('',(0.183175,0.32,0.1627));
#1285=CARTESIAN_POINT('',(0.183175,0.32,0.0127));
#1286=CARTESIAN_POINT('',(0.183175,0.32,0.1627));
#1287=CARTESIAN_POINT('',(0.183175,0.16,0.1627));
#1288=CARTESIAN_POINT('',(0.183175,0.16,0.0127));
#1289=CARTESIAN_POINT('',(0.18735,0.07,0.065));
#1290=CARTESIAN_POINT('',(0.18735,0.2412,0.065));
#1291=CARTESIAN_POINT('',(0.18735,0.14,0.135));
#1292=CARTESIAN_POINT('',(0.18735,0.3,0.135));
#1293=CARTESIAN_POINT('',(0.18735,0.025,0.13));
#1294=CARTESIAN_POINT('',(0.,0.,0.));
#1295=CARTESIAN_POINT('',(0.19905,0.07,0.065));
#1296=CARTESIAN_POINT('',(0.19905,0.07,0.065));
#1297=CARTESIAN_POINT('',(0.19905,0.07,0.05865));
#1298=CARTESIAN_POINT('',(-0.19905,0.07,0.065));
#1299=CARTESIAN_POINT('',(-0.19905,0.07,0.05865));
#1300=CARTESIAN_POINT('',(0.19905,0.07,0.065));
#1301=CARTESIAN_POINT('',(-0.19905,0.07,0.065));
#1302=CARTESIAN_POINT('',(0.,0.,0.));
#1303=CARTESIAN_POINT('',(0.175,0.07,0.065));
#1304=CARTESIAN_POINT('',(0.175,0.07,0.065));
#1305=CARTESIAN_POINT('',(0.175,0.07,0.0269));
#1306=CARTESIAN_POINT('',(-0.175,0.07,0.065));
#1307=CARTESIAN_POINT('',(-0.175,0.07,0.0269));
#1308=CARTESIAN_POINT('',(0.175,0.07,0.065));
#1309=CARTESIAN_POINT('',(0.175,0.07,0.065));
#1310=CARTESIAN_POINT('',(0.175,0.07,0.05865));
#1311=CARTESIAN_POINT('',(-0.175,0.07,0.065));
#1312=CARTESIAN_POINT('',(-0.175,0.07,0.065));
#1313=CARTESIAN_POINT('',(-0.175,0.07,0.05865));
#1314=CARTESIAN_POINT('',(0.176,0.07,0.065));
#1315=CARTESIAN_POINT('',(0.,0.,0.));
#1316=CARTESIAN_POINT('',(-0.18,0.14,0.1477));
#1317=CARTESIAN_POINT('',(-0.18,0.14,0.1223));
#1318=CARTESIAN_POINT('',(-0.18,0.1273,0.1223));
#1319=CARTESIAN_POINT('',(-0.18,0.1527,0.1223));
#1320=CARTESIAN_POINT('',(-0.18,0.1273,0.1477));
#1321=CARTESIAN_POINT('',(-0.18,0.1273,0.1477));
#1322=CARTESIAN_POINT('',(-0.18,0.14,0.1477));
#1323=CARTESIAN_POINT('',(-0.18,0.1527,0.1477));
#1324=CARTESIAN_POINT('',(-0.18,0.1527,0.1477));
#1325=CARTESIAN_POINT('',(0.,0.1273,0.1477));
#1326=CARTESIAN_POINT('',(0.,0.1273,0.1223));
#1327=CARTESIAN_POINT('',(0.18,0.1273,0.1223));
#1328=CARTESIAN_POINT('',(0.18,0.1273,0.1477));
#1329=CARTESIAN_POINT('',(0.18,0.1273,0.1477));
#1330=CARTESIAN_POINT('',(0.,0.1273,0.1477));
#1331=CARTESIAN_POINT('',(0.18,0.14,0.1477));
#1332=CARTESIAN_POINT('',(0.18,0.14,0.1223));
#1333=CARTESIAN_POINT('',(0.18,0.1527,0.1223));
#1334=CARTESIAN_POINT('',(0.18,0.1527,0.1477));
#1335=CARTESIAN_POINT('',(0.18,0.1527,0.1477));
#1336=CARTESIAN_POINT('',(0.18,0.14,0.1477));
#1337=CARTESIAN_POINT('',(0.,0.1527,0.1477));
#1338=CARTESIAN_POINT('',(0.,0.1527,0.1223));
#1339=CARTESIAN_POINT('',(0.,0.1527,0.1477));
#1340=CARTESIAN_POINT('',(0.,0.14,0.1477));
#1341=CARTESIAN_POINT('',(0.,0.14,0.1223));
#1342=CARTESIAN_POINT('',(0.,0.,0.));
#1343=CARTESIAN_POINT('',(-0.18635,0.16,0.1627));
#1344=CARTESIAN_POINT('',(-0.18635,0.025,0.13));
#1345=CARTESIAN_POINT('',(-0.18635,0.025,0.13645));
#1346=CARTESIAN_POINT('',(-0.18635,0.3,0.135));
#1347=CARTESIAN_POINT('',(-0.18635,0.3,0.1383));
#1348=CARTESIAN_POINT('',(-0.18635,0.14,0.135));
#1349=CARTESIAN_POINT('',(-0.18635,0.14,0.1383));
#1350=CARTESIAN_POINT('',(-0.18635,0.2412,0.065));
#1351=CARTESIAN_POINT('',(-0.18635,0.2412,0.07145));
#1352=CARTESIAN_POINT('',(-0.18635,0.07,0.065));
#1353=CARTESIAN_POINT('',(-0.18635,0.07,0.07145));
#1354=CARTESIAN_POINT('',(-0.18635,0.16,0.0127));
#1355=CARTESIAN_POINT('',(-0.18635,0.,0.0127));
#1356=CARTESIAN_POINT('',(-0.18635,0.32,0.0127));
#1357=CARTESIAN_POINT('',(-0.18635,0.,0.1627));
#1358=CARTESIAN_POINT('',(-0.18635,0.,0.1627));
#1359=CARTESIAN_POINT('',(-0.18635,0.16,0.1627));
#1360=CARTESIAN_POINT('',(-0.18635,0.32,0.1627));
#1361=CARTESIAN_POINT('',(-0.18635,0.32,0.1627));
#1362=CARTESIAN_POINT('',(-0.183175,0.,0.1627));
#1363=CARTESIAN_POINT('',(-0.183175,0.,0.0127));
#1364=CARTESIAN_POINT('',(-0.18,0.,0.0127));
#1365=CARTESIAN_POINT('',(-0.18,0.,0.1627));
#1366=CARTESIAN_POINT('',(-0.18,0.,0.1627));
#1367=CARTESIAN_POINT('',(-0.183175,0.,0.1627));
#1368=CARTESIAN_POINT('',(-0.18,0.16,0.1627));
#1369=CARTESIAN_POINT('',(-0.18,0.025,0.13));
#1370=CARTESIAN_POINT('',(-0.18,0.025,0.13645));
#1371=CARTESIAN_POINT('',(-0.18,0.3,0.135));
#1372=CARTESIAN_POINT('',(-0.18,0.3,0.1383));
#1373=CARTESIAN_POINT('',(-0.18,0.14,0.135));
#1374=CARTESIAN_POINT('',(-0.18,0.14,0.1383));
#1375=CARTESIAN_POINT('',(-0.18,0.2412,0.065));
#1376=CARTESIAN_POINT('',(-0.18,0.2412,0.07145));
#1377=CARTESIAN_POINT('',(-0.18,0.07,0.065));
#1378=CARTESIAN_POINT('',(-0.18,0.07,0.07145));
#1379=CARTESIAN_POINT('',(-0.18,0.16,0.0127));
#1380=CARTESIAN_POINT('',(-0.18,0.32,0.0127));
#1381=CARTESIAN_POINT('',(-0.18,0.32,0.1627));
#1382=CARTESIAN_POINT('',(-0.18,0.32,0.1627));
#1383=CARTESIAN_POINT('',(-0.18,0.16,0.1627));
#1384=CARTESIAN_POINT('',(-0.183175,0.32,0.1627));
#1385=CARTESIAN_POINT('',(-0.183175,0.32,0.0127));
#1386=CARTESIAN_POINT('',(-0.183175,0.32,0.1627));
#1387=CARTESIAN_POINT('',(-0.183175,0.16,0.1627));
#1388=CARTESIAN_POINT('',(-0.183175,0.16,0.0127));
#1389=CARTESIAN_POINT('',(-0.179,0.07,0.065));
#1390=CARTESIAN_POINT('',(-0.179,0.2412,0.065));
#1391=CARTESIAN_POINT('',(-0.179,0.14,0.135));
#1392=CARTESIAN_POINT('',(-0.179,0.3,0.135));
#1393=CARTESIAN_POINT('',(-0.179,0.025,0.13));
#1394=CARTESIAN_POINT('',(0.,0.,0.));
#1395=CARTESIAN_POINT('',(0.1508125,-0.11,0.05715));
#1396=CARTESIAN_POINT('',(0.1508125,-0.11,0.05715));
#1397=CARTESIAN_POINT('',(0.1508125,-0.11,0.));
#1398=CARTESIAN_POINT('',(-0.1508125,-0.11,0.05715));
#1399=CARTESIAN_POINT('',(-0.1508125,-0.11,0.));
#1400=CARTESIAN_POINT('',(0.1508125,-0.11,0.05715));
#1401=CARTESIAN_POINT('',(0.1508125,-0.11,0.05715));
#1402=CARTESIAN_POINT('',(0.1508125,-0.11,0.00635));
#1403=CARTESIAN_POINT('',(-0.1508125,-0.11,0.05715));
#1404=CARTESIAN_POINT('',(-0.1508125,-0.11,0.05715));
#1405=CARTESIAN_POINT('',(-0.1508125,-0.11,0.00635));
#1406=CARTESIAN_POINT('',(0.1518125,-0.11,0.05715));
#1407=CARTESIAN_POINT('',(0.,0.,0.));
#1408=CARTESIAN_POINT('',(0.175,0.2412,0.065));
#1409=CARTESIAN_POINT('',(0.175,0.2412,0.065));
#1410=CARTESIAN_POINT('',(0.175,0.2412,0.0269));
#1411=CARTESIAN_POINT('',(-0.175,0.2412,0.065));
#1412=CARTESIAN_POINT('',(-0.175,0.2412,0.0269));
#1413=CARTESIAN_POINT('',(0.175,0.2412,0.065));
#1414=CARTESIAN_POINT('',(0.175,0.2412,0.065));
#1415=CARTESIAN_POINT('',(0.175,0.2412,0.05865));
#1416=CARTESIAN_POINT('',(-0.175,0.2412,0.065));
#1417=CARTESIAN_POINT('',(-0.175,0.2412,0.065));
#1418=CARTESIAN_POINT('',(-0.175,0.2412,0.05865));
#1419=CARTESIAN_POINT('',(0.176,0.2412,0.065));
#1420=CARTESIAN_POINT('',(0.,0.,0.));
#1421=CARTESIAN_POINT('',(0.19905,0.2412,0.065));
#1422=CARTESIAN_POINT('',(0.19905,0.2412,0.065));
#1423=CARTESIAN_POINT('',(0.19905,0.2412,0.05865));
#1424=CARTESIAN_POINT('',(-0.19905,0.2412,0.065));
#1425=CARTESIAN_POINT('',(-0.19905,0.2412,0.05865));
#1426=CARTESIAN_POINT('',(0.19905,0.2412,0.065));
#1427=CARTESIAN_POINT('',(-0.19905,0.2412,0.065));
#1428=MECHANICAL_DESIGN_GEOMETRIC_PRESENTATION_REPRESENTATION('',(#785),
#1437);
#1429=MECHANICAL_DESIGN_GEOMETRIC_PRESENTATION_REPRESENTATION('',(#786),
#1438);
#1430=MECHANICAL_DESIGN_GEOMETRIC_PRESENTATION_REPRESENTATION('',(#787),
#1439);
#1431=MECHANICAL_DESIGN_GEOMETRIC_PRESENTATION_REPRESENTATION('',(#788),
#1440);
#1432=MECHANICAL_DESIGN_GEOMETRIC_PRESENTATION_REPRESENTATION('',(#789),
#1441);
#1433=MECHANICAL_DESIGN_GEOMETRIC_PRESENTATION_REPRESENTATION('',(#790),
#1442);
#1434=MECHANICAL_DESIGN_GEOMETRIC_PRESENTATION_REPRESENTATION('',(#791),
#1443);
#1435=MECHANICAL_DESIGN_GEOMETRIC_PRESENTATION_REPRESENTATION('',(#792),
#1444);
#1436=MECHANICAL_DESIGN_GEOMETRIC_PRESENTATION_REPRESENTATION('',(#793),
#1445);
#1437=(
GEOMETRIC_REPRESENTATION_CONTEXT(3)
GLOBAL_UNCERTAINTY_ASSIGNED_CONTEXT((#1446))
GLOBAL_UNIT_ASSIGNED_CONTEXT((#1473,#1464,#1455))
REPRESENTATION_CONTEXT('rearCrossmember','TOP_LEVEL_ASSEMBLY_PART')
);
#1438=(
GEOMETRIC_REPRESENTATION_CONTEXT(3)
GLOBAL_UNCERTAINTY_ASSIGNED_CONTEXT((#1447))
GLOBAL_UNIT_ASSIGNED_CONTEXT((#1474,#1465,#1456))
REPRESENTATION_CONTEXT('rightPlate','TOP_LEVEL_ASSEMBLY_PART')
);
#1439=(
GEOMETRIC_REPRESENTATION_CONTEXT(3)
GLOBAL_UNCERTAINTY_ASSIGNED_CONTEXT((#1448))
GLOBAL_UNIT_ASSIGNED_CONTEXT((#1475,#1466,#1457))
REPRESENTATION_CONTEXT('frontShaft','TOP_LEVEL_ASSEMBLY_PART')
);
#1440=(
GEOMETRIC_REPRESENTATION_CONTEXT(3)
GLOBAL_UNCERTAINTY_ASSIGNED_CONTEXT((#1449))
GLOBAL_UNIT_ASSIGNED_CONTEXT((#1476,#1467,#1458))
REPRESENTATION_CONTEXT('frontRoller','TOP_LEVEL_ASSEMBLY_PART')
);
#1441=(
GEOMETRIC_REPRESENTATION_CONTEXT(3)
GLOBAL_UNCERTAINTY_ASSIGNED_CONTEXT((#1450))
GLOBAL_UNIT_ASSIGNED_CONTEXT((#1477,#1468,#1459))
REPRESENTATION_CONTEXT('frontCrossmember','TOP_LEVEL_ASSEMBLY_PART')
);
#1442=(
GEOMETRIC_REPRESENTATION_CONTEXT(3)
GLOBAL_UNCERTAINTY_ASSIGNED_CONTEXT((#1451))
GLOBAL_UNIT_ASSIGNED_CONTEXT((#1478,#1469,#1460))
REPRESENTATION_CONTEXT('leftPlate','TOP_LEVEL_ASSEMBLY_PART')
);
#1443=(
GEOMETRIC_REPRESENTATION_CONTEXT(3)
GLOBAL_UNCERTAINTY_ASSIGNED_CONTEXT((#1452))
GLOBAL_UNIT_ASSIGNED_CONTEXT((#1479,#1470,#1461))
REPRESENTATION_CONTEXT('coralReference [REFERENCE - NON-BOM]',
'TOP_LEVEL_ASSEMBLY_PART')
);
#1444=(
GEOMETRIC_REPRESENTATION_CONTEXT(3)
GLOBAL_UNCERTAINTY_ASSIGNED_CONTEXT((#1453))
GLOBAL_UNIT_ASSIGNED_CONTEXT((#1480,#1471,#1462))
REPRESENTATION_CONTEXT('rearRoller','TOP_LEVEL_ASSEMBLY_PART')
);
#1445=(
GEOMETRIC_REPRESENTATION_CONTEXT(3)
GLOBAL_UNCERTAINTY_ASSIGNED_CONTEXT((#1454))
GLOBAL_UNIT_ASSIGNED_CONTEXT((#1481,#1472,#1463))
REPRESENTATION_CONTEXT('rearShaft','TOP_LEVEL_ASSEMBLY_PART')
);
#1446=UNCERTAINTY_MEASURE_WITH_UNIT(LENGTH_MEASURE(1.E-8),#1473,
'DISTANCE_ACCURACY_VALUE','Maximum Tolerance applied to model');
#1447=UNCERTAINTY_MEASURE_WITH_UNIT(LENGTH_MEASURE(1.E-8),#1474,
'DISTANCE_ACCURACY_VALUE','Maximum Tolerance applied to model');
#1448=UNCERTAINTY_MEASURE_WITH_UNIT(LENGTH_MEASURE(1.E-8),#1475,
'DISTANCE_ACCURACY_VALUE','Maximum Tolerance applied to model');
#1449=UNCERTAINTY_MEASURE_WITH_UNIT(LENGTH_MEASURE(1.E-8),#1476,
'DISTANCE_ACCURACY_VALUE','Maximum Tolerance applied to model');
#1450=UNCERTAINTY_MEASURE_WITH_UNIT(LENGTH_MEASURE(1.E-8),#1477,
'DISTANCE_ACCURACY_VALUE','Maximum Tolerance applied to model');
#1451=UNCERTAINTY_MEASURE_WITH_UNIT(LENGTH_MEASURE(1.E-8),#1478,
'DISTANCE_ACCURACY_VALUE','Maximum Tolerance applied to model');
#1452=UNCERTAINTY_MEASURE_WITH_UNIT(LENGTH_MEASURE(1.E-8),#1479,
'DISTANCE_ACCURACY_VALUE','Maximum Tolerance applied to model');
#1453=UNCERTAINTY_MEASURE_WITH_UNIT(LENGTH_MEASURE(1.E-8),#1480,
'DISTANCE_ACCURACY_VALUE','Maximum Tolerance applied to model');
#1454=UNCERTAINTY_MEASURE_WITH_UNIT(LENGTH_MEASURE(1.E-8),#1481,
'DISTANCE_ACCURACY_VALUE','Maximum Tolerance applied to model');
#1455=(
NAMED_UNIT(*)
SI_UNIT($,.STERADIAN.)
SOLID_ANGLE_UNIT()
);
#1456=(
NAMED_UNIT(*)
SI_UNIT($,.STERADIAN.)
SOLID_ANGLE_UNIT()
);
#1457=(
NAMED_UNIT(*)
SI_UNIT($,.STERADIAN.)
SOLID_ANGLE_UNIT()
);
#1458=(
NAMED_UNIT(*)
SI_UNIT($,.STERADIAN.)
SOLID_ANGLE_UNIT()
);
#1459=(
NAMED_UNIT(*)
SI_UNIT($,.STERADIAN.)
SOLID_ANGLE_UNIT()
);
#1460=(
NAMED_UNIT(*)
SI_UNIT($,.STERADIAN.)
SOLID_ANGLE_UNIT()
);
#1461=(
NAMED_UNIT(*)
SI_UNIT($,.STERADIAN.)
SOLID_ANGLE_UNIT()
);
#1462=(
NAMED_UNIT(*)
SI_UNIT($,.STERADIAN.)
SOLID_ANGLE_UNIT()
);
#1463=(
NAMED_UNIT(*)
SI_UNIT($,.STERADIAN.)
SOLID_ANGLE_UNIT()
);
#1464=(
NAMED_UNIT(*)
PLANE_ANGLE_UNIT()
SI_UNIT($,.RADIAN.)
);
#1465=(
NAMED_UNIT(*)
PLANE_ANGLE_UNIT()
SI_UNIT($,.RADIAN.)
);
#1466=(
NAMED_UNIT(*)
PLANE_ANGLE_UNIT()
SI_UNIT($,.RADIAN.)
);
#1467=(
NAMED_UNIT(*)
PLANE_ANGLE_UNIT()
SI_UNIT($,.RADIAN.)
);
#1468=(
NAMED_UNIT(*)
PLANE_ANGLE_UNIT()
SI_UNIT($,.RADIAN.)
);
#1469=(
NAMED_UNIT(*)
PLANE_ANGLE_UNIT()
SI_UNIT($,.RADIAN.)
);
#1470=(
NAMED_UNIT(*)
PLANE_ANGLE_UNIT()
SI_UNIT($,.RADIAN.)
);
#1471=(
NAMED_UNIT(*)
PLANE_ANGLE_UNIT()
SI_UNIT($,.RADIAN.)
);
#1472=(
NAMED_UNIT(*)
PLANE_ANGLE_UNIT()
SI_UNIT($,.RADIAN.)
);
#1473=(
LENGTH_UNIT()
NAMED_UNIT(*)
SI_UNIT($,.METRE.)
);
#1474=(
LENGTH_UNIT()
NAMED_UNIT(*)
SI_UNIT($,.METRE.)
);
#1475=(
LENGTH_UNIT()
NAMED_UNIT(*)
SI_UNIT($,.METRE.)
);
#1476=(
LENGTH_UNIT()
NAMED_UNIT(*)
SI_UNIT($,.METRE.)
);
#1477=(
LENGTH_UNIT()
NAMED_UNIT(*)
SI_UNIT($,.METRE.)
);
#1478=(
LENGTH_UNIT()
NAMED_UNIT(*)
SI_UNIT($,.METRE.)
);
#1479=(
LENGTH_UNIT()
NAMED_UNIT(*)
SI_UNIT($,.METRE.)
);
#1480=(
LENGTH_UNIT()
NAMED_UNIT(*)
SI_UNIT($,.METRE.)
);
#1481=(
LENGTH_UNIT()
NAMED_UNIT(*)
SI_UNIT($,.METRE.)
);
#1482=PRODUCT_DEFINITION_SHAPE('','',#1491);
#1483=PRODUCT_DEFINITION_SHAPE('','',#1492);
#1484=PRODUCT_DEFINITION_SHAPE('','',#1493);
#1485=PRODUCT_DEFINITION_SHAPE('','',#1494);
#1486=PRODUCT_DEFINITION_SHAPE('','',#1495);
#1487=PRODUCT_DEFINITION_SHAPE('','',#1496);
#1488=PRODUCT_DEFINITION_SHAPE('','',#1497);
#1489=PRODUCT_DEFINITION_SHAPE('','',#1498);
#1490=PRODUCT_DEFINITION_SHAPE('','',#1499);
#1491=PRODUCT_DEFINITION('','',#1509,#1500);
#1492=PRODUCT_DEFINITION('','',#1510,#1501);
#1493=PRODUCT_DEFINITION('','',#1511,#1502);
#1494=PRODUCT_DEFINITION('','',#1512,#1503);
#1495=PRODUCT_DEFINITION('','',#1513,#1504);
#1496=PRODUCT_DEFINITION('','',#1514,#1505);
#1497=PRODUCT_DEFINITION('','',#1515,#1506);
#1498=PRODUCT_DEFINITION('','',#1516,#1507);
#1499=PRODUCT_DEFINITION('','',#1517,#1508);
#1500=PRODUCT_DEFINITION_CONTEXT('',#1563,'design');
#1501=PRODUCT_DEFINITION_CONTEXT('',#1564,'design');
#1502=PRODUCT_DEFINITION_CONTEXT('',#1565,'design');
#1503=PRODUCT_DEFINITION_CONTEXT('',#1566,'design');
#1504=PRODUCT_DEFINITION_CONTEXT('',#1567,'design');
#1505=PRODUCT_DEFINITION_CONTEXT('',#1568,'design');
#1506=PRODUCT_DEFINITION_CONTEXT('',#1569,'design');
#1507=PRODUCT_DEFINITION_CONTEXT('',#1570,'design');
#1508=PRODUCT_DEFINITION_CONTEXT('',#1571,'design');
#1509=PRODUCT_DEFINITION_FORMATION_WITH_SPECIFIED_SOURCE('','',#1527,
 .NOT_KNOWN.);
#1510=PRODUCT_DEFINITION_FORMATION_WITH_SPECIFIED_SOURCE('','',#1528,
 .NOT_KNOWN.);
#1511=PRODUCT_DEFINITION_FORMATION_WITH_SPECIFIED_SOURCE('','',#1529,
 .NOT_KNOWN.);
#1512=PRODUCT_DEFINITION_FORMATION_WITH_SPECIFIED_SOURCE('','',#1530,
 .NOT_KNOWN.);
#1513=PRODUCT_DEFINITION_FORMATION_WITH_SPECIFIED_SOURCE('','',#1531,
 .NOT_KNOWN.);
#1514=PRODUCT_DEFINITION_FORMATION_WITH_SPECIFIED_SOURCE('','',#1532,
 .NOT_KNOWN.);
#1515=PRODUCT_DEFINITION_FORMATION_WITH_SPECIFIED_SOURCE('','',#1533,
 .NOT_KNOWN.);
#1516=PRODUCT_DEFINITION_FORMATION_WITH_SPECIFIED_SOURCE('','',#1534,
 .NOT_KNOWN.);
#1517=PRODUCT_DEFINITION_FORMATION_WITH_SPECIFIED_SOURCE('','',#1535,
 .NOT_KNOWN.);
#1518=PRODUCT_RELATED_PRODUCT_CATEGORY('','',(#1527));
#1519=PRODUCT_RELATED_PRODUCT_CATEGORY('','',(#1528));
#1520=PRODUCT_RELATED_PRODUCT_CATEGORY('','',(#1529));
#1521=PRODUCT_RELATED_PRODUCT_CATEGORY('','',(#1530));
#1522=PRODUCT_RELATED_PRODUCT_CATEGORY('','',(#1531));
#1523=PRODUCT_RELATED_PRODUCT_CATEGORY('','',(#1532));
#1524=PRODUCT_RELATED_PRODUCT_CATEGORY('','',(#1533));
#1525=PRODUCT_RELATED_PRODUCT_CATEGORY('','',(#1534));
#1526=PRODUCT_RELATED_PRODUCT_CATEGORY('','',(#1535));
#1527=PRODUCT('rearCrossmember','rearCrossmember','rearCrossmember',(#1545));
#1528=PRODUCT('rightPlate','rightPlate','rightPlate',(#1546));
#1529=PRODUCT('frontShaft','frontShaft','frontShaft',(#1547));
#1530=PRODUCT('frontRoller','frontRoller','frontRoller',(#1548));
#1531=PRODUCT('frontCrossmember','frontCrossmember','frontCrossmember',
(#1549));
#1532=PRODUCT('leftPlate','leftPlate','leftPlate',(#1550));
#1533=PRODUCT('coralReference [REFERENCE - NON-BOM]',
'coralReference [REFERENCE - NON-BOM]',
'coralReference [REFERENCE - NON-BOM]',(#1551));
#1534=PRODUCT('rearRoller','rearRoller','rearRoller',(#1552));
#1535=PRODUCT('rearShaft','rearShaft','rearShaft',(#1553));
#1536=PRODUCT_CATEGORY('','');
#1537=PRODUCT_CATEGORY('','');
#1538=PRODUCT_CATEGORY('','');
#1539=PRODUCT_CATEGORY('','');
#1540=PRODUCT_CATEGORY('','');
#1541=PRODUCT_CATEGORY('','');
#1542=PRODUCT_CATEGORY('','');
#1543=PRODUCT_CATEGORY('','');
#1544=PRODUCT_CATEGORY('','');
#1545=PRODUCT_CONTEXT('',#1563,'mechanical');
#1546=PRODUCT_CONTEXT('',#1564,'mechanical');
#1547=PRODUCT_CONTEXT('',#1565,'mechanical');
#1548=PRODUCT_CONTEXT('',#1566,'mechanical');
#1549=PRODUCT_CONTEXT('',#1567,'mechanical');
#1550=PRODUCT_CONTEXT('',#1568,'mechanical');
#1551=PRODUCT_CONTEXT('',#1569,'mechanical');
#1552=PRODUCT_CONTEXT('',#1570,'mechanical');
#1553=PRODUCT_CONTEXT('',#1571,'mechanical');
#1554=APPLICATION_PROTOCOL_DEFINITION('international standard',
'ap242_managed_model_based_3d_engineering',2020,#1563);
#1555=APPLICATION_PROTOCOL_DEFINITION('international standard',
'ap242_managed_model_based_3d_engineering',2020,#1564);
#1556=APPLICATION_PROTOCOL_DEFINITION('international standard',
'ap242_managed_model_based_3d_engineering',2020,#1565);
#1557=APPLICATION_PROTOCOL_DEFINITION('international standard',
'ap242_managed_model_based_3d_engineering',2020,#1566);
#1558=APPLICATION_PROTOCOL_DEFINITION('international standard',
'ap242_managed_model_based_3d_engineering',2020,#1567);
#1559=APPLICATION_PROTOCOL_DEFINITION('international standard',
'ap242_managed_model_based_3d_engineering',2020,#1568);
#1560=APPLICATION_PROTOCOL_DEFINITION('international standard',
'ap242_managed_model_based_3d_engineering',2020,#1569);
#1561=APPLICATION_PROTOCOL_DEFINITION('international standard',
'ap242_managed_model_based_3d_engineering',2020,#1570);
#1562=APPLICATION_PROTOCOL_DEFINITION('international standard',
'ap242_managed_model_based_3d_engineering',2020,#1571);
#1563=APPLICATION_CONTEXT('managed model based 3d engineering');
#1564=APPLICATION_CONTEXT('managed model based 3d engineering');
#1565=APPLICATION_CONTEXT('managed model based 3d engineering');
#1566=APPLICATION_CONTEXT('managed model based 3d engineering');
#1567=APPLICATION_CONTEXT('managed model based 3d engineering');
#1568=APPLICATION_CONTEXT('managed model based 3d engineering');
#1569=APPLICATION_CONTEXT('managed model based 3d engineering');
#1570=APPLICATION_CONTEXT('managed model based 3d engineering');
#1571=APPLICATION_CONTEXT('managed model based 3d engineering');
ENDSEC;
END-ISO-10303-21;
