ISO-10303-21;
HEADER;
/* Generated by software containing ST-Developer
 * from STEP Tools, Inc. (www.steptools.com) 
 */
/* OPTION: using custom renumber hook */

FILE_DESCRIPTION(
/* description */ ('STEP AP242 Edition 2',
'CAx-IF Rec.Pracs.---Representation and Presentation of Product Manufa
cturing Information (PMI)---4.0---2014-10-13',
'CAx-IF Rec.Pracs.---3D Tessellated Geometry---0.4---2014-09-14','2;1',
'CAx-IF Rec.Pracs.---User Defined Attributes---1.5---2016-08-15'),
/* implementation_level */ '2;1');

FILE_NAME(
/* name */ 'Part Studio 1 - leftPlate',
/* time_stamp */ '2026-09-11T17:13:31Z',
/* author */ (''),
/* organization */ (''),
/* preprocessor_version */ 'ST-DEVELOPER v20',
/* originating_system */ 'ONSHAPE BY PTC INC, 1.220',
/* authorisation */ '  ');

FILE_SCHEMA (('AP242_MANAGED_MODEL_BASED_3D_ENGINEERING_MIM_LF { 1 0 10303 442 3 1 4 }'));
ENDSEC;

DATA;
#10=SHAPE_REPRESENTATION_RELATIONSHIP('','',#215,#11);
#11=ADVANCED_BREP_SHAPE_REPRESENTATION('',(#213),#347);
#12=CYLINDRICAL_SURFACE('',#233,0.00645);
#13=CYLINDRICAL_SURFACE('',#234,0.00645);
#14=CYLINDRICAL_SURFACE('',#235,0.0033);
#15=CYLINDRICAL_SURFACE('',#236,0.0033);
#16=CYLINDRICAL_SURFACE('',#237,0.00645);
#17=LINE('',#306,#29);
#18=LINE('',#309,#30);
#19=LINE('',#311,#31);
#20=LINE('',#313,#32);
#21=LINE('',#315,#33);
#22=LINE('',#317,#34);
#23=LINE('',#319,#35);
#24=LINE('',#331,#36);
#25=LINE('',#333,#37);
#26=LINE('',#335,#38);
#27=LINE('',#337,#39);
#28=LINE('',#338,#40);
#29=VECTOR('',#252,1.);
#30=VECTOR('',#253,1.);
#31=VECTOR('',#254,1.);
#32=VECTOR('',#255,1.);
#33=VECTOR('',#258,1.);
#34=VECTOR('',#259,1.);
#35=VECTOR('',#260,1.);
#36=VECTOR('',#273,1.);
#37=VECTOR('',#274,1.);
#38=VECTOR('',#275,1.);
#39=VECTOR('',#278,1.);
#40=VECTOR('',#279,1.);
#41=ORIENTED_EDGE('',*,*,#85,.T.);
#42=ORIENTED_EDGE('',*,*,#86,.T.);
#43=ORIENTED_EDGE('',*,*,#87,.T.);
#44=ORIENTED_EDGE('',*,*,#88,.T.);
#45=ORIENTED_EDGE('',*,*,#89,.T.);
#46=ORIENTED_EDGE('',*,*,#90,.F.);
#47=ORIENTED_EDGE('',*,*,#91,.F.);
#48=ORIENTED_EDGE('',*,*,#92,.T.);
#49=ORIENTED_EDGE('',*,*,#93,.T.);
#50=ORIENTED_EDGE('',*,*,#94,.T.);
#51=ORIENTED_EDGE('',*,*,#95,.F.);
#52=ORIENTED_EDGE('',*,*,#96,.F.);
#53=ORIENTED_EDGE('',*,*,#91,.T.);
#54=ORIENTED_EDGE('',*,*,#97,.F.);
#55=ORIENTED_EDGE('',*,*,#98,.F.);
#56=ORIENTED_EDGE('',*,*,#99,.F.);
#57=ORIENTED_EDGE('',*,*,#100,.F.);
#58=ORIENTED_EDGE('',*,*,#101,.F.);
#59=ORIENTED_EDGE('',*,*,#102,.T.);
#60=ORIENTED_EDGE('',*,*,#103,.F.);
#61=ORIENTED_EDGE('',*,*,#104,.F.);
#62=ORIENTED_EDGE('',*,*,#95,.T.);
#63=ORIENTED_EDGE('',*,*,#105,.F.);
#64=ORIENTED_EDGE('',*,*,#93,.F.);
#65=ORIENTED_EDGE('',*,*,#106,.T.);
#66=ORIENTED_EDGE('',*,*,#103,.T.);
#67=ORIENTED_EDGE('',*,*,#92,.F.);
#68=ORIENTED_EDGE('',*,*,#96,.T.);
#69=ORIENTED_EDGE('',*,*,#104,.T.);
#70=ORIENTED_EDGE('',*,*,#106,.F.);
#71=ORIENTED_EDGE('',*,*,#90,.T.);
#72=ORIENTED_EDGE('',*,*,#105,.T.);
#73=ORIENTED_EDGE('',*,*,#102,.F.);
#74=ORIENTED_EDGE('',*,*,#94,.F.);
#75=ORIENTED_EDGE('',*,*,#89,.F.);
#76=ORIENTED_EDGE('',*,*,#101,.T.);
#77=ORIENTED_EDGE('',*,*,#88,.F.);
#78=ORIENTED_EDGE('',*,*,#100,.T.);
#79=ORIENTED_EDGE('',*,*,#87,.F.);
#80=ORIENTED_EDGE('',*,*,#99,.T.);
#81=ORIENTED_EDGE('',*,*,#86,.F.);
#82=ORIENTED_EDGE('',*,*,#98,.T.);
#83=ORIENTED_EDGE('',*,*,#85,.F.);
#84=ORIENTED_EDGE('',*,*,#97,.T.);
#85=EDGE_CURVE('',#107,#107,#125,.F.);
#86=EDGE_CURVE('',#108,#108,#126,.F.);
#87=EDGE_CURVE('',#109,#109,#127,.F.);
#88=EDGE_CURVE('',#110,#110,#128,.F.);
#89=EDGE_CURVE('',#111,#111,#129,.F.);
#90=EDGE_CURVE('',#112,#113,#17,.T.);
#91=EDGE_CURVE('',#114,#112,#18,.T.);
#92=EDGE_CURVE('',#114,#115,#19,.T.);
#93=EDGE_CURVE('',#115,#113,#20,.T.);
#94=EDGE_CURVE('',#112,#116,#21,.T.);
#95=EDGE_CURVE('',#117,#116,#22,.T.);
#96=EDGE_CURVE('',#114,#117,#23,.T.);
#97=EDGE_CURVE('',#118,#118,#130,.F.);
#98=EDGE_CURVE('',#119,#119,#131,.F.);
#99=EDGE_CURVE('',#120,#120,#132,.F.);
#100=EDGE_CURVE('',#121,#121,#133,.F.);
#101=EDGE_CURVE('',#122,#122,#134,.F.);
#102=EDGE_CURVE('',#116,#123,#24,.T.);
#103=EDGE_CURVE('',#124,#123,#25,.T.);
#104=EDGE_CURVE('',#117,#124,#26,.T.);
#105=EDGE_CURVE('',#113,#123,#27,.T.);
#106=EDGE_CURVE('',#115,#124,#28,.T.);
#107=VERTEX_POINT('',#297);
#108=VERTEX_POINT('',#299);
#109=VERTEX_POINT('',#301);
#110=VERTEX_POINT('',#303);
#111=VERTEX_POINT('',#305);
#112=VERTEX_POINT('',#307);
#113=VERTEX_POINT('',#308);
#114=VERTEX_POINT('',#310);
#115=VERTEX_POINT('',#312);
#116=VERTEX_POINT('',#316);
#117=VERTEX_POINT('',#318);
#118=VERTEX_POINT('',#322);
#119=VERTEX_POINT('',#324);
#120=VERTEX_POINT('',#326);
#121=VERTEX_POINT('',#328);
#122=VERTEX_POINT('',#330);
#123=VERTEX_POINT('',#332);
#124=VERTEX_POINT('',#334);
#125=CIRCLE('',#218,0.00645);
#126=CIRCLE('',#219,0.0033);
#127=CIRCLE('',#220,0.0033);
#128=CIRCLE('',#221,0.00645);
#129=CIRCLE('',#222,0.00645);
#130=CIRCLE('',#225,0.00645);
#131=CIRCLE('',#226,0.0033);
#132=CIRCLE('',#227,0.0033);
#133=CIRCLE('',#228,0.00645);
#134=CIRCLE('',#229,0.00645);
#135=EDGE_LOOP('',(#41));
#136=EDGE_LOOP('',(#42));
#137=EDGE_LOOP('',(#43));
#138=EDGE_LOOP('',(#44));
#139=EDGE_LOOP('',(#45));
#140=EDGE_LOOP('',(#46,#47,#48,#49));
#141=EDGE_LOOP('',(#50,#51,#52,#53));
#142=EDGE_LOOP('',(#54));
#143=EDGE_LOOP('',(#55));
#144=EDGE_LOOP('',(#56));
#145=EDGE_LOOP('',(#57));
#146=EDGE_LOOP('',(#58));
#147=EDGE_LOOP('',(#59,#60,#61,#62));
#148=EDGE_LOOP('',(#63,#64,#65,#66));
#149=EDGE_LOOP('',(#67,#68,#69,#70));
#150=EDGE_LOOP('',(#71,#72,#73,#74));
#151=EDGE_LOOP('',(#75));
#152=EDGE_LOOP('',(#76));
#153=EDGE_LOOP('',(#77));
#154=EDGE_LOOP('',(#78));
#155=EDGE_LOOP('',(#79));
#156=EDGE_LOOP('',(#80));
#157=EDGE_LOOP('',(#81));
#158=EDGE_LOOP('',(#82));
#159=EDGE_LOOP('',(#83));
#160=EDGE_LOOP('',(#84));
#161=FACE_BOUND('',#135,.T.);
#162=FACE_BOUND('',#136,.T.);
#163=FACE_BOUND('',#137,.T.);
#164=FACE_BOUND('',#138,.T.);
#165=FACE_BOUND('',#139,.T.);
#166=FACE_BOUND('',#140,.T.);
#167=FACE_BOUND('',#141,.T.);
#168=FACE_BOUND('',#142,.T.);
#169=FACE_BOUND('',#143,.T.);
#170=FACE_BOUND('',#144,.T.);
#171=FACE_BOUND('',#145,.T.);
#172=FACE_BOUND('',#146,.T.);
#173=FACE_BOUND('',#147,.T.);
#174=FACE_BOUND('',#148,.T.);
#175=FACE_BOUND('',#149,.T.);
#176=FACE_BOUND('',#150,.T.);
#177=FACE_BOUND('',#151,.T.);
#178=FACE_BOUND('',#152,.T.);
#179=FACE_BOUND('',#153,.T.);
#180=FACE_BOUND('',#154,.T.);
#181=FACE_BOUND('',#155,.T.);
#182=FACE_BOUND('',#156,.T.);
#183=FACE_BOUND('',#157,.T.);
#184=FACE_BOUND('',#158,.T.);
#185=FACE_BOUND('',#159,.T.);
#186=FACE_BOUND('',#160,.T.);
#187=PLANE('',#217);
#188=PLANE('',#223);
#189=PLANE('',#224);
#190=PLANE('',#230);
#191=PLANE('',#231);
#192=PLANE('',#232);
#193=ADVANCED_FACE('',(#161,#162,#163,#164,#165,#166),#187,.T.);
#194=ADVANCED_FACE('',(#167),#188,.F.);
#195=ADVANCED_FACE('',(#168,#169,#170,#171,#172,#173),#189,.F.);
#196=ADVANCED_FACE('',(#174),#190,.T.);
#197=ADVANCED_FACE('',(#175),#191,.T.);
#198=ADVANCED_FACE('',(#176),#192,.F.);
#199=ADVANCED_FACE('',(#177,#178),#12,.F.);
#200=ADVANCED_FACE('',(#179,#180),#13,.F.);
#201=ADVANCED_FACE('',(#181,#182),#14,.F.);
#202=ADVANCED_FACE('',(#183,#184),#15,.F.);
#203=ADVANCED_FACE('',(#185,#186),#16,.F.);
#204=CLOSED_SHELL('',(#193,#194,#195,#196,#197,#198,#199,#200,#201,#202,
#203));
#205=STYLED_ITEM('',(#206),#213);
#206=PRESENTATION_STYLE_ASSIGNMENT((#207));
#207=SURFACE_STYLE_USAGE(.BOTH.,#208);
#208=SURFACE_SIDE_STYLE('',(#209));
#209=SURFACE_STYLE_FILL_AREA(#210);
#210=FILL_AREA_STYLE('',(#211));
#211=FILL_AREA_STYLE_COLOUR('',#212);
#212=COLOUR_RGB('',0.615686274509804,0.811764705882353,0.929411764705882);
#213=MANIFOLD_SOLID_BREP('leftPlate',#204);
#214=SHAPE_DEFINITION_REPRESENTATION(#352,#215);
#215=SHAPE_REPRESENTATION('leftPlate',(#216),#347);
#216=AXIS2_PLACEMENT_3D('',#294,#238,#239);
#217=AXIS2_PLACEMENT_3D('',#295,#240,#241);
#218=AXIS2_PLACEMENT_3D('',#296,#242,#243);
#219=AXIS2_PLACEMENT_3D('',#298,#244,#245);
#220=AXIS2_PLACEMENT_3D('',#300,#246,#247);
#221=AXIS2_PLACEMENT_3D('',#302,#248,#249);
#222=AXIS2_PLACEMENT_3D('',#304,#250,#251);
#223=AXIS2_PLACEMENT_3D('',#314,#256,#257);
#224=AXIS2_PLACEMENT_3D('',#320,#261,#262);
#225=AXIS2_PLACEMENT_3D('',#321,#263,#264);
#226=AXIS2_PLACEMENT_3D('',#323,#265,#266);
#227=AXIS2_PLACEMENT_3D('',#325,#267,#268);
#228=AXIS2_PLACEMENT_3D('',#327,#269,#270);
#229=AXIS2_PLACEMENT_3D('',#329,#271,#272);
#230=AXIS2_PLACEMENT_3D('',#336,#276,#277);
#231=AXIS2_PLACEMENT_3D('',#339,#280,#281);
#232=AXIS2_PLACEMENT_3D('',#340,#282,#283);
#233=AXIS2_PLACEMENT_3D('',#341,#284,#285);
#234=AXIS2_PLACEMENT_3D('',#342,#286,#287);
#235=AXIS2_PLACEMENT_3D('',#343,#288,#289);
#236=AXIS2_PLACEMENT_3D('',#344,#290,#291);
#237=AXIS2_PLACEMENT_3D('',#345,#292,#293);
#238=DIRECTION('',(0.,0.,1.));
#239=DIRECTION('',(1.,0.,0.));
#240=DIRECTION('',(-1.,0.,0.));
#241=DIRECTION('',(0.,0.,1.));
#242=DIRECTION('',(-1.,0.,0.));
#243=DIRECTION('',(0.,0.,1.));
#244=DIRECTION('',(-1.,0.,0.));
#245=DIRECTION('',(0.,0.,1.));
#246=DIRECTION('',(-1.,0.,0.));
#247=DIRECTION('',(0.,0.,1.));
#248=DIRECTION('',(-1.,0.,0.));
#249=DIRECTION('',(0.,0.,1.));
#250=DIRECTION('',(-1.,0.,0.));
#251=DIRECTION('',(0.,0.,1.));
#252=DIRECTION('',(0.,1.,0.));
#253=DIRECTION('',(0.,0.,-1.));
#254=DIRECTION('',(0.,1.,0.));
#255=DIRECTION('',(0.,0.,-1.));
#256=DIRECTION('',(0.,1.,0.));
#257=DIRECTION('',(0.,0.,1.));
#258=DIRECTION('',(1.,0.,0.));
#259=DIRECTION('',(0.,0.,-1.));
#260=DIRECTION('',(1.,0.,0.));
#261=DIRECTION('',(-1.,0.,0.));
#262=DIRECTION('',(0.,0.,1.));
#263=DIRECTION('',(-1.,0.,0.));
#264=DIRECTION('',(0.,0.,1.));
#265=DIRECTION('',(-1.,0.,0.));
#266=DIRECTION('',(0.,0.,1.));
#267=DIRECTION('',(-1.,0.,0.));
#268=DIRECTION('',(0.,0.,1.));
#269=DIRECTION('',(-1.,0.,0.));
#270=DIRECTION('',(0.,0.,1.));
#271=DIRECTION('',(-1.,0.,0.));
#272=DIRECTION('',(0.,0.,1.));
#273=DIRECTION('',(0.,1.,0.));
#274=DIRECTION('',(0.,0.,-1.));
#275=DIRECTION('',(0.,1.,0.));
#276=DIRECTION('',(0.,1.,0.));
#277=DIRECTION('',(0.,0.,1.));
#278=DIRECTION('',(1.,0.,0.));
#279=DIRECTION('',(1.,0.,0.));
#280=DIRECTION('',(0.,0.,1.));
#281=DIRECTION('',(1.,0.,0.));
#282=DIRECTION('',(0.,0.,1.));
#283=DIRECTION('',(1.,0.,0.));
#284=DIRECTION('',(-1.,0.,0.));
#285=DIRECTION('',(0.,0.,1.));
#286=DIRECTION('',(-1.,0.,0.));
#287=DIRECTION('',(0.,0.,1.));
#288=DIRECTION('',(-1.,0.,0.));
#289=DIRECTION('',(0.,0.,1.));
#290=DIRECTION('',(-1.,0.,0.));
#291=DIRECTION('',(0.,0.,1.));
#292=DIRECTION('',(-1.,0.,0.));
#293=DIRECTION('',(0.,0.,1.));
#294=CARTESIAN_POINT('',(0.,0.,0.));
#295=CARTESIAN_POINT('',(-0.17635,0.16,0.1627));
#296=CARTESIAN_POINT('',(-0.17635,0.2462,0.065));
#297=CARTESIAN_POINT('',(-0.17635,0.2462,0.07145));
#298=CARTESIAN_POINT('',(-0.17635,0.14,0.135));
#299=CARTESIAN_POINT('',(-0.17635,0.14,0.1383));
#300=CARTESIAN_POINT('',(-0.17635,0.3,0.135));
#301=CARTESIAN_POINT('',(-0.17635,0.3,0.1383));
#302=CARTESIAN_POINT('',(-0.17635,0.025,0.13));
#303=CARTESIAN_POINT('',(-0.17635,0.025,0.13645));
#304=CARTESIAN_POINT('',(-0.17635,0.07,0.065));
#305=CARTESIAN_POINT('',(-0.17635,0.07,0.07145));
#306=CARTESIAN_POINT('',(-0.17635,0.16,0.0127));
#307=CARTESIAN_POINT('',(-0.17635,0.,0.0127));
#308=CARTESIAN_POINT('',(-0.17635,0.32,0.0127));
#309=CARTESIAN_POINT('',(-0.17635,0.,0.1627));
#310=CARTESIAN_POINT('',(-0.17635,0.,0.1627));
#311=CARTESIAN_POINT('',(-0.17635,0.16,0.1627));
#312=CARTESIAN_POINT('',(-0.17635,0.32,0.1627));
#313=CARTESIAN_POINT('',(-0.17635,0.32,0.1627));
#314=CARTESIAN_POINT('',(-0.173175,0.,0.1627));
#315=CARTESIAN_POINT('',(-0.173175,0.,0.0127));
#316=CARTESIAN_POINT('',(-0.17,0.,0.0127));
#317=CARTESIAN_POINT('',(-0.17,0.,0.1627));
#318=CARTESIAN_POINT('',(-0.17,0.,0.1627));
#319=CARTESIAN_POINT('',(-0.173175,0.,0.1627));
#320=CARTESIAN_POINT('',(-0.17,0.16,0.1627));
#321=CARTESIAN_POINT('',(-0.17,0.2462,0.065));
#322=CARTESIAN_POINT('',(-0.17,0.2462,0.07145));
#323=CARTESIAN_POINT('',(-0.17,0.14,0.135));
#324=CARTESIAN_POINT('',(-0.17,0.14,0.1383));
#325=CARTESIAN_POINT('',(-0.17,0.3,0.135));
#326=CARTESIAN_POINT('',(-0.17,0.3,0.1383));
#327=CARTESIAN_POINT('',(-0.17,0.025,0.13));
#328=CARTESIAN_POINT('',(-0.17,0.025,0.13645));
#329=CARTESIAN_POINT('',(-0.17,0.07,0.065));
#330=CARTESIAN_POINT('',(-0.17,0.07,0.07145));
#331=CARTESIAN_POINT('',(-0.17,0.16,0.0127));
#332=CARTESIAN_POINT('',(-0.17,0.32,0.0127));
#333=CARTESIAN_POINT('',(-0.17,0.32,0.1627));
#334=CARTESIAN_POINT('',(-0.17,0.32,0.1627));
#335=CARTESIAN_POINT('',(-0.17,0.16,0.1627));
#336=CARTESIAN_POINT('',(-0.173175,0.32,0.1627));
#337=CARTESIAN_POINT('',(-0.173175,0.32,0.0127));
#338=CARTESIAN_POINT('',(-0.173175,0.32,0.1627));
#339=CARTESIAN_POINT('',(-0.173175,0.16,0.1627));
#340=CARTESIAN_POINT('',(-0.173175,0.16,0.0127));
#341=CARTESIAN_POINT('',(-0.169,0.07,0.065));
#342=CARTESIAN_POINT('',(-0.169,0.025,0.13));
#343=CARTESIAN_POINT('',(-0.169,0.3,0.135));
#344=CARTESIAN_POINT('',(-0.169,0.14,0.135));
#345=CARTESIAN_POINT('',(-0.169,0.2462,0.065));
#346=MECHANICAL_DESIGN_GEOMETRIC_PRESENTATION_REPRESENTATION('',(#205),
#347);
#347=(
GEOMETRIC_REPRESENTATION_CONTEXT(3)
GLOBAL_UNCERTAINTY_ASSIGNED_CONTEXT((#348))
GLOBAL_UNIT_ASSIGNED_CONTEXT((#351,#350,#349))
REPRESENTATION_CONTEXT('leftPlate','TOP_LEVEL_ASSEMBLY_PART')
);
#348=UNCERTAINTY_MEASURE_WITH_UNIT(LENGTH_MEASURE(1.E-8),#351,
'DISTANCE_ACCURACY_VALUE','Maximum Tolerance applied to model');
#349=(
NAMED_UNIT(*)
SI_UNIT($,.STERADIAN.)
SOLID_ANGLE_UNIT()
);
#350=(
NAMED_UNIT(*)
PLANE_ANGLE_UNIT()
SI_UNIT($,.RADIAN.)
);
#351=(
LENGTH_UNIT()
NAMED_UNIT(*)
SI_UNIT($,.METRE.)
);
#352=PRODUCT_DEFINITION_SHAPE('','',#353);
#353=PRODUCT_DEFINITION('','',#355,#354);
#354=PRODUCT_DEFINITION_CONTEXT('',#361,'design');
#355=PRODUCT_DEFINITION_FORMATION_WITH_SPECIFIED_SOURCE('','',#357,
 .NOT_KNOWN.);
#356=PRODUCT_RELATED_PRODUCT_CATEGORY('','',(#357));
#357=PRODUCT('leftPlate','leftPlate','leftPlate',(#359));
#358=PRODUCT_CATEGORY('','');
#359=PRODUCT_CONTEXT('',#361,'mechanical');
#360=APPLICATION_PROTOCOL_DEFINITION('international standard',
'ap242_managed_model_based_3d_engineering',2020,#361);
#361=APPLICATION_CONTEXT('managed model based 3d engineering');
ENDSEC;
END-ISO-10303-21;
