ISO-10303-21;
HEADER;
/* Generated by software containing ST-Developer
 * from STEP Tools, Inc. (www.steptools.com) 
 */
/* OPTION: using custom renumber hook */

FILE_DESCRIPTION(
/* description */ ('STEP AP214',
'CAx-IF Rec.Pracs.---User Defined Attributes---1.5---2016-08-15'),
/* implementation_level */ '2;1');

FILE_NAME(
/* name */ '6aa3f6cedef48768d91a6ce5',
/* time_stamp */ '2026-09-11T12:40:47Z',
/* author */ (''),
/* organization */ (''),
/* preprocessor_version */ 'ST-DEVELOPER v20',
/* originating_system */ 'ONSHAPE BY PTC INC, 1.220',
/* authorisation */ '  ');

FILE_SCHEMA (('AUTOMOTIVE_DESIGN {1 0 10303 214 3 1 1}'));
ENDSEC;

DATA;
#10=PROPERTY_DEFINITION_REPRESENTATION(#14,#12);
#11=PROPERTY_DEFINITION_REPRESENTATION(#15,#13);
#12=REPRESENTATION('',(#16),#1453);
#13=REPRESENTATION('',(#17),#1453);
#14=PROPERTY_DEFINITION('pmi validation property','',#1498);
#15=PROPERTY_DEFINITION('pmi validation property','',#1498);
#16=VALUE_REPRESENTATION_ITEM('number of annotations',COUNT_MEASURE(0.));
#17=VALUE_REPRESENTATION_ITEM('number of views',COUNT_MEASURE(0.));
#18=CYLINDRICAL_SURFACE('',#908,0.00645);
#19=CYLINDRICAL_SURFACE('',#909,0.00645);
#20=CYLINDRICAL_SURFACE('',#910,0.0033);
#21=CYLINDRICAL_SURFACE('',#911,0.0033);
#22=CYLINDRICAL_SURFACE('',#912,0.00645);
#23=CYLINDRICAL_SURFACE('',#914,0.0381);
#24=CYLINDRICAL_SURFACE('',#921,0.00635);
#25=CYLINDRICAL_SURFACE('',#923,0.00635);
#26=CYLINDRICAL_SURFACE('',#929,0.0381);
#27=CYLINDRICAL_SURFACE('',#936,0.00635);
#28=CYLINDRICAL_SURFACE('',#954,0.00645);
#29=CYLINDRICAL_SURFACE('',#955,0.00645);
#30=CYLINDRICAL_SURFACE('',#956,0.0033);
#31=CYLINDRICAL_SURFACE('',#957,0.0033);
#32=CYLINDRICAL_SURFACE('',#958,0.00645);
#33=CYLINDRICAL_SURFACE('',#967,0.05715);
#34=CYLINDRICAL_SURFACE('',#974,0.0508);
#35=CYLINDRICAL_SURFACE('',#976,0.00635);
#36=CIRCLE('',#893,0.00645);
#37=CIRCLE('',#894,0.0033);
#38=CIRCLE('',#895,0.0033);
#39=CIRCLE('',#896,0.00645);
#40=CIRCLE('',#897,0.00645);
#41=CIRCLE('',#900,0.00645);
#42=CIRCLE('',#901,0.0033);
#43=CIRCLE('',#902,0.0033);
#44=CIRCLE('',#903,0.00645);
#45=CIRCLE('',#904,0.00645);
#46=CIRCLE('',#915,0.0381);
#47=CIRCLE('',#916,0.0381);
#48=CIRCLE('',#918,0.00635);
#49=CIRCLE('',#920,0.00635);
#50=CIRCLE('',#924,0.00635);
#51=CIRCLE('',#925,0.00635);
#52=CIRCLE('',#930,0.0381);
#53=CIRCLE('',#931,0.0381);
#54=CIRCLE('',#933,0.00635);
#55=CIRCLE('',#935,0.00635);
#56=CIRCLE('',#939,0.00645);
#57=CIRCLE('',#940,0.0033);
#58=CIRCLE('',#941,0.0033);
#59=CIRCLE('',#942,0.00645);
#60=CIRCLE('',#943,0.00645);
#61=CIRCLE('',#946,0.00645);
#62=CIRCLE('',#947,0.0033);
#63=CIRCLE('',#948,0.0033);
#64=CIRCLE('',#949,0.00645);
#65=CIRCLE('',#950,0.00645);
#66=CIRCLE('',#968,0.05715);
#67=CIRCLE('',#969,0.05715);
#68=CIRCLE('',#971,0.0508);
#69=CIRCLE('',#973,0.0508);
#70=CIRCLE('',#977,0.00635);
#71=CIRCLE('',#978,0.00635);
#72=SHAPE_REPRESENTATION_RELATIONSHIP('','',#875,#81);
#73=SHAPE_REPRESENTATION_RELATIONSHIP('','',#876,#82);
#74=SHAPE_REPRESENTATION_RELATIONSHIP('','',#877,#83);
#75=SHAPE_REPRESENTATION_RELATIONSHIP('','',#878,#84);
#76=SHAPE_REPRESENTATION_RELATIONSHIP('','',#879,#85);
#77=SHAPE_REPRESENTATION_RELATIONSHIP('','',#880,#86);
#78=SHAPE_REPRESENTATION_RELATIONSHIP('','',#881,#87);
#79=SHAPE_REPRESENTATION_RELATIONSHIP('','',#882,#88);
#80=SHAPE_REPRESENTATION_RELATIONSHIP('','',#883,#89);
#81=ADVANCED_BREP_SHAPE_REPRESENTATION('',(#857),#1445);
#82=ADVANCED_BREP_SHAPE_REPRESENTATION('',(#858),#1446);
#83=ADVANCED_BREP_SHAPE_REPRESENTATION('',(#859),#1447);
#84=ADVANCED_BREP_SHAPE_REPRESENTATION('',(#860),#1448);
#85=ADVANCED_BREP_SHAPE_REPRESENTATION('',(#861),#1449);
#86=ADVANCED_BREP_SHAPE_REPRESENTATION('',(#862),#1450);
#87=ADVANCED_BREP_SHAPE_REPRESENTATION('',(#863),#1451);
#88=ADVANCED_BREP_SHAPE_REPRESENTATION('',(#864),#1452);
#89=ADVANCED_BREP_SHAPE_REPRESENTATION('',(#865),#1453);
#90=ORIENTED_EDGE('',*,*,#258,.F.);
#91=ORIENTED_EDGE('',*,*,#259,.F.);
#92=ORIENTED_EDGE('',*,*,#260,.T.);
#93=ORIENTED_EDGE('',*,*,#261,.T.);
#94=ORIENTED_EDGE('',*,*,#262,.T.);
#95=ORIENTED_EDGE('',*,*,#263,.F.);
#96=ORIENTED_EDGE('',*,*,#264,.F.);
#97=ORIENTED_EDGE('',*,*,#259,.T.);
#98=ORIENTED_EDGE('',*,*,#265,.T.);
#99=ORIENTED_EDGE('',*,*,#266,.F.);
#100=ORIENTED_EDGE('',*,*,#267,.F.);
#101=ORIENTED_EDGE('',*,*,#263,.T.);
#102=ORIENTED_EDGE('',*,*,#268,.F.);
#103=ORIENTED_EDGE('',*,*,#261,.F.);
#104=ORIENTED_EDGE('',*,*,#269,.T.);
#105=ORIENTED_EDGE('',*,*,#266,.T.);
#106=ORIENTED_EDGE('',*,*,#260,.F.);
#107=ORIENTED_EDGE('',*,*,#264,.T.);
#108=ORIENTED_EDGE('',*,*,#267,.T.);
#109=ORIENTED_EDGE('',*,*,#269,.F.);
#110=ORIENTED_EDGE('',*,*,#258,.T.);
#111=ORIENTED_EDGE('',*,*,#268,.T.);
#112=ORIENTED_EDGE('',*,*,#265,.F.);
#113=ORIENTED_EDGE('',*,*,#262,.F.);
#114=ORIENTED_EDGE('',*,*,#270,.T.);
#115=ORIENTED_EDGE('',*,*,#271,.T.);
#116=ORIENTED_EDGE('',*,*,#272,.T.);
#117=ORIENTED_EDGE('',*,*,#273,.T.);
#118=ORIENTED_EDGE('',*,*,#274,.T.);
#119=ORIENTED_EDGE('',*,*,#275,.F.);
#120=ORIENTED_EDGE('',*,*,#276,.F.);
#121=ORIENTED_EDGE('',*,*,#277,.T.);
#122=ORIENTED_EDGE('',*,*,#278,.T.);
#123=ORIENTED_EDGE('',*,*,#279,.T.);
#124=ORIENTED_EDGE('',*,*,#280,.F.);
#125=ORIENTED_EDGE('',*,*,#281,.F.);
#126=ORIENTED_EDGE('',*,*,#276,.T.);
#127=ORIENTED_EDGE('',*,*,#282,.F.);
#128=ORIENTED_EDGE('',*,*,#283,.F.);
#129=ORIENTED_EDGE('',*,*,#284,.F.);
#130=ORIENTED_EDGE('',*,*,#285,.F.);
#131=ORIENTED_EDGE('',*,*,#286,.F.);
#132=ORIENTED_EDGE('',*,*,#287,.T.);
#133=ORIENTED_EDGE('',*,*,#288,.F.);
#134=ORIENTED_EDGE('',*,*,#289,.F.);
#135=ORIENTED_EDGE('',*,*,#280,.T.);
#136=ORIENTED_EDGE('',*,*,#290,.F.);
#137=ORIENTED_EDGE('',*,*,#278,.F.);
#138=ORIENTED_EDGE('',*,*,#291,.T.);
#139=ORIENTED_EDGE('',*,*,#288,.T.);
#140=ORIENTED_EDGE('',*,*,#277,.F.);
#141=ORIENTED_EDGE('',*,*,#281,.T.);
#142=ORIENTED_EDGE('',*,*,#289,.T.);
#143=ORIENTED_EDGE('',*,*,#291,.F.);
#144=ORIENTED_EDGE('',*,*,#275,.T.);
#145=ORIENTED_EDGE('',*,*,#290,.T.);
#146=ORIENTED_EDGE('',*,*,#287,.F.);
#147=ORIENTED_EDGE('',*,*,#279,.F.);
#148=ORIENTED_EDGE('',*,*,#274,.F.);
#149=ORIENTED_EDGE('',*,*,#286,.T.);
#150=ORIENTED_EDGE('',*,*,#273,.F.);
#151=ORIENTED_EDGE('',*,*,#285,.T.);
#152=ORIENTED_EDGE('',*,*,#272,.F.);
#153=ORIENTED_EDGE('',*,*,#284,.T.);
#154=ORIENTED_EDGE('',*,*,#271,.F.);
#155=ORIENTED_EDGE('',*,*,#283,.T.);
#156=ORIENTED_EDGE('',*,*,#270,.F.);
#157=ORIENTED_EDGE('',*,*,#282,.T.);
#158=ORIENTED_EDGE('',*,*,#292,.F.);
#159=ORIENTED_EDGE('',*,*,#293,.T.);
#160=ORIENTED_EDGE('',*,*,#294,.T.);
#161=ORIENTED_EDGE('',*,*,#292,.T.);
#162=ORIENTED_EDGE('',*,*,#295,.F.);
#163=ORIENTED_EDGE('',*,*,#293,.F.);
#164=ORIENTED_EDGE('',*,*,#294,.F.);
#165=ORIENTED_EDGE('',*,*,#295,.T.);
#166=ORIENTED_EDGE('',*,*,#296,.F.);
#167=ORIENTED_EDGE('',*,*,#297,.T.);
#168=ORIENTED_EDGE('',*,*,#296,.T.);
#169=ORIENTED_EDGE('',*,*,#297,.F.);
#170=ORIENTED_EDGE('',*,*,#298,.F.);
#171=ORIENTED_EDGE('',*,*,#299,.T.);
#172=ORIENTED_EDGE('',*,*,#300,.T.);
#173=ORIENTED_EDGE('',*,*,#298,.T.);
#174=ORIENTED_EDGE('',*,*,#301,.F.);
#175=ORIENTED_EDGE('',*,*,#299,.F.);
#176=ORIENTED_EDGE('',*,*,#300,.F.);
#177=ORIENTED_EDGE('',*,*,#301,.T.);
#178=ORIENTED_EDGE('',*,*,#302,.T.);
#179=ORIENTED_EDGE('',*,*,#303,.T.);
#180=ORIENTED_EDGE('',*,*,#304,.T.);
#181=ORIENTED_EDGE('',*,*,#305,.T.);
#182=ORIENTED_EDGE('',*,*,#306,.T.);
#183=ORIENTED_EDGE('',*,*,#307,.F.);
#184=ORIENTED_EDGE('',*,*,#308,.F.);
#185=ORIENTED_EDGE('',*,*,#309,.T.);
#186=ORIENTED_EDGE('',*,*,#310,.T.);
#187=ORIENTED_EDGE('',*,*,#311,.T.);
#188=ORIENTED_EDGE('',*,*,#312,.F.);
#189=ORIENTED_EDGE('',*,*,#313,.F.);
#190=ORIENTED_EDGE('',*,*,#308,.T.);
#191=ORIENTED_EDGE('',*,*,#314,.F.);
#192=ORIENTED_EDGE('',*,*,#315,.F.);
#193=ORIENTED_EDGE('',*,*,#316,.F.);
#194=ORIENTED_EDGE('',*,*,#317,.F.);
#195=ORIENTED_EDGE('',*,*,#318,.F.);
#196=ORIENTED_EDGE('',*,*,#319,.T.);
#197=ORIENTED_EDGE('',*,*,#320,.F.);
#198=ORIENTED_EDGE('',*,*,#321,.F.);
#199=ORIENTED_EDGE('',*,*,#312,.T.);
#200=ORIENTED_EDGE('',*,*,#322,.F.);
#201=ORIENTED_EDGE('',*,*,#310,.F.);
#202=ORIENTED_EDGE('',*,*,#323,.T.);
#203=ORIENTED_EDGE('',*,*,#320,.T.);
#204=ORIENTED_EDGE('',*,*,#309,.F.);
#205=ORIENTED_EDGE('',*,*,#313,.T.);
#206=ORIENTED_EDGE('',*,*,#321,.T.);
#207=ORIENTED_EDGE('',*,*,#323,.F.);
#208=ORIENTED_EDGE('',*,*,#307,.T.);
#209=ORIENTED_EDGE('',*,*,#322,.T.);
#210=ORIENTED_EDGE('',*,*,#319,.F.);
#211=ORIENTED_EDGE('',*,*,#311,.F.);
#212=ORIENTED_EDGE('',*,*,#306,.F.);
#213=ORIENTED_EDGE('',*,*,#318,.T.);
#214=ORIENTED_EDGE('',*,*,#305,.F.);
#215=ORIENTED_EDGE('',*,*,#317,.T.);
#216=ORIENTED_EDGE('',*,*,#304,.F.);
#217=ORIENTED_EDGE('',*,*,#316,.T.);
#218=ORIENTED_EDGE('',*,*,#303,.F.);
#219=ORIENTED_EDGE('',*,*,#315,.T.);
#220=ORIENTED_EDGE('',*,*,#302,.F.);
#221=ORIENTED_EDGE('',*,*,#314,.T.);
#222=ORIENTED_EDGE('',*,*,#324,.F.);
#223=ORIENTED_EDGE('',*,*,#325,.F.);
#224=ORIENTED_EDGE('',*,*,#326,.T.);
#225=ORIENTED_EDGE('',*,*,#327,.T.);
#226=ORIENTED_EDGE('',*,*,#328,.T.);
#227=ORIENTED_EDGE('',*,*,#329,.F.);
#228=ORIENTED_EDGE('',*,*,#330,.F.);
#229=ORIENTED_EDGE('',*,*,#325,.T.);
#230=ORIENTED_EDGE('',*,*,#331,.T.);
#231=ORIENTED_EDGE('',*,*,#332,.F.);
#232=ORIENTED_EDGE('',*,*,#333,.F.);
#233=ORIENTED_EDGE('',*,*,#329,.T.);
#234=ORIENTED_EDGE('',*,*,#334,.F.);
#235=ORIENTED_EDGE('',*,*,#327,.F.);
#236=ORIENTED_EDGE('',*,*,#335,.T.);
#237=ORIENTED_EDGE('',*,*,#332,.T.);
#238=ORIENTED_EDGE('',*,*,#326,.F.);
#239=ORIENTED_EDGE('',*,*,#330,.T.);
#240=ORIENTED_EDGE('',*,*,#333,.T.);
#241=ORIENTED_EDGE('',*,*,#335,.F.);
#242=ORIENTED_EDGE('',*,*,#324,.T.);
#243=ORIENTED_EDGE('',*,*,#334,.T.);
#244=ORIENTED_EDGE('',*,*,#331,.F.);
#245=ORIENTED_EDGE('',*,*,#328,.F.);
#246=ORIENTED_EDGE('',*,*,#336,.F.);
#247=ORIENTED_EDGE('',*,*,#337,.T.);
#248=ORIENTED_EDGE('',*,*,#338,.T.);
#249=ORIENTED_EDGE('',*,*,#336,.T.);
#250=ORIENTED_EDGE('',*,*,#339,.F.);
#251=ORIENTED_EDGE('',*,*,#337,.F.);
#252=ORIENTED_EDGE('',*,*,#338,.F.);
#253=ORIENTED_EDGE('',*,*,#339,.T.);
#254=ORIENTED_EDGE('',*,*,#340,.F.);
#255=ORIENTED_EDGE('',*,*,#341,.T.);
#256=ORIENTED_EDGE('',*,*,#340,.T.);
#257=ORIENTED_EDGE('',*,*,#341,.F.);
#258=EDGE_CURVE('',#342,#343,#410,.T.);
#259=EDGE_CURVE('',#344,#342,#411,.T.);
#260=EDGE_CURVE('',#344,#345,#412,.T.);
#261=EDGE_CURVE('',#345,#343,#413,.T.);
#262=EDGE_CURVE('',#342,#346,#414,.T.);
#263=EDGE_CURVE('',#347,#346,#415,.T.);
#264=EDGE_CURVE('',#344,#347,#416,.T.);
#265=EDGE_CURVE('',#346,#348,#417,.T.);
#266=EDGE_CURVE('',#349,#348,#418,.T.);
#267=EDGE_CURVE('',#347,#349,#419,.T.);
#268=EDGE_CURVE('',#343,#348,#420,.T.);
#269=EDGE_CURVE('',#345,#349,#421,.T.);
#270=EDGE_CURVE('',#350,#350,#36,.F.);
#271=EDGE_CURVE('',#351,#351,#37,.F.);
#272=EDGE_CURVE('',#352,#352,#38,.F.);
#273=EDGE_CURVE('',#353,#353,#39,.F.);
#274=EDGE_CURVE('',#354,#354,#40,.F.);
#275=EDGE_CURVE('',#355,#356,#422,.T.);
#276=EDGE_CURVE('',#357,#355,#423,.T.);
#277=EDGE_CURVE('',#357,#358,#424,.T.);
#278=EDGE_CURVE('',#358,#356,#425,.T.);
#279=EDGE_CURVE('',#355,#359,#426,.T.);
#280=EDGE_CURVE('',#360,#359,#427,.T.);
#281=EDGE_CURVE('',#357,#360,#428,.T.);
#282=EDGE_CURVE('',#361,#361,#41,.F.);
#283=EDGE_CURVE('',#362,#362,#42,.F.);
#284=EDGE_CURVE('',#363,#363,#43,.F.);
#285=EDGE_CURVE('',#364,#364,#44,.F.);
#286=EDGE_CURVE('',#365,#365,#45,.F.);
#287=EDGE_CURVE('',#359,#366,#429,.T.);
#288=EDGE_CURVE('',#367,#366,#430,.T.);
#289=EDGE_CURVE('',#360,#367,#431,.T.);
#290=EDGE_CURVE('',#356,#366,#432,.T.);
#291=EDGE_CURVE('',#358,#367,#433,.T.);
#292=EDGE_CURVE('',#368,#368,#46,.T.);
#293=EDGE_CURVE('',#369,#369,#47,.T.);
#294=EDGE_CURVE('',#370,#370,#48,.F.);
#295=EDGE_CURVE('',#371,#371,#49,.F.);
#296=EDGE_CURVE('',#372,#372,#50,.T.);
#297=EDGE_CURVE('',#373,#373,#51,.T.);
#298=EDGE_CURVE('',#374,#374,#52,.T.);
#299=EDGE_CURVE('',#375,#375,#53,.T.);
#300=EDGE_CURVE('',#376,#376,#54,.F.);
#301=EDGE_CURVE('',#377,#377,#55,.F.);
#302=EDGE_CURVE('',#378,#378,#56,.F.);
#303=EDGE_CURVE('',#379,#379,#57,.F.);
#304=EDGE_CURVE('',#380,#380,#58,.F.);
#305=EDGE_CURVE('',#381,#381,#59,.F.);
#306=EDGE_CURVE('',#382,#382,#60,.F.);
#307=EDGE_CURVE('',#383,#384,#434,.T.);
#308=EDGE_CURVE('',#385,#383,#435,.T.);
#309=EDGE_CURVE('',#385,#386,#436,.T.);
#310=EDGE_CURVE('',#386,#384,#437,.T.);
#311=EDGE_CURVE('',#383,#387,#438,.T.);
#312=EDGE_CURVE('',#388,#387,#439,.T.);
#313=EDGE_CURVE('',#385,#388,#440,.T.);
#314=EDGE_CURVE('',#389,#389,#61,.F.);
#315=EDGE_CURVE('',#390,#390,#62,.F.);
#316=EDGE_CURVE('',#391,#391,#63,.F.);
#317=EDGE_CURVE('',#392,#392,#64,.F.);
#318=EDGE_CURVE('',#393,#393,#65,.F.);
#319=EDGE_CURVE('',#387,#394,#441,.T.);
#320=EDGE_CURVE('',#395,#394,#442,.T.);
#321=EDGE_CURVE('',#388,#395,#443,.T.);
#322=EDGE_CURVE('',#384,#394,#444,.T.);
#323=EDGE_CURVE('',#386,#395,#445,.T.);
#324=EDGE_CURVE('',#396,#397,#446,.T.);
#325=EDGE_CURVE('',#398,#396,#447,.T.);
#326=EDGE_CURVE('',#398,#399,#448,.T.);
#327=EDGE_CURVE('',#399,#397,#449,.T.);
#328=EDGE_CURVE('',#396,#400,#450,.T.);
#329=EDGE_CURVE('',#401,#400,#451,.T.);
#330=EDGE_CURVE('',#398,#401,#452,.T.);
#331=EDGE_CURVE('',#400,#402,#453,.T.);
#332=EDGE_CURVE('',#403,#402,#454,.T.);
#333=EDGE_CURVE('',#401,#403,#455,.T.);
#334=EDGE_CURVE('',#397,#402,#456,.T.);
#335=EDGE_CURVE('',#399,#403,#457,.T.);
#336=EDGE_CURVE('',#404,#404,#66,.T.);
#337=EDGE_CURVE('',#405,#405,#67,.T.);
#338=EDGE_CURVE('',#406,#406,#68,.F.);
#339=EDGE_CURVE('',#407,#407,#69,.F.);
#340=EDGE_CURVE('',#408,#408,#70,.T.);
#341=EDGE_CURVE('',#409,#409,#71,.T.);
#342=VERTEX_POINT('',#1226);
#343=VERTEX_POINT('',#1227);
#344=VERTEX_POINT('',#1229);
#345=VERTEX_POINT('',#1231);
#346=VERTEX_POINT('',#1235);
#347=VERTEX_POINT('',#1237);
#348=VERTEX_POINT('',#1241);
#349=VERTEX_POINT('',#1243);
#350=VERTEX_POINT('',#1253);
#351=VERTEX_POINT('',#1255);
#352=VERTEX_POINT('',#1257);
#353=VERTEX_POINT('',#1259);
#354=VERTEX_POINT('',#1261);
#355=VERTEX_POINT('',#1263);
#356=VERTEX_POINT('',#1264);
#357=VERTEX_POINT('',#1266);
#358=VERTEX_POINT('',#1268);
#359=VERTEX_POINT('',#1272);
#360=VERTEX_POINT('',#1274);
#361=VERTEX_POINT('',#1278);
#362=VERTEX_POINT('',#1280);
#363=VERTEX_POINT('',#1282);
#364=VERTEX_POINT('',#1284);
#365=VERTEX_POINT('',#1286);
#366=VERTEX_POINT('',#1288);
#367=VERTEX_POINT('',#1290);
#368=VERTEX_POINT('',#1305);
#369=VERTEX_POINT('',#1307);
#370=VERTEX_POINT('',#1310);
#371=VERTEX_POINT('',#1313);
#372=VERTEX_POINT('',#1318);
#373=VERTEX_POINT('',#1320);
#374=VERTEX_POINT('',#1326);
#375=VERTEX_POINT('',#1328);
#376=VERTEX_POINT('',#1331);
#377=VERTEX_POINT('',#1334);
#378=VERTEX_POINT('',#1339);
#379=VERTEX_POINT('',#1341);
#380=VERTEX_POINT('',#1343);
#381=VERTEX_POINT('',#1345);
#382=VERTEX_POINT('',#1347);
#383=VERTEX_POINT('',#1349);
#384=VERTEX_POINT('',#1350);
#385=VERTEX_POINT('',#1352);
#386=VERTEX_POINT('',#1354);
#387=VERTEX_POINT('',#1358);
#388=VERTEX_POINT('',#1360);
#389=VERTEX_POINT('',#1364);
#390=VERTEX_POINT('',#1366);
#391=VERTEX_POINT('',#1368);
#392=VERTEX_POINT('',#1370);
#393=VERTEX_POINT('',#1372);
#394=VERTEX_POINT('',#1374);
#395=VERTEX_POINT('',#1376);
#396=VERTEX_POINT('',#1391);
#397=VERTEX_POINT('',#1392);
#398=VERTEX_POINT('',#1394);
#399=VERTEX_POINT('',#1396);
#400=VERTEX_POINT('',#1400);
#401=VERTEX_POINT('',#1402);
#402=VERTEX_POINT('',#1406);
#403=VERTEX_POINT('',#1408);
#404=VERTEX_POINT('',#1418);
#405=VERTEX_POINT('',#1420);
#406=VERTEX_POINT('',#1423);
#407=VERTEX_POINT('',#1426);
#408=VERTEX_POINT('',#1431);
#409=VERTEX_POINT('',#1433);
#410=LINE('',#1225,#458);
#411=LINE('',#1228,#459);
#412=LINE('',#1230,#460);
#413=LINE('',#1232,#461);
#414=LINE('',#1234,#462);
#415=LINE('',#1236,#463);
#416=LINE('',#1238,#464);
#417=LINE('',#1240,#465);
#418=LINE('',#1242,#466);
#419=LINE('',#1244,#467);
#420=LINE('',#1246,#468);
#421=LINE('',#1247,#469);
#422=LINE('',#1262,#470);
#423=LINE('',#1265,#471);
#424=LINE('',#1267,#472);
#425=LINE('',#1269,#473);
#426=LINE('',#1271,#474);
#427=LINE('',#1273,#475);
#428=LINE('',#1275,#476);
#429=LINE('',#1287,#477);
#430=LINE('',#1289,#478);
#431=LINE('',#1291,#479);
#432=LINE('',#1293,#480);
#433=LINE('',#1294,#481);
#434=LINE('',#1348,#482);
#435=LINE('',#1351,#483);
#436=LINE('',#1353,#484);
#437=LINE('',#1355,#485);
#438=LINE('',#1357,#486);
#439=LINE('',#1359,#487);
#440=LINE('',#1361,#488);
#441=LINE('',#1373,#489);
#442=LINE('',#1375,#490);
#443=LINE('',#1377,#491);
#444=LINE('',#1379,#492);
#445=LINE('',#1380,#493);
#446=LINE('',#1390,#494);
#447=LINE('',#1393,#495);
#448=LINE('',#1395,#496);
#449=LINE('',#1397,#497);
#450=LINE('',#1399,#498);
#451=LINE('',#1401,#499);
#452=LINE('',#1403,#500);
#453=LINE('',#1405,#501);
#454=LINE('',#1407,#502);
#455=LINE('',#1409,#503);
#456=LINE('',#1411,#504);
#457=LINE('',#1412,#505);
#458=VECTOR('',#985,1.);
#459=VECTOR('',#986,1.);
#460=VECTOR('',#987,1.);
#461=VECTOR('',#988,1.);
#462=VECTOR('',#991,1.);
#463=VECTOR('',#992,1.);
#464=VECTOR('',#993,1.);
#465=VECTOR('',#996,1.);
#466=VECTOR('',#997,1.);
#467=VECTOR('',#998,1.);
#468=VECTOR('',#1001,1.);
#469=VECTOR('',#1002,1.);
#470=VECTOR('',#1021,1.);
#471=VECTOR('',#1022,1.);
#472=VECTOR('',#1023,1.);
#473=VECTOR('',#1024,1.);
#474=VECTOR('',#1027,1.);
#475=VECTOR('',#1028,1.);
#476=VECTOR('',#1029,1.);
#477=VECTOR('',#1042,1.);
#478=VECTOR('',#1043,1.);
#479=VECTOR('',#1044,1.);
#480=VECTOR('',#1047,1.);
#481=VECTOR('',#1048,1.);
#482=VECTOR('',#1125,1.);
#483=VECTOR('',#1126,1.);
#484=VECTOR('',#1127,1.);
#485=VECTOR('',#1128,1.);
#486=VECTOR('',#1131,1.);
#487=VECTOR('',#1132,1.);
#488=VECTOR('',#1133,1.);
#489=VECTOR('',#1146,1.);
#490=VECTOR('',#1147,1.);
#491=VECTOR('',#1148,1.);
#492=VECTOR('',#1151,1.);
#493=VECTOR('',#1152,1.);
#494=VECTOR('',#1171,1.);
#495=VECTOR('',#1172,1.);
#496=VECTOR('',#1173,1.);
#497=VECTOR('',#1174,1.);
#498=VECTOR('',#1177,1.);
#499=VECTOR('',#1178,1.);
#500=VECTOR('',#1179,1.);
#501=VECTOR('',#1182,1.);
#502=VECTOR('',#1183,1.);
#503=VECTOR('',#1184,1.);
#504=VECTOR('',#1187,1.);
#505=VECTOR('',#1188,1.);
#506=EDGE_LOOP('',(#90,#91,#92,#93));
#507=EDGE_LOOP('',(#94,#95,#96,#97));
#508=EDGE_LOOP('',(#98,#99,#100,#101));
#509=EDGE_LOOP('',(#102,#103,#104,#105));
#510=EDGE_LOOP('',(#106,#107,#108,#109));
#511=EDGE_LOOP('',(#110,#111,#112,#113));
#512=EDGE_LOOP('',(#114));
#513=EDGE_LOOP('',(#115));
#514=EDGE_LOOP('',(#116));
#515=EDGE_LOOP('',(#117));
#516=EDGE_LOOP('',(#118));
#517=EDGE_LOOP('',(#119,#120,#121,#122));
#518=EDGE_LOOP('',(#123,#124,#125,#126));
#519=EDGE_LOOP('',(#127));
#520=EDGE_LOOP('',(#128));
#521=EDGE_LOOP('',(#129));
#522=EDGE_LOOP('',(#130));
#523=EDGE_LOOP('',(#131));
#524=EDGE_LOOP('',(#132,#133,#134,#135));
#525=EDGE_LOOP('',(#136,#137,#138,#139));
#526=EDGE_LOOP('',(#140,#141,#142,#143));
#527=EDGE_LOOP('',(#144,#145,#146,#147));
#528=EDGE_LOOP('',(#148));
#529=EDGE_LOOP('',(#149));
#530=EDGE_LOOP('',(#150));
#531=EDGE_LOOP('',(#151));
#532=EDGE_LOOP('',(#152));
#533=EDGE_LOOP('',(#153));
#534=EDGE_LOOP('',(#154));
#535=EDGE_LOOP('',(#155));
#536=EDGE_LOOP('',(#156));
#537=EDGE_LOOP('',(#157));
#538=EDGE_LOOP('',(#158));
#539=EDGE_LOOP('',(#159));
#540=EDGE_LOOP('',(#160));
#541=EDGE_LOOP('',(#161));
#542=EDGE_LOOP('',(#162));
#543=EDGE_LOOP('',(#163));
#544=EDGE_LOOP('',(#164));
#545=EDGE_LOOP('',(#165));
#546=EDGE_LOOP('',(#166));
#547=EDGE_LOOP('',(#167));
#548=EDGE_LOOP('',(#168));
#549=EDGE_LOOP('',(#169));
#550=EDGE_LOOP('',(#170));
#551=EDGE_LOOP('',(#171));
#552=EDGE_LOOP('',(#172));
#553=EDGE_LOOP('',(#173));
#554=EDGE_LOOP('',(#174));
#555=EDGE_LOOP('',(#175));
#556=EDGE_LOOP('',(#176));
#557=EDGE_LOOP('',(#177));
#558=EDGE_LOOP('',(#178));
#559=EDGE_LOOP('',(#179));
#560=EDGE_LOOP('',(#180));
#561=EDGE_LOOP('',(#181));
#562=EDGE_LOOP('',(#182));
#563=EDGE_LOOP('',(#183,#184,#185,#186));
#564=EDGE_LOOP('',(#187,#188,#189,#190));
#565=EDGE_LOOP('',(#191));
#566=EDGE_LOOP('',(#192));
#567=EDGE_LOOP('',(#193));
#568=EDGE_LOOP('',(#194));
#569=EDGE_LOOP('',(#195));
#570=EDGE_LOOP('',(#196,#197,#198,#199));
#571=EDGE_LOOP('',(#200,#201,#202,#203));
#572=EDGE_LOOP('',(#204,#205,#206,#207));
#573=EDGE_LOOP('',(#208,#209,#210,#211));
#574=EDGE_LOOP('',(#212));
#575=EDGE_LOOP('',(#213));
#576=EDGE_LOOP('',(#214));
#577=EDGE_LOOP('',(#215));
#578=EDGE_LOOP('',(#216));
#579=EDGE_LOOP('',(#217));
#580=EDGE_LOOP('',(#218));
#581=EDGE_LOOP('',(#219));
#582=EDGE_LOOP('',(#220));
#583=EDGE_LOOP('',(#221));
#584=EDGE_LOOP('',(#222,#223,#224,#225));
#585=EDGE_LOOP('',(#226,#227,#228,#229));
#586=EDGE_LOOP('',(#230,#231,#232,#233));
#587=EDGE_LOOP('',(#234,#235,#236,#237));
#588=EDGE_LOOP('',(#238,#239,#240,#241));
#589=EDGE_LOOP('',(#242,#243,#244,#245));
#590=EDGE_LOOP('',(#246));
#591=EDGE_LOOP('',(#247));
#592=EDGE_LOOP('',(#248));
#593=EDGE_LOOP('',(#249));
#594=EDGE_LOOP('',(#250));
#595=EDGE_LOOP('',(#251));
#596=EDGE_LOOP('',(#252));
#597=EDGE_LOOP('',(#253));
#598=EDGE_LOOP('',(#254));
#599=EDGE_LOOP('',(#255));
#600=EDGE_LOOP('',(#256));
#601=EDGE_LOOP('',(#257));
#602=FACE_BOUND('',#506,.T.);
#603=FACE_BOUND('',#507,.T.);
#604=FACE_BOUND('',#508,.T.);
#605=FACE_BOUND('',#509,.T.);
#606=FACE_BOUND('',#510,.T.);
#607=FACE_BOUND('',#511,.T.);
#608=FACE_BOUND('',#512,.T.);
#609=FACE_BOUND('',#513,.T.);
#610=FACE_BOUND('',#514,.T.);
#611=FACE_BOUND('',#515,.T.);
#612=FACE_BOUND('',#516,.T.);
#613=FACE_BOUND('',#517,.T.);
#614=FACE_BOUND('',#518,.T.);
#615=FACE_BOUND('',#519,.T.);
#616=FACE_BOUND('',#520,.T.);
#617=FACE_BOUND('',#521,.T.);
#618=FACE_BOUND('',#522,.T.);
#619=FACE_BOUND('',#523,.T.);
#620=FACE_BOUND('',#524,.T.);
#621=FACE_BOUND('',#525,.T.);
#622=FACE_BOUND('',#526,.T.);
#623=FACE_BOUND('',#527,.T.);
#624=FACE_BOUND('',#528,.T.);
#625=FACE_BOUND('',#529,.T.);
#626=FACE_BOUND('',#530,.T.);
#627=FACE_BOUND('',#531,.T.);
#628=FACE_BOUND('',#532,.T.);
#629=FACE_BOUND('',#533,.T.);
#630=FACE_BOUND('',#534,.T.);
#631=FACE_BOUND('',#535,.T.);
#632=FACE_BOUND('',#536,.T.);
#633=FACE_BOUND('',#537,.T.);
#634=FACE_BOUND('',#538,.T.);
#635=FACE_BOUND('',#539,.T.);
#636=FACE_BOUND('',#540,.T.);
#637=FACE_BOUND('',#541,.T.);
#638=FACE_BOUND('',#542,.T.);
#639=FACE_BOUND('',#543,.T.);
#640=FACE_BOUND('',#544,.T.);
#641=FACE_BOUND('',#545,.T.);
#642=FACE_BOUND('',#546,.T.);
#643=FACE_BOUND('',#547,.T.);
#644=FACE_BOUND('',#548,.T.);
#645=FACE_BOUND('',#549,.T.);
#646=FACE_BOUND('',#550,.T.);
#647=FACE_BOUND('',#551,.T.);
#648=FACE_BOUND('',#552,.T.);
#649=FACE_BOUND('',#553,.T.);
#650=FACE_BOUND('',#554,.T.);
#651=FACE_BOUND('',#555,.T.);
#652=FACE_BOUND('',#556,.T.);
#653=FACE_BOUND('',#557,.T.);
#654=FACE_BOUND('',#558,.T.);
#655=FACE_BOUND('',#559,.T.);
#656=FACE_BOUND('',#560,.T.);
#657=FACE_BOUND('',#561,.T.);
#658=FACE_BOUND('',#562,.T.);
#659=FACE_BOUND('',#563,.T.);
#660=FACE_BOUND('',#564,.T.);
#661=FACE_BOUND('',#565,.T.);
#662=FACE_BOUND('',#566,.T.);
#663=FACE_BOUND('',#567,.T.);
#664=FACE_BOUND('',#568,.T.);
#665=FACE_BOUND('',#569,.T.);
#666=FACE_BOUND('',#570,.T.);
#667=FACE_BOUND('',#571,.T.);
#668=FACE_BOUND('',#572,.T.);
#669=FACE_BOUND('',#573,.T.);
#670=FACE_BOUND('',#574,.T.);
#671=FACE_BOUND('',#575,.T.);
#672=FACE_BOUND('',#576,.T.);
#673=FACE_BOUND('',#577,.T.);
#674=FACE_BOUND('',#578,.T.);
#675=FACE_BOUND('',#579,.T.);
#676=FACE_BOUND('',#580,.T.);
#677=FACE_BOUND('',#581,.T.);
#678=FACE_BOUND('',#582,.T.);
#679=FACE_BOUND('',#583,.T.);
#680=FACE_BOUND('',#584,.T.);
#681=FACE_BOUND('',#585,.T.);
#682=FACE_BOUND('',#586,.T.);
#683=FACE_BOUND('',#587,.T.);
#684=FACE_BOUND('',#588,.T.);
#685=FACE_BOUND('',#589,.T.);
#686=FACE_BOUND('',#590,.T.);
#687=FACE_BOUND('',#591,.T.);
#688=FACE_BOUND('',#592,.T.);
#689=FACE_BOUND('',#593,.T.);
#690=FACE_BOUND('',#594,.T.);
#691=FACE_BOUND('',#595,.T.);
#692=FACE_BOUND('',#596,.T.);
#693=FACE_BOUND('',#597,.T.);
#694=FACE_BOUND('',#598,.T.);
#695=FACE_BOUND('',#599,.T.);
#696=FACE_BOUND('',#600,.T.);
#697=FACE_BOUND('',#601,.T.);
#698=PLANE('',#885);
#699=PLANE('',#886);
#700=PLANE('',#887);
#701=PLANE('',#888);
#702=PLANE('',#889);
#703=PLANE('',#890);
#704=PLANE('',#892);
#705=PLANE('',#898);
#706=PLANE('',#899);
#707=PLANE('',#905);
#708=PLANE('',#906);
#709=PLANE('',#907);
#710=PLANE('',#917);
#711=PLANE('',#919);
#712=PLANE('',#926);
#713=PLANE('',#927);
#714=PLANE('',#932);
#715=PLANE('',#934);
#716=PLANE('',#938);
#717=PLANE('',#944);
#718=PLANE('',#945);
#719=PLANE('',#951);
#720=PLANE('',#952);
#721=PLANE('',#953);
#722=PLANE('',#960);
#723=PLANE('',#961);
#724=PLANE('',#962);
#725=PLANE('',#963);
#726=PLANE('',#964);
#727=PLANE('',#965);
#728=PLANE('',#970);
#729=PLANE('',#972);
#730=PLANE('',#979);
#731=PLANE('',#980);
#732=ADVANCED_FACE('',(#602),#698,.T.);
#733=ADVANCED_FACE('',(#603),#699,.F.);
#734=ADVANCED_FACE('',(#604),#700,.F.);
#735=ADVANCED_FACE('',(#605),#701,.T.);
#736=ADVANCED_FACE('',(#606),#702,.T.);
#737=ADVANCED_FACE('',(#607),#703,.F.);
#738=ADVANCED_FACE('',(#608,#609,#610,#611,#612,#613),#704,.T.);
#739=ADVANCED_FACE('',(#614),#705,.F.);
#740=ADVANCED_FACE('',(#615,#616,#617,#618,#619,#620),#706,.F.);
#741=ADVANCED_FACE('',(#621),#707,.T.);
#742=ADVANCED_FACE('',(#622),#708,.T.);
#743=ADVANCED_FACE('',(#623),#709,.F.);
#744=ADVANCED_FACE('',(#624,#625),#18,.F.);
#745=ADVANCED_FACE('',(#626,#627),#19,.F.);
#746=ADVANCED_FACE('',(#628,#629),#20,.F.);
#747=ADVANCED_FACE('',(#630,#631),#21,.F.);
#748=ADVANCED_FACE('',(#632,#633),#22,.F.);
#749=ADVANCED_FACE('',(#634,#635),#23,.T.);
#750=ADVANCED_FACE('',(#636,#637),#710,.T.);
#751=ADVANCED_FACE('',(#638,#639),#711,.F.);
#752=ADVANCED_FACE('',(#640,#641),#24,.F.);
#753=ADVANCED_FACE('',(#642,#643),#25,.T.);
#754=ADVANCED_FACE('',(#644),#712,.T.);
#755=ADVANCED_FACE('',(#645),#713,.F.);
#756=ADVANCED_FACE('',(#646,#647),#26,.T.);
#757=ADVANCED_FACE('',(#648,#649),#714,.T.);
#758=ADVANCED_FACE('',(#650,#651),#715,.F.);
#759=ADVANCED_FACE('',(#652,#653),#27,.F.);
#760=ADVANCED_FACE('',(#654,#655,#656,#657,#658,#659),#716,.T.);
#761=ADVANCED_FACE('',(#660),#717,.F.);
#762=ADVANCED_FACE('',(#661,#662,#663,#664,#665,#666),#718,.F.);
#763=ADVANCED_FACE('',(#667),#719,.T.);
#764=ADVANCED_FACE('',(#668),#720,.T.);
#765=ADVANCED_FACE('',(#669),#721,.F.);
#766=ADVANCED_FACE('',(#670,#671),#28,.F.);
#767=ADVANCED_FACE('',(#672,#673),#29,.F.);
#768=ADVANCED_FACE('',(#674,#675),#30,.F.);
#769=ADVANCED_FACE('',(#676,#677),#31,.F.);
#770=ADVANCED_FACE('',(#678,#679),#32,.F.);
#771=ADVANCED_FACE('',(#680),#722,.T.);
#772=ADVANCED_FACE('',(#681),#723,.F.);
#773=ADVANCED_FACE('',(#682),#724,.F.);
#774=ADVANCED_FACE('',(#683),#725,.T.);
#775=ADVANCED_FACE('',(#684),#726,.T.);
#776=ADVANCED_FACE('',(#685),#727,.F.);
#777=ADVANCED_FACE('',(#686,#687),#33,.T.);
#778=ADVANCED_FACE('',(#688,#689),#728,.T.);
#779=ADVANCED_FACE('',(#690,#691),#729,.F.);
#780=ADVANCED_FACE('',(#692,#693),#34,.F.);
#781=ADVANCED_FACE('',(#694,#695),#35,.T.);
#782=ADVANCED_FACE('',(#696),#730,.T.);
#783=ADVANCED_FACE('',(#697),#731,.F.);
#784=CLOSED_SHELL('',(#732,#733,#734,#735,#736,#737));
#785=CLOSED_SHELL('',(#738,#739,#740,#741,#742,#743,#744,#745,#746,#747,
#748));
#786=CLOSED_SHELL('',(#749,#750,#751,#752));
#787=CLOSED_SHELL('',(#753,#754,#755));
#788=CLOSED_SHELL('',(#756,#757,#758,#759));
#789=CLOSED_SHELL('',(#760,#761,#762,#763,#764,#765,#766,#767,#768,#769,
#770));
#790=CLOSED_SHELL('',(#771,#772,#773,#774,#775,#776));
#791=CLOSED_SHELL('',(#777,#778,#779,#780));
#792=CLOSED_SHELL('',(#781,#782,#783));
#793=STYLED_ITEM('',(#802),#857);
#794=STYLED_ITEM('',(#803),#858);
#795=STYLED_ITEM('',(#804),#859);
#796=STYLED_ITEM('',(#805),#860);
#797=STYLED_ITEM('',(#806),#861);
#798=STYLED_ITEM('',(#807),#862);
#799=STYLED_ITEM('',(#808),#863);
#800=STYLED_ITEM('',(#809),#864);
#801=STYLED_ITEM('',(#810),#865);
#802=PRESENTATION_STYLE_ASSIGNMENT((#811));
#803=PRESENTATION_STYLE_ASSIGNMENT((#812));
#804=PRESENTATION_STYLE_ASSIGNMENT((#813));
#805=PRESENTATION_STYLE_ASSIGNMENT((#814));
#806=PRESENTATION_STYLE_ASSIGNMENT((#815));
#807=PRESENTATION_STYLE_ASSIGNMENT((#816));
#808=PRESENTATION_STYLE_ASSIGNMENT((#817));
#809=PRESENTATION_STYLE_ASSIGNMENT((#818));
#810=PRESENTATION_STYLE_ASSIGNMENT((#819));
#811=SURFACE_STYLE_USAGE(.BOTH.,#820);
#812=SURFACE_STYLE_USAGE(.BOTH.,#821);
#813=SURFACE_STYLE_USAGE(.BOTH.,#822);
#814=SURFACE_STYLE_USAGE(.BOTH.,#823);
#815=SURFACE_STYLE_USAGE(.BOTH.,#824);
#816=SURFACE_STYLE_USAGE(.BOTH.,#825);
#817=SURFACE_STYLE_USAGE(.BOTH.,#826);
#818=SURFACE_STYLE_USAGE(.BOTH.,#827);
#819=SURFACE_STYLE_USAGE(.BOTH.,#828);
#820=SURFACE_SIDE_STYLE('',(#829));
#821=SURFACE_SIDE_STYLE('',(#830));
#822=SURFACE_SIDE_STYLE('',(#831));
#823=SURFACE_SIDE_STYLE('',(#832));
#824=SURFACE_SIDE_STYLE('',(#833));
#825=SURFACE_SIDE_STYLE('',(#834));
#826=SURFACE_SIDE_STYLE('',(#835));
#827=SURFACE_SIDE_STYLE('',(#836));
#828=SURFACE_SIDE_STYLE('',(#837));
#829=SURFACE_STYLE_FILL_AREA(#838);
#830=SURFACE_STYLE_FILL_AREA(#839);
#831=SURFACE_STYLE_FILL_AREA(#840);
#832=SURFACE_STYLE_FILL_AREA(#841);
#833=SURFACE_STYLE_FILL_AREA(#842);
#834=SURFACE_STYLE_FILL_AREA(#843);
#835=SURFACE_STYLE_FILL_AREA(#844);
#836=SURFACE_STYLE_FILL_AREA(#845);
#837=SURFACE_STYLE_FILL_AREA(#846);
#838=FILL_AREA_STYLE('',(#847));
#839=FILL_AREA_STYLE('',(#848));
#840=FILL_AREA_STYLE('',(#849));
#841=FILL_AREA_STYLE('',(#850));
#842=FILL_AREA_STYLE('',(#851));
#843=FILL_AREA_STYLE('',(#852));
#844=FILL_AREA_STYLE('',(#853));
#845=FILL_AREA_STYLE('',(#854));
#846=FILL_AREA_STYLE('',(#855));
#847=FILL_AREA_STYLE_COLOUR('',#856);
#848=FILL_AREA_STYLE_COLOUR('',#856);
#849=FILL_AREA_STYLE_COLOUR('',#856);
#850=FILL_AREA_STYLE_COLOUR('',#856);
#851=FILL_AREA_STYLE_COLOUR('',#856);
#852=FILL_AREA_STYLE_COLOUR('',#856);
#853=FILL_AREA_STYLE_COLOUR('',#856);
#854=FILL_AREA_STYLE_COLOUR('',#856);
#855=FILL_AREA_STYLE_COLOUR('',#856);
#856=COLOUR_RGB('',0.615686274509804,0.811764705882353,0.929411764705882);
#857=MANIFOLD_SOLID_BREP('rearCrossmember',#784);
#858=MANIFOLD_SOLID_BREP('rightPlate',#785);
#859=MANIFOLD_SOLID_BREP('frontRoller',#786);
#860=MANIFOLD_SOLID_BREP('rearShaft',#787);
#861=MANIFOLD_SOLID_BREP('rearRoller',#788);
#862=MANIFOLD_SOLID_BREP('leftPlate',#789);
#863=MANIFOLD_SOLID_BREP('frontCrossmember',#790);
#864=MANIFOLD_SOLID_BREP('coralReference',#791);
#865=MANIFOLD_SOLID_BREP('frontShaft',#792);
#866=SHAPE_DEFINITION_REPRESENTATION(#1490,#875);
#867=SHAPE_DEFINITION_REPRESENTATION(#1491,#876);
#868=SHAPE_DEFINITION_REPRESENTATION(#1492,#877);
#869=SHAPE_DEFINITION_REPRESENTATION(#1493,#878);
#870=SHAPE_DEFINITION_REPRESENTATION(#1494,#879);
#871=SHAPE_DEFINITION_REPRESENTATION(#1495,#880);
#872=SHAPE_DEFINITION_REPRESENTATION(#1496,#881);
#873=SHAPE_DEFINITION_REPRESENTATION(#1497,#882);
#874=SHAPE_DEFINITION_REPRESENTATION(#1498,#883);
#875=SHAPE_REPRESENTATION('rearCrossmember',(#884),#1445);
#876=SHAPE_REPRESENTATION('rightPlate',(#891),#1446);
#877=SHAPE_REPRESENTATION('frontRoller',(#913),#1447);
#878=SHAPE_REPRESENTATION('rearShaft',(#922),#1448);
#879=SHAPE_REPRESENTATION('rearRoller',(#928),#1449);
#880=SHAPE_REPRESENTATION('leftPlate',(#937),#1450);
#881=SHAPE_REPRESENTATION('frontCrossmember',(#959),#1451);
#882=SHAPE_REPRESENTATION('coralReference',(#966),#1452);
#883=SHAPE_REPRESENTATION('frontShaft',(#975),#1453);
#884=AXIS2_PLACEMENT_3D('',#1223,#981,#982);
#885=AXIS2_PLACEMENT_3D('',#1224,#983,#984);
#886=AXIS2_PLACEMENT_3D('',#1233,#989,#990);
#887=AXIS2_PLACEMENT_3D('',#1239,#994,#995);
#888=AXIS2_PLACEMENT_3D('',#1245,#999,#1000);
#889=AXIS2_PLACEMENT_3D('',#1248,#1003,#1004);
#890=AXIS2_PLACEMENT_3D('',#1249,#1005,#1006);
#891=AXIS2_PLACEMENT_3D('',#1250,#1007,#1008);
#892=AXIS2_PLACEMENT_3D('',#1251,#1009,#1010);
#893=AXIS2_PLACEMENT_3D('',#1252,#1011,#1012);
#894=AXIS2_PLACEMENT_3D('',#1254,#1013,#1014);
#895=AXIS2_PLACEMENT_3D('',#1256,#1015,#1016);
#896=AXIS2_PLACEMENT_3D('',#1258,#1017,#1018);
#897=AXIS2_PLACEMENT_3D('',#1260,#1019,#1020);
#898=AXIS2_PLACEMENT_3D('',#1270,#1025,#1026);
#899=AXIS2_PLACEMENT_3D('',#1276,#1030,#1031);
#900=AXIS2_PLACEMENT_3D('',#1277,#1032,#1033);
#901=AXIS2_PLACEMENT_3D('',#1279,#1034,#1035);
#902=AXIS2_PLACEMENT_3D('',#1281,#1036,#1037);
#903=AXIS2_PLACEMENT_3D('',#1283,#1038,#1039);
#904=AXIS2_PLACEMENT_3D('',#1285,#1040,#1041);
#905=AXIS2_PLACEMENT_3D('',#1292,#1045,#1046);
#906=AXIS2_PLACEMENT_3D('',#1295,#1049,#1050);
#907=AXIS2_PLACEMENT_3D('',#1296,#1051,#1052);
#908=AXIS2_PLACEMENT_3D('',#1297,#1053,#1054);
#909=AXIS2_PLACEMENT_3D('',#1298,#1055,#1056);
#910=AXIS2_PLACEMENT_3D('',#1299,#1057,#1058);
#911=AXIS2_PLACEMENT_3D('',#1300,#1059,#1060);
#912=AXIS2_PLACEMENT_3D('',#1301,#1061,#1062);
#913=AXIS2_PLACEMENT_3D('',#1302,#1063,#1064);
#914=AXIS2_PLACEMENT_3D('',#1303,#1065,#1066);
#915=AXIS2_PLACEMENT_3D('',#1304,#1067,#1068);
#916=AXIS2_PLACEMENT_3D('',#1306,#1069,#1070);
#917=AXIS2_PLACEMENT_3D('',#1308,#1071,#1072);
#918=AXIS2_PLACEMENT_3D('',#1309,#1073,#1074);
#919=AXIS2_PLACEMENT_3D('',#1311,#1075,#1076);
#920=AXIS2_PLACEMENT_3D('',#1312,#1077,#1078);
#921=AXIS2_PLACEMENT_3D('',#1314,#1079,#1080);
#922=AXIS2_PLACEMENT_3D('',#1315,#1081,#1082);
#923=AXIS2_PLACEMENT_3D('',#1316,#1083,#1084);
#924=AXIS2_PLACEMENT_3D('',#1317,#1085,#1086);
#925=AXIS2_PLACEMENT_3D('',#1319,#1087,#1088);
#926=AXIS2_PLACEMENT_3D('',#1321,#1089,#1090);
#927=AXIS2_PLACEMENT_3D('',#1322,#1091,#1092);
#928=AXIS2_PLACEMENT_3D('',#1323,#1093,#1094);
#929=AXIS2_PLACEMENT_3D('',#1324,#1095,#1096);
#930=AXIS2_PLACEMENT_3D('',#1325,#1097,#1098);
#931=AXIS2_PLACEMENT_3D('',#1327,#1099,#1100);
#932=AXIS2_PLACEMENT_3D('',#1329,#1101,#1102);
#933=AXIS2_PLACEMENT_3D('',#1330,#1103,#1104);
#934=AXIS2_PLACEMENT_3D('',#1332,#1105,#1106);
#935=AXIS2_PLACEMENT_3D('',#1333,#1107,#1108);
#936=AXIS2_PLACEMENT_3D('',#1335,#1109,#1110);
#937=AXIS2_PLACEMENT_3D('',#1336,#1111,#1112);
#938=AXIS2_PLACEMENT_3D('',#1337,#1113,#1114);
#939=AXIS2_PLACEMENT_3D('',#1338,#1115,#1116);
#940=AXIS2_PLACEMENT_3D('',#1340,#1117,#1118);
#941=AXIS2_PLACEMENT_3D('',#1342,#1119,#1120);
#942=AXIS2_PLACEMENT_3D('',#1344,#1121,#1122);
#943=AXIS2_PLACEMENT_3D('',#1346,#1123,#1124);
#944=AXIS2_PLACEMENT_3D('',#1356,#1129,#1130);
#945=AXIS2_PLACEMENT_3D('',#1362,#1134,#1135);
#946=AXIS2_PLACEMENT_3D('',#1363,#1136,#1137);
#947=AXIS2_PLACEMENT_3D('',#1365,#1138,#1139);
#948=AXIS2_PLACEMENT_3D('',#1367,#1140,#1141);
#949=AXIS2_PLACEMENT_3D('',#1369,#1142,#1143);
#950=AXIS2_PLACEMENT_3D('',#1371,#1144,#1145);
#951=AXIS2_PLACEMENT_3D('',#1378,#1149,#1150);
#952=AXIS2_PLACEMENT_3D('',#1381,#1153,#1154);
#953=AXIS2_PLACEMENT_3D('',#1382,#1155,#1156);
#954=AXIS2_PLACEMENT_3D('',#1383,#1157,#1158);
#955=AXIS2_PLACEMENT_3D('',#1384,#1159,#1160);
#956=AXIS2_PLACEMENT_3D('',#1385,#1161,#1162);
#957=AXIS2_PLACEMENT_3D('',#1386,#1163,#1164);
#958=AXIS2_PLACEMENT_3D('',#1387,#1165,#1166);
#959=AXIS2_PLACEMENT_3D('',#1388,#1167,#1168);
#960=AXIS2_PLACEMENT_3D('',#1389,#1169,#1170);
#961=AXIS2_PLACEMENT_3D('',#1398,#1175,#1176);
#962=AXIS2_PLACEMENT_3D('',#1404,#1180,#1181);
#963=AXIS2_PLACEMENT_3D('',#1410,#1185,#1186);
#964=AXIS2_PLACEMENT_3D('',#1413,#1189,#1190);
#965=AXIS2_PLACEMENT_3D('',#1414,#1191,#1192);
#966=AXIS2_PLACEMENT_3D('',#1415,#1193,#1194);
#967=AXIS2_PLACEMENT_3D('',#1416,#1195,#1196);
#968=AXIS2_PLACEMENT_3D('',#1417,#1197,#1198);
#969=AXIS2_PLACEMENT_3D('',#1419,#1199,#1200);
#970=AXIS2_PLACEMENT_3D('',#1421,#1201,#1202);
#971=AXIS2_PLACEMENT_3D('',#1422,#1203,#1204);
#972=AXIS2_PLACEMENT_3D('',#1424,#1205,#1206);
#973=AXIS2_PLACEMENT_3D('',#1425,#1207,#1208);
#974=AXIS2_PLACEMENT_3D('',#1427,#1209,#1210);
#975=AXIS2_PLACEMENT_3D('',#1428,#1211,#1212);
#976=AXIS2_PLACEMENT_3D('',#1429,#1213,#1214);
#977=AXIS2_PLACEMENT_3D('',#1430,#1215,#1216);
#978=AXIS2_PLACEMENT_3D('',#1432,#1217,#1218);
#979=AXIS2_PLACEMENT_3D('',#1434,#1219,#1220);
#980=AXIS2_PLACEMENT_3D('',#1435,#1221,#1222);
#981=DIRECTION('',(0.,0.,1.));
#982=DIRECTION('',(1.,0.,0.));
#983=DIRECTION('',(-1.,0.,0.));
#984=DIRECTION('',(0.,0.,1.));
#985=DIRECTION('',(0.,1.,0.));
#986=DIRECTION('',(0.,0.,-1.));
#987=DIRECTION('',(0.,1.,0.));
#988=DIRECTION('',(0.,0.,-1.));
#989=DIRECTION('',(0.,1.,0.));
#990=DIRECTION('',(0.,0.,1.));
#991=DIRECTION('',(1.,0.,0.));
#992=DIRECTION('',(0.,0.,-1.));
#993=DIRECTION('',(1.,0.,0.));
#994=DIRECTION('',(-1.,0.,0.));
#995=DIRECTION('',(0.,0.,1.));
#996=DIRECTION('',(0.,1.,0.));
#997=DIRECTION('',(0.,0.,-1.));
#998=DIRECTION('',(0.,1.,0.));
#999=DIRECTION('',(0.,1.,0.));
#1000=DIRECTION('',(0.,0.,1.));
#1001=DIRECTION('',(1.,0.,0.));
#1002=DIRECTION('',(1.,0.,0.));
#1003=DIRECTION('',(0.,0.,1.));
#1004=DIRECTION('',(1.,0.,0.));
#1005=DIRECTION('',(0.,0.,1.));
#1006=DIRECTION('',(1.,0.,0.));
#1007=DIRECTION('',(0.,0.,1.));
#1008=DIRECTION('',(1.,0.,0.));
#1009=DIRECTION('',(-1.,0.,0.));
#1010=DIRECTION('',(0.,0.,1.));
#1011=DIRECTION('',(-1.,0.,0.));
#1012=DIRECTION('',(0.,0.,1.));
#1013=DIRECTION('',(-1.,0.,0.));
#1014=DIRECTION('',(0.,0.,1.));
#1015=DIRECTION('',(-1.,0.,0.));
#1016=DIRECTION('',(0.,0.,1.));
#1017=DIRECTION('',(-1.,0.,0.));
#1018=DIRECTION('',(0.,0.,1.));
#1019=DIRECTION('',(-1.,0.,0.));
#1020=DIRECTION('',(0.,0.,1.));
#1021=DIRECTION('',(0.,1.,0.));
#1022=DIRECTION('',(0.,0.,-1.));
#1023=DIRECTION('',(0.,1.,0.));
#1024=DIRECTION('',(0.,0.,-1.));
#1025=DIRECTION('',(0.,1.,0.));
#1026=DIRECTION('',(0.,0.,1.));
#1027=DIRECTION('',(1.,0.,0.));
#1028=DIRECTION('',(0.,0.,-1.));
#1029=DIRECTION('',(1.,0.,0.));
#1030=DIRECTION('',(-1.,0.,0.));
#1031=DIRECTION('',(0.,0.,1.));
#1032=DIRECTION('',(-1.,0.,0.));
#1033=DIRECTION('',(0.,0.,1.));
#1034=DIRECTION('',(-1.,0.,0.));
#1035=DIRECTION('',(0.,0.,1.));
#1036=DIRECTION('',(-1.,0.,0.));
#1037=DIRECTION('',(0.,0.,1.));
#1038=DIRECTION('',(-1.,0.,0.));
#1039=DIRECTION('',(0.,0.,1.));
#1040=DIRECTION('',(-1.,0.,0.));
#1041=DIRECTION('',(0.,0.,1.));
#1042=DIRECTION('',(0.,1.,0.));
#1043=DIRECTION('',(0.,0.,-1.));
#1044=DIRECTION('',(0.,1.,0.));
#1045=DIRECTION('',(0.,1.,0.));
#1046=DIRECTION('',(0.,0.,1.));
#1047=DIRECTION('',(1.,0.,0.));
#1048=DIRECTION('',(1.,0.,0.));
#1049=DIRECTION('',(0.,0.,1.));
#1050=DIRECTION('',(1.,0.,0.));
#1051=DIRECTION('',(0.,0.,1.));
#1052=DIRECTION('',(1.,0.,0.));
#1053=DIRECTION('',(-1.,0.,0.));
#1054=DIRECTION('',(0.,0.,1.));
#1055=DIRECTION('',(-1.,0.,0.));
#1056=DIRECTION('',(0.,0.,1.));
#1057=DIRECTION('',(-1.,0.,0.));
#1058=DIRECTION('',(0.,0.,1.));
#1059=DIRECTION('',(-1.,0.,0.));
#1060=DIRECTION('',(0.,0.,1.));
#1061=DIRECTION('',(-1.,0.,0.));
#1062=DIRECTION('',(0.,0.,1.));
#1063=DIRECTION('',(0.,0.,1.));
#1064=DIRECTION('',(1.,0.,0.));
#1065=DIRECTION('',(-1.,0.,0.));
#1066=DIRECTION('',(0.,0.,1.));
#1067=DIRECTION('',(1.,0.,0.));
#1068=DIRECTION('',(0.,0.,-1.));
#1069=DIRECTION('',(1.,0.,0.));
#1070=DIRECTION('',(0.,0.,-1.));
#1071=DIRECTION('',(1.,0.,0.));
#1072=DIRECTION('',(0.,1.,0.));
#1073=DIRECTION('',(1.,0.,0.));
#1074=DIRECTION('',(0.,0.,-1.));
#1075=DIRECTION('',(1.,0.,0.));
#1076=DIRECTION('',(0.,1.,0.));
#1077=DIRECTION('',(1.,0.,0.));
#1078=DIRECTION('',(0.,0.,-1.));
#1079=DIRECTION('',(-1.,0.,0.));
#1080=DIRECTION('',(0.,0.,1.));
#1081=DIRECTION('',(0.,0.,1.));
#1082=DIRECTION('',(1.,0.,0.));
#1083=DIRECTION('',(-1.,0.,0.));
#1084=DIRECTION('',(0.,0.,1.));
#1085=DIRECTION('',(1.,0.,0.));
#1086=DIRECTION('',(0.,0.,-1.));
#1087=DIRECTION('',(1.,0.,0.));
#1088=DIRECTION('',(0.,0.,-1.));
#1089=DIRECTION('',(1.,0.,0.));
#1090=DIRECTION('',(0.,1.,0.));
#1091=DIRECTION('',(1.,0.,0.));
#1092=DIRECTION('',(0.,1.,0.));
#1093=DIRECTION('',(0.,0.,1.));
#1094=DIRECTION('',(1.,0.,0.));
#1095=DIRECTION('',(-1.,0.,0.));
#1096=DIRECTION('',(0.,0.,1.));
#1097=DIRECTION('',(1.,0.,0.));
#1098=DIRECTION('',(0.,0.,-1.));
#1099=DIRECTION('',(1.,0.,0.));
#1100=DIRECTION('',(0.,0.,-1.));
#1101=DIRECTION('',(1.,0.,0.));
#1102=DIRECTION('',(0.,1.,0.));
#1103=DIRECTION('',(1.,0.,0.));
#1104=DIRECTION('',(0.,0.,-1.));
#1105=DIRECTION('',(1.,0.,0.));
#1106=DIRECTION('',(0.,1.,0.));
#1107=DIRECTION('',(1.,0.,0.));
#1108=DIRECTION('',(0.,0.,-1.));
#1109=DIRECTION('',(-1.,0.,0.));
#1110=DIRECTION('',(0.,0.,1.));
#1111=DIRECTION('',(0.,0.,1.));
#1112=DIRECTION('',(1.,0.,0.));
#1113=DIRECTION('',(-1.,0.,0.));
#1114=DIRECTION('',(0.,0.,1.));
#1115=DIRECTION('',(-1.,0.,0.));
#1116=DIRECTION('',(0.,0.,1.));
#1117=DIRECTION('',(-1.,0.,0.));
#1118=DIRECTION('',(0.,0.,1.));
#1119=DIRECTION('',(-1.,0.,0.));
#1120=DIRECTION('',(0.,0.,1.));
#1121=DIRECTION('',(-1.,0.,0.));
#1122=DIRECTION('',(0.,0.,1.));
#1123=DIRECTION('',(-1.,0.,0.));
#1124=DIRECTION('',(0.,0.,1.));
#1125=DIRECTION('',(0.,1.,0.));
#1126=DIRECTION('',(0.,0.,-1.));
#1127=DIRECTION('',(0.,1.,0.));
#1128=DIRECTION('',(0.,0.,-1.));
#1129=DIRECTION('',(0.,1.,0.));
#1130=DIRECTION('',(0.,0.,1.));
#1131=DIRECTION('',(1.,0.,0.));
#1132=DIRECTION('',(0.,0.,-1.));
#1133=DIRECTION('',(1.,0.,0.));
#1134=DIRECTION('',(-1.,0.,0.));
#1135=DIRECTION('',(0.,0.,1.));
#1136=DIRECTION('',(-1.,0.,0.));
#1137=DIRECTION('',(0.,0.,1.));
#1138=DIRECTION('',(-1.,0.,0.));
#1139=DIRECTION('',(0.,0.,1.));
#1140=DIRECTION('',(-1.,0.,0.));
#1141=DIRECTION('',(0.,0.,1.));
#1142=DIRECTION('',(-1.,0.,0.));
#1143=DIRECTION('',(0.,0.,1.));
#1144=DIRECTION('',(-1.,0.,0.));
#1145=DIRECTION('',(0.,0.,1.));
#1146=DIRECTION('',(0.,1.,0.));
#1147=DIRECTION('',(0.,0.,-1.));
#1148=DIRECTION('',(0.,1.,0.));
#1149=DIRECTION('',(0.,1.,0.));
#1150=DIRECTION('',(0.,0.,1.));
#1151=DIRECTION('',(1.,0.,0.));
#1152=DIRECTION('',(1.,0.,0.));
#1153=DIRECTION('',(0.,0.,1.));
#1154=DIRECTION('',(1.,0.,0.));
#1155=DIRECTION('',(0.,0.,1.));
#1156=DIRECTION('',(1.,0.,0.));
#1157=DIRECTION('',(-1.,0.,0.));
#1158=DIRECTION('',(0.,0.,1.));
#1159=DIRECTION('',(-1.,0.,0.));
#1160=DIRECTION('',(0.,0.,1.));
#1161=DIRECTION('',(-1.,0.,0.));
#1162=DIRECTION('',(0.,0.,1.));
#1163=DIRECTION('',(-1.,0.,0.));
#1164=DIRECTION('',(0.,0.,1.));
#1165=DIRECTION('',(-1.,0.,0.));
#1166=DIRECTION('',(0.,0.,1.));
#1167=DIRECTION('',(0.,0.,1.));
#1168=DIRECTION('',(1.,0.,0.));
#1169=DIRECTION('',(-1.,0.,0.));
#1170=DIRECTION('',(0.,0.,1.));
#1171=DIRECTION('',(0.,1.,0.));
#1172=DIRECTION('',(0.,0.,-1.));
#1173=DIRECTION('',(0.,1.,0.));
#1174=DIRECTION('',(0.,0.,-1.));
#1175=DIRECTION('',(0.,1.,0.));
#1176=DIRECTION('',(0.,0.,1.));
#1177=DIRECTION('',(1.,0.,0.));
#1178=DIRECTION('',(0.,0.,-1.));
#1179=DIRECTION('',(1.,0.,0.));
#1180=DIRECTION('',(-1.,0.,0.));
#1181=DIRECTION('',(0.,0.,1.));
#1182=DIRECTION('',(0.,1.,0.));
#1183=DIRECTION('',(0.,0.,-1.));
#1184=DIRECTION('',(0.,1.,0.));
#1185=DIRECTION('',(0.,1.,0.));
#1186=DIRECTION('',(0.,0.,1.));
#1187=DIRECTION('',(1.,0.,0.));
#1188=DIRECTION('',(1.,0.,0.));
#1189=DIRECTION('',(0.,0.,1.));
#1190=DIRECTION('',(1.,0.,0.));
#1191=DIRECTION('',(0.,0.,1.));
#1192=DIRECTION('',(1.,0.,0.));
#1193=DIRECTION('',(0.,0.,1.));
#1194=DIRECTION('',(1.,0.,0.));
#1195=DIRECTION('',(-1.,0.,0.));
#1196=DIRECTION('',(0.,0.,1.));
#1197=DIRECTION('',(1.,0.,0.));
#1198=DIRECTION('',(0.,0.,-1.));
#1199=DIRECTION('',(1.,0.,0.));
#1200=DIRECTION('',(0.,0.,-1.));
#1201=DIRECTION('',(1.,0.,0.));
#1202=DIRECTION('',(0.,1.,0.));
#1203=DIRECTION('',(1.,0.,0.));
#1204=DIRECTION('',(0.,0.,-1.));
#1205=DIRECTION('',(1.,0.,0.));
#1206=DIRECTION('',(0.,1.,0.));
#1207=DIRECTION('',(1.,0.,0.));
#1208=DIRECTION('',(0.,0.,-1.));
#1209=DIRECTION('',(-1.,0.,0.));
#1210=DIRECTION('',(0.,0.,1.));
#1211=DIRECTION('',(0.,0.,1.));
#1212=DIRECTION('',(1.,0.,0.));
#1213=DIRECTION('',(-1.,0.,0.));
#1214=DIRECTION('',(0.,0.,1.));
#1215=DIRECTION('',(1.,0.,0.));
#1216=DIRECTION('',(0.,0.,-1.));
#1217=DIRECTION('',(1.,0.,0.));
#1218=DIRECTION('',(0.,0.,-1.));
#1219=DIRECTION('',(1.,0.,0.));
#1220=DIRECTION('',(0.,1.,0.));
#1221=DIRECTION('',(1.,0.,0.));
#1222=DIRECTION('',(0.,1.,0.));
#1223=CARTESIAN_POINT('',(0.,0.,0.));
#1224=CARTESIAN_POINT('',(-0.18,0.3,0.1477));
#1225=CARTESIAN_POINT('',(-0.18,0.3,0.1223));
#1226=CARTESIAN_POINT('',(-0.18,0.2873,0.1223));
#1227=CARTESIAN_POINT('',(-0.18,0.3127,0.1223));
#1228=CARTESIAN_POINT('',(-0.18,0.2873,0.1477));
#1229=CARTESIAN_POINT('',(-0.18,0.2873,0.1477));
#1230=CARTESIAN_POINT('',(-0.18,0.3,0.1477));
#1231=CARTESIAN_POINT('',(-0.18,0.3127,0.1477));
#1232=CARTESIAN_POINT('',(-0.18,0.3127,0.1477));
#1233=CARTESIAN_POINT('',(0.,0.2873,0.1477));
#1234=CARTESIAN_POINT('',(0.,0.2873,0.1223));
#1235=CARTESIAN_POINT('',(0.18,0.2873,0.1223));
#1236=CARTESIAN_POINT('',(0.18,0.2873,0.1477));
#1237=CARTESIAN_POINT('',(0.18,0.2873,0.1477));
#1238=CARTESIAN_POINT('',(0.,0.2873,0.1477));
#1239=CARTESIAN_POINT('',(0.18,0.3,0.1477));
#1240=CARTESIAN_POINT('',(0.18,0.3,0.1223));
#1241=CARTESIAN_POINT('',(0.18,0.3127,0.1223));
#1242=CARTESIAN_POINT('',(0.18,0.3127,0.1477));
#1243=CARTESIAN_POINT('',(0.18,0.3127,0.1477));
#1244=CARTESIAN_POINT('',(0.18,0.3,0.1477));
#1245=CARTESIAN_POINT('',(0.,0.3127,0.1477));
#1246=CARTESIAN_POINT('',(0.,0.3127,0.1223));
#1247=CARTESIAN_POINT('',(0.,0.3127,0.1477));
#1248=CARTESIAN_POINT('',(0.,0.3,0.1477));
#1249=CARTESIAN_POINT('',(0.,0.3,0.1223));
#1250=CARTESIAN_POINT('',(0.,0.,0.));
#1251=CARTESIAN_POINT('',(0.18,0.16,0.1627));
#1252=CARTESIAN_POINT('',(0.18,0.025,0.13));
#1253=CARTESIAN_POINT('',(0.18,0.025,0.13645));
#1254=CARTESIAN_POINT('',(0.18,0.3,0.135));
#1255=CARTESIAN_POINT('',(0.18,0.3,0.1383));
#1256=CARTESIAN_POINT('',(0.18,0.14,0.135));
#1257=CARTESIAN_POINT('',(0.18,0.14,0.1383));
#1258=CARTESIAN_POINT('',(0.18,0.2412,0.065));
#1259=CARTESIAN_POINT('',(0.18,0.2412,0.07145));
#1260=CARTESIAN_POINT('',(0.18,0.07,0.065));
#1261=CARTESIAN_POINT('',(0.18,0.07,0.07145));
#1262=CARTESIAN_POINT('',(0.18,0.16,0.0127));
#1263=CARTESIAN_POINT('',(0.18,0.,0.0127));
#1264=CARTESIAN_POINT('',(0.18,0.32,0.0127));
#1265=CARTESIAN_POINT('',(0.18,0.,0.1627));
#1266=CARTESIAN_POINT('',(0.18,0.,0.1627));
#1267=CARTESIAN_POINT('',(0.18,0.16,0.1627));
#1268=CARTESIAN_POINT('',(0.18,0.32,0.1627));
#1269=CARTESIAN_POINT('',(0.18,0.32,0.1627));
#1270=CARTESIAN_POINT('',(0.183175,0.,0.1627));
#1271=CARTESIAN_POINT('',(0.183175,0.,0.0127));
#1272=CARTESIAN_POINT('',(0.18635,0.,0.0127));
#1273=CARTESIAN_POINT('',(0.18635,0.,0.1627));
#1274=CARTESIAN_POINT('',(0.18635,0.,0.1627));
#1275=CARTESIAN_POINT('',(0.183175,0.,0.1627));
#1276=CARTESIAN_POINT('',(0.18635,0.16,0.1627));
#1277=CARTESIAN_POINT('',(0.18635,0.025,0.13));
#1278=CARTESIAN_POINT('',(0.18635,0.025,0.13645));
#1279=CARTESIAN_POINT('',(0.18635,0.3,0.135));
#1280=CARTESIAN_POINT('',(0.18635,0.3,0.1383));
#1281=CARTESIAN_POINT('',(0.18635,0.14,0.135));
#1282=CARTESIAN_POINT('',(0.18635,0.14,0.1383));
#1283=CARTESIAN_POINT('',(0.18635,0.2412,0.065));
#1284=CARTESIAN_POINT('',(0.18635,0.2412,0.07145));
#1285=CARTESIAN_POINT('',(0.18635,0.07,0.065));
#1286=CARTESIAN_POINT('',(0.18635,0.07,0.07145));
#1287=CARTESIAN_POINT('',(0.18635,0.16,0.0127));
#1288=CARTESIAN_POINT('',(0.18635,0.32,0.0127));
#1289=CARTESIAN_POINT('',(0.18635,0.32,0.1627));
#1290=CARTESIAN_POINT('',(0.18635,0.32,0.1627));
#1291=CARTESIAN_POINT('',(0.18635,0.16,0.1627));
#1292=CARTESIAN_POINT('',(0.183175,0.32,0.1627));
#1293=CARTESIAN_POINT('',(0.183175,0.32,0.0127));
#1294=CARTESIAN_POINT('',(0.183175,0.32,0.1627));
#1295=CARTESIAN_POINT('',(0.183175,0.16,0.1627));
#1296=CARTESIAN_POINT('',(0.183175,0.16,0.0127));
#1297=CARTESIAN_POINT('',(0.18735,0.07,0.065));
#1298=CARTESIAN_POINT('',(0.18735,0.2412,0.065));
#1299=CARTESIAN_POINT('',(0.18735,0.14,0.135));
#1300=CARTESIAN_POINT('',(0.18735,0.3,0.135));
#1301=CARTESIAN_POINT('',(0.18735,0.025,0.13));
#1302=CARTESIAN_POINT('',(0.,0.,0.));
#1303=CARTESIAN_POINT('',(0.175,0.07,0.065));
#1304=CARTESIAN_POINT('',(0.175,0.07,0.065));
#1305=CARTESIAN_POINT('',(0.175,0.07,0.0269));
#1306=CARTESIAN_POINT('',(-0.175,0.07,0.065));
#1307=CARTESIAN_POINT('',(-0.175,0.07,0.0269));
#1308=CARTESIAN_POINT('',(0.175,0.07,0.065));
#1309=CARTESIAN_POINT('',(0.175,0.07,0.065));
#1310=CARTESIAN_POINT('',(0.175,0.07,0.05865));
#1311=CARTESIAN_POINT('',(-0.175,0.07,0.065));
#1312=CARTESIAN_POINT('',(-0.175,0.07,0.065));
#1313=CARTESIAN_POINT('',(-0.175,0.07,0.05865));
#1314=CARTESIAN_POINT('',(0.176,0.07,0.065));
#1315=CARTESIAN_POINT('',(0.,0.,0.));
#1316=CARTESIAN_POINT('',(0.19905,0.2412,0.065));
#1317=CARTESIAN_POINT('',(0.19905,0.2412,0.065));
#1318=CARTESIAN_POINT('',(0.19905,0.2412,0.05865));
#1319=CARTESIAN_POINT('',(-0.19905,0.2412,0.065));
#1320=CARTESIAN_POINT('',(-0.19905,0.2412,0.05865));
#1321=CARTESIAN_POINT('',(0.19905,0.2412,0.065));
#1322=CARTESIAN_POINT('',(-0.19905,0.2412,0.065));
#1323=CARTESIAN_POINT('',(0.,0.,0.));
#1324=CARTESIAN_POINT('',(0.175,0.2412,0.065));
#1325=CARTESIAN_POINT('',(0.175,0.2412,0.065));
#1326=CARTESIAN_POINT('',(0.175,0.2412,0.0269));
#1327=CARTESIAN_POINT('',(-0.175,0.2412,0.065));
#1328=CARTESIAN_POINT('',(-0.175,0.2412,0.0269));
#1329=CARTESIAN_POINT('',(0.175,0.2412,0.065));
#1330=CARTESIAN_POINT('',(0.175,0.2412,0.065));
#1331=CARTESIAN_POINT('',(0.175,0.2412,0.05865));
#1332=CARTESIAN_POINT('',(-0.175,0.2412,0.065));
#1333=CARTESIAN_POINT('',(-0.175,0.2412,0.065));
#1334=CARTESIAN_POINT('',(-0.175,0.2412,0.05865));
#1335=CARTESIAN_POINT('',(0.176,0.2412,0.065));
#1336=CARTESIAN_POINT('',(0.,0.,0.));
#1337=CARTESIAN_POINT('',(-0.18635,0.16,0.1627));
#1338=CARTESIAN_POINT('',(-0.18635,0.025,0.13));
#1339=CARTESIAN_POINT('',(-0.18635,0.025,0.13645));
#1340=CARTESIAN_POINT('',(-0.18635,0.3,0.135));
#1341=CARTESIAN_POINT('',(-0.18635,0.3,0.1383));
#1342=CARTESIAN_POINT('',(-0.18635,0.14,0.135));
#1343=CARTESIAN_POINT('',(-0.18635,0.14,0.1383));
#1344=CARTESIAN_POINT('',(-0.18635,0.2412,0.065));
#1345=CARTESIAN_POINT('',(-0.18635,0.2412,0.07145));
#1346=CARTESIAN_POINT('',(-0.18635,0.07,0.065));
#1347=CARTESIAN_POINT('',(-0.18635,0.07,0.07145));
#1348=CARTESIAN_POINT('',(-0.18635,0.16,0.0127));
#1349=CARTESIAN_POINT('',(-0.18635,0.,0.0127));
#1350=CARTESIAN_POINT('',(-0.18635,0.32,0.0127));
#1351=CARTESIAN_POINT('',(-0.18635,0.,0.1627));
#1352=CARTESIAN_POINT('',(-0.18635,0.,0.1627));
#1353=CARTESIAN_POINT('',(-0.18635,0.16,0.1627));
#1354=CARTESIAN_POINT('',(-0.18635,0.32,0.1627));
#1355=CARTESIAN_POINT('',(-0.18635,0.32,0.1627));
#1356=CARTESIAN_POINT('',(-0.183175,0.,0.1627));
#1357=CARTESIAN_POINT('',(-0.183175,0.,0.0127));
#1358=CARTESIAN_POINT('',(-0.18,0.,0.0127));
#1359=CARTESIAN_POINT('',(-0.18,0.,0.1627));
#1360=CARTESIAN_POINT('',(-0.18,0.,0.1627));
#1361=CARTESIAN_POINT('',(-0.183175,0.,0.1627));
#1362=CARTESIAN_POINT('',(-0.18,0.16,0.1627));
#1363=CARTESIAN_POINT('',(-0.18,0.025,0.13));
#1364=CARTESIAN_POINT('',(-0.18,0.025,0.13645));
#1365=CARTESIAN_POINT('',(-0.18,0.3,0.135));
#1366=CARTESIAN_POINT('',(-0.18,0.3,0.1383));
#1367=CARTESIAN_POINT('',(-0.18,0.14,0.135));
#1368=CARTESIAN_POINT('',(-0.18,0.14,0.1383));
#1369=CARTESIAN_POINT('',(-0.18,0.2412,0.065));
#1370=CARTESIAN_POINT('',(-0.18,0.2412,0.07145));
#1371=CARTESIAN_POINT('',(-0.18,0.07,0.065));
#1372=CARTESIAN_POINT('',(-0.18,0.07,0.07145));
#1373=CARTESIAN_POINT('',(-0.18,0.16,0.0127));
#1374=CARTESIAN_POINT('',(-0.18,0.32,0.0127));
#1375=CARTESIAN_POINT('',(-0.18,0.32,0.1627));
#1376=CARTESIAN_POINT('',(-0.18,0.32,0.1627));
#1377=CARTESIAN_POINT('',(-0.18,0.16,0.1627));
#1378=CARTESIAN_POINT('',(-0.183175,0.32,0.1627));
#1379=CARTESIAN_POINT('',(-0.183175,0.32,0.0127));
#1380=CARTESIAN_POINT('',(-0.183175,0.32,0.1627));
#1381=CARTESIAN_POINT('',(-0.183175,0.16,0.1627));
#1382=CARTESIAN_POINT('',(-0.183175,0.16,0.0127));
#1383=CARTESIAN_POINT('',(-0.179,0.07,0.065));
#1384=CARTESIAN_POINT('',(-0.179,0.2412,0.065));
#1385=CARTESIAN_POINT('',(-0.179,0.14,0.135));
#1386=CARTESIAN_POINT('',(-0.179,0.3,0.135));
#1387=CARTESIAN_POINT('',(-0.179,0.025,0.13));
#1388=CARTESIAN_POINT('',(0.,0.,0.));
#1389=CARTESIAN_POINT('',(-0.18,0.14,0.1477));
#1390=CARTESIAN_POINT('',(-0.18,0.14,0.1223));
#1391=CARTESIAN_POINT('',(-0.18,0.1273,0.1223));
#1392=CARTESIAN_POINT('',(-0.18,0.1527,0.1223));
#1393=CARTESIAN_POINT('',(-0.18,0.1273,0.1477));
#1394=CARTESIAN_POINT('',(-0.18,0.1273,0.1477));
#1395=CARTESIAN_POINT('',(-0.18,0.14,0.1477));
#1396=CARTESIAN_POINT('',(-0.18,0.1527,0.1477));
#1397=CARTESIAN_POINT('',(-0.18,0.1527,0.1477));
#1398=CARTESIAN_POINT('',(0.,0.1273,0.1477));
#1399=CARTESIAN_POINT('',(0.,0.1273,0.1223));
#1400=CARTESIAN_POINT('',(0.18,0.1273,0.1223));
#1401=CARTESIAN_POINT('',(0.18,0.1273,0.1477));
#1402=CARTESIAN_POINT('',(0.18,0.1273,0.1477));
#1403=CARTESIAN_POINT('',(0.,0.1273,0.1477));
#1404=CARTESIAN_POINT('',(0.18,0.14,0.1477));
#1405=CARTESIAN_POINT('',(0.18,0.14,0.1223));
#1406=CARTESIAN_POINT('',(0.18,0.1527,0.1223));
#1407=CARTESIAN_POINT('',(0.18,0.1527,0.1477));
#1408=CARTESIAN_POINT('',(0.18,0.1527,0.1477));
#1409=CARTESIAN_POINT('',(0.18,0.14,0.1477));
#1410=CARTESIAN_POINT('',(0.,0.1527,0.1477));
#1411=CARTESIAN_POINT('',(0.,0.1527,0.1223));
#1412=CARTESIAN_POINT('',(0.,0.1527,0.1477));
#1413=CARTESIAN_POINT('',(0.,0.14,0.1477));
#1414=CARTESIAN_POINT('',(0.,0.14,0.1223));
#1415=CARTESIAN_POINT('',(0.,0.,0.));
#1416=CARTESIAN_POINT('',(0.1508125,-0.11,0.05715));
#1417=CARTESIAN_POINT('',(0.1508125,-0.11,0.05715));
#1418=CARTESIAN_POINT('',(0.1508125,-0.11,0.));
#1419=CARTESIAN_POINT('',(-0.1508125,-0.11,0.05715));
#1420=CARTESIAN_POINT('',(-0.1508125,-0.11,0.));
#1421=CARTESIAN_POINT('',(0.1508125,-0.11,0.05715));
#1422=CARTESIAN_POINT('',(0.1508125,-0.11,0.05715));
#1423=CARTESIAN_POINT('',(0.1508125,-0.11,0.00635));
#1424=CARTESIAN_POINT('',(-0.1508125,-0.11,0.05715));
#1425=CARTESIAN_POINT('',(-0.1508125,-0.11,0.05715));
#1426=CARTESIAN_POINT('',(-0.1508125,-0.11,0.00635));
#1427=CARTESIAN_POINT('',(0.1518125,-0.11,0.05715));
#1428=CARTESIAN_POINT('',(0.,0.,0.));
#1429=CARTESIAN_POINT('',(0.19905,0.07,0.065));
#1430=CARTESIAN_POINT('',(0.19905,0.07,0.065));
#1431=CARTESIAN_POINT('',(0.19905,0.07,0.05865));
#1432=CARTESIAN_POINT('',(-0.19905,0.07,0.065));
#1433=CARTESIAN_POINT('',(-0.19905,0.07,0.05865));
#1434=CARTESIAN_POINT('',(0.19905,0.07,0.065));
#1435=CARTESIAN_POINT('',(-0.19905,0.07,0.065));
#1436=MECHANICAL_DESIGN_GEOMETRIC_PRESENTATION_REPRESENTATION('',(#793),
#1445);
#1437=MECHANICAL_DESIGN_GEOMETRIC_PRESENTATION_REPRESENTATION('',(#794),
#1446);
#1438=MECHANICAL_DESIGN_GEOMETRIC_PRESENTATION_REPRESENTATION('',(#795),
#1447);
#1439=MECHANICAL_DESIGN_GEOMETRIC_PRESENTATION_REPRESENTATION('',(#796),
#1448);
#1440=MECHANICAL_DESIGN_GEOMETRIC_PRESENTATION_REPRESENTATION('',(#797),
#1449);
#1441=MECHANICAL_DESIGN_GEOMETRIC_PRESENTATION_REPRESENTATION('',(#798),
#1450);
#1442=MECHANICAL_DESIGN_GEOMETRIC_PRESENTATION_REPRESENTATION('',(#799),
#1451);
#1443=MECHANICAL_DESIGN_GEOMETRIC_PRESENTATION_REPRESENTATION('',(#800),
#1452);
#1444=MECHANICAL_DESIGN_GEOMETRIC_PRESENTATION_REPRESENTATION('',(#801),
#1453);
#1445=(
GEOMETRIC_REPRESENTATION_CONTEXT(3)
GLOBAL_UNCERTAINTY_ASSIGNED_CONTEXT((#1454))
GLOBAL_UNIT_ASSIGNED_CONTEXT((#1481,#1472,#1463))
REPRESENTATION_CONTEXT('rearCrossmember','TOP_LEVEL_ASSEMBLY_PART')
);
#1446=(
GEOMETRIC_REPRESENTATION_CONTEXT(3)
GLOBAL_UNCERTAINTY_ASSIGNED_CONTEXT((#1455))
GLOBAL_UNIT_ASSIGNED_CONTEXT((#1482,#1473,#1464))
REPRESENTATION_CONTEXT('rightPlate','TOP_LEVEL_ASSEMBLY_PART')
);
#1447=(
GEOMETRIC_REPRESENTATION_CONTEXT(3)
GLOBAL_UNCERTAINTY_ASSIGNED_CONTEXT((#1456))
GLOBAL_UNIT_ASSIGNED_CONTEXT((#1483,#1474,#1465))
REPRESENTATION_CONTEXT('frontRoller','TOP_LEVEL_ASSEMBLY_PART')
);
#1448=(
GEOMETRIC_REPRESENTATION_CONTEXT(3)
GLOBAL_UNCERTAINTY_ASSIGNED_CONTEXT((#1457))
GLOBAL_UNIT_ASSIGNED_CONTEXT((#1484,#1475,#1466))
REPRESENTATION_CONTEXT('rearShaft','TOP_LEVEL_ASSEMBLY_PART')
);
#1449=(
GEOMETRIC_REPRESENTATION_CONTEXT(3)
GLOBAL_UNCERTAINTY_ASSIGNED_CONTEXT((#1458))
GLOBAL_UNIT_ASSIGNED_CONTEXT((#1485,#1476,#1467))
REPRESENTATION_CONTEXT('rearRoller','TOP_LEVEL_ASSEMBLY_PART')
);
#1450=(
GEOMETRIC_REPRESENTATION_CONTEXT(3)
GLOBAL_UNCERTAINTY_ASSIGNED_CONTEXT((#1459))
GLOBAL_UNIT_ASSIGNED_CONTEXT((#1486,#1477,#1468))
REPRESENTATION_CONTEXT('leftPlate','TOP_LEVEL_ASSEMBLY_PART')
);
#1451=(
GEOMETRIC_REPRESENTATION_CONTEXT(3)
GLOBAL_UNCERTAINTY_ASSIGNED_CONTEXT((#1460))
GLOBAL_UNIT_ASSIGNED_CONTEXT((#1487,#1478,#1469))
REPRESENTATION_CONTEXT('frontCrossmember','TOP_LEVEL_ASSEMBLY_PART')
);
#1452=(
GEOMETRIC_REPRESENTATION_CONTEXT(3)
GLOBAL_UNCERTAINTY_ASSIGNED_CONTEXT((#1461))
GLOBAL_UNIT_ASSIGNED_CONTEXT((#1488,#1479,#1470))
REPRESENTATION_CONTEXT('coralReference','TOP_LEVEL_ASSEMBLY_PART')
);
#1453=(
GEOMETRIC_REPRESENTATION_CONTEXT(3)
GLOBAL_UNCERTAINTY_ASSIGNED_CONTEXT((#1462))
GLOBAL_UNIT_ASSIGNED_CONTEXT((#1489,#1480,#1471))
REPRESENTATION_CONTEXT('frontShaft','TOP_LEVEL_ASSEMBLY_PART')
);
#1454=UNCERTAINTY_MEASURE_WITH_UNIT(LENGTH_MEASURE(1.E-8),#1481,
'DISTANCE_ACCURACY_VALUE','Maximum Tolerance applied to model');
#1455=UNCERTAINTY_MEASURE_WITH_UNIT(LENGTH_MEASURE(1.E-8),#1482,
'DISTANCE_ACCURACY_VALUE','Maximum Tolerance applied to model');
#1456=UNCERTAINTY_MEASURE_WITH_UNIT(LENGTH_MEASURE(1.E-8),#1483,
'DISTANCE_ACCURACY_VALUE','Maximum Tolerance applied to model');
#1457=UNCERTAINTY_MEASURE_WITH_UNIT(LENGTH_MEASURE(1.E-8),#1484,
'DISTANCE_ACCURACY_VALUE','Maximum Tolerance applied to model');
#1458=UNCERTAINTY_MEASURE_WITH_UNIT(LENGTH_MEASURE(1.E-8),#1485,
'DISTANCE_ACCURACY_VALUE','Maximum Tolerance applied to model');
#1459=UNCERTAINTY_MEASURE_WITH_UNIT(LENGTH_MEASURE(1.E-8),#1486,
'DISTANCE_ACCURACY_VALUE','Maximum Tolerance applied to model');
#1460=UNCERTAINTY_MEASURE_WITH_UNIT(LENGTH_MEASURE(1.E-8),#1487,
'DISTANCE_ACCURACY_VALUE','Maximum Tolerance applied to model');
#1461=UNCERTAINTY_MEASURE_WITH_UNIT(LENGTH_MEASURE(1.E-8),#1488,
'DISTANCE_ACCURACY_VALUE','Maximum Tolerance applied to model');
#1462=UNCERTAINTY_MEASURE_WITH_UNIT(LENGTH_MEASURE(1.E-8),#1489,
'DISTANCE_ACCURACY_VALUE','Maximum Tolerance applied to model');
#1463=(
NAMED_UNIT(*)
SI_UNIT($,.STERADIAN.)
SOLID_ANGLE_UNIT()
);
#1464=(
NAMED_UNIT(*)
SI_UNIT($,.STERADIAN.)
SOLID_ANGLE_UNIT()
);
#1465=(
NAMED_UNIT(*)
SI_UNIT($,.STERADIAN.)
SOLID_ANGLE_UNIT()
);
#1466=(
NAMED_UNIT(*)
SI_UNIT($,.STERADIAN.)
SOLID_ANGLE_UNIT()
);
#1467=(
NAMED_UNIT(*)
SI_UNIT($,.STERADIAN.)
SOLID_ANGLE_UNIT()
);
#1468=(
NAMED_UNIT(*)
SI_UNIT($,.STERADIAN.)
SOLID_ANGLE_UNIT()
);
#1469=(
NAMED_UNIT(*)
SI_UNIT($,.STERADIAN.)
SOLID_ANGLE_UNIT()
);
#1470=(
NAMED_UNIT(*)
SI_UNIT($,.STERADIAN.)
SOLID_ANGLE_UNIT()
);
#1471=(
NAMED_UNIT(*)
SI_UNIT($,.STERADIAN.)
SOLID_ANGLE_UNIT()
);
#1472=(
NAMED_UNIT(*)
PLANE_ANGLE_UNIT()
SI_UNIT($,.RADIAN.)
);
#1473=(
NAMED_UNIT(*)
PLANE_ANGLE_UNIT()
SI_UNIT($,.RADIAN.)
);
#1474=(
NAMED_UNIT(*)
PLANE_ANGLE_UNIT()
SI_UNIT($,.RADIAN.)
);
#1475=(
NAMED_UNIT(*)
PLANE_ANGLE_UNIT()
SI_UNIT($,.RADIAN.)
);
#1476=(
NAMED_UNIT(*)
PLANE_ANGLE_UNIT()
SI_UNIT($,.RADIAN.)
);
#1477=(
NAMED_UNIT(*)
PLANE_ANGLE_UNIT()
SI_UNIT($,.RADIAN.)
);
#1478=(
NAMED_UNIT(*)
PLANE_ANGLE_UNIT()
SI_UNIT($,.RADIAN.)
);
#1479=(
NAMED_UNIT(*)
PLANE_ANGLE_UNIT()
SI_UNIT($,.RADIAN.)
);
#1480=(
NAMED_UNIT(*)
PLANE_ANGLE_UNIT()
SI_UNIT($,.RADIAN.)
);
#1481=(
LENGTH_UNIT()
NAMED_UNIT(*)
SI_UNIT($,.METRE.)
);
#1482=(
LENGTH_UNIT()
NAMED_UNIT(*)
SI_UNIT($,.METRE.)
);
#1483=(
LENGTH_UNIT()
NAMED_UNIT(*)
SI_UNIT($,.METRE.)
);
#1484=(
LENGTH_UNIT()
NAMED_UNIT(*)
SI_UNIT($,.METRE.)
);
#1485=(
LENGTH_UNIT()
NAMED_UNIT(*)
SI_UNIT($,.METRE.)
);
#1486=(
LENGTH_UNIT()
NAMED_UNIT(*)
SI_UNIT($,.METRE.)
);
#1487=(
LENGTH_UNIT()
NAMED_UNIT(*)
SI_UNIT($,.METRE.)
);
#1488=(
LENGTH_UNIT()
NAMED_UNIT(*)
SI_UNIT($,.METRE.)
);
#1489=(
LENGTH_UNIT()
NAMED_UNIT(*)
SI_UNIT($,.METRE.)
);
#1490=PRODUCT_DEFINITION_SHAPE('','',#1499);
#1491=PRODUCT_DEFINITION_SHAPE('','',#1500);
#1492=PRODUCT_DEFINITION_SHAPE('','',#1501);
#1493=PRODUCT_DEFINITION_SHAPE('','',#1502);
#1494=PRODUCT_DEFINITION_SHAPE('','',#1503);
#1495=PRODUCT_DEFINITION_SHAPE('','',#1504);
#1496=PRODUCT_DEFINITION_SHAPE('','',#1505);
#1497=PRODUCT_DEFINITION_SHAPE('','',#1506);
#1498=PRODUCT_DEFINITION_SHAPE('','',#1507);
#1499=PRODUCT_DEFINITION('','',#1517,#1508);
#1500=PRODUCT_DEFINITION('','',#1518,#1509);
#1501=PRODUCT_DEFINITION('','',#1519,#1510);
#1502=PRODUCT_DEFINITION('','',#1520,#1511);
#1503=PRODUCT_DEFINITION('','',#1521,#1512);
#1504=PRODUCT_DEFINITION('','',#1522,#1513);
#1505=PRODUCT_DEFINITION('','',#1523,#1514);
#1506=PRODUCT_DEFINITION('','',#1524,#1515);
#1507=PRODUCT_DEFINITION('','',#1525,#1516);
#1508=PRODUCT_DEFINITION_CONTEXT('',#1571,'design');
#1509=PRODUCT_DEFINITION_CONTEXT('',#1572,'design');
#1510=PRODUCT_DEFINITION_CONTEXT('',#1573,'design');
#1511=PRODUCT_DEFINITION_CONTEXT('',#1574,'design');
#1512=PRODUCT_DEFINITION_CONTEXT('',#1575,'design');
#1513=PRODUCT_DEFINITION_CONTEXT('',#1576,'design');
#1514=PRODUCT_DEFINITION_CONTEXT('',#1577,'design');
#1515=PRODUCT_DEFINITION_CONTEXT('',#1578,'design');
#1516=PRODUCT_DEFINITION_CONTEXT('',#1579,'design');
#1517=PRODUCT_DEFINITION_FORMATION_WITH_SPECIFIED_SOURCE('','',#1535,
 .NOT_KNOWN.);
#1518=PRODUCT_DEFINITION_FORMATION_WITH_SPECIFIED_SOURCE('','',#1536,
 .NOT_KNOWN.);
#1519=PRODUCT_DEFINITION_FORMATION_WITH_SPECIFIED_SOURCE('','',#1537,
 .NOT_KNOWN.);
#1520=PRODUCT_DEFINITION_FORMATION_WITH_SPECIFIED_SOURCE('','',#1538,
 .NOT_KNOWN.);
#1521=PRODUCT_DEFINITION_FORMATION_WITH_SPECIFIED_SOURCE('','',#1539,
 .NOT_KNOWN.);
#1522=PRODUCT_DEFINITION_FORMATION_WITH_SPECIFIED_SOURCE('','',#1540,
 .NOT_KNOWN.);
#1523=PRODUCT_DEFINITION_FORMATION_WITH_SPECIFIED_SOURCE('','',#1541,
 .NOT_KNOWN.);
#1524=PRODUCT_DEFINITION_FORMATION_WITH_SPECIFIED_SOURCE('','',#1542,
 .NOT_KNOWN.);
#1525=PRODUCT_DEFINITION_FORMATION_WITH_SPECIFIED_SOURCE('','',#1543,
 .NOT_KNOWN.);
#1526=PRODUCT_RELATED_PRODUCT_CATEGORY('','',(#1535));
#1527=PRODUCT_RELATED_PRODUCT_CATEGORY('','',(#1536));
#1528=PRODUCT_RELATED_PRODUCT_CATEGORY('','',(#1537));
#1529=PRODUCT_RELATED_PRODUCT_CATEGORY('','',(#1538));
#1530=PRODUCT_RELATED_PRODUCT_CATEGORY('','',(#1539));
#1531=PRODUCT_RELATED_PRODUCT_CATEGORY('','',(#1540));
#1532=PRODUCT_RELATED_PRODUCT_CATEGORY('','',(#1541));
#1533=PRODUCT_RELATED_PRODUCT_CATEGORY('','',(#1542));
#1534=PRODUCT_RELATED_PRODUCT_CATEGORY('','',(#1543));
#1535=PRODUCT('rearCrossmember','rearCrossmember','rearCrossmember',(#1553));
#1536=PRODUCT('rightPlate','rightPlate','rightPlate',(#1554));
#1537=PRODUCT('frontRoller','frontRoller','frontRoller',(#1555));
#1538=PRODUCT('rearShaft','rearShaft','rearShaft',(#1556));
#1539=PRODUCT('rearRoller','rearRoller','rearRoller',(#1557));
#1540=PRODUCT('leftPlate','leftPlate','leftPlate',(#1558));
#1541=PRODUCT('frontCrossmember','frontCrossmember','frontCrossmember',
(#1559));
#1542=PRODUCT('coralReference','coralReference','coralReference',(#1560));
#1543=PRODUCT('frontShaft','frontShaft','frontShaft',(#1561));
#1544=PRODUCT_CATEGORY('','');
#1545=PRODUCT_CATEGORY('','');
#1546=PRODUCT_CATEGORY('','');
#1547=PRODUCT_CATEGORY('','');
#1548=PRODUCT_CATEGORY('','');
#1549=PRODUCT_CATEGORY('','');
#1550=PRODUCT_CATEGORY('','');
#1551=PRODUCT_CATEGORY('','');
#1552=PRODUCT_CATEGORY('','');
#1553=PRODUCT_CONTEXT('',#1571,'mechanical');
#1554=PRODUCT_CONTEXT('',#1572,'mechanical');
#1555=PRODUCT_CONTEXT('',#1573,'mechanical');
#1556=PRODUCT_CONTEXT('',#1574,'mechanical');
#1557=PRODUCT_CONTEXT('',#1575,'mechanical');
#1558=PRODUCT_CONTEXT('',#1576,'mechanical');
#1559=PRODUCT_CONTEXT('',#1577,'mechanical');
#1560=PRODUCT_CONTEXT('',#1578,'mechanical');
#1561=PRODUCT_CONTEXT('',#1579,'mechanical');
#1562=APPLICATION_PROTOCOL_DEFINITION('international standard',
'automotive_design',2010,#1571);
#1563=APPLICATION_PROTOCOL_DEFINITION('international standard',
'automotive_design',2010,#1572);
#1564=APPLICATION_PROTOCOL_DEFINITION('international standard',
'automotive_design',2010,#1573);
#1565=APPLICATION_PROTOCOL_DEFINITION('international standard',
'automotive_design',2010,#1574);
#1566=APPLICATION_PROTOCOL_DEFINITION('international standard',
'automotive_design',2010,#1575);
#1567=APPLICATION_PROTOCOL_DEFINITION('international standard',
'automotive_design',2010,#1576);
#1568=APPLICATION_PROTOCOL_DEFINITION('international standard',
'automotive_design',2010,#1577);
#1569=APPLICATION_PROTOCOL_DEFINITION('international standard',
'automotive_design',2010,#1578);
#1570=APPLICATION_PROTOCOL_DEFINITION('international standard',
'automotive_design',2010,#1579);
#1571=APPLICATION_CONTEXT(
'core data for automotive mechanical design processes');
#1572=APPLICATION_CONTEXT(
'core data for automotive mechanical design processes');
#1573=APPLICATION_CONTEXT(
'core data for automotive mechanical design processes');
#1574=APPLICATION_CONTEXT(
'core data for automotive mechanical design processes');
#1575=APPLICATION_CONTEXT(
'core data for automotive mechanical design processes');
#1576=APPLICATION_CONTEXT(
'core data for automotive mechanical design processes');
#1577=APPLICATION_CONTEXT(
'core data for automotive mechanical design processes');
#1578=APPLICATION_CONTEXT(
'core data for automotive mechanical design processes');
#1579=APPLICATION_CONTEXT(
'core data for automotive mechanical design processes');
ENDSEC;
END-ISO-10303-21;
