ISO-10303-21;
HEADER;
/* Generated by software containing ST-Developer
 * from STEP Tools, Inc. (www.steptools.com) 
 */
/* OPTION: using custom renumber hook */

FILE_DESCRIPTION(
/* description */ ('STEP AP242 Edition 2',
'CAx-IF Rec.Pracs.---Representation and Presentation of Product Manufa
cturing Information (PMI)---4.0---2014-10-13',
'CAx-IF Rec.Pracs.---3D Tessellated Geometry---0.4---2014-09-14','2;1',
'CAx-IF Rec.Pracs.---User Defined Attributes---1.5---2016-08-15'),
/* implementation_level */ '2;1');

FILE_NAME(
/* name */ 'Part Studio 1',
/* time_stamp */ '2026-09-11T16:08:46Z',
/* author */ (''),
/* organization */ (''),
/* preprocessor_version */ 'ST-DEVELOPER v20',
/* originating_system */ 'ONSHAPE BY PTC INC, 1.220',
/* authorisation */ '  ');

FILE_SCHEMA (('AP242_MANAGED_MODEL_BASED_3D_ENGINEERING_MIM_LF { 1 0 10303 442 3 1 4 }'));
ENDSEC;

DATA;
#10=SHAPE_REPRESENTATION_RELATIONSHIP('','',#215,#11);
#11=ADVANCED_BREP_SHAPE_REPRESENTATION('',(#213),#347);
#12=CYLINDRICAL_SURFACE('',#233,0.00645);
#13=CYLINDRICAL_SURFACE('',#234,0.0033);
#14=CYLINDRICAL_SURFACE('',#235,0.0033);
#15=CYLINDRICAL_SURFACE('',#236,0.00645);
#16=CYLINDRICAL_SURFACE('',#237,0.00645);
#17=CIRCLE('',#222,0.00645);
#18=CIRCLE('',#223,0.00645);
#19=CIRCLE('',#224,0.0033);
#20=CIRCLE('',#225,0.0033);
#21=CIRCLE('',#226,0.00645);
#22=CIRCLE('',#228,0.00645);
#23=CIRCLE('',#229,0.00645);
#24=CIRCLE('',#230,0.0033);
#25=CIRCLE('',#231,0.0033);
#26=CIRCLE('',#232,0.00645);
#27=ORIENTED_EDGE('',*,*,#71,.F.);
#28=ORIENTED_EDGE('',*,*,#72,.F.);
#29=ORIENTED_EDGE('',*,*,#73,.T.);
#30=ORIENTED_EDGE('',*,*,#74,.T.);
#31=ORIENTED_EDGE('',*,*,#75,.F.);
#32=ORIENTED_EDGE('',*,*,#74,.F.);
#33=ORIENTED_EDGE('',*,*,#76,.T.);
#34=ORIENTED_EDGE('',*,*,#77,.T.);
#35=ORIENTED_EDGE('',*,*,#78,.F.);
#36=ORIENTED_EDGE('',*,*,#77,.F.);
#37=ORIENTED_EDGE('',*,*,#79,.T.);
#38=ORIENTED_EDGE('',*,*,#80,.T.);
#39=ORIENTED_EDGE('',*,*,#81,.F.);
#40=ORIENTED_EDGE('',*,*,#80,.F.);
#41=ORIENTED_EDGE('',*,*,#82,.T.);
#42=ORIENTED_EDGE('',*,*,#72,.T.);
#43=ORIENTED_EDGE('',*,*,#83,.T.);
#44=ORIENTED_EDGE('',*,*,#84,.T.);
#45=ORIENTED_EDGE('',*,*,#85,.T.);
#46=ORIENTED_EDGE('',*,*,#86,.T.);
#47=ORIENTED_EDGE('',*,*,#87,.T.);
#48=ORIENTED_EDGE('',*,*,#73,.F.);
#49=ORIENTED_EDGE('',*,*,#82,.F.);
#50=ORIENTED_EDGE('',*,*,#79,.F.);
#51=ORIENTED_EDGE('',*,*,#76,.F.);
#52=ORIENTED_EDGE('',*,*,#88,.F.);
#53=ORIENTED_EDGE('',*,*,#89,.F.);
#54=ORIENTED_EDGE('',*,*,#90,.F.);
#55=ORIENTED_EDGE('',*,*,#91,.F.);
#56=ORIENTED_EDGE('',*,*,#92,.F.);
#57=ORIENTED_EDGE('',*,*,#71,.T.);
#58=ORIENTED_EDGE('',*,*,#75,.T.);
#59=ORIENTED_EDGE('',*,*,#78,.T.);
#60=ORIENTED_EDGE('',*,*,#81,.T.);
#61=ORIENTED_EDGE('',*,*,#92,.T.);
#62=ORIENTED_EDGE('',*,*,#87,.F.);
#63=ORIENTED_EDGE('',*,*,#91,.T.);
#64=ORIENTED_EDGE('',*,*,#86,.F.);
#65=ORIENTED_EDGE('',*,*,#90,.T.);
#66=ORIENTED_EDGE('',*,*,#85,.F.);
#67=ORIENTED_EDGE('',*,*,#89,.T.);
#68=ORIENTED_EDGE('',*,*,#84,.F.);
#69=ORIENTED_EDGE('',*,*,#88,.T.);
#70=ORIENTED_EDGE('',*,*,#83,.F.);
#71=EDGE_CURVE('',#93,#94,#111,.T.);
#72=EDGE_CURVE('',#95,#93,#112,.T.);
#73=EDGE_CURVE('',#95,#96,#113,.T.);
#74=EDGE_CURVE('',#96,#94,#114,.T.);
#75=EDGE_CURVE('',#94,#97,#115,.T.);
#76=EDGE_CURVE('',#96,#98,#116,.T.);
#77=EDGE_CURVE('',#98,#97,#117,.T.);
#78=EDGE_CURVE('',#97,#99,#118,.T.);
#79=EDGE_CURVE('',#98,#100,#119,.T.);
#80=EDGE_CURVE('',#100,#99,#120,.T.);
#81=EDGE_CURVE('',#99,#93,#121,.T.);
#82=EDGE_CURVE('',#100,#95,#122,.T.);
#83=EDGE_CURVE('',#101,#101,#17,.T.);
#84=EDGE_CURVE('',#102,#102,#18,.T.);
#85=EDGE_CURVE('',#103,#103,#19,.T.);
#86=EDGE_CURVE('',#104,#104,#20,.T.);
#87=EDGE_CURVE('',#105,#105,#21,.T.);
#88=EDGE_CURVE('',#106,#106,#22,.T.);
#89=EDGE_CURVE('',#107,#107,#23,.T.);
#90=EDGE_CURVE('',#108,#108,#24,.T.);
#91=EDGE_CURVE('',#109,#109,#25,.T.);
#92=EDGE_CURVE('',#110,#110,#26,.T.);
#93=VERTEX_POINT('',#297);
#94=VERTEX_POINT('',#298);
#95=VERTEX_POINT('',#300);
#96=VERTEX_POINT('',#302);
#97=VERTEX_POINT('',#306);
#98=VERTEX_POINT('',#308);
#99=VERTEX_POINT('',#312);
#100=VERTEX_POINT('',#314);
#101=VERTEX_POINT('',#321);
#102=VERTEX_POINT('',#323);
#103=VERTEX_POINT('',#325);
#104=VERTEX_POINT('',#327);
#105=VERTEX_POINT('',#329);
#106=VERTEX_POINT('',#332);
#107=VERTEX_POINT('',#334);
#108=VERTEX_POINT('',#336);
#109=VERTEX_POINT('',#338);
#110=VERTEX_POINT('',#340);
#111=LINE('',#296,#123);
#112=LINE('',#299,#124);
#113=LINE('',#301,#125);
#114=LINE('',#303,#126);
#115=LINE('',#305,#127);
#116=LINE('',#307,#128);
#117=LINE('',#309,#129);
#118=LINE('',#311,#130);
#119=LINE('',#313,#131);
#120=LINE('',#315,#132);
#121=LINE('',#317,#133);
#122=LINE('',#318,#134);
#123=VECTOR('',#242,1.);
#124=VECTOR('',#243,1.);
#125=VECTOR('',#244,1.);
#126=VECTOR('',#245,1.);
#127=VECTOR('',#248,1.);
#128=VECTOR('',#249,1.);
#129=VECTOR('',#250,1.);
#130=VECTOR('',#253,1.);
#131=VECTOR('',#254,1.);
#132=VECTOR('',#255,1.);
#133=VECTOR('',#258,1.);
#134=VECTOR('',#259,1.);
#135=EDGE_LOOP('',(#27,#28,#29,#30));
#136=EDGE_LOOP('',(#31,#32,#33,#34));
#137=EDGE_LOOP('',(#35,#36,#37,#38));
#138=EDGE_LOOP('',(#39,#40,#41,#42));
#139=EDGE_LOOP('',(#43));
#140=EDGE_LOOP('',(#44));
#141=EDGE_LOOP('',(#45));
#142=EDGE_LOOP('',(#46));
#143=EDGE_LOOP('',(#47));
#144=EDGE_LOOP('',(#48,#49,#50,#51));
#145=EDGE_LOOP('',(#52));
#146=EDGE_LOOP('',(#53));
#147=EDGE_LOOP('',(#54));
#148=EDGE_LOOP('',(#55));
#149=EDGE_LOOP('',(#56));
#150=EDGE_LOOP('',(#57,#58,#59,#60));
#151=EDGE_LOOP('',(#61));
#152=EDGE_LOOP('',(#62));
#153=EDGE_LOOP('',(#63));
#154=EDGE_LOOP('',(#64));
#155=EDGE_LOOP('',(#65));
#156=EDGE_LOOP('',(#66));
#157=EDGE_LOOP('',(#67));
#158=EDGE_LOOP('',(#68));
#159=EDGE_LOOP('',(#69));
#160=EDGE_LOOP('',(#70));
#161=FACE_BOUND('',#135,.T.);
#162=FACE_BOUND('',#136,.T.);
#163=FACE_BOUND('',#137,.T.);
#164=FACE_BOUND('',#138,.T.);
#165=FACE_BOUND('',#139,.T.);
#166=FACE_BOUND('',#140,.T.);
#167=FACE_BOUND('',#141,.T.);
#168=FACE_BOUND('',#142,.T.);
#169=FACE_BOUND('',#143,.T.);
#170=FACE_BOUND('',#144,.T.);
#171=FACE_BOUND('',#145,.T.);
#172=FACE_BOUND('',#146,.T.);
#173=FACE_BOUND('',#147,.T.);
#174=FACE_BOUND('',#148,.T.);
#175=FACE_BOUND('',#149,.T.);
#176=FACE_BOUND('',#150,.T.);
#177=FACE_BOUND('',#151,.T.);
#178=FACE_BOUND('',#152,.T.);
#179=FACE_BOUND('',#153,.T.);
#180=FACE_BOUND('',#154,.T.);
#181=FACE_BOUND('',#155,.T.);
#182=FACE_BOUND('',#156,.T.);
#183=FACE_BOUND('',#157,.T.);
#184=FACE_BOUND('',#158,.T.);
#185=FACE_BOUND('',#159,.T.);
#186=FACE_BOUND('',#160,.T.);
#187=PLANE('',#217);
#188=PLANE('',#218);
#189=PLANE('',#219);
#190=PLANE('',#220);
#191=PLANE('',#221);
#192=PLANE('',#227);
#193=ADVANCED_FACE('',(#161),#187,.T.);
#194=ADVANCED_FACE('',(#162),#188,.T.);
#195=ADVANCED_FACE('',(#163),#189,.T.);
#196=ADVANCED_FACE('',(#164),#190,.T.);
#197=ADVANCED_FACE('',(#165,#166,#167,#168,#169,#170),#191,.F.);
#198=ADVANCED_FACE('',(#171,#172,#173,#174,#175,#176),#192,.T.);
#199=ADVANCED_FACE('',(#177,#178),#12,.F.);
#200=ADVANCED_FACE('',(#179,#180),#13,.F.);
#201=ADVANCED_FACE('',(#181,#182),#14,.F.);
#202=ADVANCED_FACE('',(#183,#184),#15,.F.);
#203=ADVANCED_FACE('',(#185,#186),#16,.F.);
#204=CLOSED_SHELL('',(#193,#194,#195,#196,#197,#198,#199,#200,#201,#202,
#203));
#205=STYLED_ITEM('',(#206),#213);
#206=PRESENTATION_STYLE_ASSIGNMENT((#207));
#207=SURFACE_STYLE_USAGE(.BOTH.,#208);
#208=SURFACE_SIDE_STYLE('',(#209));
#209=SURFACE_STYLE_FILL_AREA(#210);
#210=FILL_AREA_STYLE('',(#211));
#211=FILL_AREA_STYLE_COLOUR('',#212);
#212=COLOUR_RGB('',0.615686274509804,0.811764705882353,0.929411764705882);
#213=MANIFOLD_SOLID_BREP('Part 1',#204);
#214=SHAPE_DEFINITION_REPRESENTATION(#352,#215);
#215=SHAPE_REPRESENTATION('Part 1',(#216),#347);
#216=AXIS2_PLACEMENT_3D('',#294,#238,#239);
#217=AXIS2_PLACEMENT_3D('',#295,#240,#241);
#218=AXIS2_PLACEMENT_3D('',#304,#246,#247);
#219=AXIS2_PLACEMENT_3D('',#310,#251,#252);
#220=AXIS2_PLACEMENT_3D('',#316,#256,#257);
#221=AXIS2_PLACEMENT_3D('',#319,#260,#261);
#222=AXIS2_PLACEMENT_3D('',#320,#262,#263);
#223=AXIS2_PLACEMENT_3D('',#322,#264,#265);
#224=AXIS2_PLACEMENT_3D('',#324,#266,#267);
#225=AXIS2_PLACEMENT_3D('',#326,#268,#269);
#226=AXIS2_PLACEMENT_3D('',#328,#270,#271);
#227=AXIS2_PLACEMENT_3D('',#330,#272,#273);
#228=AXIS2_PLACEMENT_3D('',#331,#274,#275);
#229=AXIS2_PLACEMENT_3D('',#333,#276,#277);
#230=AXIS2_PLACEMENT_3D('',#335,#278,#279);
#231=AXIS2_PLACEMENT_3D('',#337,#280,#281);
#232=AXIS2_PLACEMENT_3D('',#339,#282,#283);
#233=AXIS2_PLACEMENT_3D('',#341,#284,#285);
#234=AXIS2_PLACEMENT_3D('',#342,#286,#287);
#235=AXIS2_PLACEMENT_3D('',#343,#288,#289);
#236=AXIS2_PLACEMENT_3D('',#344,#290,#291);
#237=AXIS2_PLACEMENT_3D('',#345,#292,#293);
#238=DIRECTION('',(0.,0.,1.));
#239=DIRECTION('',(1.,0.,0.));
#240=DIRECTION('',(0.,-1.,0.));
#241=DIRECTION('',(0.,0.,-1.));
#242=DIRECTION('',(0.,0.,-1.));
#243=DIRECTION('',(1.,0.,0.));
#244=DIRECTION('',(0.,0.,-1.));
#245=DIRECTION('',(1.,0.,0.));
#246=DIRECTION('',(0.,0.,-1.));
#247=DIRECTION('',(-1.,0.,0.));
#248=DIRECTION('',(0.,1.,0.));
#249=DIRECTION('',(0.,1.,0.));
#250=DIRECTION('',(1.,0.,0.));
#251=DIRECTION('',(0.,1.,0.));
#252=DIRECTION('',(0.,0.,1.));
#253=DIRECTION('',(0.,0.,1.));
#254=DIRECTION('',(0.,0.,1.));
#255=DIRECTION('',(1.,0.,0.));
#256=DIRECTION('',(0.,0.,1.));
#257=DIRECTION('',(1.,0.,0.));
#258=DIRECTION('',(0.,-1.,0.));
#259=DIRECTION('',(0.,-1.,0.));
#260=DIRECTION('',(1.,0.,0.));
#261=DIRECTION('',(0.,1.,0.));
#262=DIRECTION('',(1.,0.,0.));
#263=DIRECTION('',(0.,0.,-1.));
#264=DIRECTION('',(1.,0.,0.));
#265=DIRECTION('',(0.,0.,-1.));
#266=DIRECTION('',(1.,0.,0.));
#267=DIRECTION('',(0.,0.,-1.));
#268=DIRECTION('',(1.,0.,0.));
#269=DIRECTION('',(0.,0.,-1.));
#270=DIRECTION('',(1.,0.,0.));
#271=DIRECTION('',(0.,0.,-1.));
#272=DIRECTION('',(1.,0.,0.));
#273=DIRECTION('',(0.,1.,0.));
#274=DIRECTION('',(1.,0.,0.));
#275=DIRECTION('',(0.,0.,-1.));
#276=DIRECTION('',(1.,0.,0.));
#277=DIRECTION('',(0.,0.,-1.));
#278=DIRECTION('',(1.,0.,0.));
#279=DIRECTION('',(0.,0.,-1.));
#280=DIRECTION('',(1.,0.,0.));
#281=DIRECTION('',(0.,0.,-1.));
#282=DIRECTION('',(1.,0.,0.));
#283=DIRECTION('',(0.,0.,-1.));
#284=DIRECTION('',(1.,0.,0.));
#285=DIRECTION('',(0.,0.,-1.));
#286=DIRECTION('',(1.,0.,0.));
#287=DIRECTION('',(0.,0.,-1.));
#288=DIRECTION('',(1.,0.,0.));
#289=DIRECTION('',(0.,0.,-1.));
#290=DIRECTION('',(1.,0.,0.));
#291=DIRECTION('',(0.,0.,-1.));
#292=DIRECTION('',(1.,0.,0.));
#293=DIRECTION('',(0.,0.,-1.));
#294=CARTESIAN_POINT('',(0.,0.,0.));
#295=CARTESIAN_POINT('',(-0.17635,0.,0.0877));
#296=CARTESIAN_POINT('',(-0.17,0.,0.0877));
#297=CARTESIAN_POINT('',(-0.17,0.,0.1627));
#298=CARTESIAN_POINT('',(-0.17,0.,0.0127));
#299=CARTESIAN_POINT('',(-0.17635,0.,0.1627));
#300=CARTESIAN_POINT('',(-0.17635,0.,0.1627));
#301=CARTESIAN_POINT('',(-0.17635,0.,0.0877));
#302=CARTESIAN_POINT('',(-0.17635,0.,0.0127));
#303=CARTESIAN_POINT('',(-0.17635,0.,0.0127));
#304=CARTESIAN_POINT('',(-0.17635,0.16,0.0127));
#305=CARTESIAN_POINT('',(-0.17,0.16,0.0127));
#306=CARTESIAN_POINT('',(-0.17,0.32,0.0127));
#307=CARTESIAN_POINT('',(-0.17635,0.16,0.0127));
#308=CARTESIAN_POINT('',(-0.17635,0.32,0.0127));
#309=CARTESIAN_POINT('',(-0.17635,0.32,0.0127));
#310=CARTESIAN_POINT('',(-0.17635,0.32,0.0877));
#311=CARTESIAN_POINT('',(-0.17,0.32,0.0877));
#312=CARTESIAN_POINT('',(-0.17,0.32,0.1627));
#313=CARTESIAN_POINT('',(-0.17635,0.32,0.0877));
#314=CARTESIAN_POINT('',(-0.17635,0.32,0.1627));
#315=CARTESIAN_POINT('',(-0.17635,0.32,0.1627));
#316=CARTESIAN_POINT('',(-0.17635,0.16,0.1627));
#317=CARTESIAN_POINT('',(-0.17,0.16,0.1627));
#318=CARTESIAN_POINT('',(-0.17635,0.16,0.1627));
#319=CARTESIAN_POINT('',(-0.17635,0.16,0.0877));
#320=CARTESIAN_POINT('',(-0.17635,0.2462,0.065));
#321=CARTESIAN_POINT('',(-0.17635,0.2462,0.05855));
#322=CARTESIAN_POINT('',(-0.17635,0.025,0.13));
#323=CARTESIAN_POINT('',(-0.17635,0.025,0.12355));
#324=CARTESIAN_POINT('',(-0.17635,0.14,0.135));
#325=CARTESIAN_POINT('',(-0.17635,0.14,0.1317));
#326=CARTESIAN_POINT('',(-0.17635,0.3,0.135));
#327=CARTESIAN_POINT('',(-0.17635,0.3,0.1317));
#328=CARTESIAN_POINT('',(-0.17635,0.07,0.065));
#329=CARTESIAN_POINT('',(-0.17635,0.07,0.05855));
#330=CARTESIAN_POINT('',(-0.17,0.16,0.0877));
#331=CARTESIAN_POINT('',(-0.17,0.2462,0.065));
#332=CARTESIAN_POINT('',(-0.17,0.2462,0.05855));
#333=CARTESIAN_POINT('',(-0.17,0.025,0.13));
#334=CARTESIAN_POINT('',(-0.17,0.025,0.12355));
#335=CARTESIAN_POINT('',(-0.17,0.14,0.135));
#336=CARTESIAN_POINT('',(-0.17,0.14,0.1317));
#337=CARTESIAN_POINT('',(-0.17,0.3,0.135));
#338=CARTESIAN_POINT('',(-0.17,0.3,0.1317));
#339=CARTESIAN_POINT('',(-0.17,0.07,0.065));
#340=CARTESIAN_POINT('',(-0.17,0.07,0.05855));
#341=CARTESIAN_POINT('',(-0.523478983787828,0.07,0.065));
#342=CARTESIAN_POINT('',(-0.523478983787828,0.3,0.135));
#343=CARTESIAN_POINT('',(-0.523478983787828,0.14,0.135));
#344=CARTESIAN_POINT('',(-0.523478983787828,0.025,0.13));
#345=CARTESIAN_POINT('',(-0.523478983787828,0.2462,0.065));
#346=MECHANICAL_DESIGN_GEOMETRIC_PRESENTATION_REPRESENTATION('',(#205),
#347);
#347=(
GEOMETRIC_REPRESENTATION_CONTEXT(3)
GLOBAL_UNCERTAINTY_ASSIGNED_CONTEXT((#348))
GLOBAL_UNIT_ASSIGNED_CONTEXT((#351,#350,#349))
REPRESENTATION_CONTEXT('Part 1','TOP_LEVEL_ASSEMBLY_PART')
);
#348=UNCERTAINTY_MEASURE_WITH_UNIT(LENGTH_MEASURE(1.E-8),#351,
'DISTANCE_ACCURACY_VALUE','Maximum Tolerance applied to model');
#349=(
NAMED_UNIT(*)
SI_UNIT($,.STERADIAN.)
SOLID_ANGLE_UNIT()
);
#350=(
NAMED_UNIT(*)
PLANE_ANGLE_UNIT()
SI_UNIT($,.RADIAN.)
);
#351=(
LENGTH_UNIT()
NAMED_UNIT(*)
SI_UNIT($,.METRE.)
);
#352=PRODUCT_DEFINITION_SHAPE('','',#353);
#353=PRODUCT_DEFINITION('','',#355,#354);
#354=PRODUCT_DEFINITION_CONTEXT('',#361,'design');
#355=PRODUCT_DEFINITION_FORMATION_WITH_SPECIFIED_SOURCE('','',#357,
 .NOT_KNOWN.);
#356=PRODUCT_RELATED_PRODUCT_CATEGORY('','',(#357));
#357=PRODUCT('Part 1','Part 1','Part 1',(#359));
#358=PRODUCT_CATEGORY('','');
#359=PRODUCT_CONTEXT('',#361,'mechanical');
#360=APPLICATION_PROTOCOL_DEFINITION('international standard',
'ap242_managed_model_based_3d_engineering',2020,#361);
#361=APPLICATION_CONTEXT('managed model based 3d engineering');
ENDSEC;
END-ISO-10303-21;
