  0
SECTION
  2
HEADER
  9
$ACADVER
  1
AC1024
  9
$ACADMAINTVER
 70
6
  9
$DWGCODEPAGE
  3
ANSI_1252
  9
$LASTSAVEDBY
  1
ezdxf
  9
$INSBASE
 10
0.0
 20
0.0
 30
0.0
  9
$EXTMIN
 10
1e+20
 20
1e+20
 30
1e+20
  9
$EXTMAX
 10
-1e+20
 20
-1e+20
 30
-1e+20
  9
$LIMMIN
 10
0.0
 20
0.0
  9
$LIMMAX
 10
420.0
 20
297.0
  9
$ORTHOMODE
 70
0
  9
$REGENMODE
 70
1
  9
$FILLMODE
 70
1
  9
$QTEXTMODE
 70
0
  9
$MIRRTEXT
 70
1
  9
$LTSCALE
 40
1.0
  9
$ATTMODE
 70
1
  9
$TEXTSIZE
 40
2.5
  9
$TRACEWID
 40
1.0
  9
$TEXTSTYLE
  7
Standard
  9
$CLAYER
  8
0
  9
$CELTYPE
  6
ByLayer
  9
$CECOLOR
 62
256
  9
$CELTSCALE
 40
1.0
  9
$DISPSILH
 70
0
  9
$DIMSCALE
 40
1.0
  9
$DIMASZ
 40
2.5
  9
$DIMEXO
 40
0.625
  9
$DIMDLI
 40
3.75
  9
$DIMRND
 40
0.0
  9
$DIMDLE
 40
0.0
  9
$DIMEXE
 40
1.25
  9
$DIMTP
 40
0.0
  9
$DIMTM
 40
0.0
  9
$DIMTXT
 40
2.5
  9
$DIMCEN
 40
2.5
  9
$DIMTSZ
 40
0.0
  9
$DIMTOL
 70
0
  9
$DIMLIM
 70
0
  9
$DIMTIH
 70
0
  9
$DIMTOH
 70
0
  9
$DIMSE1
 70
0
  9
$DIMSE2
 70
0
  9
$DIMTAD
 70
1
  9
$DIMZIN
 70
8
  9
$DIMBLK
  1

  9
$DIMASO
 70
1
  9
$DIMSHO
 70
1
  9
$DIMPOST
  1

  9
$DIMAPOST
  1

  9
$DIMALT
 70
0
  9
$DIMALTD
 70
3
  9
$DIMALTF
 40
0.03937007874
  9
$DIMLFAC
 40
1.0
  9
$DIMTOFL
 70
1
  9
$DIMTVP
 40
0.0
  9
$DIMTIX
 70
0
  9
$DIMSOXD
 70
0
  9
$DIMSAH
 70
0
  9
$DIMBLK1
  1

  9
$DIMBLK2
  1

  9
$DIMSTYLE
  2
ISO-25
  9
$DIMCLRD
 70
0
  9
$DIMCLRE
 70
0
  9
$DIMCLRT
 70
0
  9
$DIMTFAC
 40
1.0
  9
$DIMGAP
 40
0.625
  9
$DIMJUST
 70
0
  9
$DIMSD1
 70
0
  9
$DIMSD2
 70
0
  9
$DIMTOLJ
 70
0
  9
$DIMTZIN
 70
8
  9
$DIMALTZ
 70
0
  9
$DIMALTTZ
 70
0
  9
$DIMUPT
 70
0
  9
$DIMDEC
 70
2
  9
$DIMTDEC
 70
2
  9
$DIMALTU
 70
2
  9
$DIMALTTD
 70
3
  9
$DIMTXSTY
  7
Standard
  9
$DIMAUNIT
 70
0
  9
$DIMADEC
 70
0
  9
$DIMALTRND
 40
0.0
  9
$DIMAZIN
 70
0
  9
$DIMDSEP
 70
44
  9
$DIMATFIT
 70
3
  9
$DIMFRAC
 70
0
  9
$DIMLDRBLK
  1

  9
$DIMLUNIT
 70
2
  9
$DIMLWD
 70
-2
  9
$DIMLWE
 70
-2
  9
$DIMTMOVE
 70
0
  9
$DIMFXL
 40
1.0
  9
$DIMFXLON
 70
0
  9
$DIMJOGANG
 40
0.785398163397
  9
$DIMTFILL
 70
0
  9
$DIMTFILLCLR
 70
0
  9
$DIMARCSYM
 70
0
  9
$DIMLTYPE
  6

  9
$DIMLTEX1
  6

  9
$DIMLTEX2
  6

  9
$DIMTXTDIRECTION
 70
0
  9
$LUNITS
 70
2
  9
$LUPREC
 70
4
  9
$SKETCHINC
 40
1.0
  9
$FILLETRAD
 40
10.0
  9
$AUNITS
 70
0
  9
$AUPREC
 70
2
  9
$MENU
  1
.
  9
$ELEVATION
 40
0.0
  9
$PELEVATION
 40
0.0
  9
$THICKNESS
 40
0.0
  9
$LIMCHECK
 70
0
  9
$CHAMFERA
 40
0.0
  9
$CHAMFERB
 40
0.0
  9
$CHAMFERC
 40
0.0
  9
$CHAMFERD
 40
0.0
  9
$SKPOLY
 70
0
  9
$TDCREATE
 40
2461302.5265740743
  9
$TDUCREATE
 40
2458532.153996898
  9
$TDUPDATE
 40
2461302.5265740743
  9
$TDUUPDATE
 40
2458532.1544311
  9
$TDINDWG
 40
0.0
  9
$TDUSRTIMER
 40
0.0
  9
$USRTIMER
 70
1
  9
$ANGBASE
 50
0.0
  9
$ANGDIR
 70
0
  9
$PDMODE
 70
0
  9
$PDSIZE
 40
0.0
  9
$PLINEWID
 40
0.0
  9
$SPLFRAME
 70
0
  9
$SPLINETYPE
 70
6
  9
$SPLINESEGS
 70
8
  9
$HANDSEED
  5
38
  9
$SURFTAB1
 70
6
  9
$SURFTAB2
 70
6
  9
$SURFTYPE
 70
6
  9
$SURFU
 70
6
  9
$SURFV
 70
6
  9
$UCSBASE
  2

  9
$UCSNAME
  2

  9
$UCSORG
 10
0.0
 20
0.0
 30
0.0
  9
$UCSXDIR
 10
1.0
 20
0.0
 30
0.0
  9
$UCSYDIR
 10
0.0
 20
1.0
 30
0.0
  9
$UCSORTHOREF
  2

  9
$UCSORTHOVIEW
 70
0
  9
$UCSORGTOP
 10
0.0
 20
0.0
 30
0.0
  9
$UCSORGBOTTOM
 10
0.0
 20
0.0
 30
0.0
  9
$UCSORGLEFT
 10
0.0
 20
0.0
 30
0.0
  9
$UCSORGRIGHT
 10
0.0
 20
0.0
 30
0.0
  9
$UCSORGFRONT
 10
0.0
 20
0.0
 30
0.0
  9
$UCSORGBACK
 10
0.0
 20
0.0
 30
0.0
  9
$PUCSBASE
  2

  9
$PUCSNAME
  2

  9
$PUCSORG
 10
0.0
 20
0.0
 30
0.0
  9
$PUCSXDIR
 10
1.0
 20
0.0
 30
0.0
  9
$PUCSYDIR
 10
0.0
 20
1.0
 30
0.0
  9
$PUCSORTHOREF
  2

  9
$PUCSORTHOVIEW
 70
0
  9
$PUCSORGTOP
 10
0.0
 20
0.0
 30
0.0
  9
$PUCSORGBOTTOM
 10
0.0
 20
0.0
 30
0.0
  9
$PUCSORGLEFT
 10
0.0
 20
0.0
 30
0.0
  9
$PUCSORGRIGHT
 10
0.0
 20
0.0
 30
0.0
  9
$PUCSORGFRONT
 10
0.0
 20
0.0
 30
0.0
  9
$PUCSORGBACK
 10
0.0
 20
0.0
 30
0.0
  9
$USERI1
 70
0
  9
$USERI2
 70
0
  9
$USERI3
 70
0
  9
$USERI4
 70
0
  9
$USERI5
 70
0
  9
$USERR1
 40
0.0
  9
$USERR2
 40
0.0
  9
$USERR3
 40
0.0
  9
$USERR4
 40
0.0
  9
$USERR5
 40
0.0
  9
$WORLDVIEW
 70
1
  9
$SHADEDGE
 70
3
  9
$SHADEDIF
 70
70
  9
$TILEMODE
 70
1
  9
$MAXACTVP
 70
64
  9
$PINSBASE
 10
0.0
 20
0.0
 30
0.0
  9
$PLIMCHECK
 70
0
  9
$PEXTMIN
 10
1e+20
 20
1e+20
 30
1e+20
  9
$PEXTMAX
 10
-1e+20
 20
-1e+20
 30
-1e+20
  9
$PLIMMIN
 10
0.0
 20
0.0
  9
$PLIMMAX
 10
420.0
 20
297.0
  9
$UNITMODE
 70
0
  9
$VISRETAIN
 70
1
  9
$PLINEGEN
 70
0
  9
$PSLTSCALE
 70
1
  9
$TREEDEPTH
 70
3020
  9
$CMLSTYLE
  2
Standard
  9
$CMLJUST
 70
0
  9
$CMLSCALE
 40
20.0
  9
$PROXYGRAPHICS
 70
1
  9
$MEASUREMENT
 70
1
  9
$CELWEIGHT
370
-1
  9
$ENDCAPS
280
0
  9
$JOINSTYLE
280
0
  9
$LWDISPLAY
290
0
  9
$INSUNITS
 70
4
  9
$HYPERLINKBASE
  1

  9
$STYLESHEET
  1

  9
$XEDIT
290
1
  9
$CEPSNTYPE
380
0
  9
$PSTYLEMODE
290
1
  9
$FINGERPRINTGUID
  2
{810E5338-9672-45B0-9163-99E78EF0D94A}
  9
$VERSIONGUID
  2
{97A596F1-4101-417E-AE1C-97E02BB4526C}
  9
$EXTNAMES
290
1
  9
$PSVPSCALE
 40
0.0
  9
$OLESTARTUP
290
0
  9
$SORTENTS
280
127
  9
$INDEXCTL
280
0
  9
$HIDETEXT
280
1
  9
$XCLIPFRAME
280
1
  9
$HALOGAP
280
0
  9
$OBSCOLOR
 70
257
  9
$OBSLTYPE
280
0
  9
$INTERSECTIONDISPLAY
280
0
  9
$INTERSECTIONCOLOR
 70
257
  9
$DIMASSOC
280
2
  9
$PROJECTNAME
  1

  9
$CAMERADISPLAY
290
0
  9
$LENSLENGTH
 40
50.0
  9
$CAMERAHEIGHT
 40
0.0
  9
$STEPSPERSEC
 40
24.0
  9
$STEPSIZE
 40
100.0
  9
$3DDWFPREC
 40
2.0
  9
$PSOLWIDTH
 40
0.005
  9
$PSOLHEIGHT
 40
0.08
  9
$LOFTANG1
 40
1.570796326795
  9
$LOFTANG2
 40
1.570796326795
  9
$LOFTMAG1
 40
0.0
  9
$LOFTMAG2
 40
0.0
  9
$LOFTPARAM
 70
7
  9
$LOFTNORMALS
280
1
  9
$LATITUDE
 40
37.795
  9
$LONGITUDE
 40
-122.394
  9
$NORTHDIRECTION
 40
0.0
  9
$TIMEZONE
 70
-8000
  9
$LIGHTGLYPHDISPLAY
280
1
  9
$TILEMODELIGHTSYNCH
280
1
  9
$CMATERIAL
347
20
  9
$SOLIDHIST
280
0
  9
$SHOWHIST
280
1
  9
$DWFFRAME
280
2
  9
$DGNFRAME
280
2
  9
$REALWORLDSCALE
290
1
  9
$INTERFERECOLOR
 62
256
  9
$CSHADOW
280
0
  9
$SHADOWPLANELOCATION
 40
0.0
  0
ENDSEC
  0
SECTION
  2
CLASSES
  0
CLASS
  1
ACDBDICTIONARYWDFLT
  2
AcDbDictionaryWithDefault
  3
ObjectDBX Classes
 90
0
 91
0
280
0
281
0
  0
CLASS
  1
SUN
  2
AcDbSun
  3
SCENEOE
 90
1153
 91
0
280
0
281
0
  0
CLASS
  1
VISUALSTYLE
  2
AcDbVisualStyle
  3
ObjectDBX Classes
 90
4095
 91
0
280
0
281
0
  0
CLASS
  1
MATERIAL
  2
AcDbMaterial
  3
ObjectDBX Classes
 90
1153
 91
0
280
0
281
0
  0
CLASS
  1
SCALE
  2
AcDbScale
  3
ObjectDBX Classes
 90
1153
 91
0
280
0
281
0
  0
CLASS
  1
TABLESTYLE
  2
AcDbTableStyle
  3
ObjectDBX Classes
 90
4095
 91
0
280
0
281
0
  0
CLASS
  1
MLEADERSTYLE
  2
AcDbMLeaderStyle
  3
ACDB_MLEADERSTYLE_CLASS
 90
4095
 91
0
280
0
281
0
  0
CLASS
  1
DICTIONARYVAR
  2
AcDbDictionaryVar
  3
ObjectDBX Classes
 90
0
 91
0
280
0
281
0
  0
CLASS
  1
CELLSTYLEMAP
  2
AcDbCellStyleMap
  3
ObjectDBX Classes
 90
1152
 91
0
280
0
281
0
  0
CLASS
  1
MENTALRAYRENDERSETTINGS
  2
AcDbMentalRayRenderSettings
  3
SCENEOE
 90
1024
 91
0
280
0
281
0
  0
CLASS
  1
ACDBDETAILVIEWSTYLE
  2
AcDbDetailViewStyle
  3
ObjectDBX Classes
 90
1025
 91
0
280
0
281
0
  0
CLASS
  1
ACDBSECTIONVIEWSTYLE
  2
AcDbSectionViewStyle
  3
ObjectDBX Classes
 90
1025
 91
0
280
0
281
0
  0
CLASS
  1
RASTERVARIABLES
  2
AcDbRasterVariables
  3
ISM
 90
0
 91
0
280
0
281
0
  0
CLASS
  1
LAYOUT
  2
AcDbLayout
  3
ObjectDBX Classes
 90
0
 91
0
280
0
281
0
  0
CLASS
  1
ACDBPLACEHOLDER
  2
AcDbPlaceHolder
  3
ObjectDBX Classes
 90
0
 91
0
280
0
281
0
  0
ENDSEC
  0
SECTION
  2
TABLES
  0
TABLE
  2
VPORT
  5
8
330
0
100
AcDbSymbolTable
 70
1
  0
VPORT
  5
23
330
8
100
AcDbSymbolTableRecord
100
AcDbViewportTableRecord
  2
*Active
 70
0
 10
0.0
 20
0.0
 11
1.0
 21
1.0
 12
0.0
 22
0.0
 13
0.0
 23
0.0
 14
0.5
 24
0.5
 15
0.5
 25
0.5
 16
0.0
 26
0.0
 36
1.0
 17
0.0
 27
0.0
 37
0.0
 40
1000.0
 41
1.34
 42
50.0
 43
0.0
 44
0.0
 50
0.0
 51
0.0
 71
0
 72
1000
 73
1
 74
3
 75
0
 76
0
 77
0
 78
0
281
0
 65
0
146
0.0
  0
ENDTAB
  0
TABLE
  2
LTYPE
  5
2
330
0
100
AcDbSymbolTable
 70
3
  0
LTYPE
  5
24
330
2
100
AcDbSymbolTableRecord
100
AcDbLinetypeTableRecord
  2
ByBlock
 70
0
  3

 72
65
 73
0
 40
0.0
  0
LTYPE
  5
25
330
2
100
AcDbSymbolTableRecord
100
AcDbLinetypeTableRecord
  2
ByLayer
 70
0
  3

 72
65
 73
0
 40
0.0
  0
LTYPE
  5
26
330
2
100
AcDbSymbolTableRecord
100
AcDbLinetypeTableRecord
  2
Continuous
 70
0
  3

 72
65
 73
0
 40
0.0
  0
ENDTAB
  0
TABLE
  2
LAYER
  5
1
330
0
100
AcDbSymbolTable
 70
4
  0
LAYER
  5
27
330
1
100
AcDbSymbolTableRecord
100
AcDbLayerTableRecord
  2
0
 70
0
 62
7
  6
Continuous
370
-3
390
13
347
21
  0
LAYER
  5
28
330
1
100
AcDbSymbolTableRecord
100
AcDbLayerTableRecord
  2
Defpoints
 70
0
 62
7
  6
Continuous
290
0
370
-3
390
13
347
21
  0
LAYER
  5
2F
330
1
100
AcDbSymbolTableRecord
100
AcDbLayerTableRecord
  2
CUT_PROFILE
 70
0
 62
7
  6
Continuous
370
-3
390
13
347
21
  0
LAYER
  5
30
330
1
100
AcDbSymbolTableRecord
100
AcDbLayerTableRecord
  2
NOT_RELEASED
 70
0
 62
1
  6
Continuous
370
-3
390
13
347
21
  0
ENDTAB
  0
TABLE
  2
STYLE
  5
5
330
0
100
AcDbSymbolTable
 70
1
  0
STYLE
  5
29
330
5
100
AcDbSymbolTableRecord
100
AcDbTextStyleTableRecord
  2
Standard
 70
0
 40
0.0
 41
1.0
 50
0.0
 71
0
 42
2.5
  3
txt
  4

  0
ENDTAB
  0
TABLE
  2
VIEW
  5
7
330
0
100
AcDbSymbolTable
 70
0
  0
ENDTAB
  0
TABLE
  2
UCS
  5
6
330
0
100
AcDbSymbolTable
 70
0
  0
ENDTAB
  0
TABLE
  2
APPID
  5
3
330
0
100
AcDbSymbolTable
 70
3
  0
APPID
  5
2A
330
3
100
AcDbSymbolTableRecord
100
AcDbRegAppTableRecord
  2
ACAD
 70
0
  0
APPID
  5
35
330
3
100
AcDbSymbolTableRecord
100
AcDbRegAppTableRecord
  2
HATCHBACKGROUNDCOLOR
 70
0
  0
APPID
  5
36
330
3
100
AcDbSymbolTableRecord
100
AcDbRegAppTableRecord
  2
EZDXF
 70
0
  0
ENDTAB
  0
TABLE
  2
DIMSTYLE
  5
4
330
0
100
AcDbSymbolTable
 70
1
100
AcDbDimStyleTable
  0
DIMSTYLE
105
2B
330
4
100
AcDbSymbolTableRecord
100
AcDbDimStyleTableRecord
  2
Standard
 70
0
 40
1.0
 41
2.5
 42
0.625
 43
3.75
 44
1.25
 45
0.0
 46
0.0
 47
0.0
 48
0.0
 49
2.5
140
2.5
141
2.5
142
0.0
143
0.03937007874
144
1.0
145
0.0
146
1.0
147
0.625
148
0.0
 69
0
 70
0
 71
0
 72
0
 73
0
 74
0
 75
0
 76
0
 77
1
 78
8
 79
3
170
0
171
3
172
1
173
0
174
0
175
0
176
0
177
0
178
0
179
2
271
2
272
2
273
2
274
3
275
0
276
0
277
2
278
44
279
0
280
0
281
0
282
0
283
0
284
8
285
0
286
0
288
0
289
3
290
0
371
-2
372
-2
  0
ENDTAB
  0
TABLE
  2
BLOCK_RECORD
  5
9
330
0
100
AcDbSymbolTable
 70
2
  0
BLOCK_RECORD
  5
17
330
9
100
AcDbSymbolTableRecord
100
AcDbBlockTableRecord
  2
*Model_Space
340
1A
 70
0
280
1
281
0
  0
BLOCK_RECORD
  5
1B
330
9
100
AcDbSymbolTableRecord
100
AcDbBlockTableRecord
  2
*Paper_Space
340
1E
 70
0
280
1
281
0
  0
ENDTAB
  0
ENDSEC
  0
SECTION
  2
BLOCKS
  0
BLOCK
  5
18
330
17
100
AcDbEntity
  8
0
100
AcDbBlockBegin
  2
*Model_Space
 70
0
 10
0.0
 20
0.0
 30
0.0
  3
*Model_Space
  1

  0
ENDBLK
  5
19
330
17
100
AcDbEntity
  8
0
100
AcDbBlockEnd
  0
BLOCK
  5
1C
330
1B
100
AcDbEntity
  8
0
100
AcDbBlockBegin
  2
*Paper_Space
 70
0
 10
0.0
 20
0.0
 30
0.0
  3
*Paper_Space
  1

  0
ENDBLK
  5
1D
330
1B
100
AcDbEntity
  8
0
100
AcDbBlockEnd
  0
ENDSEC
  0
SECTION
  2
ENTITIES
  0
LWPOLYLINE
  5
31
330
17
100
AcDbEntity
  8
CUT_PROFILE
100
AcDbPolyline
 90
116
 70
1
 10
18.85445811678216
 20
-23.334725392052665
 10
21.050871800806824
 20
-21.37430224419024
 10
23.044554081812638
 20
-19.208032881334113
 10
24.8163047095759
 20
-16.856779661651892
 10
26.349060757013866
 20
-14.343186438974847
 10
27.6280609455
 20
-11.691460490107193
 10
28.640987804046567
 20
-8.9271393855174
 10
29.378086293283612
 20
-6.076845048574269
 10
29.832257751820762
 20
-3.1680273718719523
 10
29.999128260236937
 20
-0.22869985975858675
 10
29.87709076431538
 20
2.7128301570243156
 10
29.467320551854307
 20
5.628234136411248
 10
28.77376393400289
 20
8.489435144358804
 10
27.80310024012766
 20
11.268878251068875
 10
26.56467749221939
 20
13.939795900025672
 10
25.070422378331166
 20
16.476465694197646
 10
23.33472539205267
 20
18.854458116782155
 10
21.37430224419024
 20
21.050871800806824
 10
19.20803288133412
 20
23.04455408181263
 10
16.856779661651892
 20
24.816304709575903
 10
14.343186438974847
 20
26.349060757013866
 10
11.691460490107193
 20
27.6280609455
 10
8.927139385517401
 20
28.640987804046567
 10
6.076845048574269
 20
29.378086293283612
 10
3.168027371871956
 20
29.832257751820762
 10
0.22869985975858853
 20
29.999128260236937
 10
-2.7128301570243156
 20
29.87709076431538
 10
-5.628234136411242
 20
29.467320551854304
 10
-8.489435144358804
 20
28.773763934002893
 10
-11.268878251068871
 20
27.803100240127662
 10
-13.939795900025665
 20
26.564677492219392
 10
-16.476465694197643
 20
25.070422378331166
 10
-18.85445811676078
 20
23.334725392030165
 10
-143.85445811672886
 20
-77.66527460790427
 10
-144.59145405448908
 20
-78.28051655448932
 10
-143.86611989337283
 20
-78.49464255967433
 10
-143.22654224167263
 20
-78.89825130440663
 10
-142.7210930097781
 20
-79.46081744750087
 10
-142.38799983883132
 20
-80.13979353754185
 10
-142.2524549052218
 20
-80.88382792004813
 10
-142.32470961058144
 20
-81.63664851549709
 10
-142.5992992578189
 20
-82.3413187341162
 10
-143.05545635173675
 20
-82.94454364826277
 10
-143.6586812658832
 20
-83.40070074218077
 10
-144.36335148450226
 20
-83.67529038941841
 10
-145.11617207995118
 20
-83.74754509477822
 10
-145.8602064624575
 20
-83.6120001611689
 10
-146.53918255249857
 20
-83.27890699022228
 10
-147.10174869559293
 20
-82.7734577583279
 10
-147.50535744032538
 20
-82.13388010662779
 10
-147.7194834455058
 20
-81.40854594550501
 10
-149.37003219848754
 20
-83.50424249583115
 10
-150.82788831950106
 20
-85.73827713017364
 10
-152.08152461273878
 20
-88.09298544784181
 10
-153.1210286384096
 20
-90.54974888733544
 10
-153.9381810899071
 20
-93.08914194238424
 10
-154.5265207834578
 20
-95.69108575845927
 10
-154.88139574638
 20
-98.33500689527659
 10
-155.0
 20
-100.99999999996592
 10
-154.88139574638606
 20
-103.66499310465552
 10
-154.52652078346986
 20
-106.30891424147366
 10
-153.93818108992505
 20
-108.91085805755003
 10
-153.12102863843336
 20
-111.45025111260067
 10
-152.0815246127681
 20
-113.90701455209667
 10
-150.82788831953573
 20
-116.26172286976767
 10
-149.37003219852727
 20
-118.4957575041135
 10
-147.71948344551066
 20
-120.59145405448909
 10
-147.50535744032797
 20
-119.8661198933779
 10
-147.10174869560055
 20
-119.22654224168113
 10
-146.53918255251295
 20
-118.72109300978744
 10
-145.86020646247928
 20
-118.38799983883827
 10
-145.11617207997966
 20
-118.25245490522299
 10
-144.36335148453537
 20
-118.3247096105737
 10
-143.65868126591778
 20
-118.5992992577999
 10
-143.0554563517687
 20
-119.05545635170529
 10
-142.59929925784365
 20
-119.6586812658395
 10
-142.32470961059445
 20
-120.36335148444815
 10
-142.2524549052192
 20
-121.11617207989005
 10
-142.38799983881023
 20
-121.8602064623941
 10
-142.72109300973725
 20
-122.53918255243865
 10
-143.2265422416126
 20
-123.10174869554271
 10
-143.8661198932962
 20
-123.50535744029098
 10
-144.59145405444337
 20
-123.7194834455503
 10
-142.54446688357106
 20
-125.33498883852792
 10
-140.36492124258143
 20
-126.76662948872571
 10
-138.0692848439241
 20
-128.00358853316305
 10
-135.6749025320433
 20
-129.03652003960863
 10
-133.19986523316916
 20
-129.8576196204376
 10
-130.66287326803524
 20
-130.46068339923858
 10
-128.08309506027223
 20
-130.8411548846442
 10
-125.48002230801677
 20
-130.99615939722628
 10
-122.87332271299685
 20
-130.92452578934117
 10
-120.28269137980952
 20
-130.62679529381936
 10
-117.72770200815417
 20
-130.1052174346421
 10
-115.2276590023493
 20
-129.3637330305028
 10
-112.8014516155296
 20
-128.40794441967026
 10
-110.46741123054746
 20
-127.24507313112275
 10
-108.24317285590321
 20
-125.88390532177095
 10
-106.14554188317403
 20
-124.33472539203214
 10
-105.38785188770356
 20
-123.72251187567745
 10
-106.15031608627268
 20
-123.4978536589765
 10
-106.81667501221204
 20
-123.06450766528108
 10
-107.33125648375271
 20
-122.45867858247146
 10
-107.65106884564202
 20
-121.73098151526995
 10
-107.74939278603469
 20
-120.94221325324581
 10
-107.61801365053249
 20
-120.15827289123757
 10
-107.26790775059101
 20
-119.44465616829936
 10
-106.72832532739585
 20
-118.86098350574802
 10
-106.04434678667747
 20
-118.45601890943418
 10
-105.2731163733204
 20
-118.26359589120607
 10
-104.4790679503477
 20
-118.29979078594916
 10
-103.72854175335344
 20
-118.56157962462694
 10
-103.0842418735337
 20
-119.02709077733456
 10
-102.59999752908712
 20
-119.65743225883678
 10
-102.31626580419939
 20
-120.3999410309891
 10
-102.25675158748683
 20
-121.19258283311629
  0
LWPOLYLINE
  5
32
330
17
100
AcDbEntity
  8
CUT_PROFILE
100
AcDbPolyline
 90
40
 70
1
 10
-109.0
 20
-101.0
 10
-109.19698655047779
 20
-98.4970485593563
 10
-109.78309573927754
 20
-96.05572809000084
 10
-110.74389561298611
 20
-93.73615200416725
 10
-112.05572809000084
 20
-91.59543596332043
 10
-113.68629150101523
 20
-89.68629150101523
 10
-115.59543596332043
 20
-88.05572809000084
 10
-117.73615200416725
 20
-86.74389561298611
 10
-120.05572809000084
 20
-85.78309573927754
 10
-122.4970485593563
 20
-85.19698655047779
 10
-125.0
 20
-85.0
 10
-127.5029514406437
 20
-85.19698655047779
 10
-129.94427190999915
 20
-85.78309573927754
 10
-132.26384799583275
 20
-86.74389561298611
 10
-134.40456403667957
 20
-88.05572809000084
 10
-136.31370849898477
 20
-89.68629150101523
 10
-137.94427190999915
 20
-91.59543596332043
 10
-139.2561043870139
 20
-93.73615200416725
 10
-140.21690426072246
 20
-96.05572809000084
 10
-140.8030134495222
 20
-98.4970485593563
 10
-141.0
 20
-101.0
 10
-140.8030134495222
 20
-103.5029514406437
 10
-140.21690426072246
 20
-105.94427190999916
 10
-139.2561043870139
 20
-108.26384799583275
 10
-137.94427190999915
 20
-110.40456403667957
 10
-136.31370849898477
 20
-112.31370849898477
 10
-134.40456403667957
 20
-113.94427190999916
 10
-132.26384799583275
 20
-115.25610438701389
 10
-129.94427190999917
 20
-116.21690426072246
 10
-127.5029514406437
 20
-116.8030134495222
 10
-125.0
 20
-117.0
 10
-122.49704855935632
 20
-116.80301344952221
 10
-120.05572809000084
 20
-116.21690426072246
 10
-117.73615200416725
 20
-115.25610438701389
 10
-115.59543596332043
 20
-113.94427190999916
 10
-113.68629150101525
 20
-112.31370849898477
 10
-112.05572809000084
 20
-110.40456403667957
 10
-110.74389561298611
 20
-108.26384799583275
 10
-109.78309573927754
 20
-105.94427190999916
 10
-109.1969865504778
 20
-103.5029514406437
  0
LWPOLYLINE
  5
33
330
17
100
AcDbEntity
  8
CUT_PROFILE
100
AcDbPolyline
 90
17
 70
1
 10
-102.25
 20
-81.0
 10
-102.43570136913802
 20
-80.00658541798533
 10
-102.96772547764319
 20
-79.14733697997197
 10
-103.77421952161453
 20
-78.53830094877358
 10
-104.74626201147592
 20
-78.26173101518866
 10
-105.75257322269823
 20
-78.35497948127475
 10
-106.65724525004296
 20
-78.80545262497934
 10
-107.33809712325643
 20
-79.55231155208728
 10
-107.70317602413073
 20
-80.49468882600443
 10
-107.70317602413073
 20
-81.50531117399557
 10
-107.33809712325645
 20
-82.44768844791272
 10
-106.65724525004296
 20
-83.19454737502066
 10
-105.75257322269823
 20
-83.64502051872525
 10
-104.74626201147592
 20
-83.73826898481134
 10
-103.77421952161453
 20
-83.46169905122642
 10
-102.96772547764319
 20
-82.85266302002803
 10
-102.43570136913803
 20
-81.99341458201468
  0
LWPOLYLINE
  5
34
330
17
100
AcDbEntity
  8
CUT_PROFILE
100
AcDbPolyline
 90
39
 70
1
 10
15.05
 20
0.0
 10
14.85510645270059
 20
2.4141897769092915
 10
14.27547345130454
 20
4.765853306712161
 10
13.32611318608081
 20
6.994083739258716
 10
12.031613589222694
 20
9.041171076781582
 10
10.425501520319473
 20
10.854096832524409
 10
8.549374438303897
 20
12.385907181699528
 10
6.451823049115969
 20
13.596929040886254
 10
4.187172831942617
 20
14.455797580052153
 10
1.814077037842618
 20
14.940268555175713
 10
-0.6060023986466909
 20
15.037794422482124
 10
-3.010386691329461
 20
14.74584931323613
 10
-5.336803549990153
 20
14.071994452415497
 10
-7.5249999999999915
 20
13.033682326955809
 10
-9.518302902710422
 20
11.657804675506208
 10
-11.265086759975068
 20
9.979996006523972
 10
-12.720110787434109
 20
8.04371068322341
 10
-13.845690627065306
 20
5.899097478394131
 10
-14.612674352262083
 20
3.6017007475277434
 10
-15.001197487419862
 20
1.211021859186721
 10
-15.00119748741986
 20
-1.2110218591867306
 10
-14.612674352262081
 20
-3.6017007475277527
 10
-13.8456906270653
 20
-5.89909747839414
 10
-12.720110787434104
 20
-8.043710683223418
 10
-11.265086759975063
 20
-9.97999600652398
 10
-9.518302902710413
 20
-11.657804675506213
 10
-7.524999999999983
 20
-13.03368232695581
 10
-5.33680354999014
 20
-14.071994452415503
 10
-3.010386691329445
 20
-14.745849313236134
 10
-0.6060023986466712
 20
-15.037794422482124
 10
1.8140770378426407
 20
-14.94026855517571
 10
4.187172831942642
 20
-14.455797580052144
 10
6.451823049115997
 20
-13.59692904088624
 10
8.549374438303925
 20
-12.385907181699508
 10
10.4255015203195
 20
-10.854096832524382
 10
12.031613589222717
 20
-9.04117107678155
 10
13.32611318608083
 20
-6.994083739258679
 10
14.275473451304554
 20
-4.765853306712119
 10
14.855106452700598
 20
-2.414189776909245
  0
ENDSEC
  0
SECTION
  2
OBJECTS
  0
DICTIONARY
  5
A
330
0
100
AcDbDictionary
281
1
  3
ACAD_COLOR
350
B
  3
ACAD_GROUP
350
C
  3
ACAD_LAYOUT
350
D
  3
ACAD_MATERIAL
350
E
  3
ACAD_MLEADERSTYLE
350
F
  3
ACAD_MLINESTYLE
350
10
  3
ACAD_PLOTSETTINGS
350
11
  3
ACAD_PLOTSTYLENAME
350
12
  3
ACAD_SCALELIST
350
14
  3
ACAD_TABLESTYLE
350
15
  3
ACAD_VISUALSTYLE
350
16
  3
EZDXF_META
350
2D
  0
DICTIONARY
  5
B
330
A
100
AcDbDictionary
281
1
  0
DICTIONARY
  5
C
330
A
100
AcDbDictionary
281
1
  0
DICTIONARY
  5
D
330
A
100
AcDbDictionary
281
1
  3
Model
350
1A
  3
Layout1
350
1E
  0
DICTIONARY
  5
E
330
A
100
AcDbDictionary
281
1
  3
ByBlock
350
1F
  3
ByLayer
350
20
  3
Global
350
21
  0
DICTIONARY
  5
F
330
A
100
AcDbDictionary
281
1
  3
Standard
350
2C
  0
DICTIONARY
  5
10
330
A
100
AcDbDictionary
281
1
  3
Standard
350
22
  0
DICTIONARY
  5
11
330
A
100
AcDbDictionary
281
1
  0
ACDBDICTIONARYWDFLT
  5
12
330
A
100
AcDbDictionary
281
1
  3
Normal
350
13
100
AcDbDictionaryWithDefault
340
13
  0
ACDBPLACEHOLDER
  5
13
330
12
  0
DICTIONARY
  5
14
330
A
100
AcDbDictionary
281
1
  0
DICTIONARY
  5
15
330
A
100
AcDbDictionary
281
1
  0
DICTIONARY
  5
16
330
A
100
AcDbDictionary
281
1
  0
LAYOUT
  5
1A
330
D
100
AcDbPlotSettings
  1

  4
A3
  6

 40
7.5
 41
20.0
 42
7.5
 43
20.0
 44
420.0
 45
297.0
 46
0.0
 47
0.0
 48
0.0
 49
0.0
140
0.0
141
0.0
142
1.0
143
1.0
 70
1024
 72
1
 73
0
 74
5
  7

 75
16
 76
0
 77
2
 78
300
147
1.0
148
0.0
149
0.0
100
AcDbLayout
  1
Model
 70
1
 71
0
 10
0.0
 20
0.0
 11
420.0
 21
297.0
 12
0.0
 22
0.0
 32
0.0
 14
1e+20
 24
1e+20
 34
1e+20
 15
-1e+20
 25
-1e+20
 35
-1e+20
146
0.0
 13
0.0
 23
0.0
 33
0.0
 16
1.0
 26
0.0
 36
0.0
 17
0.0
 27
1.0
 37
0.0
 76
1
330
17
  0
LAYOUT
  5
1E
330
D
100
AcDbPlotSettings
  1

  4
A3
  6

 40
7.5
 41
20.0
 42
7.5
 43
20.0
 44
420.0
 45
297.0
 46
0.0
 47
0.0
 48
0.0
 49
0.0
140
0.0
141
0.0
142
1.0
143
1.0
 70
0
 72
1
 73
0
 74
5
  7

 75
16
 76
0
 77
2
 78
300
147
1.0
148
0.0
149
0.0
100
AcDbLayout
  1
Layout1
 70
1
 71
1
 10
0.0
 20
0.0
 11
420.0
 21
297.0
 12
0.0
 22
0.0
 32
0.0
 14
1e+20
 24
1e+20
 34
1e+20
 15
-1e+20
 25
-1e+20
 35
-1e+20
146
0.0
 13
0.0
 23
0.0
 33
0.0
 16
1.0
 26
0.0
 36
0.0
 17
0.0
 27
1.0
 37
0.0
 76
1
330
1B
  0
MATERIAL
  5
1F
102
{ACAD_REACTORS
330
E
102
}
330
E
100
AcDbMaterial
  1
ByBlock
  2

 70
0
 40
1.0
 71
1
 41
1.0
 91
-1023410177
 42
1.0
 72
1
  3

 73
1
 74
1
 75
1
 44
0.5
 73
0
 45
1.0
 46
1.0
 77
1
  4

 78
1
 79
1
170
1
 48
1.0
171
1
  6

172
1
173
1
174
1
140
1.0
141
1.0
175
1
  7

176
1
177
1
178
1
143
1.0
179
1
  8

270
1
271
1
272
1
145
1.0
146
1.0
273
1
  9

274
1
275
1
276
1
 42
1.0
 72
1
  3

 73
1
 74
1
 75
1
 94
63
  0
MATERIAL
  5
20
102
{ACAD_REACTORS
330
E
102
}
330
E
100
AcDbMaterial
  1
ByLayer
  2

 70
0
 40
1.0
 71
1
 41
1.0
 91
-1023410177
 42
1.0
 72
1
  3

 73
1
 74
1
 75
1
 44
0.5
 73
0
 45
1.0
 46
1.0
 77
1
  4

 78
1
 79
1
170
1
 48
1.0
171
1
  6

172
1
173
1
174
1
140
1.0
141
1.0
175
1
  7

176
1
177
1
178
1
143
1.0
179
1
  8

270
1
271
1
272
1
145
1.0
146
1.0
273
1
  9

274
1
275
1
276
1
 42
1.0
 72
1
  3

 73
1
 74
1
 75
1
 94
63
  0
MATERIAL
  5
21
102
{ACAD_REACTORS
330
E
102
}
330
E
100
AcDbMaterial
  1
Global
  2

 70
0
 40
1.0
 71
1
 41
1.0
 91
-1023410177
 42
1.0
 72
1
  3

 73
1
 74
1
 75
1
 44
0.5
 73
0
 45
1.0
 46
1.0
 77
1
  4

 78
1
 79
1
170
1
 48
1.0
171
1
  6

172
1
173
1
174
1
140
1.0
141
1.0
175
1
  7

176
1
177
1
178
1
143
1.0
179
1
  8

270
1
271
1
272
1
145
1.0
146
1.0
273
1
  9

274
1
275
1
276
1
 42
1.0
 72
1
  3

 73
1
 74
1
 75
1
 94
63
  0
MLINESTYLE
  5
22
102
{ACAD_REACTORS
330
10
102
}
330
10
100
AcDbMlineStyle
  2
Standard
 70
0
  3

 62
256
 51
90.0
 52
90.0
 71
2
 49
0.5
 62
256
  6
BYLAYER
 49
-0.5
 62
256
  6
BYLAYER
  0
MLEADERSTYLE
  5
2C
102
{ACAD_REACTORS
330
F
102
}
330
F
100
AcDbMLeaderStyle
179
2
170
2
171
1
172
0
 90
2
 40
0.0
 41
0.0
173
1
 91
-1056964608
 92
-2
290
1
 42
2.0
291
1
 43
8.0
  3
Standard
 44
4.0
300

342
29
174
1
175
1
176
0
178
1
 93
-1056964608
 45
4.0
292
0
297
0
 46
4.0
 94
-1056964608
 47
1.0
 49
1.0
140
1.0
294
1
141
0.0
177
0
142
1.0
295
0
296
0
143
3.75
271
0
272
9
273
9
  0
DICTIONARY
  5
2D
330
A
100
AcDbDictionary
280
1
281
1
  3
CREATED_BY_EZDXF
350
2E
  3
WRITTEN_BY_EZDXF
350
37
  0
DICTIONARYVAR
  5
2E
330
2D
100
DictionaryVariables
280
0
  1
1.4.3 @ 2026-09-18T09:38:16.063357+00:00
  0
DICTIONARYVAR
  5
37
330
2D
100
DictionaryVariables
280
0
  1
1.4.3 @ 2026-09-18T09:38:16.093277+00:00
  0
ENDSEC
  0
EOF
