  0
SECTION
  2
HEADER
  9
$ACADVER
  1
AC1024
  9
$ACADMAINTVER
 70
6
  9
$DWGCODEPAGE
  3
ANSI_1252
  9
$LASTSAVEDBY
  1
ezdxf
  9
$INSBASE
 10
0.0
 20
0.0
 30
0.0
  9
$EXTMIN
 10
1e+20
 20
1e+20
 30
1e+20
  9
$EXTMAX
 10
-1e+20
 20
-1e+20
 30
-1e+20
  9
$LIMMIN
 10
0.0
 20
0.0
  9
$LIMMAX
 10
420.0
 20
297.0
  9
$ORTHOMODE
 70
0
  9
$REGENMODE
 70
1
  9
$FILLMODE
 70
1
  9
$QTEXTMODE
 70
0
  9
$MIRRTEXT
 70
1
  9
$LTSCALE
 40
1.0
  9
$ATTMODE
 70
1
  9
$TEXTSIZE
 40
2.5
  9
$TRACEWID
 40
1.0
  9
$TEXTSTYLE
  7
Standard
  9
$CLAYER
  8
0
  9
$CELTYPE
  6
ByLayer
  9
$CECOLOR
 62
256
  9
$CELTSCALE
 40
1.0
  9
$DISPSILH
 70
0
  9
$DIMSCALE
 40
1.0
  9
$DIMASZ
 40
2.5
  9
$DIMEXO
 40
0.625
  9
$DIMDLI
 40
3.75
  9
$DIMRND
 40
0.0
  9
$DIMDLE
 40
0.0
  9
$DIMEXE
 40
1.25
  9
$DIMTP
 40
0.0
  9
$DIMTM
 40
0.0
  9
$DIMTXT
 40
2.5
  9
$DIMCEN
 40
2.5
  9
$DIMTSZ
 40
0.0
  9
$DIMTOL
 70
0
  9
$DIMLIM
 70
0
  9
$DIMTIH
 70
0
  9
$DIMTOH
 70
0
  9
$DIMSE1
 70
0
  9
$DIMSE2
 70
0
  9
$DIMTAD
 70
1
  9
$DIMZIN
 70
8
  9
$DIMBLK
  1

  9
$DIMASO
 70
1
  9
$DIMSHO
 70
1
  9
$DIMPOST
  1

  9
$DIMAPOST
  1

  9
$DIMALT
 70
0
  9
$DIMALTD
 70
3
  9
$DIMALTF
 40
0.03937007874
  9
$DIMLFAC
 40
1.0
  9
$DIMTOFL
 70
1
  9
$DIMTVP
 40
0.0
  9
$DIMTIX
 70
0
  9
$DIMSOXD
 70
0
  9
$DIMSAH
 70
0
  9
$DIMBLK1
  1

  9
$DIMBLK2
  1

  9
$DIMSTYLE
  2
ISO-25
  9
$DIMCLRD
 70
0
  9
$DIMCLRE
 70
0
  9
$DIMCLRT
 70
0
  9
$DIMTFAC
 40
1.0
  9
$DIMGAP
 40
0.625
  9
$DIMJUST
 70
0
  9
$DIMSD1
 70
0
  9
$DIMSD2
 70
0
  9
$DIMTOLJ
 70
0
  9
$DIMTZIN
 70
8
  9
$DIMALTZ
 70
0
  9
$DIMALTTZ
 70
0
  9
$DIMUPT
 70
0
  9
$DIMDEC
 70
2
  9
$DIMTDEC
 70
2
  9
$DIMALTU
 70
2
  9
$DIMALTTD
 70
3
  9
$DIMTXSTY
  7
Standard
  9
$DIMAUNIT
 70
0
  9
$DIMADEC
 70
0
  9
$DIMALTRND
 40
0.0
  9
$DIMAZIN
 70
0
  9
$DIMDSEP
 70
44
  9
$DIMATFIT
 70
3
  9
$DIMFRAC
 70
0
  9
$DIMLDRBLK
  1

  9
$DIMLUNIT
 70
2
  9
$DIMLWD
 70
-2
  9
$DIMLWE
 70
-2
  9
$DIMTMOVE
 70
0
  9
$DIMFXL
 40
1.0
  9
$DIMFXLON
 70
0
  9
$DIMJOGANG
 40
0.785398163397
  9
$DIMTFILL
 70
0
  9
$DIMTFILLCLR
 70
0
  9
$DIMARCSYM
 70
0
  9
$DIMLTYPE
  6

  9
$DIMLTEX1
  6

  9
$DIMLTEX2
  6

  9
$DIMTXTDIRECTION
 70
0
  9
$LUNITS
 70
2
  9
$LUPREC
 70
4
  9
$SKETCHINC
 40
1.0
  9
$FILLETRAD
 40
10.0
  9
$AUNITS
 70
0
  9
$AUPREC
 70
2
  9
$MENU
  1
.
  9
$ELEVATION
 40
0.0
  9
$PELEVATION
 40
0.0
  9
$THICKNESS
 40
0.0
  9
$LIMCHECK
 70
0
  9
$CHAMFERA
 40
0.0
  9
$CHAMFERB
 40
0.0
  9
$CHAMFERC
 40
0.0
  9
$CHAMFERD
 40
0.0
  9
$SKPOLY
 70
0
  9
$TDCREATE
 40
2461302.5265625
  9
$TDUCREATE
 40
2458532.153996898
  9
$TDUPDATE
 40
2461302.5265625
  9
$TDUUPDATE
 40
2458532.1544311
  9
$TDINDWG
 40
0.0
  9
$TDUSRTIMER
 40
0.0
  9
$USRTIMER
 70
1
  9
$ANGBASE
 50
0.0
  9
$ANGDIR
 70
0
  9
$PDMODE
 70
0
  9
$PDSIZE
 40
0.0
  9
$PLINEWID
 40
0.0
  9
$SPLFRAME
 70
0
  9
$SPLINETYPE
 70
6
  9
$SPLINESEGS
 70
8
  9
$HANDSEED
  5
45
  9
$SURFTAB1
 70
6
  9
$SURFTAB2
 70
6
  9
$SURFTYPE
 70
6
  9
$SURFU
 70
6
  9
$SURFV
 70
6
  9
$UCSBASE
  2

  9
$UCSNAME
  2

  9
$UCSORG
 10
0.0
 20
0.0
 30
0.0
  9
$UCSXDIR
 10
1.0
 20
0.0
 30
0.0
  9
$UCSYDIR
 10
0.0
 20
1.0
 30
0.0
  9
$UCSORTHOREF
  2

  9
$UCSORTHOVIEW
 70
0
  9
$UCSORGTOP
 10
0.0
 20
0.0
 30
0.0
  9
$UCSORGBOTTOM
 10
0.0
 20
0.0
 30
0.0
  9
$UCSORGLEFT
 10
0.0
 20
0.0
 30
0.0
  9
$UCSORGRIGHT
 10
0.0
 20
0.0
 30
0.0
  9
$UCSORGFRONT
 10
0.0
 20
0.0
 30
0.0
  9
$UCSORGBACK
 10
0.0
 20
0.0
 30
0.0
  9
$PUCSBASE
  2

  9
$PUCSNAME
  2

  9
$PUCSORG
 10
0.0
 20
0.0
 30
0.0
  9
$PUCSXDIR
 10
1.0
 20
0.0
 30
0.0
  9
$PUCSYDIR
 10
0.0
 20
1.0
 30
0.0
  9
$PUCSORTHOREF
  2

  9
$PUCSORTHOVIEW
 70
0
  9
$PUCSORGTOP
 10
0.0
 20
0.0
 30
0.0
  9
$PUCSORGBOTTOM
 10
0.0
 20
0.0
 30
0.0
  9
$PUCSORGLEFT
 10
0.0
 20
0.0
 30
0.0
  9
$PUCSORGRIGHT
 10
0.0
 20
0.0
 30
0.0
  9
$PUCSORGFRONT
 10
0.0
 20
0.0
 30
0.0
  9
$PUCSORGBACK
 10
0.0
 20
0.0
 30
0.0
  9
$USERI1
 70
0
  9
$USERI2
 70
0
  9
$USERI3
 70
0
  9
$USERI4
 70
0
  9
$USERI5
 70
0
  9
$USERR1
 40
0.0
  9
$USERR2
 40
0.0
  9
$USERR3
 40
0.0
  9
$USERR4
 40
0.0
  9
$USERR5
 40
0.0
  9
$WORLDVIEW
 70
1
  9
$SHADEDGE
 70
3
  9
$SHADEDIF
 70
70
  9
$TILEMODE
 70
1
  9
$MAXACTVP
 70
64
  9
$PINSBASE
 10
0.0
 20
0.0
 30
0.0
  9
$PLIMCHECK
 70
0
  9
$PEXTMIN
 10
1e+20
 20
1e+20
 30
1e+20
  9
$PEXTMAX
 10
-1e+20
 20
-1e+20
 30
-1e+20
  9
$PLIMMIN
 10
0.0
 20
0.0
  9
$PLIMMAX
 10
420.0
 20
297.0
  9
$UNITMODE
 70
0
  9
$VISRETAIN
 70
1
  9
$PLINEGEN
 70
0
  9
$PSLTSCALE
 70
1
  9
$TREEDEPTH
 70
3020
  9
$CMLSTYLE
  2
Standard
  9
$CMLJUST
 70
0
  9
$CMLSCALE
 40
20.0
  9
$PROXYGRAPHICS
 70
1
  9
$MEASUREMENT
 70
1
  9
$CELWEIGHT
370
-1
  9
$ENDCAPS
280
0
  9
$JOINSTYLE
280
0
  9
$LWDISPLAY
290
0
  9
$INSUNITS
 70
4
  9
$HYPERLINKBASE
  1

  9
$STYLESHEET
  1

  9
$XEDIT
290
1
  9
$CEPSNTYPE
380
0
  9
$PSTYLEMODE
290
1
  9
$FINGERPRINTGUID
  2
{7F216E49-F0FD-476A-9F98-8428DAFD2060}
  9
$VERSIONGUID
  2
{1690AB9A-849D-40C9-ACAA-6ADB54D3B1E5}
  9
$EXTNAMES
290
1
  9
$PSVPSCALE
 40
0.0
  9
$OLESTARTUP
290
0
  9
$SORTENTS
280
127
  9
$INDEXCTL
280
0
  9
$HIDETEXT
280
1
  9
$XCLIPFRAME
280
1
  9
$HALOGAP
280
0
  9
$OBSCOLOR
 70
257
  9
$OBSLTYPE
280
0
  9
$INTERSECTIONDISPLAY
280
0
  9
$INTERSECTIONCOLOR
 70
257
  9
$DIMASSOC
280
2
  9
$PROJECTNAME
  1

  9
$CAMERADISPLAY
290
0
  9
$LENSLENGTH
 40
50.0
  9
$CAMERAHEIGHT
 40
0.0
  9
$STEPSPERSEC
 40
24.0
  9
$STEPSIZE
 40
100.0
  9
$3DDWFPREC
 40
2.0
  9
$PSOLWIDTH
 40
0.005
  9
$PSOLHEIGHT
 40
0.08
  9
$LOFTANG1
 40
1.570796326795
  9
$LOFTANG2
 40
1.570796326795
  9
$LOFTMAG1
 40
0.0
  9
$LOFTMAG2
 40
0.0
  9
$LOFTPARAM
 70
7
  9
$LOFTNORMALS
280
1
  9
$LATITUDE
 40
37.795
  9
$LONGITUDE
 40
-122.394
  9
$NORTHDIRECTION
 40
0.0
  9
$TIMEZONE
 70
-8000
  9
$LIGHTGLYPHDISPLAY
280
1
  9
$TILEMODELIGHTSYNCH
280
1
  9
$CMATERIAL
347
20
  9
$SOLIDHIST
280
0
  9
$SHOWHIST
280
1
  9
$DWFFRAME
280
2
  9
$DGNFRAME
280
2
  9
$REALWORLDSCALE
290
1
  9
$INTERFERECOLOR
 62
256
  9
$CSHADOW
280
0
  9
$SHADOWPLANELOCATION
 40
0.0
  0
ENDSEC
  0
SECTION
  2
CLASSES
  0
CLASS
  1
ACDBDICTIONARYWDFLT
  2
AcDbDictionaryWithDefault
  3
ObjectDBX Classes
 90
0
 91
0
280
0
281
0
  0
CLASS
  1
SUN
  2
AcDbSun
  3
SCENEOE
 90
1153
 91
0
280
0
281
0
  0
CLASS
  1
VISUALSTYLE
  2
AcDbVisualStyle
  3
ObjectDBX Classes
 90
4095
 91
0
280
0
281
0
  0
CLASS
  1
MATERIAL
  2
AcDbMaterial
  3
ObjectDBX Classes
 90
1153
 91
0
280
0
281
0
  0
CLASS
  1
SCALE
  2
AcDbScale
  3
ObjectDBX Classes
 90
1153
 91
0
280
0
281
0
  0
CLASS
  1
TABLESTYLE
  2
AcDbTableStyle
  3
ObjectDBX Classes
 90
4095
 91
0
280
0
281
0
  0
CLASS
  1
MLEADERSTYLE
  2
AcDbMLeaderStyle
  3
ACDB_MLEADERSTYLE_CLASS
 90
4095
 91
0
280
0
281
0
  0
CLASS
  1
DICTIONARYVAR
  2
AcDbDictionaryVar
  3
ObjectDBX Classes
 90
0
 91
0
280
0
281
0
  0
CLASS
  1
CELLSTYLEMAP
  2
AcDbCellStyleMap
  3
ObjectDBX Classes
 90
1152
 91
0
280
0
281
0
  0
CLASS
  1
MENTALRAYRENDERSETTINGS
  2
AcDbMentalRayRenderSettings
  3
SCENEOE
 90
1024
 91
0
280
0
281
0
  0
CLASS
  1
ACDBDETAILVIEWSTYLE
  2
AcDbDetailViewStyle
  3
ObjectDBX Classes
 90
1025
 91
0
280
0
281
0
  0
CLASS
  1
ACDBSECTIONVIEWSTYLE
  2
AcDbSectionViewStyle
  3
ObjectDBX Classes
 90
1025
 91
0
280
0
281
0
  0
CLASS
  1
RASTERVARIABLES
  2
AcDbRasterVariables
  3
ISM
 90
0
 91
0
280
0
281
0
  0
CLASS
  1
LAYOUT
  2
AcDbLayout
  3
ObjectDBX Classes
 90
0
 91
0
280
0
281
0
  0
CLASS
  1
ACDBPLACEHOLDER
  2
AcDbPlaceHolder
  3
ObjectDBX Classes
 90
0
 91
0
280
0
281
0
  0
ENDSEC
  0
SECTION
  2
TABLES
  0
TABLE
  2
VPORT
  5
8
330
0
100
AcDbSymbolTable
 70
1
  0
VPORT
  5
23
330
8
100
AcDbSymbolTableRecord
100
AcDbViewportTableRecord
  2
*Active
 70
0
 10
0.0
 20
0.0
 11
1.0
 21
1.0
 12
0.0
 22
0.0
 13
0.0
 23
0.0
 14
0.5
 24
0.5
 15
0.5
 25
0.5
 16
0.0
 26
0.0
 36
1.0
 17
0.0
 27
0.0
 37
0.0
 40
1000.0
 41
1.34
 42
50.0
 43
0.0
 44
0.0
 50
0.0
 51
0.0
 71
0
 72
1000
 73
1
 74
3
 75
0
 76
0
 77
0
 78
0
281
0
 65
0
146
0.0
  0
ENDTAB
  0
TABLE
  2
LTYPE
  5
2
330
0
100
AcDbSymbolTable
 70
3
  0
LTYPE
  5
24
330
2
100
AcDbSymbolTableRecord
100
AcDbLinetypeTableRecord
  2
ByBlock
 70
0
  3

 72
65
 73
0
 40
0.0
  0
LTYPE
  5
25
330
2
100
AcDbSymbolTableRecord
100
AcDbLinetypeTableRecord
  2
ByLayer
 70
0
  3

 72
65
 73
0
 40
0.0
  0
LTYPE
  5
26
330
2
100
AcDbSymbolTableRecord
100
AcDbLinetypeTableRecord
  2
Continuous
 70
0
  3

 72
65
 73
0
 40
0.0
  0
ENDTAB
  0
TABLE
  2
LAYER
  5
1
330
0
100
AcDbSymbolTable
 70
4
  0
LAYER
  5
27
330
1
100
AcDbSymbolTableRecord
100
AcDbLayerTableRecord
  2
0
 70
0
 62
7
  6
Continuous
370
-3
390
13
347
21
  0
LAYER
  5
28
330
1
100
AcDbSymbolTableRecord
100
AcDbLayerTableRecord
  2
Defpoints
 70
0
 62
7
  6
Continuous
290
0
370
-3
390
13
347
21
  0
LAYER
  5
2F
330
1
100
AcDbSymbolTableRecord
100
AcDbLayerTableRecord
  2
CUT_PROFILE
 70
0
 62
7
  6
Continuous
370
-3
390
13
347
21
  0
LAYER
  5
30
330
1
100
AcDbSymbolTableRecord
100
AcDbLayerTableRecord
  2
NOT_RELEASED
 70
0
 62
1
  6
Continuous
370
-3
390
13
347
21
  0
ENDTAB
  0
TABLE
  2
STYLE
  5
5
330
0
100
AcDbSymbolTable
 70
1
  0
STYLE
  5
29
330
5
100
AcDbSymbolTableRecord
100
AcDbTextStyleTableRecord
  2
Standard
 70
0
 40
0.0
 41
1.0
 50
0.0
 71
0
 42
2.5
  3
txt
  4

  0
ENDTAB
  0
TABLE
  2
VIEW
  5
7
330
0
100
AcDbSymbolTable
 70
0
  0
ENDTAB
  0
TABLE
  2
UCS
  5
6
330
0
100
AcDbSymbolTable
 70
0
  0
ENDTAB
  0
TABLE
  2
APPID
  5
3
330
0
100
AcDbSymbolTable
 70
3
  0
APPID
  5
2A
330
3
100
AcDbSymbolTableRecord
100
AcDbRegAppTableRecord
  2
ACAD
 70
0
  0
APPID
  5
42
330
3
100
AcDbSymbolTableRecord
100
AcDbRegAppTableRecord
  2
HATCHBACKGROUNDCOLOR
 70
0
  0
APPID
  5
43
330
3
100
AcDbSymbolTableRecord
100
AcDbRegAppTableRecord
  2
EZDXF
 70
0
  0
ENDTAB
  0
TABLE
  2
DIMSTYLE
  5
4
330
0
100
AcDbSymbolTable
 70
1
100
AcDbDimStyleTable
  0
DIMSTYLE
105
2B
330
4
100
AcDbSymbolTableRecord
100
AcDbDimStyleTableRecord
  2
Standard
 70
0
 40
1.0
 41
2.5
 42
0.625
 43
3.75
 44
1.25
 45
0.0
 46
0.0
 47
0.0
 48
0.0
 49
2.5
140
2.5
141
2.5
142
0.0
143
0.03937007874
144
1.0
145
0.0
146
1.0
147
0.625
148
0.0
 69
0
 70
0
 71
0
 72
0
 73
0
 74
0
 75
0
 76
0
 77
1
 78
8
 79
3
170
0
171
3
172
1
173
0
174
0
175
0
176
0
177
0
178
0
179
2
271
2
272
2
273
2
274
3
275
0
276
0
277
2
278
44
279
0
280
0
281
0
282
0
283
0
284
8
285
0
286
0
288
0
289
3
290
0
371
-2
372
-2
  0
ENDTAB
  0
TABLE
  2
BLOCK_RECORD
  5
9
330
0
100
AcDbSymbolTable
 70
2
  0
BLOCK_RECORD
  5
17
330
9
100
AcDbSymbolTableRecord
100
AcDbBlockTableRecord
  2
*Model_Space
340
1A
 70
0
280
1
281
0
  0
BLOCK_RECORD
  5
1B
330
9
100
AcDbSymbolTableRecord
100
AcDbBlockTableRecord
  2
*Paper_Space
340
1E
 70
0
280
1
281
0
  0
ENDTAB
  0
ENDSEC
  0
SECTION
  2
BLOCKS
  0
BLOCK
  5
18
330
17
100
AcDbEntity
  8
0
100
AcDbBlockBegin
  2
*Model_Space
 70
0
 10
0.0
 20
0.0
 30
0.0
  3
*Model_Space
  1

  0
ENDBLK
  5
19
330
17
100
AcDbEntity
  8
0
100
AcDbBlockEnd
  0
BLOCK
  5
1C
330
1B
100
AcDbEntity
  8
0
100
AcDbBlockBegin
  2
*Paper_Space
 70
0
 10
0.0
 20
0.0
 30
0.0
  3
*Paper_Space
  1

  0
ENDBLK
  5
1D
330
1B
100
AcDbEntity
  8
0
100
AcDbBlockEnd
  0
ENDSEC
  0
SECTION
  2
ENTITIES
  0
LWPOLYLINE
  5
31
330
17
100
AcDbEntity
  8
CUT_PROFILE
100
AcDbPolyline
 90
215
 70
1
 10
-120.4085459455047
 20
56.71948344550553
 10
-122.34444021752475
 20
58.25450903991755
 10
-124.40007822735359
 20
59.62503542802063
 10
-126.56151820356561
 20
60.82176741020065
 10
-128.81410080343878
 20
61.83658849723455
 10
-131.14254853571504
 20
62.66261595803559
 10
-133.531069375775
 20
63.294247499790195
 10
-135.96346387048618
 20
63.727199263891805
 10
-138.42323500629968
 20
63.9585348799806
 10
-303.23277148289645
 20
72.63272101030938
 10
-317.0286794376941
 20
187.13875703536567
 10
-129.55792732350176
 20
232.69239773603886
 10
-15.110661894041186
 20
255.2213869937927
 10
87.51887014380357
 20
188.8140427340369
 10
87.27044427056389
 20
189.66529786391112
 10
87.30583830972776
 20
190.55135540866976
 10
87.62137197992678
 20
191.3800828750921
 10
88.1842360083293
 20
192.06530896636608
 10
88.93590364733551
 20
192.53578369587117
 10
89.79821630096633
 20
192.7425869792596
 10
90.68151047593655
 20
192.66421535750936
 10
91.49394101493243
 20
192.30881793216847
 10
92.15103117988077
 20
191.71334901966318
 10
92.58445656507493
 20
190.93972563189536
 10
92.7491494865938
 20
190.06838932929247
 10
92.62798513176003
 20
189.18994188649933
 10
92.23356220160196
 20
188.39572449636134
 10
91.60689289465438
 20
187.76832008901158
 10
90.81313844792219
 20
187.37296633738532
 10
89.9348336545634
 20
187.25077222707063
 10
93.7024616552855
 20
184.81289528543306
 10
95.77715767490926
 20
183.5857849596925
 10
97.94367262437737
 20
182.52919786005853
 10
100.18802005290841
 20
181.6499550349938
 10
102.49571104370388
 20
180.95373264496087
 10
104.85184775058482
 20
180.4450253186229
 10
107.24121957456914
 20
180.12711713670308
 10
109.64840135949859
 20
180.00206043082295
 10
112.05785297279058
 20
180.07066253418935
 10
114.45401962844755
 20
180.33248056966335
 10
116.82143230466481
 20
180.78582430885862
 10
119.14480760776746
 20
181.42776708381163
 10
121.40914643778088
 20
182.2541646807801
 10
123.59983081867573
 20
183.25968209419722
 10
125.70271826817716
 20
184.4378279680647
 10
127.70423309791133
 20
185.78099650244005
 10
129.59145405448157
 20
187.28051655449045
 10
128.86611989336626
 20
187.49464255967732
 10
128.2265422416674
 20
187.89825130441102
 10
127.72109300977449
 20
188.4608174475062
 10
127.38799983882942
 20
189.1397935375476
 10
127.25245490522158
 20
189.88382792005382
 10
127.32470961058266
 20
190.63664851550223
 10
127.59929925782129
 20
191.34131873412048
 10
128.05545635173996
 20
191.94454364826598
 10
128.65868126588683
 20
192.4007007421828
 10
129.36335148450593
 20
192.67529038941927
 10
130.11617207995457
 20
192.74754509477808
 10
130.86020646246035
 20
192.61200016116797
 10
131.53918255250073
 20
192.27890699022083
 10
132.10174869559438
 20
191.77345775832617
 10
132.50535744032615
 20
191.1338801066261
 10
132.71948344551006
 20
190.40854594550996
 10
134.37003219849308
 20
192.50424249583887
 10
135.8278883195074
 20
194.73827713018437
 10
137.08152461274543
 20
197.09298544785574
 10
138.12102863841602
 20
199.5497488873527
 10
138.93818108991272
 20
202.08914194240486
 10
139.5265207834621
 20
204.69108575848324
 10
139.88139574638242
 20
207.33500689530382
 10
140.0
 20
209.99999999999622
 10
139.8813957463831
 20
212.66499310468868
 10
139.52652078346347
 20
215.3089142415093
 10
138.9381810899147
 20
217.91085805758783
 10
138.12102863841866
 20
220.45025111264022
 10
137.0815246127487
 20
222.9070145521374
 10
135.82788831951126
 20
225.2617228698091
 10
134.37003219849748
 20
227.495757504155
 10
132.71948344550933
 20
229.59145405448012
 10
132.50535744032237
 20
228.86611989336555
 10
132.10174869558892
 20
228.22654224166737
 10
131.5391825524943
 20
227.72109300977485
 10
130.86020646245368
 20
227.38799983882984
 10
130.11617207994826
 20
227.25245490522167
 10
129.36335148450047
 20
227.324709610582
 10
128.65868126588254
 20
227.59929925781958
 10
128.055456351737
 20
228.055456351737
 10
127.5992992578196
 20
228.65868126588254
 10
127.32470961058202
 20
229.36335148450047
 10
127.25245490522167
 20
230.11617207994826
 10
127.38799983882984
 20
230.86020646245368
 10
127.72109300977485
 20
231.53918255249434
 10
128.22654224166737
 20
232.10174869558892
 10
128.86611989336555
 20
232.50535744032237
 10
129.5914540544843
 20
232.719483445515
 10
127.98686277646291
 20
234.00984730190288
 10
126.29753834472378
 20
235.18710471458127
 10
13.481129856198015
 20
308.1859572659598
 10
13.729555729436509
 20
307.3347021360857
 10
13.694161690271693
 20
306.44864459132754
 10
13.378628020072078
 20
305.6199171249059
 10
12.815763991669343
 20
304.93469103363276
 10
12.064096352663256
 20
304.4642163041283
 10
11.20178369903279
 20
304.25741302074033
 10
10.31848952406305
 20
304.33578464249075
 10
9.506058985067614
 20
304.6911820678315
 10
8.848968820119552
 20
305.28665098033645
 10
8.415543434925407
 20
306.06027436810376
 10
8.250850513406242
 20
306.9316106707061
 10
8.372014868239415
 20
307.8100581134988
 10
8.766437798396662
 20
308.6042755036367
 10
9.39310710534332
 20
309.23167991098677
 10
10.186861552074653
 20
309.6270336626137
 10
11.065166345433768
 20
309.7492277729212
 10
7.297538344720131
 20
312.1871047145633
 10
4.806016265226747
 20
313.63444977626335
 10
2.1871338390832893
 20
314.83609233470884
 10
-0.5349497724270886
 20
315.7809472506495
 10
-3.3351233782328817
 20
316.46029824798376
 10
-6.187555407932855
 20
316.86787832130955
 10
-9.065932207745984
 20
316.99992754897886
 10
-11.943700783675219
 20
316.85522777833376
 10
-14.794313752578148
 20
316.4351138631307
 10
-141.79431375250505
 20
291.4351138631657
 10
-143.08359510330237
 20
291.1517183097797
 10
-357.08359510330126
 20
239.15171830977525
 10
-359.69691974983334
 20
238.3896063263528
 10
-362.2304034028076
 20
237.39374440642592
 10
-364.6631862575402
 20
236.17233212338337
 10
-366.9752376439582
 20
234.73542615220413
 10
-369.14752095202357
 20
233.09485746636722
 10
-371.1621503724196
 20
231.26413392581748
 10
-373.002538161953
 20
229.25832905804384
 10
-374.65353122114084
 20
227.09395794800707
 10
-376.10153585945005
 20
224.78884125879523
 10
-377.334629720918
 20
222.36195850261225
 10
-378.3426599485973
 20
219.83329177021497
 10
-379.1173267795746
 20
217.22366120547372
 10
-379.65225188227066
 20
214.55455357970183
 10
-379.94303087335754
 20
211.847945377211
 10
-379.9872695818869
 20
209.12612184874416
 10
-379.78460376192794
 20
206.4114935226487
 10
-359.7846037620436
 20
40.411493522639745
 10
-359.3577161273762
 20
37.825495664881714
 10
-358.7067437212047
 20
35.286627235962186
 10
-357.83665535657497
 20
32.8142671872037
 10
-356.7540923386734
 20
30.427286817524692
 10
-355.4673177723496
 20
28.14390573053477
 10
-353.98615349059014
 20
25.981552765960952
 10
-352.3219050853628
 20
23.956732966902464
 10
-350.48727561306305
 20
22.084901598341116
 10
-348.4962686332428
 20
20.38034617851226
 10
-346.3640813207162
 20
18.85607742358031
 10
-344.10698846690985
 20
17.52372993802804
 10
-341.7422182558628
 20
16.393473408780984
 10
-339.28782076306805
 20
15.473934980914006
 10
-336.76253018089153
 20
14.772133407439213
 10
-334.1856218221891
 20
14.29342547580394
 10
-331.57676499360036
 20
14.041465120019412
 10
-141.57676499360022
 20
4.041465120020355
 10
-138.71219054622296
 20
4.027653631876557
 10
-135.85935802710125
 20
4.287122588812281
 10
-133.0442788579299
 20
4.817506217018408
 10
-130.29262023469138
 20
5.61396860968274
 10
-127.62947110050774
 20
6.669247819592904
 10
-125.0791133908593
 20
7.973722071775878
 10
-122.66480063689922
 20
9.51549749246373
 10
-120.4085459455002
 20
11.280516554487718
 10
-121.13388010661869
 20
11.494642559670503
 10
-121.77345775832144
 20
11.898251304401622
 10
-122.27890699021843
 20
12.460817447495723
 10
-122.61200016116723
 20
13.139793537537415
 10
-122.74754509477805
 20
13.883827920045015
 10
-122.67529038941893
 20
14.636648515495548
 10
-122.40070074218112
 20
15.341318734116173
 10
-121.94454364826218
 20
15.944543648263833
 10
-121.34131873411413
 20
16.400700742182263
 10
-120.63664851549326
 20
16.675290389419477
 10
-119.88382792004268
 20
16.74754509477795
 10
-119.13979353753518
 20
16.612000161166492
 10
-118.46081744749378
 20
16.278906990217116
 10
-117.8982513044001
 20
15.773457758319651
 10
-117.49464255966953
 20
15.133880106616562
 10
-117.28051655445107
 20
14.408545945555037
 10
-115.62996780147627
 20
16.50424249588156
 10
-114.1721116804694
 20
18.73827713022363
 10
-112.91847538723795
 20
21.092985447890612
 10
-111.87897136157295
 20
23.54974888738237
 10
-111.06181891008077
 20
26.08914194242868
 10
-110.47347921653474
 20
28.69108575850068
 10
-110.11860425361661
 20
31.335006895314518
 10
-110.0
 20
34.0
 10
-110.11860425361662
 20
36.66499310468548
 10
-110.47347921653474
 20
39.308914241499316
 10
-111.06181891008076
 20
41.91085805757132
 10
-111.87897136157295
 20
44.45025111261763
 10
-112.91847538723795
 20
46.90701455210939
 10
-114.1721116804694
 20
49.261722869776364
 10
-115.62996780147627
 20
51.495757504118444
 10
-117.28051655448736
 20
53.59145405450212
 10
-117.49464255966954
 20
52.866119893383434
 10
-117.89825130440012
 20
52.22654224168035
 10
-118.46081744749378
 20
51.721093009782884
 10
-119.1397935375352
 20
51.38799983883351
 10
-119.88382792004268
 20
51.252454905222045
 10
-120.63664851549328
 20
51.32470961058053
 10
-121.34131873411413
 20
51.599299257817734
 10
-121.94454364826218
 20
52.05545635173617
 10
-122.40070074218112
 20
52.65868126588383
 10
-122.67529038941893
 20
53.363351484504456
 10
-122.74754509477805
 20
54.116172079954985
 10
-122.61200016116723
 20
54.860206462462585
 10
-122.27890699021843
 20
55.53918255250428
 10
-121.77345775832144
 20
56.10174869559838
 10
-121.13388010661869
 20
56.5053574403295
  0
LWPOLYLINE
  5
32
330
17
100
AcDbEntity
  8
CUT_PROFILE
100
AcDbPolyline
 90
17
 70
1
 10
-307.25
 20
44.0
 10
-307.43570136913803
 20
44.99341458201467
 10
-307.96772547764317
 20
45.85266302002803
 10
-308.7742195216145
 20
46.46169905122642
 10
-309.7462620114759
 20
46.73826898481134
 10
-310.75257322269823
 20
46.645020518725254
 10
-311.65724525004293
 20
46.19454737502066
 10
-312.33809712325643
 20
45.44768844791273
 10
-312.70317602413076
 20
44.50531117399557
 10
-312.70317602413076
 20
43.494688826004435
 10
-312.33809712325643
 20
42.552311552087275
 10
-311.65724525004293
 20
41.805452624979345
 10
-310.75257322269823
 20
41.354979481274746
 10
-309.74626201147595
 20
41.26173101518865
 10
-308.7742195216145
 20
41.538300948773575
 10
-307.96772547764317
 20
42.14733697997197
 10
-307.43570136913803
 20
43.00658541798533
  0
LWPOLYLINE
  5
33
330
17
100
AcDbEntity
  8
CUT_PROFILE
100
AcDbPolyline
 90
17
 70
1
 10
-157.25
 20
14.0
 10
-157.43570136913803
 20
14.99341458201467
 10
-157.9677254776432
 20
15.852663020028032
 10
-158.77421952161453
 20
16.46169905122642
 10
-159.74626201147592
 20
16.738268984811345
 10
-160.75257322269823
 20
16.645020518725254
 10
-161.65724525004296
 20
16.194547375020658
 10
-162.33809712325643
 20
15.447688447912729
 10
-162.70317602413073
 20
14.505311173995569
 10
-162.70317602413073
 20
13.494688826004433
 10
-162.33809712325643
 20
12.552311552087273
 10
-161.65724525004296
 20
11.805452624979342
 10
-160.75257322269823
 20
11.354979481274748
 10
-159.74626201147592
 20
11.261731015188655
 10
-158.77421952161453
 20
11.538300948773577
 10
-157.9677254776432
 20
12.147336979971964
 10
-157.43570136913803
 20
13.006585417985324
  0
LWPOLYLINE
  5
34
330
17
100
AcDbEntity
  8
CUT_PROFILE
100
AcDbPolyline
 90
40
 70
1
 10
-124.0
 20
34.0
 10
-124.19698655047779
 20
36.50295144064369
 10
-124.78309573927754
 20
38.94427190999916
 10
-125.74389561298611
 20
41.26384799583275
 10
-127.05572809000084
 20
43.404564036679574
 10
-128.68629150101523
 20
45.31370849898476
 10
-130.59543596332043
 20
46.94427190999916
 10
-132.73615200416725
 20
48.256104387013885
 10
-135.05572809000085
 20
49.21690426072246
 10
-137.4970485593563
 20
49.803013449522204
 10
-140.0
 20
50.0
 10
-142.5029514406437
 20
49.803013449522204
 10
-144.94427190999915
 20
49.21690426072246
 10
-147.26384799583275
 20
48.256104387013885
 10
-149.40456403667957
 20
46.94427190999916
 10
-151.31370849898477
 20
45.31370849898476
 10
-152.94427190999915
 20
43.404564036679574
 10
-154.2561043870139
 20
41.26384799583275
 10
-155.21690426072246
 20
38.94427190999916
 10
-155.8030134495222
 20
36.5029514406437
 10
-156.0
 20
34.0
 10
-155.8030134495222
 20
31.49704855935631
 10
-155.21690426072246
 20
29.055728090000844
 10
-154.2561043870139
 20
26.736152004167252
 10
-152.94427190999915
 20
24.595435963320433
 10
-151.31370849898477
 20
22.68629150101524
 10
-149.40456403667957
 20
21.05572809000084
 10
-147.26384799583275
 20
19.743895612986115
 10
-144.94427190999917
 20
18.78309573927754
 10
-142.5029514406437
 20
18.196986550477796
 10
-140.0
 20
18.0
 10
-137.4970485593563
 20
18.196986550477796
 10
-135.05572809000085
 20
18.78309573927754
 10
-132.73615200416725
 20
19.743895612986112
 10
-130.59543596332043
 20
21.05572809000084
 10
-128.68629150101523
 20
22.686291501015237
 10
-127.05572809000084
 20
24.595435963320426
 10
-125.74389561298611
 20
26.73615200416725
 10
-124.78309573927754
 20
29.055728090000837
 10
-124.1969865504778
 20
31.4970485593563
  0
LWPOLYLINE
  5
35
330
17
100
AcDbEntity
  8
CUT_PROFILE
100
AcDbPolyline
 90
17
 70
1
 10
-157.25
 20
54.0
 10
-157.43570136913803
 20
54.99341458201467
 10
-157.9677254776432
 20
55.85266302002803
 10
-158.77421952161453
 20
56.46169905122642
 10
-159.74626201147592
 20
56.73826898481134
 10
-160.75257322269823
 20
56.645020518725254
 10
-161.65724525004296
 20
56.19454737502066
 10
-162.33809712325643
 20
55.44768844791273
 10
-162.70317602413073
 20
54.50531117399557
 10
-162.70317602413073
 20
53.494688826004435
 10
-162.33809712325643
 20
52.552311552087275
 10
-161.65724525004296
 20
51.805452624979345
 10
-160.75257322269823
 20
51.354979481274746
 10
-159.74626201147592
 20
51.26173101518865
 10
-158.77421952161453
 20
51.538300948773575
 10
-157.9677254776432
 20
52.14733697997197
 10
-157.43570136913803
 20
53.00658541798533
  0
LWPOLYLINE
  5
36
330
17
100
AcDbEntity
  8
CUT_PROFILE
100
AcDbPolyline
 90
17
 70
1
 10
-327.25
 20
211.0
 10
-327.43570136913803
 20
211.99341458201468
 10
-327.96772547764317
 20
212.85266302002805
 10
-328.7742195216145
 20
213.46169905122642
 10
-329.7462620114759
 20
213.73826898481136
 10
-330.75257322269823
 20
213.64502051872526
 10
-331.65724525004293
 20
213.19454737502065
 10
-332.33809712325643
 20
212.44768844791272
 10
-332.70317602413076
 20
211.50531117399558
 10
-332.70317602413076
 20
210.49468882600442
 10
-332.33809712325643
 20
209.55231155208728
 10
-331.65724525004293
 20
208.80545262497935
 10
-330.75257322269823
 20
208.35497948127474
 10
-329.74626201147595
 20
208.26173101518864
 10
-328.7742195216145
 20
208.53830094877358
 10
-327.96772547764317
 20
209.14733697997195
 10
-327.43570136913803
 20
210.00658541798532
  0
LWPOLYLINE
  5
37
330
17
100
AcDbEntity
  8
CUT_PROFILE
100
AcDbPolyline
 90
17
 70
1
 10
-153.25
 20
242.0
 10
-153.43570136913803
 20
242.99341458201468
 10
-153.9677254776432
 20
243.85266302002805
 10
-154.77421952161453
 20
244.46169905122642
 10
-155.74626201147592
 20
244.73826898481136
 10
-156.75257322269823
 20
244.64502051872526
 10
-157.65724525004296
 20
244.19454737502065
 10
-158.33809712325643
 20
243.44768844791272
 10
-158.70317602413073
 20
242.50531117399558
 10
-158.70317602413073
 20
241.49468882600442
 10
-158.33809712325643
 20
240.55231155208728
 10
-157.65724525004296
 20
239.80545262497935
 10
-156.75257322269823
 20
239.35497948127474
 10
-155.74626201147592
 20
239.26173101518864
 10
-154.77421952161453
 20
239.53830094877358
 10
-153.9677254776432
 20
240.14733697997195
 10
-153.43570136913803
 20
241.00658541798532
  0
LWPOLYLINE
  5
38
330
17
100
AcDbEntity
  8
CUT_PROFILE
100
AcDbPolyline
 90
17
 70
1
 10
-113.25
 20
242.0
 10
-113.43570136913802
 20
242.99341458201468
 10
-113.96772547764319
 20
243.85266302002805
 10
-114.77421952161453
 20
244.46169905122642
 10
-115.74626201147592
 20
244.73826898481136
 10
-116.75257322269823
 20
244.64502051872526
 10
-117.65724525004296
 20
244.19454737502065
 10
-118.33809712325643
 20
243.44768844791272
 10
-118.70317602413073
 20
242.50531117399558
 10
-118.70317602413073
 20
241.49468882600442
 10
-118.33809712325645
 20
240.55231155208728
 10
-117.65724525004296
 20
239.80545262497935
 10
-116.75257322269823
 20
239.35497948127474
 10
-115.74626201147592
 20
239.26173101518864
 10
-114.77421952161453
 20
239.53830094877358
 10
-113.96772547764319
 20
240.14733697997195
 10
-113.43570136913803
 20
241.00658541798532
  0
LWPOLYLINE
  5
39
330
17
100
AcDbEntity
  8
CUT_PROFILE
100
AcDbPolyline
 90
40
 70
1
 10
-120.0
 20
262.0
 10
-120.19698655047779
 20
264.5029514406437
 10
-120.78309573927754
 20
266.94427190999915
 10
-121.74389561298611
 20
269.26384799583275
 10
-123.05572809000084
 20
271.4045640366796
 10
-124.68629150101523
 20
273.31370849898474
 10
-126.59543596332043
 20
274.94427190999915
 10
-128.73615200416725
 20
276.25610438701386
 10
-131.05572809000085
 20
277.21690426072246
 10
-133.4970485593563
 20
277.8030134495222
 10
-136.0
 20
278.0
 10
-138.5029514406437
 20
277.8030134495222
 10
-140.94427190999915
 20
277.21690426072246
 10
-143.26384799583275
 20
276.25610438701386
 10
-145.40456403667957
 20
274.94427190999915
 10
-147.31370849898477
 20
273.31370849898474
 10
-148.94427190999915
 20
271.4045640366796
 10
-150.2561043870139
 20
269.26384799583275
 10
-151.21690426072246
 20
266.94427190999915
 10
-151.8030134495222
 20
264.5029514406437
 10
-152.0
 20
262.0
 10
-151.8030134495222
 20
259.4970485593563
 10
-151.21690426072246
 20
257.05572809000085
 10
-150.2561043870139
 20
254.73615200416725
 10
-148.94427190999915
 20
252.59543596332043
 10
-147.31370849898477
 20
250.68629150101523
 10
-145.40456403667957
 20
249.05572809000085
 10
-143.26384799583275
 20
247.7438956129861
 10
-140.94427190999917
 20
246.78309573927754
 10
-138.5029514406437
 20
246.1969865504778
 10
-136.0
 20
246.0
 10
-133.4970485593563
 20
246.1969865504778
 10
-131.05572809000085
 20
246.78309573927754
 10
-128.73615200416725
 20
247.7438956129861
 10
-126.59543596332043
 20
249.05572809000083
 10
-124.68629150101525
 20
250.68629150101523
 10
-123.05572809000084
 20
252.59543596332043
 10
-121.74389561298611
 20
254.73615200416725
 10
-120.78309573927754
 20
257.05572809000085
 10
-120.1969865504778
 20
259.4970485593563
  0
LWPOLYLINE
  5
3A
330
17
100
AcDbEntity
  8
CUT_PROFILE
100
AcDbPolyline
 90
17
 70
1
 10
-153.25
 20
282.0
 10
-153.43570136913803
 20
282.9934145820147
 10
-153.9677254776432
 20
283.85266302002805
 10
-154.77421952161453
 20
284.46169905122645
 10
-155.74626201147592
 20
284.7382689848113
 10
-156.75257322269823
 20
284.64502051872523
 10
-157.65724525004296
 20
284.19454737502065
 10
-158.33809712325643
 20
283.44768844791275
 10
-158.70317602413073
 20
282.50531117399555
 10
-158.70317602413073
 20
281.49468882600445
 10
-158.33809712325643
 20
280.55231155208725
 10
-157.65724525004296
 20
279.80545262497935
 10
-156.75257322269823
 20
279.35497948127477
 10
-155.74626201147592
 20
279.2617310151887
 10
-154.77421952161453
 20
279.53830094877355
 10
-153.9677254776432
 20
280.14733697997195
 10
-153.43570136913803
 20
281.0065854179853
  0
LWPOLYLINE
  5
3B
330
17
100
AcDbEntity
  8
CUT_PROFILE
100
AcDbPolyline
 90
17
 70
1
 10
-113.25
 20
282.0
 10
-113.43570136913802
 20
282.9934145820147
 10
-113.96772547764319
 20
283.85266302002805
 10
-114.77421952161453
 20
284.46169905122645
 10
-115.74626201147592
 20
284.7382689848113
 10
-116.75257322269823
 20
284.64502051872523
 10
-117.65724525004296
 20
284.19454737502065
 10
-118.33809712325643
 20
283.44768844791275
 10
-118.70317602413073
 20
282.50531117399555
 10
-118.70317602413073
 20
281.49468882600445
 10
-118.33809712325645
 20
280.55231155208725
 10
-117.65724525004296
 20
279.80545262497935
 10
-116.75257322269823
 20
279.35497948127477
 10
-115.74626201147592
 20
279.2617310151887
 10
-114.77421952161453
 20
279.53830094877355
 10
-113.96772547764319
 20
280.14733697997195
 10
-113.43570136913803
 20
281.0065854179853
  0
LWPOLYLINE
  5
3C
330
17
100
AcDbEntity
  8
CUT_PROFILE
100
AcDbPolyline
 90
40
 70
1
 10
126.0
 20
210.0
 10
125.80301344952221
 20
212.5029514406437
 10
125.21690426072246
 20
214.94427190999915
 10
124.25610438701389
 20
217.26384799583275
 10
122.94427190999916
 20
219.40456403667957
 10
121.31370849898477
 20
221.31370849898477
 10
119.40456403667957
 20
222.94427190999915
 10
117.26384799583275
 20
224.2561043870139
 10
114.94427190999916
 20
225.21690426072246
 10
112.5029514406437
 20
225.8030134495222
 10
110.0
 20
226.0
 10
107.4970485593563
 20
225.8030134495222
 10
105.05572809000084
 20
225.21690426072246
 10
102.73615200416725
 20
224.2561043870139
 10
100.59543596332043
 20
222.94427190999915
 10
98.68629150101523
 20
221.31370849898477
 10
97.05572809000084
 20
219.40456403667957
 10
95.74389561298611
 20
217.26384799583275
 10
94.78309573927754
 20
214.94427190999917
 10
94.1969865504778
 20
212.5029514406437
 10
94.0
 20
210.0
 10
94.19698655047779
 20
207.4970485593563
 10
94.78309573927754
 20
205.05572809000085
 10
95.74389561298611
 20
202.73615200416725
 10
97.05572809000084
 20
200.59543596332043
 10
98.68629150101523
 20
198.68629150101523
 10
100.59543596332043
 20
197.05572809000085
 10
102.73615200416725
 20
195.7438956129861
 10
105.05572809000084
 20
194.78309573927754
 10
107.4970485593563
 20
194.1969865504778
 10
110.0
 20
194.0
 10
112.50295144064368
 20
194.1969865504778
 10
114.94427190999916
 20
194.78309573927754
 10
117.26384799583275
 20
195.7438956129861
 10
119.40456403667957
 20
197.05572809000083
 10
121.31370849898475
 20
198.68629150101523
 10
122.94427190999916
 20
200.59543596332043
 10
124.25610438701389
 20
202.73615200416725
 10
125.21690426072246
 20
205.05572809000083
 10
125.8030134495222
 20
207.4970485593563
  0
LWPOLYLINE
  5
3D
330
17
100
AcDbEntity
  8
CUT_PROFILE
100
AcDbPolyline
 90
17
 70
1
 10
92.75
 20
230.0
 10
92.56429863086198
 20
230.99341458201468
 10
92.03227452235681
 20
231.85266302002805
 10
91.22578047838547
 20
232.46169905122642
 10
90.25373798852408
 20
232.73826898481136
 10
89.24742677730177
 20
232.64502051872526
 10
88.34275474995704
 20
232.19454737502065
 10
87.66190287674357
 20
231.44768844791272
 10
87.29682397586927
 20
230.50531117399558
 10
87.29682397586927
 20
229.49468882600442
 10
87.66190287674355
 20
228.55231155208728
 10
88.34275474995704
 20
227.80545262497935
 10
89.24742677730177
 20
227.35497948127474
 10
90.25373798852408
 20
227.26173101518864
 10
91.22578047838547
 20
227.53830094877358
 10
92.03227452235681
 20
228.14733697997195
 10
92.56429863086197
 20
229.00658541798532
  0
LWPOLYLINE
  5
3E
330
17
100
AcDbEntity
  8
CUT_PROFILE
100
AcDbPolyline
 90
17
 70
1
 10
-26.25
 20
267.0
 10
-26.435701369138023
 20
267.9934145820147
 10
-26.96772547764319
 20
268.85266302002805
 10
-27.77421952161452
 20
269.46169905122645
 10
-28.74626201147592
 20
269.7382689848113
 10
-29.752573222698228
 20
269.64502051872523
 10
-30.657245250042955
 20
269.19454737502065
 10
-31.33809712325644
 20
268.44768844791275
 10
-31.70317602413073
 20
267.50531117399555
 10
-31.70317602413073
 20
266.49468882600445
 10
-31.33809712325644
 20
265.55231155208725
 10
-30.65724525004296
 20
264.80545262497935
 10
-29.75257322269823
 20
264.35497948127477
 10
-28.746262011475924
 20
264.2617310151887
 10
-27.774219521614523
 20
264.53830094877355
 10
-26.967725477643192
 20
265.14733697997195
 10
-26.435701369138023
 20
266.0065854179853
  0
LWPOLYLINE
  5
3F
330
17
100
AcDbEntity
  8
CUT_PROFILE
100
AcDbPolyline
 90
17
 70
1
 10
13.75
 20
267.0
 10
13.564298630861979
 20
267.9934145820147
 10
13.032274522356813
 20
268.85266302002805
 10
12.22578047838548
 20
269.46169905122645
 10
11.253737988524081
 20
269.7382689848113
 10
10.247426777301772
 20
269.64502051872523
 10
9.342754749957045
 20
269.19454737502065
 10
8.66190287674356
 20
268.44768844791275
 10
8.29682397586927
 20
267.50531117399555
 10
8.29682397586927
 20
266.49468882600445
 10
8.66190287674356
 20
265.55231155208725
 10
9.342754749957043
 20
264.80545262497935
 10
10.247426777301769
 20
264.35497948127477
 10
11.253737988524076
 20
264.2617310151887
 10
12.225780478385477
 20
264.53830094877355
 10
13.03227452235681
 20
265.14733697997195
 10
13.564298630861977
 20
266.0065854179853
  0
LWPOLYLINE
  5
40
330
17
100
AcDbEntity
  8
CUT_PROFILE
100
AcDbPolyline
 90
40
 70
1
 10
7.0
 20
287.0
 10
6.803013449522204
 20
289.5029514406437
 10
6.2169042607224565
 20
291.94427190999915
 10
5.256104387013886
 20
294.26384799583275
 10
3.944271909999159
 20
296.4045640366796
 10
2.313708498984761
 20
298.31370849898474
 10
0.4045640366795702
 20
299.94427190999915
 10
-1.7361520041672511
 20
301.25610438701386
 10
-4.055728090000841
 20
302.21690426072246
 10
-6.497048559356305
 20
302.8030134495222
 10
-8.999999999999998
 20
303.0
 10
-11.502951440643693
 20
302.8030134495222
 10
-13.944271909999157
 20
302.21690426072246
 10
-16.263847995832748
 20
301.25610438701386
 10
-18.404564036679567
 20
299.94427190999915
 10
-20.31370849898476
 20
298.31370849898474
 10
-21.94427190999916
 20
296.4045640366796
 10
-23.256104387013885
 20
294.26384799583275
 10
-24.21690426072246
 20
291.94427190999915
 10
-24.803013449522204
 20
289.5029514406437
 10
-25.0
 20
287.0
 10
-24.803013449522204
 20
284.4970485593563
 10
-24.21690426072246
 20
282.05572809000085
 10
-23.256104387013885
 20
279.73615200416725
 10
-21.94427190999916
 20
277.5954359633204
 10
-20.313708498984763
 20
275.68629150101526
 10
-18.404564036679574
 20
274.05572809000085
 10
-16.26384799583275
 20
272.74389561298614
 10
-13.944271909999161
 20
271.78309573927754
 10
-11.502951440643697
 20
271.1969865504778
 10
-9.000000000000004
 20
271.0
 10
-6.497048559356309
 20
271.1969865504778
 10
-4.055728090000844
 20
271.78309573927754
 10
-1.7361520041672538
 20
272.74389561298614
 10
0.40456403667956664
 20
274.05572809000085
 10
2.3137084989847576
 20
275.68629150101526
 10
3.9442719099991574
 20
277.5954359633204
 10
5.256104387013885
 20
279.73615200416725
 10
6.2169042607224565
 20
282.05572809000085
 10
6.8030134495222025
 20
284.4970485593563
  0
LWPOLYLINE
  5
41
330
17
100
AcDbEntity
  8
CUT_PROFILE
100
AcDbPolyline
 90
17
 70
1
 10
-26.25
 20
307.0
 10
-26.435701369138023
 20
307.9934145820147
 10
-26.96772547764319
 20
308.85266302002805
 10
-27.77421952161452
 20
309.46169905122645
 10
-28.74626201147592
 20
309.7382689848113
 10
-29.752573222698228
 20
309.64502051872523
 10
-30.657245250042955
 20
309.19454737502065
 10
-31.33809712325644
 20
308.44768844791275
 10
-31.70317602413073
 20
307.50531117399555
 10
-31.70317602413073
 20
306.49468882600445
 10
-31.33809712325644
 20
305.55231155208725
 10
-30.65724525004296
 20
304.80545262497935
 10
-29.75257322269823
 20
304.35497948127477
 10
-28.746262011475924
 20
304.2617310151887
 10
-27.774219521614523
 20
304.53830094877355
 10
-26.967725477643192
 20
305.14733697997195
 10
-26.435701369138023
 20
306.0065854179853
  0
ENDSEC
  0
SECTION
  2
OBJECTS
  0
DICTIONARY
  5
A
330
0
100
AcDbDictionary
281
1
  3
ACAD_COLOR
350
B
  3
ACAD_GROUP
350
C
  3
ACAD_LAYOUT
350
D
  3
ACAD_MATERIAL
350
E
  3
ACAD_MLEADERSTYLE
350
F
  3
ACAD_MLINESTYLE
350
10
  3
ACAD_PLOTSETTINGS
350
11
  3
ACAD_PLOTSTYLENAME
350
12
  3
ACAD_SCALELIST
350
14
  3
ACAD_TABLESTYLE
350
15
  3
ACAD_VISUALSTYLE
350
16
  3
EZDXF_META
350
2D
  0
DICTIONARY
  5
B
330
A
100
AcDbDictionary
281
1
  0
DICTIONARY
  5
C
330
A
100
AcDbDictionary
281
1
  0
DICTIONARY
  5
D
330
A
100
AcDbDictionary
281
1
  3
Model
350
1A
  3
Layout1
350
1E
  0
DICTIONARY
  5
E
330
A
100
AcDbDictionary
281
1
  3
ByBlock
350
1F
  3
ByLayer
350
20
  3
Global
350
21
  0
DICTIONARY
  5
F
330
A
100
AcDbDictionary
281
1
  3
Standard
350
2C
  0
DICTIONARY
  5
10
330
A
100
AcDbDictionary
281
1
  3
Standard
350
22
  0
DICTIONARY
  5
11
330
A
100
AcDbDictionary
281
1
  0
ACDBDICTIONARYWDFLT
  5
12
330
A
100
AcDbDictionary
281
1
  3
Normal
350
13
100
AcDbDictionaryWithDefault
340
13
  0
ACDBPLACEHOLDER
  5
13
330
12
  0
DICTIONARY
  5
14
330
A
100
AcDbDictionary
281
1
  0
DICTIONARY
  5
15
330
A
100
AcDbDictionary
281
1
  0
DICTIONARY
  5
16
330
A
100
AcDbDictionary
281
1
  0
LAYOUT
  5
1A
330
D
100
AcDbPlotSettings
  1

  4
A3
  6

 40
7.5
 41
20.0
 42
7.5
 43
20.0
 44
420.0
 45
297.0
 46
0.0
 47
0.0
 48
0.0
 49
0.0
140
0.0
141
0.0
142
1.0
143
1.0
 70
1024
 72
1
 73
0
 74
5
  7

 75
16
 76
0
 77
2
 78
300
147
1.0
148
0.0
149
0.0
100
AcDbLayout
  1
Model
 70
1
 71
0
 10
0.0
 20
0.0
 11
420.0
 21
297.0
 12
0.0
 22
0.0
 32
0.0
 14
1e+20
 24
1e+20
 34
1e+20
 15
-1e+20
 25
-1e+20
 35
-1e+20
146
0.0
 13
0.0
 23
0.0
 33
0.0
 16
1.0
 26
0.0
 36
0.0
 17
0.0
 27
1.0
 37
0.0
 76
1
330
17
  0
LAYOUT
  5
1E
330
D
100
AcDbPlotSettings
  1

  4
A3
  6

 40
7.5
 41
20.0
 42
7.5
 43
20.0
 44
420.0
 45
297.0
 46
0.0
 47
0.0
 48
0.0
 49
0.0
140
0.0
141
0.0
142
1.0
143
1.0
 70
0
 72
1
 73
0
 74
5
  7

 75
16
 76
0
 77
2
 78
300
147
1.0
148
0.0
149
0.0
100
AcDbLayout
  1
Layout1
 70
1
 71
1
 10
0.0
 20
0.0
 11
420.0
 21
297.0
 12
0.0
 22
0.0
 32
0.0
 14
1e+20
 24
1e+20
 34
1e+20
 15
-1e+20
 25
-1e+20
 35
-1e+20
146
0.0
 13
0.0
 23
0.0
 33
0.0
 16
1.0
 26
0.0
 36
0.0
 17
0.0
 27
1.0
 37
0.0
 76
1
330
1B
  0
MATERIAL
  5
1F
102
{ACAD_REACTORS
330
E
102
}
330
E
100
AcDbMaterial
  1
ByBlock
  2

 70
0
 40
1.0
 71
1
 41
1.0
 91
-1023410177
 42
1.0
 72
1
  3

 73
1
 74
1
 75
1
 44
0.5
 73
0
 45
1.0
 46
1.0
 77
1
  4

 78
1
 79
1
170
1
 48
1.0
171
1
  6

172
1
173
1
174
1
140
1.0
141
1.0
175
1
  7

176
1
177
1
178
1
143
1.0
179
1
  8

270
1
271
1
272
1
145
1.0
146
1.0
273
1
  9

274
1
275
1
276
1
 42
1.0
 72
1
  3

 73
1
 74
1
 75
1
 94
63
  0
MATERIAL
  5
20
102
{ACAD_REACTORS
330
E
102
}
330
E
100
AcDbMaterial
  1
ByLayer
  2

 70
0
 40
1.0
 71
1
 41
1.0
 91
-1023410177
 42
1.0
 72
1
  3

 73
1
 74
1
 75
1
 44
0.5
 73
0
 45
1.0
 46
1.0
 77
1
  4

 78
1
 79
1
170
1
 48
1.0
171
1
  6

172
1
173
1
174
1
140
1.0
141
1.0
175
1
  7

176
1
177
1
178
1
143
1.0
179
1
  8

270
1
271
1
272
1
145
1.0
146
1.0
273
1
  9

274
1
275
1
276
1
 42
1.0
 72
1
  3

 73
1
 74
1
 75
1
 94
63
  0
MATERIAL
  5
21
102
{ACAD_REACTORS
330
E
102
}
330
E
100
AcDbMaterial
  1
Global
  2

 70
0
 40
1.0
 71
1
 41
1.0
 91
-1023410177
 42
1.0
 72
1
  3

 73
1
 74
1
 75
1
 44
0.5
 73
0
 45
1.0
 46
1.0
 77
1
  4

 78
1
 79
1
170
1
 48
1.0
171
1
  6

172
1
173
1
174
1
140
1.0
141
1.0
175
1
  7

176
1
177
1
178
1
143
1.0
179
1
  8

270
1
271
1
272
1
145
1.0
146
1.0
273
1
  9

274
1
275
1
276
1
 42
1.0
 72
1
  3

 73
1
 74
1
 75
1
 94
63
  0
MLINESTYLE
  5
22
102
{ACAD_REACTORS
330
10
102
}
330
10
100
AcDbMlineStyle
  2
Standard
 70
0
  3

 62
256
 51
90.0
 52
90.0
 71
2
 49
0.5
 62
256
  6
BYLAYER
 49
-0.5
 62
256
  6
BYLAYER
  0
MLEADERSTYLE
  5
2C
102
{ACAD_REACTORS
330
F
102
}
330
F
100
AcDbMLeaderStyle
179
2
170
2
171
1
172
0
 90
2
 40
0.0
 41
0.0
173
1
 91
-1056964608
 92
-2
290
1
 42
2.0
291
1
 43
8.0
  3
Standard
 44
4.0
300

342
29
174
1
175
1
176
0
178
1
 93
-1056964608
 45
4.0
292
0
297
0
 46
4.0
 94
-1056964608
 47
1.0
 49
1.0
140
1.0
294
1
141
0.0
177
0
142
1.0
295
0
296
0
143
3.75
271
0
272
9
273
9
  0
DICTIONARY
  5
2D
330
A
100
AcDbDictionary
280
1
281
1
  3
CREATED_BY_EZDXF
350
2E
  3
WRITTEN_BY_EZDXF
350
44
  0
DICTIONARYVAR
  5
2E
330
2D
100
DictionaryVariables
280
0
  1
1.4.3 @ 2026-09-18T09:38:15.627523+00:00
  0
DICTIONARYVAR
  5
44
330
2D
100
DictionaryVariables
280
0
  1
1.4.3 @ 2026-09-18T09:38:15.743213+00:00
  0
ENDSEC
  0
EOF
