ISO-10303-21;
HEADER;
FILE_DESCRIPTION(('Open CASCADE Model'),'2;1');
FILE_NAME('Open CASCADE Shape Model','2026-09-13T12:47:36',('Author'),(
    'Open CASCADE'),'Open CASCADE STEP processor 7.8','Open CASCADE 7.8'
  ,'Unknown');
FILE_SCHEMA(('AUTOMOTIVE_DESIGN { 1 0 10303 214 1 1 1 1 }'));
ENDSEC;
DATA;
#1 = APPLICATION_PROTOCOL_DEFINITION('international standard',
  'automotive_design',2000,#2);
#2 = APPLICATION_CONTEXT(
  'core data for automotive mechanical design processes');
#3 = SHAPE_DEFINITION_REPRESENTATION(#4,#10);
#4 = PRODUCT_DEFINITION_SHAPE('','',#5);
#5 = PRODUCT_DEFINITION('design','',#6,#9);
#6 = PRODUCT_DEFINITION_FORMATION('','',#7);
#7 = PRODUCT('Open CASCADE STEP translator 7.8 8',
  'Open CASCADE STEP translator 7.8 8','',(#8));
#8 = PRODUCT_CONTEXT('',#2,'mechanical');
#9 = PRODUCT_DEFINITION_CONTEXT('part definition',#2,'design');
#10 = ADVANCED_BREP_SHAPE_REPRESENTATION('',(#11,#15),#1281);
#11 = AXIS2_PLACEMENT_3D('',#12,#13,#14);
#12 = CARTESIAN_POINT('',(0.,0.,0.));
#13 = DIRECTION('',(0.,0.,1.));
#14 = DIRECTION('',(1.,0.,-0.));
#15 = MANIFOLD_SOLID_BREP('',#16);
#16 = CLOSED_SHELL('',(#17,#447,#673,#718,#770,#815,#986,#1031,#1083,
    #1108,#1137,#1164,#1191,#1218,#1245,#1272));
#17 = ADVANCED_FACE('',(#18),#33,.T.);
#18 = FACE_BOUND('',#19,.T.);
#19 = EDGE_LOOP('',(#20,#56,#82,#212,#238,#267,#293,#423));
#20 = ORIENTED_EDGE('',*,*,#21,.F.);
#21 = EDGE_CURVE('',#22,#24,#26,.T.);
#22 = VERTEX_POINT('',#23);
#23 = CARTESIAN_POINT('',(4.,-0.5,11.989578808282));
#24 = VERTEX_POINT('',#25);
#25 = CARTESIAN_POINT('',(4.,0.5,11.989578808282));
#26 = SURFACE_CURVE('',#27,(#32,#44),.PCURVE_S1.);
#27 = CIRCLE('',#28,12.);
#28 = AXIS2_PLACEMENT_3D('',#29,#30,#31);
#29 = CARTESIAN_POINT('',(4.,0.,0.));
#30 = DIRECTION('',(1.,0.,0.));
#31 = DIRECTION('',(-0.,0.,1.));
#32 = PCURVE('',#33,#38);
#33 = CYLINDRICAL_SURFACE('',#34,12.);
#34 = AXIS2_PLACEMENT_3D('',#35,#36,#37);
#35 = CARTESIAN_POINT('',(-4.,0.,0.));
#36 = DIRECTION('',(1.,0.,0.));
#37 = DIRECTION('',(-0.,0.,1.));
#38 = DEFINITIONAL_REPRESENTATION('',(#39),#43);
#39 = LINE('',#40,#41);
#40 = CARTESIAN_POINT('',(0.,8.));
#41 = VECTOR('',#42,1.);
#42 = DIRECTION('',(1.,0.));
#43 = ( GEOMETRIC_REPRESENTATION_CONTEXT(2) 
PARAMETRIC_REPRESENTATION_CONTEXT() REPRESENTATION_CONTEXT('2D SPACE',''
  ) );
#44 = PCURVE('',#45,#50);
#45 = PLANE('',#46);
#46 = AXIS2_PLACEMENT_3D('',#47,#48,#49);
#47 = CARTESIAN_POINT('',(4.,0.,0.));
#48 = DIRECTION('',(1.,0.,0.));
#49 = DIRECTION('',(-0.,0.,1.));
#50 = DEFINITIONAL_REPRESENTATION('',(#51),#55);
#51 = CIRCLE('',#52,12.);
#52 = AXIS2_PLACEMENT_2D('',#53,#54);
#53 = CARTESIAN_POINT('',(0.,0.));
#54 = DIRECTION('',(1.,0.));
#55 = ( GEOMETRIC_REPRESENTATION_CONTEXT(2) 
PARAMETRIC_REPRESENTATION_CONTEXT() REPRESENTATION_CONTEXT('2D SPACE',''
  ) );
#56 = ORIENTED_EDGE('',*,*,#57,.F.);
#57 = EDGE_CURVE('',#58,#22,#60,.T.);
#58 = VERTEX_POINT('',#59);
#59 = CARTESIAN_POINT('',(2.039607805437,-0.5,11.989578808282));
#60 = SURFACE_CURVE('',#61,(#65,#71),.PCURVE_S1.);
#61 = LINE('',#62,#63);
#62 = CARTESIAN_POINT('',(-4.,-0.5,11.989578808282));
#63 = VECTOR('',#64,1.);
#64 = DIRECTION('',(1.,0.,0.));
#65 = PCURVE('',#33,#66);
#66 = DEFINITIONAL_REPRESENTATION('',(#67),#70);
#67 = B_SPLINE_CURVE_WITH_KNOTS('',1,(#68,#69),.UNSPECIFIED.,.F.,.F.,(2,
    2),(-5.999999999062E-07,8.0000006),.PIECEWISE_BEZIER_KNOTS.);
#68 = CARTESIAN_POINT('',(4.167873242258E-02,-5.999999999062E-07));
#69 = CARTESIAN_POINT('',(4.167873242258E-02,8.0000006));
#70 = ( GEOMETRIC_REPRESENTATION_CONTEXT(2) 
PARAMETRIC_REPRESENTATION_CONTEXT() REPRESENTATION_CONTEXT('2D SPACE',''
  ) );
#71 = PCURVE('',#72,#77);
#72 = PLANE('',#73);
#73 = AXIS2_PLACEMENT_3D('',#74,#75,#76);
#74 = CARTESIAN_POINT('',(-5.,-0.5,2.5));
#75 = DIRECTION('',(-0.,1.,0.));
#76 = DIRECTION('',(0.,0.,1.));
#77 = DEFINITIONAL_REPRESENTATION('',(#78),#81);
#78 = B_SPLINE_CURVE_WITH_KNOTS('',1,(#79,#80),.UNSPECIFIED.,.F.,.F.,(2,
    2),(-5.999999999062E-07,8.0000006),.PIECEWISE_BEZIER_KNOTS.);
#79 = CARTESIAN_POINT('',(9.489578808282,0.9999994));
#80 = CARTESIAN_POINT('',(9.489578808282,9.0000006));
#81 = ( GEOMETRIC_REPRESENTATION_CONTEXT(2) 
PARAMETRIC_REPRESENTATION_CONTEXT() REPRESENTATION_CONTEXT('2D SPACE',''
  ) );
#82 = ORIENTED_EDGE('',*,*,#83,.F.);
#83 = EDGE_CURVE('',#84,#58,#86,.T.);
#84 = VERTEX_POINT('',#85);
#85 = CARTESIAN_POINT('',(-2.039607805437,-0.5,11.989578808282));
#86 = SURFACE_CURVE('',#87,(#125,#166),.PCURVE_S1.);
#87 = B_SPLINE_CURVE_WITH_KNOTS('',6,(#88,#89,#90,#91,#92,#93,#94,#95,
    #96,#97,#98,#99,#100,#101,#102,#103,#104,#105,#106,#107,#108,#109,
    #110,#111,#112,#113,#114,#115,#116,#117,#118,#119,#120,#121,#122,
    #123,#124),.UNSPECIFIED.,.F.,.F.,(7,5,5,5,5,5,5,7),(0.,
    0.130776844098,0.295931172205,0.499985023463,0.649230884691,
    0.778978113255,0.865332784097,1.),.UNSPECIFIED.);
#88 = CARTESIAN_POINT('',(-2.039607805437,-0.5,11.989578808282));
#89 = CARTESIAN_POINT('',(-2.00517649071,-0.640452756537,11.983721523435
    ));
#90 = CARTESIAN_POINT('',(-1.959797245952,-0.775374634249,
    11.976116962972));
#91 = CARTESIAN_POINT('',(-1.904598395123,-0.903760792925,
    11.967095099738));
#92 = CARTESIAN_POINT('',(-1.840818338796,-1.02478565636,11.95705209667)
  );
#93 = CARTESIAN_POINT('',(-1.769804153259,-1.137822640553,
    11.946398121802));
#94 = CARTESIAN_POINT('',(-1.596029293977,-1.374612306429,
    11.921748758123));
#95 = CARTESIAN_POINT('',(-1.489532250003,-1.493777760406,
    11.907569011665));
#96 = CARTESIAN_POINT('',(-1.375529422653,-1.600089935375,
    11.893597508829));
#97 = CARTESIAN_POINT('',(-1.255609954022,-1.693844661362,
    11.880334919166));
#98 = CARTESIAN_POINT('',(-1.131043538405,-1.775393996705,
    11.868148446096));
#99 = CARTESIAN_POINT('',(-0.844498306968,-1.931142815559,
    11.843913055468));
#100 = CARTESIAN_POINT('',(-0.680509996043,-1.99914638169,
    11.832563252293));
#101 = CARTESIAN_POINT('',(-0.512754321519,-2.049688644259,
    11.823763552395));
#102 = CARTESIAN_POINT('',(-0.342638867529,-2.083224156113,
    11.81780301983));
#103 = CARTESIAN_POINT('',(-0.171340166001,-2.1,11.814821200509));
#104 = CARTESIAN_POINT('',(0.125318931645,-2.1,11.814821200509));
#105 = CARTESIAN_POINT('',(0.250629082065,-2.091025828995,
    11.816416437291));
#106 = CARTESIAN_POINT('',(0.375473797987,-2.073079774405,
    11.819605817886));
#107 = CARTESIAN_POINT('',(0.499389111615,-2.046094607315,
    11.824349922366));
#108 = CARTESIAN_POINT('',(0.621863421256,-2.00994058688,11.83056494231)
  );
#109 = CARTESIAN_POINT('',(0.846996526731,-1.924869875363,
    11.844681686796));
#110 = CARTESIAN_POINT('',(0.950155465598,-1.878236932973,
    11.852256983788));
#111 = CARTESIAN_POINT('',(1.051390298933,-1.824407582947,
    11.860754589543));
#112 = CARTESIAN_POINT('',(1.150253755431,-1.763222107861,
    11.870056889018));
#113 = CARTESIAN_POINT('',(1.246206787801,-1.694504162659,11.88000861937
    ));
#114 = CARTESIAN_POINT('',(1.400077276127,-1.567211424355,
    11.897330946689));
#115 = CARTESIAN_POINT('',(1.459990349252,-1.51292446457,11.9044524864)
  );
#116 = CARTESIAN_POINT('',(1.518119798076,-1.455175234345,
    11.911712895567));
#117 = CARTESIAN_POINT('',(1.574231359543,-1.39393125806,11.91904156223)
  );
#118 = CARTESIAN_POINT('',(1.628065695821,-1.329170481573,11.92635825146
    ));
#119 = CARTESIAN_POINT('',(1.759294884653,-1.154389612063,
    11.944825321349));
#120 = CARTESIAN_POINT('',(1.833271078745,-1.03898488898,11.955865497394
    ));
#121 = CARTESIAN_POINT('',(1.899695225014,-0.915081117921,
    11.966294350668));
#122 = CARTESIAN_POINT('',(1.957106760965,-0.783332253444,
    11.975666155192));
#123 = CARTESIAN_POINT('',(2.00415656262,-0.644613263123,11.983548018317
    ));
#124 = CARTESIAN_POINT('',(2.039607805437,-0.5,11.989578808282));
#125 = PCURVE('',#33,#126);
#126 = DEFINITIONAL_REPRESENTATION('',(#127),#165);
#127 = B_SPLINE_CURVE_WITH_KNOTS('',6,(#128,#129,#130,#131,#132,#133,
    #134,#135,#136,#137,#138,#139,#140,#141,#142,#143,#144,#145,#146,
    #147,#148,#149,#150,#151,#152,#153,#154,#155,#156,#157,#158,#159,
    #160,#161,#162,#163,#164),.UNSPECIFIED.,.F.,.F.,(7,5,5,5,5,5,5,7),(
    0.,0.130776844098,0.295931172205,0.499985023463,0.649230884691,
    0.778978113255,0.865332784097,1.),.UNSPECIFIED.);
#128 = CARTESIAN_POINT('',(4.167873242258E-02,1.960392194563));
#129 = CARTESIAN_POINT('',(5.339330211535E-02,1.99482350929));
#130 = CARTESIAN_POINT('',(6.465341709749E-02,2.040202754048));
#131 = CARTESIAN_POINT('',(7.537723653378E-02,2.095401604877));
#132 = CARTESIAN_POINT('',(8.549626370945E-02,2.159181661204));
#133 = CARTESIAN_POINT('',(9.495732493204E-02,2.230195846741));
#134 = CARTESIAN_POINT('',(0.114796423708,2.403970706023));
#135 = CARTESIAN_POINT('',(0.124795851873,2.510467749997));
#136 = CARTESIAN_POINT('',(0.133730579199,2.624470577347));
#137 = CARTESIAN_POINT('',(0.141620869344,2.744390045978));
#138 = CARTESIAN_POINT('',(0.148491982525,2.868956461595));
#139 = CARTESIAN_POINT('',(0.16162724273,3.155501693032));
#140 = CARTESIAN_POINT('',(0.167372246355,3.319490003957));
#141 = CARTESIAN_POINT('',(0.17164744908,3.487245678481));
#142 = CARTESIAN_POINT('',(0.174485868162,3.657361132471));
#143 = CARTESIAN_POINT('',(0.175905768164,3.828659833999));
#144 = CARTESIAN_POINT('',(0.175905768164,4.125318931645));
#145 = CARTESIAN_POINT('',(0.175146201333,4.250629082065));
#146 = CARTESIAN_POINT('',(0.173627251512,4.375473797987));
#147 = CARTESIAN_POINT('',(0.171344015435,4.499389111615));
#148 = CARTESIAN_POINT('',(0.168287035513,4.621863421256));
#149 = CARTESIAN_POINT('',(0.161100866104,4.846996526731));
#150 = CARTESIAN_POINT('',(0.157163873484,4.950155465598));
#151 = CARTESIAN_POINT('',(0.152622609913,5.051390298933));
#152 = CARTESIAN_POINT('',(0.147465389818,5.150253755431));
#153 = CARTESIAN_POINT('',(0.141679364845,5.246206787801));
#154 = CARTESIAN_POINT('',(0.130973867734,5.400077276127));
#155 = CARTESIAN_POINT('',(0.126411247387,5.459990349252));
#156 = CARTESIAN_POINT('',(0.121561037409,5.518119798076));
#157 = CARTESIAN_POINT('',(0.116421116772,5.574231359543));
#158 = CARTESIAN_POINT('',(0.11099019319,5.628065695821));
#159 = CARTESIAN_POINT('',(9.634404631844E-02,5.759294884653));
#160 = CARTESIAN_POINT('',(8.668353560655E-02,5.833271078745));
#161 = CARTESIAN_POINT('',(7.632282746565E-02,5.899695225014));
#162 = CARTESIAN_POINT('',(6.531753901919E-02,5.957106760965));
#163 = CARTESIAN_POINT('',(5.374031235257E-02,6.00415656262));
#164 = CARTESIAN_POINT('',(4.167873242258E-02,6.039607805437));
#165 = ( GEOMETRIC_REPRESENTATION_CONTEXT(2) 
PARAMETRIC_REPRESENTATION_CONTEXT() REPRESENTATION_CONTEXT('2D SPACE',''
  ) );
#166 = PCURVE('',#167,#172);
#167 = CYLINDRICAL_SURFACE('',#168,2.1);
#168 = AXIS2_PLACEMENT_3D('',#169,#170,#171);
#169 = CARTESIAN_POINT('',(0.,0.,-4.));
#170 = DIRECTION('',(0.,0.,1.));
#171 = DIRECTION('',(1.,0.,-0.));
#172 = DEFINITIONAL_REPRESENTATION('',(#173),#211);
#173 = B_SPLINE_CURVE_WITH_KNOTS('',6,(#174,#175,#176,#177,#178,#179,
    #180,#181,#182,#183,#184,#185,#186,#187,#188,#189,#190,#191,#192,
    #193,#194,#195,#196,#197,#198,#199,#200,#201,#202,#203,#204,#205,
    #206,#207,#208,#209,#210),.UNSPECIFIED.,.F.,.F.,(7,5,5,5,5,5,5,7),(
    0.,0.130776844098,0.295931172205,0.499985023463,0.649230884691,
    0.778978113255,0.865332784097,1.),.UNSPECIFIED.);
#174 = CARTESIAN_POINT('',(3.381996870359,15.989578808282));
#175 = CARTESIAN_POINT('',(3.450859499813,15.983721523435));
#176 = CARTESIAN_POINT('',(3.518405703203,15.976116962972));
#177 = CARTESIAN_POINT('',(3.584629037248,15.967095099738));
#178 = CARTESIAN_POINT('',(3.649485884257,15.95705209667));
#179 = CARTESIAN_POINT('',(3.712888148414,15.946398121802));
#180 = CARTESIAN_POINT('',(3.852751255753,15.921748758123));
#181 = CARTESIAN_POINT('',(3.928503521052,15.907569011665));
#182 = CARTESIAN_POINT('',(4.002291436969,15.893597508829));
#183 = CARTESIAN_POINT('',(4.074387080174,15.880334919166));
#184 = CARTESIAN_POINT('',(4.145048413491,15.868148446096));
#185 = CARTESIAN_POINT('',(4.300352127517,15.843913055468));
#186 = CARTESIAN_POINT('',(4.384426548766,15.832563252293));
#187 = CARTESIAN_POINT('',(4.467243377058,15.823763552395));
#188 = CARTESIAN_POINT('',(4.549227399647,15.81780301983));
#189 = CARTESIAN_POINT('',(4.630798425146,15.814821200509));
#190 = CARTESIAN_POINT('',(4.77206466212,15.814821200509));
#191 = CARTESIAN_POINT('',(4.831736080435,15.816416437291));
#192 = CARTESIAN_POINT('',(4.891568660312,15.819605817886));
#193 = CARTESIAN_POINT('',(4.951723252358,15.824349922366));
#194 = CARTESIAN_POINT('',(5.012364988144,15.83056494231));
#195 = CARTESIAN_POINT('',(5.12696964344,15.844681686796));
#196 = CARTESIAN_POINT('',(5.180770920782,15.852256983788));
#197 = CARTESIAN_POINT('',(5.235199452985,15.860754589543));
#198 = CARTESIAN_POINT('',(5.29037999183,15.870056889018));
#199 = CARTESIAN_POINT('',(5.346444711427,15.88000861937));
#200 = CARTESIAN_POINT('',(5.441539327638,15.897330946689));
#201 = CARTESIAN_POINT('',(5.48000007534,15.9044524864));
#202 = CARTESIAN_POINT('',(5.518956177249,15.911712895567));
#203 = CARTESIAN_POINT('',(5.558442077749,15.91904156223));
#204 = CARTESIAN_POINT('',(5.598495160481,15.92635825146));
#205 = CARTESIAN_POINT('',(5.702572417182,15.944825321349));
#206 = CARTESIAN_POINT('',(5.767669285832,15.955865497394));
#207 = CARTESIAN_POINT('',(5.834303734798,15.966294350668));
#208 = CARTESIAN_POINT('',(5.902386775775,15.975666155192));
#209 = CARTESIAN_POINT('',(5.971878604777,15.983548018317));
#210 = CARTESIAN_POINT('',(6.04278109041,15.989578808282));
#211 = ( GEOMETRIC_REPRESENTATION_CONTEXT(2) 
PARAMETRIC_REPRESENTATION_CONTEXT() REPRESENTATION_CONTEXT('2D SPACE',''
  ) );
#212 = ORIENTED_EDGE('',*,*,#213,.F.);
#213 = EDGE_CURVE('',#214,#84,#216,.T.);
#214 = VERTEX_POINT('',#215);
#215 = CARTESIAN_POINT('',(-4.,-0.5,11.989578808282));
#216 = SURFACE_CURVE('',#217,(#221,#227),.PCURVE_S1.);
#217 = LINE('',#218,#219);
#218 = CARTESIAN_POINT('',(-4.,-0.5,11.989578808282));
#219 = VECTOR('',#220,1.);
#220 = DIRECTION('',(1.,0.,0.));
#221 = PCURVE('',#33,#222);
#222 = DEFINITIONAL_REPRESENTATION('',(#223),#226);
#223 = B_SPLINE_CURVE_WITH_KNOTS('',1,(#224,#225),.UNSPECIFIED.,.F.,.F.,
  (2,2),(-5.999999999062E-07,8.0000006),.PIECEWISE_BEZIER_KNOTS.);
#224 = CARTESIAN_POINT('',(4.167873242258E-02,-5.999999999062E-07));
#225 = CARTESIAN_POINT('',(4.167873242258E-02,8.0000006));
#226 = ( GEOMETRIC_REPRESENTATION_CONTEXT(2) 
PARAMETRIC_REPRESENTATION_CONTEXT() REPRESENTATION_CONTEXT('2D SPACE',''
  ) );
#227 = PCURVE('',#228,#233);
#228 = PLANE('',#229);
#229 = AXIS2_PLACEMENT_3D('',#230,#231,#232);
#230 = CARTESIAN_POINT('',(-5.,-0.5,2.5));
#231 = DIRECTION('',(-0.,1.,0.));
#232 = DIRECTION('',(0.,0.,1.));
#233 = DEFINITIONAL_REPRESENTATION('',(#234),#237);
#234 = B_SPLINE_CURVE_WITH_KNOTS('',1,(#235,#236),.UNSPECIFIED.,.F.,.F.,
  (2,2),(-5.999999999062E-07,8.0000006),.PIECEWISE_BEZIER_KNOTS.);
#235 = CARTESIAN_POINT('',(9.489578808282,0.9999994));
#236 = CARTESIAN_POINT('',(9.489578808282,9.0000006));
#237 = ( GEOMETRIC_REPRESENTATION_CONTEXT(2) 
PARAMETRIC_REPRESENTATION_CONTEXT() REPRESENTATION_CONTEXT('2D SPACE',''
  ) );
#238 = ORIENTED_EDGE('',*,*,#239,.T.);
#239 = EDGE_CURVE('',#214,#240,#242,.T.);
#240 = VERTEX_POINT('',#241);
#241 = CARTESIAN_POINT('',(-4.,0.5,11.989578808282));
#242 = SURFACE_CURVE('',#243,(#248,#255),.PCURVE_S1.);
#243 = CIRCLE('',#244,12.);
#244 = AXIS2_PLACEMENT_3D('',#245,#246,#247);
#245 = CARTESIAN_POINT('',(-4.,0.,0.));
#246 = DIRECTION('',(1.,0.,0.));
#247 = DIRECTION('',(-0.,0.,1.));
#248 = PCURVE('',#33,#249);
#249 = DEFINITIONAL_REPRESENTATION('',(#250),#254);
#250 = LINE('',#251,#252);
#251 = CARTESIAN_POINT('',(0.,0.));
#252 = VECTOR('',#253,1.);
#253 = DIRECTION('',(1.,0.));
#254 = ( GEOMETRIC_REPRESENTATION_CONTEXT(2) 
PARAMETRIC_REPRESENTATION_CONTEXT() REPRESENTATION_CONTEXT('2D SPACE',''
  ) );
#255 = PCURVE('',#256,#261);
#256 = PLANE('',#257);
#257 = AXIS2_PLACEMENT_3D('',#258,#259,#260);
#258 = CARTESIAN_POINT('',(-4.,0.,0.));
#259 = DIRECTION('',(1.,0.,0.));
#260 = DIRECTION('',(-0.,0.,1.));
#261 = DEFINITIONAL_REPRESENTATION('',(#262),#266);
#262 = CIRCLE('',#263,12.);
#263 = AXIS2_PLACEMENT_2D('',#264,#265);
#264 = CARTESIAN_POINT('',(0.,0.));
#265 = DIRECTION('',(1.,0.));
#266 = ( GEOMETRIC_REPRESENTATION_CONTEXT(2) 
PARAMETRIC_REPRESENTATION_CONTEXT() REPRESENTATION_CONTEXT('2D SPACE',''
  ) );
#267 = ORIENTED_EDGE('',*,*,#268,.T.);
#268 = EDGE_CURVE('',#240,#269,#271,.T.);
#269 = VERTEX_POINT('',#270);
#270 = CARTESIAN_POINT('',(-2.039607805437,0.5,11.989578808282));
#271 = SURFACE_CURVE('',#272,(#276,#282),.PCURVE_S1.);
#272 = LINE('',#273,#274);
#273 = CARTESIAN_POINT('',(-4.,0.5,11.989578808282));
#274 = VECTOR('',#275,1.);
#275 = DIRECTION('',(1.,0.,0.));
#276 = PCURVE('',#33,#277);
#277 = DEFINITIONAL_REPRESENTATION('',(#278),#281);
#278 = B_SPLINE_CURVE_WITH_KNOTS('',1,(#279,#280),.UNSPECIFIED.,.F.,.F.,
  (2,2),(-5.999999999062E-07,8.0000006),.PIECEWISE_BEZIER_KNOTS.);
#279 = CARTESIAN_POINT('',(6.241506574757,-5.999999999062E-07));
#280 = CARTESIAN_POINT('',(6.241506574757,8.0000006));
#281 = ( GEOMETRIC_REPRESENTATION_CONTEXT(2) 
PARAMETRIC_REPRESENTATION_CONTEXT() REPRESENTATION_CONTEXT('2D SPACE',''
  ) );
#282 = PCURVE('',#283,#288);
#283 = PLANE('',#284);
#284 = AXIS2_PLACEMENT_3D('',#285,#286,#287);
#285 = CARTESIAN_POINT('',(-5.,0.5,2.5));
#286 = DIRECTION('',(-0.,1.,0.));
#287 = DIRECTION('',(0.,0.,1.));
#288 = DEFINITIONAL_REPRESENTATION('',(#289),#292);
#289 = B_SPLINE_CURVE_WITH_KNOTS('',1,(#290,#291),.UNSPECIFIED.,.F.,.F.,
  (2,2),(-5.999999999062E-07,8.0000006),.PIECEWISE_BEZIER_KNOTS.);
#290 = CARTESIAN_POINT('',(9.489578808282,0.9999994));
#291 = CARTESIAN_POINT('',(9.489578808282,9.0000006));
#292 = ( GEOMETRIC_REPRESENTATION_CONTEXT(2) 
PARAMETRIC_REPRESENTATION_CONTEXT() REPRESENTATION_CONTEXT('2D SPACE',''
  ) );
#293 = ORIENTED_EDGE('',*,*,#294,.F.);
#294 = EDGE_CURVE('',#295,#269,#297,.T.);
#295 = VERTEX_POINT('',#296);
#296 = CARTESIAN_POINT('',(2.039607805437,0.5,11.989578808282));
#297 = SURFACE_CURVE('',#298,(#336,#377),.PCURVE_S1.);
#298 = B_SPLINE_CURVE_WITH_KNOTS('',6,(#299,#300,#301,#302,#303,#304,
    #305,#306,#307,#308,#309,#310,#311,#312,#313,#314,#315,#316,#317,
    #318,#319,#320,#321,#322,#323,#324,#325,#326,#327,#328,#329,#330,
    #331,#332,#333,#334,#335),.UNSPECIFIED.,.F.,.F.,(7,5,5,5,5,5,5,7),(
    0.,0.130776842615,0.295931168827,0.499985017708,0.649230883811,
    0.778978115937,0.865332785732,1.),.UNSPECIFIED.);
#299 = CARTESIAN_POINT('',(2.039607805437,0.5,11.989578808282));
#300 = CARTESIAN_POINT('',(2.00517649071,0.640452756537,11.983721523435)
  );
#301 = CARTESIAN_POINT('',(1.959797245952,0.775374634249,11.976116962972
    ));
#302 = CARTESIAN_POINT('',(1.904598395123,0.903760792925,11.967095099738
    ));
#303 = CARTESIAN_POINT('',(1.840818338796,1.02478565636,11.95705209667)
  );
#304 = CARTESIAN_POINT('',(1.769804153259,1.137822640553,11.946398121802
    ));
#305 = CARTESIAN_POINT('',(1.59602929399,1.374612306411,11.921748758124)
  );
#306 = CARTESIAN_POINT('',(1.489532249984,1.493777760438,11.907569011662
    ));
#307 = CARTESIAN_POINT('',(1.375529422646,1.600089935362,11.893597508829
    ));
#308 = CARTESIAN_POINT('',(1.255609954051,1.69384466135,11.880334919168)
  );
#309 = CARTESIAN_POINT('',(1.131043538387,1.775393996714,11.868148446094
    ));
#310 = CARTESIAN_POINT('',(0.844498307017,1.931142815532,11.843913055472
    ));
#311 = CARTESIAN_POINT('',(0.680509995965,1.999146381744,11.832563252285
    ));
#312 = CARTESIAN_POINT('',(0.512754321513,2.049688644218,11.823763552401
    ));
#313 = CARTESIAN_POINT('',(0.342638867618,2.083224156124,11.817803019828
    ));
#314 = CARTESIAN_POINT('',(0.171340165945,2.1,11.814821200509));
#315 = CARTESIAN_POINT('',(-0.125318937157,2.1,11.814821200509));
#316 = CARTESIAN_POINT('',(-0.250629073322,2.091025830393,
    11.816416437057));
#317 = CARTESIAN_POINT('',(-0.375473797904,2.07307977347,11.819605818041
    ));
#318 = CARTESIAN_POINT('',(-0.499389120321,2.046094605475,
    11.824349922673));
#319 = CARTESIAN_POINT('',(-0.621863415924,2.009940588895,
    11.830564941976));
#320 = CARTESIAN_POINT('',(-0.846996530821,1.924869873817,
    11.844681687052));
#321 = CARTESIAN_POINT('',(-0.950155459319,1.878236936484,
    11.852256983264));
#322 = CARTESIAN_POINT('',(-1.051390298734,1.824407582259,
    11.860754589615));
#323 = CARTESIAN_POINT('',(-1.150253761619,1.763222104025,
    11.870056889576));
#324 = CARTESIAN_POINT('',(-1.246206784143,1.694504165686,
    11.880008618959));
#325 = CARTESIAN_POINT('',(-1.400077276127,1.567211424355,
    11.897330946689));
#326 = CARTESIAN_POINT('',(-1.459990349252,1.51292446457,11.9044524864)
  );
#327 = CARTESIAN_POINT('',(-1.518119798076,1.455175234345,
    11.911712895567));
#328 = CARTESIAN_POINT('',(-1.574231359543,1.39393125806,11.91904156223)
  );
#329 = CARTESIAN_POINT('',(-1.628065695822,1.329170481573,11.92635825146
    ));
#330 = CARTESIAN_POINT('',(-1.759294884653,1.154389612063,
    11.944825321349));
#331 = CARTESIAN_POINT('',(-1.833271078745,1.03898488898,11.955865497394
    ));
#332 = CARTESIAN_POINT('',(-1.899695225014,0.915081117921,
    11.966294350668));
#333 = CARTESIAN_POINT('',(-1.957106760965,0.783332253444,
    11.975666155192));
#334 = CARTESIAN_POINT('',(-2.00415656262,0.644613263123,11.983548018317
    ));
#335 = CARTESIAN_POINT('',(-2.039607805437,0.5,11.989578808282));
#336 = PCURVE('',#33,#337);
#337 = DEFINITIONAL_REPRESENTATION('',(#338),#376);
#338 = B_SPLINE_CURVE_WITH_KNOTS('',6,(#339,#340,#341,#342,#343,#344,
    #345,#346,#347,#348,#349,#350,#351,#352,#353,#354,#355,#356,#357,
    #358,#359,#360,#361,#362,#363,#364,#365,#366,#367,#368,#369,#370,
    #371,#372,#373,#374,#375),.UNSPECIFIED.,.F.,.F.,(7,5,5,5,5,5,5,7),(
    0.,0.130776842615,0.295931168827,0.499985017708,0.649230883811,
    0.778978115937,0.865332785732,1.),.UNSPECIFIED.);
#339 = CARTESIAN_POINT('',(6.241506574757,6.039607805437));
#340 = CARTESIAN_POINT('',(6.229792005064,6.00517649071));
#341 = CARTESIAN_POINT('',(6.218531890082,5.959797245952));
#342 = CARTESIAN_POINT('',(6.207808070646,5.904598395123));
#343 = CARTESIAN_POINT('',(6.19768904347,5.840818338796));
#344 = CARTESIAN_POINT('',(6.188227982248,5.769804153259));
#345 = CARTESIAN_POINT('',(6.168388883473,5.59602929399));
#346 = CARTESIAN_POINT('',(6.158389455303,5.489532249984));
#347 = CARTESIAN_POINT('',(6.149454727982,5.375529422646));
#348 = CARTESIAN_POINT('',(6.141564437837,5.255609954051));
#349 = CARTESIAN_POINT('',(6.134693324654,5.131043538387));
#350 = CARTESIAN_POINT('',(6.121558064452,4.844498307017));
#351 = CARTESIAN_POINT('',(6.11581306082,4.680509995965));
#352 = CARTESIAN_POINT('',(6.111537858103,4.512754321513));
#353 = CARTESIAN_POINT('',(6.108699439017,4.342638867618));
#354 = CARTESIAN_POINT('',(6.107279539016,4.171340165945));
#355 = CARTESIAN_POINT('',(6.107279539016,3.874681062843));
#356 = CARTESIAN_POINT('',(6.108039105728,3.749370926678));
#357 = CARTESIAN_POINT('',(6.109558055746,3.624526202096));
#358 = CARTESIAN_POINT('',(6.1118412919,3.500610879679));
#359 = CARTESIAN_POINT('',(6.114898271496,3.378136584076));
#360 = CARTESIAN_POINT('',(6.122084441206,3.153003469179));
#361 = CARTESIAN_POINT('',(6.1260214334,3.049844540681));
#362 = CARTESIAN_POINT('',(6.130562697324,2.948609701266));
#363 = CARTESIAN_POINT('',(6.135719917685,2.849746238381));
#364 = CARTESIAN_POINT('',(6.14150594208,2.753793215857));
#365 = CARTESIAN_POINT('',(6.152211439446,2.599922723873));
#366 = CARTESIAN_POINT('',(6.156774059793,2.540009650748));
#367 = CARTESIAN_POINT('',(6.161624269771,2.481880201924));
#368 = CARTESIAN_POINT('',(6.166764190408,2.425768640457));
#369 = CARTESIAN_POINT('',(6.17219511399,2.371934304178));
#370 = CARTESIAN_POINT('',(6.186841260861,2.240705115347));
#371 = CARTESIAN_POINT('',(6.196501771573,2.166728921255));
#372 = CARTESIAN_POINT('',(6.206862479714,2.100304774986));
#373 = CARTESIAN_POINT('',(6.21786776816,2.042893239035));
#374 = CARTESIAN_POINT('',(6.229444994827,1.99584343738));
#375 = CARTESIAN_POINT('',(6.241506574757,1.960392194563));
#376 = ( GEOMETRIC_REPRESENTATION_CONTEXT(2) 
PARAMETRIC_REPRESENTATION_CONTEXT() REPRESENTATION_CONTEXT('2D SPACE',''
  ) );
#377 = PCURVE('',#378,#383);
#378 = CYLINDRICAL_SURFACE('',#379,2.1);
#379 = AXIS2_PLACEMENT_3D('',#380,#381,#382);
#380 = CARTESIAN_POINT('',(0.,0.,-4.));
#381 = DIRECTION('',(0.,0.,1.));
#382 = DIRECTION('',(1.,0.,-0.));
#383 = DEFINITIONAL_REPRESENTATION('',(#384),#422);
#384 = B_SPLINE_CURVE_WITH_KNOTS('',6,(#385,#386,#387,#388,#389,#390,
    #391,#392,#393,#394,#395,#396,#397,#398,#399,#400,#401,#402,#403,
    #404,#405,#406,#407,#408,#409,#410,#411,#412,#413,#414,#415,#416,
    #417,#418,#419,#420,#421),.UNSPECIFIED.,.F.,.F.,(7,5,5,5,5,5,5,7),(
    0.,0.130776842615,0.295931168827,0.499985017708,0.649230883811,
    0.778978115937,0.865332785732,1.),.UNSPECIFIED.);
#385 = CARTESIAN_POINT('',(0.240404216769,15.989578808282));
#386 = CARTESIAN_POINT('',(0.309266846223,15.983721523435));
#387 = CARTESIAN_POINT('',(0.376813049614,15.976116962972));
#388 = CARTESIAN_POINT('',(0.443036383658,15.967095099738));
#389 = CARTESIAN_POINT('',(0.507893230667,15.95705209667));
#390 = CARTESIAN_POINT('',(0.571295494824,15.946398121802));
#391 = CARTESIAN_POINT('',(0.711158602153,15.921748758124));
#392 = CARTESIAN_POINT('',(0.78691086748,15.907569011662));
#393 = CARTESIAN_POINT('',(0.860698783378,15.893597508829));
#394 = CARTESIAN_POINT('',(0.93279442657,15.880334919168));
#395 = CARTESIAN_POINT('',(1.00345575991,15.868148446094));
#396 = CARTESIAN_POINT('',(1.1587594739,15.843913055472));
#397 = CARTESIAN_POINT('',(1.242833895219,15.832563252285));
#398 = CARTESIAN_POINT('',(1.325650723466,15.823763552401));
#399 = CARTESIAN_POINT('',(1.407634746017,15.817803019828));
#400 = CARTESIAN_POINT('',(1.489205771583,15.814821200509));
#401 = CARTESIAN_POINT('',(1.630472011156,15.814821200509));
#402 = CARTESIAN_POINT('',(1.690143422571,15.816416437057));
#403 = CARTESIAN_POINT('',(1.749976006764,15.819605818041));
#404 = CARTESIAN_POINT('',(1.810130603063,15.824349922673));
#405 = CARTESIAN_POINT('',(1.87077233184,15.830564941976));
#406 = CARTESIAN_POINT('',(1.985376991933,15.844681687052));
#407 = CARTESIAN_POINT('',(2.039178263727,15.852256983264));
#408 = CARTESIAN_POINT('',(2.093606799479,15.860754589615));
#409 = CARTESIAN_POINT('',(2.148787341746,15.870056889576));
#410 = CARTESIAN_POINT('',(2.204852055576,15.880008618959));
#411 = CARTESIAN_POINT('',(2.299946674048,15.897330946689));
#412 = CARTESIAN_POINT('',(2.33840742175,15.9044524864));
#413 = CARTESIAN_POINT('',(2.377363523659,15.911712895567));
#414 = CARTESIAN_POINT('',(2.416849424159,15.91904156223));
#415 = CARTESIAN_POINT('',(2.456902506891,15.92635825146));
#416 = CARTESIAN_POINT('',(2.560979763592,15.944825321349));
#417 = CARTESIAN_POINT('',(2.626076632242,15.955865497394));
#418 = CARTESIAN_POINT('',(2.692711081208,15.966294350668));
#419 = CARTESIAN_POINT('',(2.760794122185,15.975666155192));
#420 = CARTESIAN_POINT('',(2.830285951187,15.983548018317));
#421 = CARTESIAN_POINT('',(2.901188436821,15.989578808282));
#422 = ( GEOMETRIC_REPRESENTATION_CONTEXT(2) 
PARAMETRIC_REPRESENTATION_CONTEXT() REPRESENTATION_CONTEXT('2D SPACE',''
  ) );
#423 = ORIENTED_EDGE('',*,*,#424,.T.);
#424 = EDGE_CURVE('',#295,#24,#425,.T.);
#425 = SURFACE_CURVE('',#426,(#430,#436),.PCURVE_S1.);
#426 = LINE('',#427,#428);
#427 = CARTESIAN_POINT('',(-4.,0.5,11.989578808282));
#428 = VECTOR('',#429,1.);
#429 = DIRECTION('',(1.,0.,0.));
#430 = PCURVE('',#33,#431);
#431 = DEFINITIONAL_REPRESENTATION('',(#432),#435);
#432 = B_SPLINE_CURVE_WITH_KNOTS('',1,(#433,#434),.UNSPECIFIED.,.F.,.F.,
  (2,2),(-5.999999999062E-07,8.0000006),.PIECEWISE_BEZIER_KNOTS.);
#433 = CARTESIAN_POINT('',(6.241506574757,-5.999999999062E-07));
#434 = CARTESIAN_POINT('',(6.241506574757,8.0000006));
#435 = ( GEOMETRIC_REPRESENTATION_CONTEXT(2) 
PARAMETRIC_REPRESENTATION_CONTEXT() REPRESENTATION_CONTEXT('2D SPACE',''
  ) );
#436 = PCURVE('',#437,#442);
#437 = PLANE('',#438);
#438 = AXIS2_PLACEMENT_3D('',#439,#440,#441);
#439 = CARTESIAN_POINT('',(-5.,0.5,2.5));
#440 = DIRECTION('',(-0.,1.,0.));
#441 = DIRECTION('',(0.,0.,1.));
#442 = DEFINITIONAL_REPRESENTATION('',(#443),#446);
#443 = B_SPLINE_CURVE_WITH_KNOTS('',1,(#444,#445),.UNSPECIFIED.,.F.,.F.,
  (2,2),(-5.999999999062E-07,8.0000006),.PIECEWISE_BEZIER_KNOTS.);
#444 = CARTESIAN_POINT('',(9.489578808282,0.9999994));
#445 = CARTESIAN_POINT('',(9.489578808282,9.0000006));
#446 = ( GEOMETRIC_REPRESENTATION_CONTEXT(2) 
PARAMETRIC_REPRESENTATION_CONTEXT() REPRESENTATION_CONTEXT('2D SPACE',''
  ) );
#447 = ADVANCED_FACE('',(#448),#45,.T.);
#448 = FACE_BOUND('',#449,.T.);
#449 = EDGE_LOOP('',(#450,#471,#472,#493,#519,#545,#571,#597,#623,#649)
  );
#450 = ORIENTED_EDGE('',*,*,#451,.T.);
#451 = EDGE_CURVE('',#452,#22,#454,.T.);
#452 = VERTEX_POINT('',#453);
#453 = CARTESIAN_POINT('',(4.,-0.5,6.375));
#454 = SURFACE_CURVE('',#455,(#459,#465),.PCURVE_S1.);
#455 = LINE('',#456,#457);
#456 = CARTESIAN_POINT('',(4.,-0.5,1.25));
#457 = VECTOR('',#458,1.);
#458 = DIRECTION('',(0.,-0.,1.));
#459 = PCURVE('',#45,#460);
#460 = DEFINITIONAL_REPRESENTATION('',(#461),#464);
#461 = B_SPLINE_CURVE_WITH_KNOTS('',1,(#462,#463),.UNSPECIFIED.,.F.,.F.,
  (2,2),(1.25,10.75),.PIECEWISE_BEZIER_KNOTS.);
#462 = CARTESIAN_POINT('',(2.5,0.5));
#463 = CARTESIAN_POINT('',(12.,0.5));
#464 = ( GEOMETRIC_REPRESENTATION_CONTEXT(2) 
PARAMETRIC_REPRESENTATION_CONTEXT() REPRESENTATION_CONTEXT('2D SPACE',''
  ) );
#465 = PCURVE('',#72,#466);
#466 = DEFINITIONAL_REPRESENTATION('',(#467),#470);
#467 = B_SPLINE_CURVE_WITH_KNOTS('',1,(#468,#469),.UNSPECIFIED.,.F.,.F.,
  (2,2),(1.25,10.75),.PIECEWISE_BEZIER_KNOTS.);
#468 = CARTESIAN_POINT('',(0.,9.));
#469 = CARTESIAN_POINT('',(9.5,9.));
#470 = ( GEOMETRIC_REPRESENTATION_CONTEXT(2) 
PARAMETRIC_REPRESENTATION_CONTEXT() REPRESENTATION_CONTEXT('2D SPACE',''
  ) );
#471 = ORIENTED_EDGE('',*,*,#21,.T.);
#472 = ORIENTED_EDGE('',*,*,#473,.F.);
#473 = EDGE_CURVE('',#474,#24,#476,.T.);
#474 = VERTEX_POINT('',#475);
#475 = CARTESIAN_POINT('',(4.,0.5,6.375));
#476 = SURFACE_CURVE('',#477,(#481,#487),.PCURVE_S1.);
#477 = LINE('',#478,#479);
#478 = CARTESIAN_POINT('',(4.,0.5,1.25));
#479 = VECTOR('',#480,1.);
#480 = DIRECTION('',(0.,-0.,1.));
#481 = PCURVE('',#45,#482);
#482 = DEFINITIONAL_REPRESENTATION('',(#483),#486);
#483 = B_SPLINE_CURVE_WITH_KNOTS('',1,(#484,#485),.UNSPECIFIED.,.F.,.F.,
  (2,2),(1.25,10.75),.PIECEWISE_BEZIER_KNOTS.);
#484 = CARTESIAN_POINT('',(2.5,-0.5));
#485 = CARTESIAN_POINT('',(12.,-0.5));
#486 = ( GEOMETRIC_REPRESENTATION_CONTEXT(2) 
PARAMETRIC_REPRESENTATION_CONTEXT() REPRESENTATION_CONTEXT('2D SPACE',''
  ) );
#487 = PCURVE('',#437,#488);
#488 = DEFINITIONAL_REPRESENTATION('',(#489),#492);
#489 = B_SPLINE_CURVE_WITH_KNOTS('',1,(#490,#491),.UNSPECIFIED.,.F.,.F.,
  (2,2),(1.25,10.75),.PIECEWISE_BEZIER_KNOTS.);
#490 = CARTESIAN_POINT('',(0.,9.));
#491 = CARTESIAN_POINT('',(9.5,9.));
#492 = ( GEOMETRIC_REPRESENTATION_CONTEXT(2) 
PARAMETRIC_REPRESENTATION_CONTEXT() REPRESENTATION_CONTEXT('2D SPACE',''
  ) );
#493 = ORIENTED_EDGE('',*,*,#494,.T.);
#494 = EDGE_CURVE('',#474,#495,#497,.T.);
#495 = VERTEX_POINT('',#496);
#496 = CARTESIAN_POINT('',(4.,3.680607966084,6.375));
#497 = SURFACE_CURVE('',#498,(#502,#508),.PCURVE_S1.);
#498 = LINE('',#499,#500);
#499 = CARTESIAN_POINT('',(4.,1.840303983042,6.375));
#500 = VECTOR('',#501,1.);
#501 = DIRECTION('',(0.,1.,-1.206564822829E-16));
#502 = PCURVE('',#45,#503);
#503 = DEFINITIONAL_REPRESENTATION('',(#504),#507);
#504 = B_SPLINE_CURVE_WITH_KNOTS('',1,(#505,#506),.UNSPECIFIED.,.F.,.F.,
  (2,2),(-5.520911949126,1.840303983042),.PIECEWISE_BEZIER_KNOTS.);
#505 = CARTESIAN_POINT('',(6.375,3.680607966084));
#506 = CARTESIAN_POINT('',(6.375,-3.680607966084));
#507 = ( GEOMETRIC_REPRESENTATION_CONTEXT(2) 
PARAMETRIC_REPRESENTATION_CONTEXT() REPRESENTATION_CONTEXT('2D SPACE',''
  ) );
#508 = PCURVE('',#509,#514);
#509 = PLANE('',#510);
#510 = AXIS2_PLACEMENT_3D('',#511,#512,#513);
#511 = CARTESIAN_POINT('',(-5.,3.680607966084,6.375));
#512 = DIRECTION('',(0.,-1.206564822829E-16,-1.));
#513 = DIRECTION('',(0.,-1.,1.206564822829E-16));
#514 = DEFINITIONAL_REPRESENTATION('',(#515),#518);
#515 = B_SPLINE_CURVE_WITH_KNOTS('',1,(#516,#517),.UNSPECIFIED.,.F.,.F.,
  (2,2),(-5.520911949126,1.840303983042),.PIECEWISE_BEZIER_KNOTS.);
#516 = CARTESIAN_POINT('',(7.361215932168,-9.));
#517 = CARTESIAN_POINT('',(0.,-9.));
#518 = ( GEOMETRIC_REPRESENTATION_CONTEXT(2) 
PARAMETRIC_REPRESENTATION_CONTEXT() REPRESENTATION_CONTEXT('2D SPACE',''
  ) );
#519 = ORIENTED_EDGE('',*,*,#520,.T.);
#520 = EDGE_CURVE('',#495,#521,#523,.T.);
#521 = VERTEX_POINT('',#522);
#522 = CARTESIAN_POINT('',(4.,7.361215932168,0.));
#523 = SURFACE_CURVE('',#524,(#528,#534),.PCURVE_S1.);
#524 = LINE('',#525,#526);
#525 = CARTESIAN_POINT('',(4.,6.441063940647,1.59375));
#526 = VECTOR('',#527,1.);
#527 = DIRECTION('',(0.,0.5,-0.866025403784));
#528 = PCURVE('',#45,#529);
#529 = DEFINITIONAL_REPRESENTATION('',(#530),#533);
#530 = B_SPLINE_CURVE_WITH_KNOTS('',1,(#531,#532),.UNSPECIFIED.,.F.,.F.,
  (2,2),(-5.520911949126,1.840303983042),.PIECEWISE_BEZIER_KNOTS.);
#531 = CARTESIAN_POINT('',(6.375,-3.680607966084));
#532 = CARTESIAN_POINT('',(0.,-7.361215932168));
#533 = ( GEOMETRIC_REPRESENTATION_CONTEXT(2) 
PARAMETRIC_REPRESENTATION_CONTEXT() REPRESENTATION_CONTEXT('2D SPACE',''
  ) );
#534 = PCURVE('',#535,#540);
#535 = PLANE('',#536);
#536 = AXIS2_PLACEMENT_3D('',#537,#538,#539);
#537 = CARTESIAN_POINT('',(-5.,7.361215932168,0.));
#538 = DIRECTION('',(0.,-0.866025403784,-0.5));
#539 = DIRECTION('',(0.,-0.5,0.866025403784));
#540 = DEFINITIONAL_REPRESENTATION('',(#541),#544);
#541 = B_SPLINE_CURVE_WITH_KNOTS('',1,(#542,#543),.UNSPECIFIED.,.F.,.F.,
  (2,2),(-5.520911949126,1.840303983042),.PIECEWISE_BEZIER_KNOTS.);
#542 = CARTESIAN_POINT('',(7.361215932168,-9.));
#543 = CARTESIAN_POINT('',(0.,-9.));
#544 = ( GEOMETRIC_REPRESENTATION_CONTEXT(2) 
PARAMETRIC_REPRESENTATION_CONTEXT() REPRESENTATION_CONTEXT('2D SPACE',''
  ) );
#545 = ORIENTED_EDGE('',*,*,#546,.T.);
#546 = EDGE_CURVE('',#521,#547,#549,.T.);
#547 = VERTEX_POINT('',#548);
#548 = CARTESIAN_POINT('',(4.,3.680607966084,-6.375));
#549 = SURFACE_CURVE('',#550,(#554,#560),.PCURVE_S1.);
#550 = LINE('',#551,#552);
#551 = CARTESIAN_POINT('',(4.,4.600759957605,-4.78125));
#552 = VECTOR('',#553,1.);
#553 = DIRECTION('',(0.,-0.5,-0.866025403784));
#554 = PCURVE('',#45,#555);
#555 = DEFINITIONAL_REPRESENTATION('',(#556),#559);
#556 = B_SPLINE_CURVE_WITH_KNOTS('',1,(#557,#558),.UNSPECIFIED.,.F.,.F.,
  (2,2),(-5.520911949126,1.840303983042),.PIECEWISE_BEZIER_KNOTS.);
#557 = CARTESIAN_POINT('',(8.881784197001E-16,-7.361215932168));
#558 = CARTESIAN_POINT('',(-6.375,-3.680607966084));
#559 = ( GEOMETRIC_REPRESENTATION_CONTEXT(2) 
PARAMETRIC_REPRESENTATION_CONTEXT() REPRESENTATION_CONTEXT('2D SPACE',''
  ) );
#560 = PCURVE('',#561,#566);
#561 = PLANE('',#562);
#562 = AXIS2_PLACEMENT_3D('',#563,#564,#565);
#563 = CARTESIAN_POINT('',(-5.,3.680607966084,-6.375));
#564 = DIRECTION('',(0.,-0.866025403784,0.5));
#565 = DIRECTION('',(0.,0.5,0.866025403784));
#566 = DEFINITIONAL_REPRESENTATION('',(#567),#570);
#567 = B_SPLINE_CURVE_WITH_KNOTS('',1,(#568,#569),.UNSPECIFIED.,.F.,.F.,
  (2,2),(-5.520911949126,1.840303983042),.PIECEWISE_BEZIER_KNOTS.);
#568 = CARTESIAN_POINT('',(7.361215932168,-9.));
#569 = CARTESIAN_POINT('',(0.,-9.));
#570 = ( GEOMETRIC_REPRESENTATION_CONTEXT(2) 
PARAMETRIC_REPRESENTATION_CONTEXT() REPRESENTATION_CONTEXT('2D SPACE',''
  ) );
#571 = ORIENTED_EDGE('',*,*,#572,.T.);
#572 = EDGE_CURVE('',#547,#573,#575,.T.);
#573 = VERTEX_POINT('',#574);
#574 = CARTESIAN_POINT('',(4.,-3.680607966084,-6.375));
#575 = SURFACE_CURVE('',#576,(#580,#586),.PCURVE_S1.);
#576 = LINE('',#577,#578);
#577 = CARTESIAN_POINT('',(4.,-1.840303983042,-6.375));
#578 = VECTOR('',#579,1.);
#579 = DIRECTION('',(0.,-1.,1.206564822829E-16));
#580 = PCURVE('',#45,#581);
#581 = DEFINITIONAL_REPRESENTATION('',(#582),#585);
#582 = B_SPLINE_CURVE_WITH_KNOTS('',1,(#583,#584),.UNSPECIFIED.,.F.,.F.,
  (2,2),(-5.520911949126,1.840303983042),.PIECEWISE_BEZIER_KNOTS.);
#583 = CARTESIAN_POINT('',(-6.375,-3.680607966084));
#584 = CARTESIAN_POINT('',(-6.375,3.680607966084));
#585 = ( GEOMETRIC_REPRESENTATION_CONTEXT(2) 
PARAMETRIC_REPRESENTATION_CONTEXT() REPRESENTATION_CONTEXT('2D SPACE',''
  ) );
#586 = PCURVE('',#587,#592);
#587 = PLANE('',#588);
#588 = AXIS2_PLACEMENT_3D('',#589,#590,#591);
#589 = CARTESIAN_POINT('',(-5.,-3.680607966084,-6.375));
#590 = DIRECTION('',(-0.,1.206564822829E-16,1.));
#591 = DIRECTION('',(0.,1.,-1.206564822829E-16));
#592 = DEFINITIONAL_REPRESENTATION('',(#593),#596);
#593 = B_SPLINE_CURVE_WITH_KNOTS('',1,(#594,#595),.UNSPECIFIED.,.F.,.F.,
  (2,2),(-5.520911949126,1.840303983042),.PIECEWISE_BEZIER_KNOTS.);
#594 = CARTESIAN_POINT('',(7.361215932168,-9.));
#595 = CARTESIAN_POINT('',(0.,-9.));
#596 = ( GEOMETRIC_REPRESENTATION_CONTEXT(2) 
PARAMETRIC_REPRESENTATION_CONTEXT() REPRESENTATION_CONTEXT('2D SPACE',''
  ) );
#597 = ORIENTED_EDGE('',*,*,#598,.T.);
#598 = EDGE_CURVE('',#573,#599,#601,.T.);
#599 = VERTEX_POINT('',#600);
#600 = CARTESIAN_POINT('',(4.,-7.361215932168,9.014889529162E-16));
#601 = SURFACE_CURVE('',#602,(#606,#612),.PCURVE_S1.);
#602 = LINE('',#603,#604);
#603 = CARTESIAN_POINT('',(4.,-6.441063940647,-1.59375));
#604 = VECTOR('',#605,1.);
#605 = DIRECTION('',(0.,-0.5,0.866025403784));
#606 = PCURVE('',#45,#607);
#607 = DEFINITIONAL_REPRESENTATION('',(#608),#611);
#608 = B_SPLINE_CURVE_WITH_KNOTS('',1,(#609,#610),.UNSPECIFIED.,.F.,.F.,
  (2,2),(-5.520911949126,1.840303983042),.PIECEWISE_BEZIER_KNOTS.);
#609 = CARTESIAN_POINT('',(-6.375,3.680607966084));
#610 = CARTESIAN_POINT('',(8.881784197001E-16,7.361215932168));
#611 = ( GEOMETRIC_REPRESENTATION_CONTEXT(2) 
PARAMETRIC_REPRESENTATION_CONTEXT() REPRESENTATION_CONTEXT('2D SPACE',''
  ) );
#612 = PCURVE('',#613,#618);
#613 = PLANE('',#614);
#614 = AXIS2_PLACEMENT_3D('',#615,#616,#617);
#615 = CARTESIAN_POINT('',(-5.,-7.361215932168,9.014889529162E-16));
#616 = DIRECTION('',(-0.,0.866025403784,0.5));
#617 = DIRECTION('',(0.,0.5,-0.866025403784));
#618 = DEFINITIONAL_REPRESENTATION('',(#619),#622);
#619 = B_SPLINE_CURVE_WITH_KNOTS('',1,(#620,#621),.UNSPECIFIED.,.F.,.F.,
  (2,2),(-5.520911949126,1.840303983042),.PIECEWISE_BEZIER_KNOTS.);
#620 = CARTESIAN_POINT('',(7.361215932168,-9.));
#621 = CARTESIAN_POINT('',(0.,-9.));
#622 = ( GEOMETRIC_REPRESENTATION_CONTEXT(2) 
PARAMETRIC_REPRESENTATION_CONTEXT() REPRESENTATION_CONTEXT('2D SPACE',''
  ) );
#623 = ORIENTED_EDGE('',*,*,#624,.T.);
#624 = EDGE_CURVE('',#599,#625,#627,.T.);
#625 = VERTEX_POINT('',#626);
#626 = CARTESIAN_POINT('',(4.,-3.680607966084,6.375));
#627 = SURFACE_CURVE('',#628,(#632,#638),.PCURVE_S1.);
#628 = LINE('',#629,#630);
#629 = CARTESIAN_POINT('',(4.,-4.600759957605,4.78125));
#630 = VECTOR('',#631,1.);
#631 = DIRECTION('',(-0.,0.5,0.866025403784));
#632 = PCURVE('',#45,#633);
#633 = DEFINITIONAL_REPRESENTATION('',(#634),#637);
#634 = B_SPLINE_CURVE_WITH_KNOTS('',1,(#635,#636),.UNSPECIFIED.,.F.,.F.,
  (2,2),(-5.520911949126,1.840303983042),.PIECEWISE_BEZIER_KNOTS.);
#635 = CARTESIAN_POINT('',(8.881784197001E-16,7.361215932168));
#636 = CARTESIAN_POINT('',(6.375,3.680607966084));
#637 = ( GEOMETRIC_REPRESENTATION_CONTEXT(2) 
PARAMETRIC_REPRESENTATION_CONTEXT() REPRESENTATION_CONTEXT('2D SPACE',''
  ) );
#638 = PCURVE('',#639,#644);
#639 = PLANE('',#640);
#640 = AXIS2_PLACEMENT_3D('',#641,#642,#643);
#641 = CARTESIAN_POINT('',(-5.,-3.680607966084,6.375));
#642 = DIRECTION('',(0.,0.866025403784,-0.5));
#643 = DIRECTION('',(0.,-0.5,-0.866025403784));
#644 = DEFINITIONAL_REPRESENTATION('',(#645),#648);
#645 = B_SPLINE_CURVE_WITH_KNOTS('',1,(#646,#647),.UNSPECIFIED.,.F.,.F.,
  (2,2),(-5.520911949126,1.840303983042),.PIECEWISE_BEZIER_KNOTS.);
#646 = CARTESIAN_POINT('',(7.361215932168,-9.));
#647 = CARTESIAN_POINT('',(0.,-9.));
#648 = ( GEOMETRIC_REPRESENTATION_CONTEXT(2) 
PARAMETRIC_REPRESENTATION_CONTEXT() REPRESENTATION_CONTEXT('2D SPACE',''
  ) );
#649 = ORIENTED_EDGE('',*,*,#650,.T.);
#650 = EDGE_CURVE('',#625,#452,#651,.T.);
#651 = SURFACE_CURVE('',#652,(#656,#662),.PCURVE_S1.);
#652 = LINE('',#653,#654);
#653 = CARTESIAN_POINT('',(4.,1.840303983042,6.375));
#654 = VECTOR('',#655,1.);
#655 = DIRECTION('',(0.,1.,-1.206564822829E-16));
#656 = PCURVE('',#45,#657);
#657 = DEFINITIONAL_REPRESENTATION('',(#658),#661);
#658 = B_SPLINE_CURVE_WITH_KNOTS('',1,(#659,#660),.UNSPECIFIED.,.F.,.F.,
  (2,2),(-5.520911949126,1.840303983042),.PIECEWISE_BEZIER_KNOTS.);
#659 = CARTESIAN_POINT('',(6.375,3.680607966084));
#660 = CARTESIAN_POINT('',(6.375,-3.680607966084));
#661 = ( GEOMETRIC_REPRESENTATION_CONTEXT(2) 
PARAMETRIC_REPRESENTATION_CONTEXT() REPRESENTATION_CONTEXT('2D SPACE',''
  ) );
#662 = PCURVE('',#663,#668);
#663 = PLANE('',#664);
#664 = AXIS2_PLACEMENT_3D('',#665,#666,#667);
#665 = CARTESIAN_POINT('',(-5.,3.680607966084,6.375));
#666 = DIRECTION('',(0.,-1.206564822829E-16,-1.));
#667 = DIRECTION('',(0.,-1.,1.206564822829E-16));
#668 = DEFINITIONAL_REPRESENTATION('',(#669),#672);
#669 = B_SPLINE_CURVE_WITH_KNOTS('',1,(#670,#671),.UNSPECIFIED.,.F.,.F.,
  (2,2),(-5.520911949126,1.840303983042),.PIECEWISE_BEZIER_KNOTS.);
#670 = CARTESIAN_POINT('',(7.361215932168,-9.));
#671 = CARTESIAN_POINT('',(0.,-9.));
#672 = ( GEOMETRIC_REPRESENTATION_CONTEXT(2) 
PARAMETRIC_REPRESENTATION_CONTEXT() REPRESENTATION_CONTEXT('2D SPACE',''
  ) );
#673 = ADVANCED_FACE('',(#674),#437,.F.);
#674 = FACE_BOUND('',#675,.F.);
#675 = EDGE_LOOP('',(#676,#697,#716,#717));
#676 = ORIENTED_EDGE('',*,*,#677,.F.);
#677 = EDGE_CURVE('',#678,#474,#680,.T.);
#678 = VERTEX_POINT('',#679);
#679 = CARTESIAN_POINT('',(2.039607805437,0.5,6.375));
#680 = SURFACE_CURVE('',#681,(#685,#691),.PCURVE_S1.);
#681 = LINE('',#682,#683);
#682 = CARTESIAN_POINT('',(-5.,0.5,6.375));
#683 = VECTOR('',#684,1.);
#684 = DIRECTION('',(1.,0.,0.));
#685 = PCURVE('',#437,#686);
#686 = DEFINITIONAL_REPRESENTATION('',(#687),#690);
#687 = B_SPLINE_CURVE_WITH_KNOTS('',1,(#688,#689),.UNSPECIFIED.,.F.,.F.,
  (2,2),(1.,9.),.PIECEWISE_BEZIER_KNOTS.);
#688 = CARTESIAN_POINT('',(3.875,1.));
#689 = CARTESIAN_POINT('',(3.875,9.));
#690 = ( GEOMETRIC_REPRESENTATION_CONTEXT(2) 
PARAMETRIC_REPRESENTATION_CONTEXT() REPRESENTATION_CONTEXT('2D SPACE',''
  ) );
#691 = PCURVE('',#509,#692);
#692 = DEFINITIONAL_REPRESENTATION('',(#693),#696);
#693 = B_SPLINE_CURVE_WITH_KNOTS('',1,(#694,#695),.UNSPECIFIED.,.F.,.F.,
  (2,2),(1.,9.),.PIECEWISE_BEZIER_KNOTS.);
#694 = CARTESIAN_POINT('',(3.180607966084,-1.));
#695 = CARTESIAN_POINT('',(3.180607966084,-9.));
#696 = ( GEOMETRIC_REPRESENTATION_CONTEXT(2) 
PARAMETRIC_REPRESENTATION_CONTEXT() REPRESENTATION_CONTEXT('2D SPACE',''
  ) );
#697 = ORIENTED_EDGE('',*,*,#698,.T.);
#698 = EDGE_CURVE('',#678,#295,#699,.T.);
#699 = SURFACE_CURVE('',#700,(#704,#710),.PCURVE_S1.);
#700 = LINE('',#701,#702);
#701 = CARTESIAN_POINT('',(2.039607805437,0.5,-4.));
#702 = VECTOR('',#703,1.);
#703 = DIRECTION('',(0.,0.,1.));
#704 = PCURVE('',#437,#705);
#705 = DEFINITIONAL_REPRESENTATION('',(#706),#709);
#706 = B_SPLINE_CURVE_WITH_KNOTS('',1,(#707,#708),.UNSPECIFIED.,.F.,.F.,
  (2,2),(9.813542119172,16.55103668911),.PIECEWISE_BEZIER_KNOTS.);
#707 = CARTESIAN_POINT('',(3.313542119172,7.039607805437));
#708 = CARTESIAN_POINT('',(10.05103668911,7.039607805437));
#709 = ( GEOMETRIC_REPRESENTATION_CONTEXT(2) 
PARAMETRIC_REPRESENTATION_CONTEXT() REPRESENTATION_CONTEXT('2D SPACE',''
  ) );
#710 = PCURVE('',#378,#711);
#711 = DEFINITIONAL_REPRESENTATION('',(#712),#715);
#712 = B_SPLINE_CURVE_WITH_KNOTS('',1,(#713,#714),.UNSPECIFIED.,.F.,.F.,
  (2,2),(9.813542119172,16.55103668911),.PIECEWISE_BEZIER_KNOTS.);
#713 = CARTESIAN_POINT('',(0.240404216769,9.813542119172));
#714 = CARTESIAN_POINT('',(0.240404216769,16.55103668911));
#715 = ( GEOMETRIC_REPRESENTATION_CONTEXT(2) 
PARAMETRIC_REPRESENTATION_CONTEXT() REPRESENTATION_CONTEXT('2D SPACE',''
  ) );
#716 = ORIENTED_EDGE('',*,*,#424,.T.);
#717 = ORIENTED_EDGE('',*,*,#473,.F.);
#718 = ADVANCED_FACE('',(#719),#378,.F.);
#719 = FACE_BOUND('',#720,.F.);
#720 = EDGE_LOOP('',(#721,#722,#723,#751));
#721 = ORIENTED_EDGE('',*,*,#294,.F.);
#722 = ORIENTED_EDGE('',*,*,#698,.F.);
#723 = ORIENTED_EDGE('',*,*,#724,.T.);
#724 = EDGE_CURVE('',#678,#725,#727,.T.);
#725 = VERTEX_POINT('',#726);
#726 = CARTESIAN_POINT('',(-2.039607805437,0.5,6.375));
#727 = SURFACE_CURVE('',#728,(#733,#740),.PCURVE_S1.);
#728 = CIRCLE('',#729,2.1);
#729 = AXIS2_PLACEMENT_3D('',#730,#731,#732);
#730 = CARTESIAN_POINT('',(0.,0.,6.375));
#731 = DIRECTION('',(0.,0.,1.));
#732 = DIRECTION('',(1.,0.,-0.));
#733 = PCURVE('',#378,#734);
#734 = DEFINITIONAL_REPRESENTATION('',(#735),#739);
#735 = LINE('',#736,#737);
#736 = CARTESIAN_POINT('',(0.,10.375));
#737 = VECTOR('',#738,1.);
#738 = DIRECTION('',(1.,0.));
#739 = ( GEOMETRIC_REPRESENTATION_CONTEXT(2) 
PARAMETRIC_REPRESENTATION_CONTEXT() REPRESENTATION_CONTEXT('2D SPACE',''
  ) );
#740 = PCURVE('',#509,#741);
#741 = DEFINITIONAL_REPRESENTATION('',(#742),#750);
#742 = ( BOUNDED_CURVE() B_SPLINE_CURVE(2,(#743,#744,#745,#746,#747,#748
,#749),.UNSPECIFIED.,.T.,.F.) B_SPLINE_CURVE_WITH_KNOTS((1,2,2,2,2,1),(
    -2.094395102393,0.,2.094395102393,4.188790204786,6.28318530718,
8.377580409573),.UNSPECIFIED.) CURVE() GEOMETRIC_REPRESENTATION_ITEM() 
RATIONAL_B_SPLINE_CURVE((1.,0.5,1.,0.5,1.,0.5,1.)) REPRESENTATION_ITEM(
  '') );
#743 = CARTESIAN_POINT('',(3.680607966084,-7.1));
#744 = CARTESIAN_POINT('',(4.330127018922E-02,-7.1));
#745 = CARTESIAN_POINT('',(1.861954618137,-3.95));
#746 = CARTESIAN_POINT('',(3.680607966084,-0.8));
#747 = CARTESIAN_POINT('',(5.499261314031,-3.95));
#748 = CARTESIAN_POINT('',(7.317914661979,-7.1));
#749 = CARTESIAN_POINT('',(3.680607966084,-7.1));
#750 = ( GEOMETRIC_REPRESENTATION_CONTEXT(2) 
PARAMETRIC_REPRESENTATION_CONTEXT() REPRESENTATION_CONTEXT('2D SPACE',''
  ) );
#751 = ORIENTED_EDGE('',*,*,#752,.T.);
#752 = EDGE_CURVE('',#725,#269,#753,.T.);
#753 = SURFACE_CURVE('',#754,(#758,#764),.PCURVE_S1.);
#754 = LINE('',#755,#756);
#755 = CARTESIAN_POINT('',(-2.039607805437,0.5,-4.));
#756 = VECTOR('',#757,1.);
#757 = DIRECTION('',(0.,0.,1.));
#758 = PCURVE('',#378,#759);
#759 = DEFINITIONAL_REPRESENTATION('',(#760),#763);
#760 = B_SPLINE_CURVE_WITH_KNOTS('',1,(#761,#762),.UNSPECIFIED.,.F.,.F.,
  (2,2),(9.813542119172,16.55103668911),.PIECEWISE_BEZIER_KNOTS.);
#761 = CARTESIAN_POINT('',(2.901188436821,9.813542119172));
#762 = CARTESIAN_POINT('',(2.901188436821,16.55103668911));
#763 = ( GEOMETRIC_REPRESENTATION_CONTEXT(2) 
PARAMETRIC_REPRESENTATION_CONTEXT() REPRESENTATION_CONTEXT('2D SPACE',''
  ) );
#764 = PCURVE('',#283,#765);
#765 = DEFINITIONAL_REPRESENTATION('',(#766),#769);
#766 = B_SPLINE_CURVE_WITH_KNOTS('',1,(#767,#768),.UNSPECIFIED.,.F.,.F.,
  (2,2),(9.813542119172,16.55103668911),.PIECEWISE_BEZIER_KNOTS.);
#767 = CARTESIAN_POINT('',(3.313542119172,2.960392194563));
#768 = CARTESIAN_POINT('',(10.05103668911,2.960392194563));
#769 = ( GEOMETRIC_REPRESENTATION_CONTEXT(2) 
PARAMETRIC_REPRESENTATION_CONTEXT() REPRESENTATION_CONTEXT('2D SPACE',''
  ) );
#770 = ADVANCED_FACE('',(#771),#283,.F.);
#771 = FACE_BOUND('',#772,.F.);
#772 = EDGE_LOOP('',(#773,#794,#813,#814));
#773 = ORIENTED_EDGE('',*,*,#774,.F.);
#774 = EDGE_CURVE('',#775,#725,#777,.T.);
#775 = VERTEX_POINT('',#776);
#776 = CARTESIAN_POINT('',(-4.,0.5,6.375));
#777 = SURFACE_CURVE('',#778,(#782,#788),.PCURVE_S1.);
#778 = LINE('',#779,#780);
#779 = CARTESIAN_POINT('',(-5.,0.5,6.375));
#780 = VECTOR('',#781,1.);
#781 = DIRECTION('',(1.,0.,0.));
#782 = PCURVE('',#283,#783);
#783 = DEFINITIONAL_REPRESENTATION('',(#784),#787);
#784 = B_SPLINE_CURVE_WITH_KNOTS('',1,(#785,#786),.UNSPECIFIED.,.F.,.F.,
  (2,2),(1.,9.),.PIECEWISE_BEZIER_KNOTS.);
#785 = CARTESIAN_POINT('',(3.875,1.));
#786 = CARTESIAN_POINT('',(3.875,9.));
#787 = ( GEOMETRIC_REPRESENTATION_CONTEXT(2) 
PARAMETRIC_REPRESENTATION_CONTEXT() REPRESENTATION_CONTEXT('2D SPACE',''
  ) );
#788 = PCURVE('',#509,#789);
#789 = DEFINITIONAL_REPRESENTATION('',(#790),#793);
#790 = B_SPLINE_CURVE_WITH_KNOTS('',1,(#791,#792),.UNSPECIFIED.,.F.,.F.,
  (2,2),(1.,9.),.PIECEWISE_BEZIER_KNOTS.);
#791 = CARTESIAN_POINT('',(3.180607966084,-1.));
#792 = CARTESIAN_POINT('',(3.180607966084,-9.));
#793 = ( GEOMETRIC_REPRESENTATION_CONTEXT(2) 
PARAMETRIC_REPRESENTATION_CONTEXT() REPRESENTATION_CONTEXT('2D SPACE',''
  ) );
#794 = ORIENTED_EDGE('',*,*,#795,.T.);
#795 = EDGE_CURVE('',#775,#240,#796,.T.);
#796 = SURFACE_CURVE('',#797,(#801,#807),.PCURVE_S1.);
#797 = LINE('',#798,#799);
#798 = CARTESIAN_POINT('',(-4.,0.5,1.25));
#799 = VECTOR('',#800,1.);
#800 = DIRECTION('',(0.,-0.,1.));
#801 = PCURVE('',#283,#802);
#802 = DEFINITIONAL_REPRESENTATION('',(#803),#806);
#803 = B_SPLINE_CURVE_WITH_KNOTS('',1,(#804,#805),.UNSPECIFIED.,.F.,.F.,
  (2,2),(1.25,10.75),.PIECEWISE_BEZIER_KNOTS.);
#804 = CARTESIAN_POINT('',(0.,1.));
#805 = CARTESIAN_POINT('',(9.5,1.));
#806 = ( GEOMETRIC_REPRESENTATION_CONTEXT(2) 
PARAMETRIC_REPRESENTATION_CONTEXT() REPRESENTATION_CONTEXT('2D SPACE',''
  ) );
#807 = PCURVE('',#256,#808);
#808 = DEFINITIONAL_REPRESENTATION('',(#809),#812);
#809 = B_SPLINE_CURVE_WITH_KNOTS('',1,(#810,#811),.UNSPECIFIED.,.F.,.F.,
  (2,2),(1.25,10.75),.PIECEWISE_BEZIER_KNOTS.);
#810 = CARTESIAN_POINT('',(2.5,-0.5));
#811 = CARTESIAN_POINT('',(12.,-0.5));
#812 = ( GEOMETRIC_REPRESENTATION_CONTEXT(2) 
PARAMETRIC_REPRESENTATION_CONTEXT() REPRESENTATION_CONTEXT('2D SPACE',''
  ) );
#813 = ORIENTED_EDGE('',*,*,#268,.T.);
#814 = ORIENTED_EDGE('',*,*,#752,.F.);
#815 = ADVANCED_FACE('',(#816),#256,.F.);
#816 = FACE_BOUND('',#817,.F.);
#817 = EDGE_LOOP('',(#818,#839,#840,#841,#862,#883,#904,#925,#946,#967)
  );
#818 = ORIENTED_EDGE('',*,*,#819,.T.);
#819 = EDGE_CURVE('',#820,#214,#822,.T.);
#820 = VERTEX_POINT('',#821);
#821 = CARTESIAN_POINT('',(-4.,-0.5,6.375));
#822 = SURFACE_CURVE('',#823,(#827,#833),.PCURVE_S1.);
#823 = LINE('',#824,#825);
#824 = CARTESIAN_POINT('',(-4.,-0.5,1.25));
#825 = VECTOR('',#826,1.);
#826 = DIRECTION('',(0.,-0.,1.));
#827 = PCURVE('',#256,#828);
#828 = DEFINITIONAL_REPRESENTATION('',(#829),#832);
#829 = B_SPLINE_CURVE_WITH_KNOTS('',1,(#830,#831),.UNSPECIFIED.,.F.,.F.,
  (2,2),(1.25,10.75),.PIECEWISE_BEZIER_KNOTS.);
#830 = CARTESIAN_POINT('',(2.5,0.5));
#831 = CARTESIAN_POINT('',(12.,0.5));
#832 = ( GEOMETRIC_REPRESENTATION_CONTEXT(2) 
PARAMETRIC_REPRESENTATION_CONTEXT() REPRESENTATION_CONTEXT('2D SPACE',''
  ) );
#833 = PCURVE('',#228,#834);
#834 = DEFINITIONAL_REPRESENTATION('',(#835),#838);
#835 = B_SPLINE_CURVE_WITH_KNOTS('',1,(#836,#837),.UNSPECIFIED.,.F.,.F.,
  (2,2),(1.25,10.75),.PIECEWISE_BEZIER_KNOTS.);
#836 = CARTESIAN_POINT('',(0.,1.));
#837 = CARTESIAN_POINT('',(9.5,1.));
#838 = ( GEOMETRIC_REPRESENTATION_CONTEXT(2) 
PARAMETRIC_REPRESENTATION_CONTEXT() REPRESENTATION_CONTEXT('2D SPACE',''
  ) );
#839 = ORIENTED_EDGE('',*,*,#239,.T.);
#840 = ORIENTED_EDGE('',*,*,#795,.F.);
#841 = ORIENTED_EDGE('',*,*,#842,.T.);
#842 = EDGE_CURVE('',#775,#843,#845,.T.);
#843 = VERTEX_POINT('',#844);
#844 = CARTESIAN_POINT('',(-4.,3.680607966084,6.375));
#845 = SURFACE_CURVE('',#846,(#850,#856),.PCURVE_S1.);
#846 = LINE('',#847,#848);
#847 = CARTESIAN_POINT('',(-4.,1.840303983042,6.375));
#848 = VECTOR('',#849,1.);
#849 = DIRECTION('',(0.,1.,-1.206564822829E-16));
#850 = PCURVE('',#256,#851);
#851 = DEFINITIONAL_REPRESENTATION('',(#852),#855);
#852 = B_SPLINE_CURVE_WITH_KNOTS('',1,(#853,#854),.UNSPECIFIED.,.F.,.F.,
  (2,2),(-5.520911949126,1.840303983042),.PIECEWISE_BEZIER_KNOTS.);
#853 = CARTESIAN_POINT('',(6.375,3.680607966084));
#854 = CARTESIAN_POINT('',(6.375,-3.680607966084));
#855 = ( GEOMETRIC_REPRESENTATION_CONTEXT(2) 
PARAMETRIC_REPRESENTATION_CONTEXT() REPRESENTATION_CONTEXT('2D SPACE',''
  ) );
#856 = PCURVE('',#509,#857);
#857 = DEFINITIONAL_REPRESENTATION('',(#858),#861);
#858 = B_SPLINE_CURVE_WITH_KNOTS('',1,(#859,#860),.UNSPECIFIED.,.F.,.F.,
  (2,2),(-5.520911949126,1.840303983042),.PIECEWISE_BEZIER_KNOTS.);
#859 = CARTESIAN_POINT('',(7.361215932168,-1.));
#860 = CARTESIAN_POINT('',(0.,-1.));
#861 = ( GEOMETRIC_REPRESENTATION_CONTEXT(2) 
PARAMETRIC_REPRESENTATION_CONTEXT() REPRESENTATION_CONTEXT('2D SPACE',''
  ) );
#862 = ORIENTED_EDGE('',*,*,#863,.T.);
#863 = EDGE_CURVE('',#843,#864,#866,.T.);
#864 = VERTEX_POINT('',#865);
#865 = CARTESIAN_POINT('',(-4.,7.361215932168,0.));
#866 = SURFACE_CURVE('',#867,(#871,#877),.PCURVE_S1.);
#867 = LINE('',#868,#869);
#868 = CARTESIAN_POINT('',(-4.,6.441063940647,1.59375));
#869 = VECTOR('',#870,1.);
#870 = DIRECTION('',(0.,0.5,-0.866025403784));
#871 = PCURVE('',#256,#872);
#872 = DEFINITIONAL_REPRESENTATION('',(#873),#876);
#873 = B_SPLINE_CURVE_WITH_KNOTS('',1,(#874,#875),.UNSPECIFIED.,.F.,.F.,
  (2,2),(-5.520911949126,1.840303983042),.PIECEWISE_BEZIER_KNOTS.);
#874 = CARTESIAN_POINT('',(6.375,-3.680607966084));
#875 = CARTESIAN_POINT('',(0.,-7.361215932168));
#876 = ( GEOMETRIC_REPRESENTATION_CONTEXT(2) 
PARAMETRIC_REPRESENTATION_CONTEXT() REPRESENTATION_CONTEXT('2D SPACE',''
  ) );
#877 = PCURVE('',#535,#878);
#878 = DEFINITIONAL_REPRESENTATION('',(#879),#882);
#879 = B_SPLINE_CURVE_WITH_KNOTS('',1,(#880,#881),.UNSPECIFIED.,.F.,.F.,
  (2,2),(-5.520911949126,1.840303983042),.PIECEWISE_BEZIER_KNOTS.);
#880 = CARTESIAN_POINT('',(7.361215932168,-1.));
#881 = CARTESIAN_POINT('',(0.,-1.));
#882 = ( GEOMETRIC_REPRESENTATION_CONTEXT(2) 
PARAMETRIC_REPRESENTATION_CONTEXT() REPRESENTATION_CONTEXT('2D SPACE',''
  ) );
#883 = ORIENTED_EDGE('',*,*,#884,.T.);
#884 = EDGE_CURVE('',#864,#885,#887,.T.);
#885 = VERTEX_POINT('',#886);
#886 = CARTESIAN_POINT('',(-4.,3.680607966084,-6.375));
#887 = SURFACE_CURVE('',#888,(#892,#898),.PCURVE_S1.);
#888 = LINE('',#889,#890);
#889 = CARTESIAN_POINT('',(-4.,4.600759957605,-4.78125));
#890 = VECTOR('',#891,1.);
#891 = DIRECTION('',(0.,-0.5,-0.866025403784));
#892 = PCURVE('',#256,#893);
#893 = DEFINITIONAL_REPRESENTATION('',(#894),#897);
#894 = B_SPLINE_CURVE_WITH_KNOTS('',1,(#895,#896),.UNSPECIFIED.,.F.,.F.,
  (2,2),(-5.520911949126,1.840303983042),.PIECEWISE_BEZIER_KNOTS.);
#895 = CARTESIAN_POINT('',(8.881784197001E-16,-7.361215932168));
#896 = CARTESIAN_POINT('',(-6.375,-3.680607966084));
#897 = ( GEOMETRIC_REPRESENTATION_CONTEXT(2) 
PARAMETRIC_REPRESENTATION_CONTEXT() REPRESENTATION_CONTEXT('2D SPACE',''
  ) );
#898 = PCURVE('',#561,#899);
#899 = DEFINITIONAL_REPRESENTATION('',(#900),#903);
#900 = B_SPLINE_CURVE_WITH_KNOTS('',1,(#901,#902),.UNSPECIFIED.,.F.,.F.,
  (2,2),(-5.520911949126,1.840303983042),.PIECEWISE_BEZIER_KNOTS.);
#901 = CARTESIAN_POINT('',(7.361215932168,-1.));
#902 = CARTESIAN_POINT('',(0.,-1.));
#903 = ( GEOMETRIC_REPRESENTATION_CONTEXT(2) 
PARAMETRIC_REPRESENTATION_CONTEXT() REPRESENTATION_CONTEXT('2D SPACE',''
  ) );
#904 = ORIENTED_EDGE('',*,*,#905,.T.);
#905 = EDGE_CURVE('',#885,#906,#908,.T.);
#906 = VERTEX_POINT('',#907);
#907 = CARTESIAN_POINT('',(-4.,-3.680607966084,-6.375));
#908 = SURFACE_CURVE('',#909,(#913,#919),.PCURVE_S1.);
#909 = LINE('',#910,#911);
#910 = CARTESIAN_POINT('',(-4.,-1.840303983042,-6.375));
#911 = VECTOR('',#912,1.);
#912 = DIRECTION('',(0.,-1.,1.206564822829E-16));
#913 = PCURVE('',#256,#914);
#914 = DEFINITIONAL_REPRESENTATION('',(#915),#918);
#915 = B_SPLINE_CURVE_WITH_KNOTS('',1,(#916,#917),.UNSPECIFIED.,.F.,.F.,
  (2,2),(-5.520911949126,1.840303983042),.PIECEWISE_BEZIER_KNOTS.);
#916 = CARTESIAN_POINT('',(-6.375,-3.680607966084));
#917 = CARTESIAN_POINT('',(-6.375,3.680607966084));
#918 = ( GEOMETRIC_REPRESENTATION_CONTEXT(2) 
PARAMETRIC_REPRESENTATION_CONTEXT() REPRESENTATION_CONTEXT('2D SPACE',''
  ) );
#919 = PCURVE('',#587,#920);
#920 = DEFINITIONAL_REPRESENTATION('',(#921),#924);
#921 = B_SPLINE_CURVE_WITH_KNOTS('',1,(#922,#923),.UNSPECIFIED.,.F.,.F.,
  (2,2),(-5.520911949126,1.840303983042),.PIECEWISE_BEZIER_KNOTS.);
#922 = CARTESIAN_POINT('',(7.361215932168,-1.));
#923 = CARTESIAN_POINT('',(0.,-1.));
#924 = ( GEOMETRIC_REPRESENTATION_CONTEXT(2) 
PARAMETRIC_REPRESENTATION_CONTEXT() REPRESENTATION_CONTEXT('2D SPACE',''
  ) );
#925 = ORIENTED_EDGE('',*,*,#926,.T.);
#926 = EDGE_CURVE('',#906,#927,#929,.T.);
#927 = VERTEX_POINT('',#928);
#928 = CARTESIAN_POINT('',(-4.,-7.361215932168,9.014889529162E-16));
#929 = SURFACE_CURVE('',#930,(#934,#940),.PCURVE_S1.);
#930 = LINE('',#931,#932);
#931 = CARTESIAN_POINT('',(-4.,-6.441063940647,-1.59375));
#932 = VECTOR('',#933,1.);
#933 = DIRECTION('',(0.,-0.5,0.866025403784));
#934 = PCURVE('',#256,#935);
#935 = DEFINITIONAL_REPRESENTATION('',(#936),#939);
#936 = B_SPLINE_CURVE_WITH_KNOTS('',1,(#937,#938),.UNSPECIFIED.,.F.,.F.,
  (2,2),(-5.520911949126,1.840303983042),.PIECEWISE_BEZIER_KNOTS.);
#937 = CARTESIAN_POINT('',(-6.375,3.680607966084));
#938 = CARTESIAN_POINT('',(8.881784197001E-16,7.361215932168));
#939 = ( GEOMETRIC_REPRESENTATION_CONTEXT(2) 
PARAMETRIC_REPRESENTATION_CONTEXT() REPRESENTATION_CONTEXT('2D SPACE',''
  ) );
#940 = PCURVE('',#613,#941);
#941 = DEFINITIONAL_REPRESENTATION('',(#942),#945);
#942 = B_SPLINE_CURVE_WITH_KNOTS('',1,(#943,#944),.UNSPECIFIED.,.F.,.F.,
  (2,2),(-5.520911949126,1.840303983042),.PIECEWISE_BEZIER_KNOTS.);
#943 = CARTESIAN_POINT('',(7.361215932168,-1.));
#944 = CARTESIAN_POINT('',(0.,-1.));
#945 = ( GEOMETRIC_REPRESENTATION_CONTEXT(2) 
PARAMETRIC_REPRESENTATION_CONTEXT() REPRESENTATION_CONTEXT('2D SPACE',''
  ) );
#946 = ORIENTED_EDGE('',*,*,#947,.T.);
#947 = EDGE_CURVE('',#927,#948,#950,.T.);
#948 = VERTEX_POINT('',#949);
#949 = CARTESIAN_POINT('',(-4.,-3.680607966084,6.375));
#950 = SURFACE_CURVE('',#951,(#955,#961),.PCURVE_S1.);
#951 = LINE('',#952,#953);
#952 = CARTESIAN_POINT('',(-4.,-4.600759957605,4.78125));
#953 = VECTOR('',#954,1.);
#954 = DIRECTION('',(-0.,0.5,0.866025403784));
#955 = PCURVE('',#256,#956);
#956 = DEFINITIONAL_REPRESENTATION('',(#957),#960);
#957 = B_SPLINE_CURVE_WITH_KNOTS('',1,(#958,#959),.UNSPECIFIED.,.F.,.F.,
  (2,2),(-5.520911949126,1.840303983042),.PIECEWISE_BEZIER_KNOTS.);
#958 = CARTESIAN_POINT('',(8.881784197001E-16,7.361215932168));
#959 = CARTESIAN_POINT('',(6.375,3.680607966084));
#960 = ( GEOMETRIC_REPRESENTATION_CONTEXT(2) 
PARAMETRIC_REPRESENTATION_CONTEXT() REPRESENTATION_CONTEXT('2D SPACE',''
  ) );
#961 = PCURVE('',#639,#962);
#962 = DEFINITIONAL_REPRESENTATION('',(#963),#966);
#963 = B_SPLINE_CURVE_WITH_KNOTS('',1,(#964,#965),.UNSPECIFIED.,.F.,.F.,
  (2,2),(-5.520911949126,1.840303983042),.PIECEWISE_BEZIER_KNOTS.);
#964 = CARTESIAN_POINT('',(7.361215932168,-1.));
#965 = CARTESIAN_POINT('',(0.,-1.));
#966 = ( GEOMETRIC_REPRESENTATION_CONTEXT(2) 
PARAMETRIC_REPRESENTATION_CONTEXT() REPRESENTATION_CONTEXT('2D SPACE',''
  ) );
#967 = ORIENTED_EDGE('',*,*,#968,.T.);
#968 = EDGE_CURVE('',#948,#820,#969,.T.);
#969 = SURFACE_CURVE('',#970,(#974,#980),.PCURVE_S1.);
#970 = LINE('',#971,#972);
#971 = CARTESIAN_POINT('',(-4.,1.840303983042,6.375));
#972 = VECTOR('',#973,1.);
#973 = DIRECTION('',(0.,1.,-1.206564822829E-16));
#974 = PCURVE('',#256,#975);
#975 = DEFINITIONAL_REPRESENTATION('',(#976),#979);
#976 = B_SPLINE_CURVE_WITH_KNOTS('',1,(#977,#978),.UNSPECIFIED.,.F.,.F.,
  (2,2),(-5.520911949126,1.840303983042),.PIECEWISE_BEZIER_KNOTS.);
#977 = CARTESIAN_POINT('',(6.375,3.680607966084));
#978 = CARTESIAN_POINT('',(6.375,-3.680607966084));
#979 = ( GEOMETRIC_REPRESENTATION_CONTEXT(2) 
PARAMETRIC_REPRESENTATION_CONTEXT() REPRESENTATION_CONTEXT('2D SPACE',''
  ) );
#980 = PCURVE('',#663,#981);
#981 = DEFINITIONAL_REPRESENTATION('',(#982),#985);
#982 = B_SPLINE_CURVE_WITH_KNOTS('',1,(#983,#984),.UNSPECIFIED.,.F.,.F.,
  (2,2),(-5.520911949126,1.840303983042),.PIECEWISE_BEZIER_KNOTS.);
#983 = CARTESIAN_POINT('',(7.361215932168,-1.));
#984 = CARTESIAN_POINT('',(0.,-1.));
#985 = ( GEOMETRIC_REPRESENTATION_CONTEXT(2) 
PARAMETRIC_REPRESENTATION_CONTEXT() REPRESENTATION_CONTEXT('2D SPACE',''
  ) );
#986 = ADVANCED_FACE('',(#987),#228,.T.);
#987 = FACE_BOUND('',#988,.T.);
#988 = EDGE_LOOP('',(#989,#1010,#1011,#1012));
#989 = ORIENTED_EDGE('',*,*,#990,.F.);
#990 = EDGE_CURVE('',#820,#991,#993,.T.);
#991 = VERTEX_POINT('',#992);
#992 = CARTESIAN_POINT('',(-2.039607805437,-0.5,6.375));
#993 = SURFACE_CURVE('',#994,(#998,#1004),.PCURVE_S1.);
#994 = LINE('',#995,#996);
#995 = CARTESIAN_POINT('',(-5.,-0.5,6.375));
#996 = VECTOR('',#997,1.);
#997 = DIRECTION('',(1.,0.,0.));
#998 = PCURVE('',#228,#999);
#999 = DEFINITIONAL_REPRESENTATION('',(#1000),#1003);
#1000 = B_SPLINE_CURVE_WITH_KNOTS('',1,(#1001,#1002),.UNSPECIFIED.,.F.,
  .F.,(2,2),(1.,9.),.PIECEWISE_BEZIER_KNOTS.);
#1001 = CARTESIAN_POINT('',(3.875,1.));
#1002 = CARTESIAN_POINT('',(3.875,9.));
#1003 = ( GEOMETRIC_REPRESENTATION_CONTEXT(2) 
PARAMETRIC_REPRESENTATION_CONTEXT() REPRESENTATION_CONTEXT('2D SPACE',''
  ) );
#1004 = PCURVE('',#663,#1005);
#1005 = DEFINITIONAL_REPRESENTATION('',(#1006),#1009);
#1006 = B_SPLINE_CURVE_WITH_KNOTS('',1,(#1007,#1008),.UNSPECIFIED.,.F.,
  .F.,(2,2),(1.,9.),.PIECEWISE_BEZIER_KNOTS.);
#1007 = CARTESIAN_POINT('',(4.180607966084,-1.));
#1008 = CARTESIAN_POINT('',(4.180607966084,-9.));
#1009 = ( GEOMETRIC_REPRESENTATION_CONTEXT(2) 
PARAMETRIC_REPRESENTATION_CONTEXT() REPRESENTATION_CONTEXT('2D SPACE',''
  ) );
#1010 = ORIENTED_EDGE('',*,*,#819,.T.);
#1011 = ORIENTED_EDGE('',*,*,#213,.T.);
#1012 = ORIENTED_EDGE('',*,*,#1013,.F.);
#1013 = EDGE_CURVE('',#991,#84,#1014,.T.);
#1014 = SURFACE_CURVE('',#1015,(#1019,#1025),.PCURVE_S1.);
#1015 = LINE('',#1016,#1017);
#1016 = CARTESIAN_POINT('',(-2.039607805437,-0.5,-4.));
#1017 = VECTOR('',#1018,1.);
#1018 = DIRECTION('',(0.,0.,1.));
#1019 = PCURVE('',#228,#1020);
#1020 = DEFINITIONAL_REPRESENTATION('',(#1021),#1024);
#1021 = B_SPLINE_CURVE_WITH_KNOTS('',1,(#1022,#1023),.UNSPECIFIED.,.F.,
  .F.,(2,2),(9.813542119172,16.55103668911),.PIECEWISE_BEZIER_KNOTS.);
#1022 = CARTESIAN_POINT('',(3.313542119172,2.960392194563));
#1023 = CARTESIAN_POINT('',(10.05103668911,2.960392194563));
#1024 = ( GEOMETRIC_REPRESENTATION_CONTEXT(2) 
PARAMETRIC_REPRESENTATION_CONTEXT() REPRESENTATION_CONTEXT('2D SPACE',''
  ) );
#1025 = PCURVE('',#167,#1026);
#1026 = DEFINITIONAL_REPRESENTATION('',(#1027),#1030);
#1027 = B_SPLINE_CURVE_WITH_KNOTS('',1,(#1028,#1029),.UNSPECIFIED.,.F.,
  .F.,(2,2),(9.813542119172,16.55103668911),.PIECEWISE_BEZIER_KNOTS.);
#1028 = CARTESIAN_POINT('',(3.381996870359,9.813542119172));
#1029 = CARTESIAN_POINT('',(3.381996870359,16.55103668911));
#1030 = ( GEOMETRIC_REPRESENTATION_CONTEXT(2) 
PARAMETRIC_REPRESENTATION_CONTEXT() REPRESENTATION_CONTEXT('2D SPACE',''
  ) );
#1031 = ADVANCED_FACE('',(#1032),#167,.F.);
#1032 = FACE_BOUND('',#1033,.F.);
#1033 = EDGE_LOOP('',(#1034,#1035,#1036,#1064));
#1034 = ORIENTED_EDGE('',*,*,#83,.F.);
#1035 = ORIENTED_EDGE('',*,*,#1013,.F.);
#1036 = ORIENTED_EDGE('',*,*,#1037,.T.);
#1037 = EDGE_CURVE('',#991,#1038,#1040,.T.);
#1038 = VERTEX_POINT('',#1039);
#1039 = CARTESIAN_POINT('',(2.039607805437,-0.5,6.375));
#1040 = SURFACE_CURVE('',#1041,(#1046,#1053),.PCURVE_S1.);
#1041 = CIRCLE('',#1042,2.1);
#1042 = AXIS2_PLACEMENT_3D('',#1043,#1044,#1045);
#1043 = CARTESIAN_POINT('',(0.,0.,6.375));
#1044 = DIRECTION('',(0.,0.,1.));
#1045 = DIRECTION('',(1.,0.,-0.));
#1046 = PCURVE('',#167,#1047);
#1047 = DEFINITIONAL_REPRESENTATION('',(#1048),#1052);
#1048 = LINE('',#1049,#1050);
#1049 = CARTESIAN_POINT('',(0.,10.375));
#1050 = VECTOR('',#1051,1.);
#1051 = DIRECTION('',(1.,0.));
#1052 = ( GEOMETRIC_REPRESENTATION_CONTEXT(2) 
PARAMETRIC_REPRESENTATION_CONTEXT() REPRESENTATION_CONTEXT('2D SPACE',''
  ) );
#1053 = PCURVE('',#663,#1054);
#1054 = DEFINITIONAL_REPRESENTATION('',(#1055),#1063);
#1055 = ( BOUNDED_CURVE() B_SPLINE_CURVE(2,(#1056,#1057,#1058,#1059,
#1060,#1061,#1062),.UNSPECIFIED.,.T.,.F.) B_SPLINE_CURVE_WITH_KNOTS((1,2
    ,2,2,2,1),(-2.094395102393,0.,2.094395102393,4.188790204786,
6.28318530718,8.377580409573),.UNSPECIFIED.) CURVE() 
GEOMETRIC_REPRESENTATION_ITEM() RATIONAL_B_SPLINE_CURVE((1.,0.5,1.,0.5,
1.,0.5,1.)) REPRESENTATION_ITEM('') );
#1056 = CARTESIAN_POINT('',(3.680607966084,-7.1));
#1057 = CARTESIAN_POINT('',(4.330127018922E-02,-7.1));
#1058 = CARTESIAN_POINT('',(1.861954618137,-3.95));
#1059 = CARTESIAN_POINT('',(3.680607966084,-0.8));
#1060 = CARTESIAN_POINT('',(5.499261314031,-3.95));
#1061 = CARTESIAN_POINT('',(7.317914661979,-7.1));
#1062 = CARTESIAN_POINT('',(3.680607966084,-7.1));
#1063 = ( GEOMETRIC_REPRESENTATION_CONTEXT(2) 
PARAMETRIC_REPRESENTATION_CONTEXT() REPRESENTATION_CONTEXT('2D SPACE',''
  ) );
#1064 = ORIENTED_EDGE('',*,*,#1065,.T.);
#1065 = EDGE_CURVE('',#1038,#58,#1066,.T.);
#1066 = SURFACE_CURVE('',#1067,(#1071,#1077),.PCURVE_S1.);
#1067 = LINE('',#1068,#1069);
#1068 = CARTESIAN_POINT('',(2.039607805437,-0.5,-4.));
#1069 = VECTOR('',#1070,1.);
#1070 = DIRECTION('',(0.,0.,1.));
#1071 = PCURVE('',#167,#1072);
#1072 = DEFINITIONAL_REPRESENTATION('',(#1073),#1076);
#1073 = B_SPLINE_CURVE_WITH_KNOTS('',1,(#1074,#1075),.UNSPECIFIED.,.F.,
  .F.,(2,2),(9.813542119172,16.55103668911),.PIECEWISE_BEZIER_KNOTS.);
#1074 = CARTESIAN_POINT('',(6.04278109041,9.813542119172));
#1075 = CARTESIAN_POINT('',(6.04278109041,16.55103668911));
#1076 = ( GEOMETRIC_REPRESENTATION_CONTEXT(2) 
PARAMETRIC_REPRESENTATION_CONTEXT() REPRESENTATION_CONTEXT('2D SPACE',''
  ) );
#1077 = PCURVE('',#72,#1078);
#1078 = DEFINITIONAL_REPRESENTATION('',(#1079),#1082);
#1079 = B_SPLINE_CURVE_WITH_KNOTS('',1,(#1080,#1081),.UNSPECIFIED.,.F.,
  .F.,(2,2),(9.813542119172,16.55103668911),.PIECEWISE_BEZIER_KNOTS.);
#1080 = CARTESIAN_POINT('',(3.313542119172,7.039607805437));
#1081 = CARTESIAN_POINT('',(10.05103668911,7.039607805437));
#1082 = ( GEOMETRIC_REPRESENTATION_CONTEXT(2) 
PARAMETRIC_REPRESENTATION_CONTEXT() REPRESENTATION_CONTEXT('2D SPACE',''
  ) );
#1083 = ADVANCED_FACE('',(#1084),#72,.T.);
#1084 = FACE_BOUND('',#1085,.T.);
#1085 = EDGE_LOOP('',(#1086,#1105,#1106,#1107));
#1086 = ORIENTED_EDGE('',*,*,#1087,.F.);
#1087 = EDGE_CURVE('',#1038,#452,#1088,.T.);
#1088 = SURFACE_CURVE('',#1089,(#1093,#1099),.PCURVE_S1.);
#1089 = LINE('',#1090,#1091);
#1090 = CARTESIAN_POINT('',(-5.,-0.5,6.375));
#1091 = VECTOR('',#1092,1.);
#1092 = DIRECTION('',(1.,0.,0.));
#1093 = PCURVE('',#72,#1094);
#1094 = DEFINITIONAL_REPRESENTATION('',(#1095),#1098);
#1095 = B_SPLINE_CURVE_WITH_KNOTS('',1,(#1096,#1097),.UNSPECIFIED.,.F.,
  .F.,(2,2),(1.,9.),.PIECEWISE_BEZIER_KNOTS.);
#1096 = CARTESIAN_POINT('',(3.875,1.));
#1097 = CARTESIAN_POINT('',(3.875,9.));
#1098 = ( GEOMETRIC_REPRESENTATION_CONTEXT(2) 
PARAMETRIC_REPRESENTATION_CONTEXT() REPRESENTATION_CONTEXT('2D SPACE',''
  ) );
#1099 = PCURVE('',#663,#1100);
#1100 = DEFINITIONAL_REPRESENTATION('',(#1101),#1104);
#1101 = B_SPLINE_CURVE_WITH_KNOTS('',1,(#1102,#1103),.UNSPECIFIED.,.F.,
  .F.,(2,2),(1.,9.),.PIECEWISE_BEZIER_KNOTS.);
#1102 = CARTESIAN_POINT('',(4.180607966084,-1.));
#1103 = CARTESIAN_POINT('',(4.180607966084,-9.));
#1104 = ( GEOMETRIC_REPRESENTATION_CONTEXT(2) 
PARAMETRIC_REPRESENTATION_CONTEXT() REPRESENTATION_CONTEXT('2D SPACE',''
  ) );
#1105 = ORIENTED_EDGE('',*,*,#1065,.T.);
#1106 = ORIENTED_EDGE('',*,*,#57,.T.);
#1107 = ORIENTED_EDGE('',*,*,#451,.F.);
#1108 = ADVANCED_FACE('',(#1109),#663,.T.);
#1109 = FACE_BOUND('',#1110,.T.);
#1110 = EDGE_LOOP('',(#1111,#1132,#1133,#1134,#1135,#1136));
#1111 = ORIENTED_EDGE('',*,*,#1112,.F.);
#1112 = EDGE_CURVE('',#948,#625,#1113,.T.);
#1113 = SURFACE_CURVE('',#1114,(#1118,#1125),.PCURVE_S1.);
#1114 = LINE('',#1115,#1116);
#1115 = CARTESIAN_POINT('',(-5.,-3.680607966084,6.375));
#1116 = VECTOR('',#1117,1.);
#1117 = DIRECTION('',(1.,0.,0.));
#1118 = PCURVE('',#663,#1119);
#1119 = DEFINITIONAL_REPRESENTATION('',(#1120),#1124);
#1120 = LINE('',#1121,#1122);
#1121 = CARTESIAN_POINT('',(7.361215932168,0.));
#1122 = VECTOR('',#1123,1.);
#1123 = DIRECTION('',(0.,-1.));
#1124 = ( GEOMETRIC_REPRESENTATION_CONTEXT(2) 
PARAMETRIC_REPRESENTATION_CONTEXT() REPRESENTATION_CONTEXT('2D SPACE',''
  ) );
#1125 = PCURVE('',#639,#1126);
#1126 = DEFINITIONAL_REPRESENTATION('',(#1127),#1131);
#1127 = LINE('',#1128,#1129);
#1128 = CARTESIAN_POINT('',(0.,0.));
#1129 = VECTOR('',#1130,1.);
#1130 = DIRECTION('',(0.,-1.));
#1131 = ( GEOMETRIC_REPRESENTATION_CONTEXT(2) 
PARAMETRIC_REPRESENTATION_CONTEXT() REPRESENTATION_CONTEXT('2D SPACE',''
  ) );
#1132 = ORIENTED_EDGE('',*,*,#968,.T.);
#1133 = ORIENTED_EDGE('',*,*,#990,.T.);
#1134 = ORIENTED_EDGE('',*,*,#1037,.T.);
#1135 = ORIENTED_EDGE('',*,*,#1087,.T.);
#1136 = ORIENTED_EDGE('',*,*,#650,.F.);
#1137 = ADVANCED_FACE('',(#1138),#639,.T.);
#1138 = FACE_BOUND('',#1139,.T.);
#1139 = EDGE_LOOP('',(#1140,#1141,#1142,#1143));
#1140 = ORIENTED_EDGE('',*,*,#947,.T.);
#1141 = ORIENTED_EDGE('',*,*,#1112,.T.);
#1142 = ORIENTED_EDGE('',*,*,#624,.F.);
#1143 = ORIENTED_EDGE('',*,*,#1144,.F.);
#1144 = EDGE_CURVE('',#927,#599,#1145,.T.);
#1145 = SURFACE_CURVE('',#1146,(#1150,#1157),.PCURVE_S1.);
#1146 = LINE('',#1147,#1148);
#1147 = CARTESIAN_POINT('',(-5.,-7.361215932168,9.014889529162E-16));
#1148 = VECTOR('',#1149,1.);
#1149 = DIRECTION('',(1.,0.,0.));
#1150 = PCURVE('',#639,#1151);
#1151 = DEFINITIONAL_REPRESENTATION('',(#1152),#1156);
#1152 = LINE('',#1153,#1154);
#1153 = CARTESIAN_POINT('',(7.361215932168,0.));
#1154 = VECTOR('',#1155,1.);
#1155 = DIRECTION('',(0.,-1.));
#1156 = ( GEOMETRIC_REPRESENTATION_CONTEXT(2) 
PARAMETRIC_REPRESENTATION_CONTEXT() REPRESENTATION_CONTEXT('2D SPACE',''
  ) );
#1157 = PCURVE('',#613,#1158);
#1158 = DEFINITIONAL_REPRESENTATION('',(#1159),#1163);
#1159 = LINE('',#1160,#1161);
#1160 = CARTESIAN_POINT('',(0.,0.));
#1161 = VECTOR('',#1162,1.);
#1162 = DIRECTION('',(0.,-1.));
#1163 = ( GEOMETRIC_REPRESENTATION_CONTEXT(2) 
PARAMETRIC_REPRESENTATION_CONTEXT() REPRESENTATION_CONTEXT('2D SPACE',''
  ) );
#1164 = ADVANCED_FACE('',(#1165),#613,.T.);
#1165 = FACE_BOUND('',#1166,.T.);
#1166 = EDGE_LOOP('',(#1167,#1168,#1169,#1170));
#1167 = ORIENTED_EDGE('',*,*,#926,.T.);
#1168 = ORIENTED_EDGE('',*,*,#1144,.T.);
#1169 = ORIENTED_EDGE('',*,*,#598,.F.);
#1170 = ORIENTED_EDGE('',*,*,#1171,.F.);
#1171 = EDGE_CURVE('',#906,#573,#1172,.T.);
#1172 = SURFACE_CURVE('',#1173,(#1177,#1184),.PCURVE_S1.);
#1173 = LINE('',#1174,#1175);
#1174 = CARTESIAN_POINT('',(-5.,-3.680607966084,-6.375));
#1175 = VECTOR('',#1176,1.);
#1176 = DIRECTION('',(1.,0.,0.));
#1177 = PCURVE('',#613,#1178);
#1178 = DEFINITIONAL_REPRESENTATION('',(#1179),#1183);
#1179 = LINE('',#1180,#1181);
#1180 = CARTESIAN_POINT('',(7.361215932168,0.));
#1181 = VECTOR('',#1182,1.);
#1182 = DIRECTION('',(0.,-1.));
#1183 = ( GEOMETRIC_REPRESENTATION_CONTEXT(2) 
PARAMETRIC_REPRESENTATION_CONTEXT() REPRESENTATION_CONTEXT('2D SPACE',''
  ) );
#1184 = PCURVE('',#587,#1185);
#1185 = DEFINITIONAL_REPRESENTATION('',(#1186),#1190);
#1186 = LINE('',#1187,#1188);
#1187 = CARTESIAN_POINT('',(0.,0.));
#1188 = VECTOR('',#1189,1.);
#1189 = DIRECTION('',(0.,-1.));
#1190 = ( GEOMETRIC_REPRESENTATION_CONTEXT(2) 
PARAMETRIC_REPRESENTATION_CONTEXT() REPRESENTATION_CONTEXT('2D SPACE',''
  ) );
#1191 = ADVANCED_FACE('',(#1192),#587,.T.);
#1192 = FACE_BOUND('',#1193,.T.);
#1193 = EDGE_LOOP('',(#1194,#1195,#1196,#1197));
#1194 = ORIENTED_EDGE('',*,*,#905,.T.);
#1195 = ORIENTED_EDGE('',*,*,#1171,.T.);
#1196 = ORIENTED_EDGE('',*,*,#572,.F.);
#1197 = ORIENTED_EDGE('',*,*,#1198,.F.);
#1198 = EDGE_CURVE('',#885,#547,#1199,.T.);
#1199 = SURFACE_CURVE('',#1200,(#1204,#1211),.PCURVE_S1.);
#1200 = LINE('',#1201,#1202);
#1201 = CARTESIAN_POINT('',(-5.,3.680607966084,-6.375));
#1202 = VECTOR('',#1203,1.);
#1203 = DIRECTION('',(1.,0.,0.));
#1204 = PCURVE('',#587,#1205);
#1205 = DEFINITIONAL_REPRESENTATION('',(#1206),#1210);
#1206 = LINE('',#1207,#1208);
#1207 = CARTESIAN_POINT('',(7.361215932168,0.));
#1208 = VECTOR('',#1209,1.);
#1209 = DIRECTION('',(0.,-1.));
#1210 = ( GEOMETRIC_REPRESENTATION_CONTEXT(2) 
PARAMETRIC_REPRESENTATION_CONTEXT() REPRESENTATION_CONTEXT('2D SPACE',''
  ) );
#1211 = PCURVE('',#561,#1212);
#1212 = DEFINITIONAL_REPRESENTATION('',(#1213),#1217);
#1213 = LINE('',#1214,#1215);
#1214 = CARTESIAN_POINT('',(0.,0.));
#1215 = VECTOR('',#1216,1.);
#1216 = DIRECTION('',(0.,-1.));
#1217 = ( GEOMETRIC_REPRESENTATION_CONTEXT(2) 
PARAMETRIC_REPRESENTATION_CONTEXT() REPRESENTATION_CONTEXT('2D SPACE',''
  ) );
#1218 = ADVANCED_FACE('',(#1219),#561,.T.);
#1219 = FACE_BOUND('',#1220,.T.);
#1220 = EDGE_LOOP('',(#1221,#1222,#1223,#1224));
#1221 = ORIENTED_EDGE('',*,*,#884,.T.);
#1222 = ORIENTED_EDGE('',*,*,#1198,.T.);
#1223 = ORIENTED_EDGE('',*,*,#546,.F.);
#1224 = ORIENTED_EDGE('',*,*,#1225,.F.);
#1225 = EDGE_CURVE('',#864,#521,#1226,.T.);
#1226 = SURFACE_CURVE('',#1227,(#1231,#1238),.PCURVE_S1.);
#1227 = LINE('',#1228,#1229);
#1228 = CARTESIAN_POINT('',(-5.,7.361215932168,0.));
#1229 = VECTOR('',#1230,1.);
#1230 = DIRECTION('',(1.,0.,0.));
#1231 = PCURVE('',#561,#1232);
#1232 = DEFINITIONAL_REPRESENTATION('',(#1233),#1237);
#1233 = LINE('',#1234,#1235);
#1234 = CARTESIAN_POINT('',(7.361215932168,0.));
#1235 = VECTOR('',#1236,1.);
#1236 = DIRECTION('',(0.,-1.));
#1237 = ( GEOMETRIC_REPRESENTATION_CONTEXT(2) 
PARAMETRIC_REPRESENTATION_CONTEXT() REPRESENTATION_CONTEXT('2D SPACE',''
  ) );
#1238 = PCURVE('',#535,#1239);
#1239 = DEFINITIONAL_REPRESENTATION('',(#1240),#1244);
#1240 = LINE('',#1241,#1242);
#1241 = CARTESIAN_POINT('',(0.,0.));
#1242 = VECTOR('',#1243,1.);
#1243 = DIRECTION('',(0.,-1.));
#1244 = ( GEOMETRIC_REPRESENTATION_CONTEXT(2) 
PARAMETRIC_REPRESENTATION_CONTEXT() REPRESENTATION_CONTEXT('2D SPACE',''
  ) );
#1245 = ADVANCED_FACE('',(#1246),#535,.T.);
#1246 = FACE_BOUND('',#1247,.T.);
#1247 = EDGE_LOOP('',(#1248,#1249,#1250,#1251));
#1248 = ORIENTED_EDGE('',*,*,#863,.T.);
#1249 = ORIENTED_EDGE('',*,*,#1225,.T.);
#1250 = ORIENTED_EDGE('',*,*,#520,.F.);
#1251 = ORIENTED_EDGE('',*,*,#1252,.F.);
#1252 = EDGE_CURVE('',#843,#495,#1253,.T.);
#1253 = SURFACE_CURVE('',#1254,(#1258,#1265),.PCURVE_S1.);
#1254 = LINE('',#1255,#1256);
#1255 = CARTESIAN_POINT('',(-5.,3.680607966084,6.375));
#1256 = VECTOR('',#1257,1.);
#1257 = DIRECTION('',(1.,0.,0.));
#1258 = PCURVE('',#535,#1259);
#1259 = DEFINITIONAL_REPRESENTATION('',(#1260),#1264);
#1260 = LINE('',#1261,#1262);
#1261 = CARTESIAN_POINT('',(7.361215932168,0.));
#1262 = VECTOR('',#1263,1.);
#1263 = DIRECTION('',(0.,-1.));
#1264 = ( GEOMETRIC_REPRESENTATION_CONTEXT(2) 
PARAMETRIC_REPRESENTATION_CONTEXT() REPRESENTATION_CONTEXT('2D SPACE',''
  ) );
#1265 = PCURVE('',#509,#1266);
#1266 = DEFINITIONAL_REPRESENTATION('',(#1267),#1271);
#1267 = LINE('',#1268,#1269);
#1268 = CARTESIAN_POINT('',(0.,0.));
#1269 = VECTOR('',#1270,1.);
#1270 = DIRECTION('',(0.,-1.));
#1271 = ( GEOMETRIC_REPRESENTATION_CONTEXT(2) 
PARAMETRIC_REPRESENTATION_CONTEXT() REPRESENTATION_CONTEXT('2D SPACE',''
  ) );
#1272 = ADVANCED_FACE('',(#1273),#509,.T.);
#1273 = FACE_BOUND('',#1274,.T.);
#1274 = EDGE_LOOP('',(#1275,#1276,#1277,#1278,#1279,#1280));
#1275 = ORIENTED_EDGE('',*,*,#774,.F.);
#1276 = ORIENTED_EDGE('',*,*,#842,.T.);
#1277 = ORIENTED_EDGE('',*,*,#1252,.T.);
#1278 = ORIENTED_EDGE('',*,*,#494,.F.);
#1279 = ORIENTED_EDGE('',*,*,#677,.F.);
#1280 = ORIENTED_EDGE('',*,*,#724,.T.);
#1281 = ( GEOMETRIC_REPRESENTATION_CONTEXT(3) 
GLOBAL_UNCERTAINTY_ASSIGNED_CONTEXT((#1285)) 
GLOBAL_UNIT_ASSIGNED_CONTEXT((#1282,#1283,#1284)) REPRESENTATION_CONTEXT
('Context #1','3D Context with UNIT and UNCERTAINTY') );
#1282 = ( LENGTH_UNIT() NAMED_UNIT(*) SI_UNIT(.MILLI.,.METRE.) );
#1283 = ( NAMED_UNIT(*) PLANE_ANGLE_UNIT() SI_UNIT($,.RADIAN.) );
#1284 = ( NAMED_UNIT(*) SI_UNIT($,.STERADIAN.) SOLID_ANGLE_UNIT() );
#1285 = UNCERTAINTY_MEASURE_WITH_UNIT(LENGTH_MEASURE(2.E-07),#1282,
  'distance_accuracy_value','confusion accuracy');
#1286 = PRODUCT_RELATED_PRODUCT_CATEGORY('part',$,(#7));
ENDSEC;
END-ISO-10303-21;
