ISO-10303-21;
HEADER;
FILE_DESCRIPTION(('Open CASCADE Model'),'2;1');
FILE_NAME('Open CASCADE Shape Model','2026-09-13T12:47:37',('Author'),(
    'Open CASCADE'),'Open CASCADE STEP processor 7.8','Open CASCADE 7.8'
  ,'Unknown');
FILE_SCHEMA(('AUTOMOTIVE_DESIGN { 1 0 10303 214 1 1 1 1 }'));
ENDSEC;
DATA;
#1 = APPLICATION_PROTOCOL_DEFINITION('international standard',
  'automotive_design',2000,#2);
#2 = APPLICATION_CONTEXT(
  'core data for automotive mechanical design processes');
#3 = SHAPE_DEFINITION_REPRESENTATION(#4,#10);
#4 = PRODUCT_DEFINITION_SHAPE('','',#5);
#5 = PRODUCT_DEFINITION('design','',#6,#9);
#6 = PRODUCT_DEFINITION_FORMATION('','',#7);
#7 = PRODUCT('Open CASCADE STEP translator 7.8 16',
  'Open CASCADE STEP translator 7.8 16','',(#8));
#8 = PRODUCT_CONTEXT('',#2,'mechanical');
#9 = PRODUCT_DEFINITION_CONTEXT('part definition',#2,'design');
#10 = ADVANCED_BREP_SHAPE_REPRESENTATION('',(#11,#15),#1054);
#11 = AXIS2_PLACEMENT_3D('',#12,#13,#14);
#12 = CARTESIAN_POINT('',(0.,0.,0.));
#13 = DIRECTION('',(0.,0.,1.));
#14 = DIRECTION('',(1.,0.,-0.));
#15 = MANIFOLD_SOLID_BREP('',#16);
#16 = CLOSED_SHELL('',(#17,#487,#547,#704,#836,#886,#936,#963,#990,#1020
    ,#1047));
#17 = ADVANCED_FACE('',(#18,#316),#32,.T.);
#18 = FACE_BOUND('',#19,.T.);
#19 = EDGE_LOOP('',(#20,#50,#77,#78,#175,#198,#225,#226));
#20 = ORIENTED_EDGE('',*,*,#21,.T.);
#21 = EDGE_CURVE('',#22,#24,#26,.T.);
#22 = VERTEX_POINT('',#23);
#23 = CARTESIAN_POINT('',(2.1,1.82472373073E-15,17.));
#24 = VERTEX_POINT('',#25);
#25 = CARTESIAN_POINT('',(7.,4.163799117101E-15,17.));
#26 = SEAM_CURVE('',#27,(#31,#43),.PCURVE_S1.);
#27 = LINE('',#28,#29);
#28 = CARTESIAN_POINT('',(-7.,4.163799117101E-15,17.));
#29 = VECTOR('',#30,1.);
#30 = DIRECTION('',(1.,0.,0.));
#31 = PCURVE('',#32,#37);
#32 = CYLINDRICAL_SURFACE('',#33,17.);
#33 = AXIS2_PLACEMENT_3D('',#34,#35,#36);
#34 = CARTESIAN_POINT('',(-7.,0.,0.));
#35 = DIRECTION('',(1.,0.,0.));
#36 = DIRECTION('',(-0.,0.,1.));
#37 = DEFINITIONAL_REPRESENTATION('',(#38),#42);
#38 = LINE('',#39,#40);
#39 = CARTESIAN_POINT('',(6.28318530718,-0.));
#40 = VECTOR('',#41,1.);
#41 = DIRECTION('',(0.,1.));
#42 = ( GEOMETRIC_REPRESENTATION_CONTEXT(2) 
PARAMETRIC_REPRESENTATION_CONTEXT() REPRESENTATION_CONTEXT('2D SPACE',''
  ) );
#43 = PCURVE('',#32,#44);
#44 = DEFINITIONAL_REPRESENTATION('',(#45),#49);
#45 = LINE('',#46,#47);
#46 = CARTESIAN_POINT('',(0.,-0.));
#47 = VECTOR('',#48,1.);
#48 = DIRECTION('',(0.,1.));
#49 = ( GEOMETRIC_REPRESENTATION_CONTEXT(2) 
PARAMETRIC_REPRESENTATION_CONTEXT() REPRESENTATION_CONTEXT('2D SPACE',''
  ) );
#50 = ORIENTED_EDGE('',*,*,#51,.F.);
#51 = EDGE_CURVE('',#24,#24,#52,.T.);
#52 = SURFACE_CURVE('',#53,(#58,#65),.PCURVE_S1.);
#53 = CIRCLE('',#54,17.);
#54 = AXIS2_PLACEMENT_3D('',#55,#56,#57);
#55 = CARTESIAN_POINT('',(7.,0.,0.));
#56 = DIRECTION('',(1.,0.,0.));
#57 = DIRECTION('',(-0.,0.,1.));
#58 = PCURVE('',#32,#59);
#59 = DEFINITIONAL_REPRESENTATION('',(#60),#64);
#60 = LINE('',#61,#62);
#61 = CARTESIAN_POINT('',(0.,14.));
#62 = VECTOR('',#63,1.);
#63 = DIRECTION('',(1.,0.));
#64 = ( GEOMETRIC_REPRESENTATION_CONTEXT(2) 
PARAMETRIC_REPRESENTATION_CONTEXT() REPRESENTATION_CONTEXT('2D SPACE',''
  ) );
#65 = PCURVE('',#66,#71);
#66 = PLANE('',#67);
#67 = AXIS2_PLACEMENT_3D('',#68,#69,#70);
#68 = CARTESIAN_POINT('',(7.,0.,0.));
#69 = DIRECTION('',(1.,0.,0.));
#70 = DIRECTION('',(-0.,0.,1.));
#71 = DEFINITIONAL_REPRESENTATION('',(#72),#76);
#72 = CIRCLE('',#73,17.);
#73 = AXIS2_PLACEMENT_2D('',#74,#75);
#74 = CARTESIAN_POINT('',(0.,0.));
#75 = DIRECTION('',(1.,0.));
#76 = ( GEOMETRIC_REPRESENTATION_CONTEXT(2) 
PARAMETRIC_REPRESENTATION_CONTEXT() REPRESENTATION_CONTEXT('2D SPACE',''
  ) );
#77 = ORIENTED_EDGE('',*,*,#21,.F.);
#78 = ORIENTED_EDGE('',*,*,#79,.F.);
#79 = EDGE_CURVE('',#80,#22,#82,.T.);
#80 = VERTEX_POINT('',#81);
#81 = CARTESIAN_POINT('',(-2.1,4.163799117101E-15,17.));
#82 = SURFACE_CURVE('',#83,(#110,#140),.PCURVE_S1.);
#83 = B_SPLINE_CURVE_WITH_KNOTS('',7,(#84,#85,#86,#87,#88,#89,#90,#91,
    #92,#93,#94,#95,#96,#97,#98,#99,#100,#101,#102,#103,#104,#105,#106,
    #107,#108,#109),.UNSPECIFIED.,.F.,.F.,(8,6,6,6,8),(0.,0.245413438469
    ,0.500053663044,0.754693165598,1.),.UNSPECIFIED.);
#84 = CARTESIAN_POINT('',(-2.1,4.440892098501E-16,17.));
#85 = CARTESIAN_POINT('',(-2.1,-0.27899941845,17.));
#86 = CARTESIAN_POINT('',(-2.056755626913,-0.550472901491,
    16.994657900753));
#87 = CARTESIAN_POINT('',(-1.974463131762,-0.806637734836,
    16.984493160459));
#88 = CARTESIAN_POINT('',(-1.858790815705,-1.041038338694,
    16.970884385458));
#89 = CARTESIAN_POINT('',(-1.716819137908,-1.248771335965,
    16.955713808497));
#90 = CARTESIAN_POINT('',(-1.556945775955,-1.426953058062,
    16.940660624667));
#91 = CARTESIAN_POINT('',(-1.214240602409,-1.72908831076,16.912543569717
    ));
#92 = CARTESIAN_POINT('',(-1.026061333041,-1.854903581117,
    16.899189364119));
#93 = CARTESIAN_POINT('',(-0.82870465797,-1.953860779536,16.887763039315
    ));
#94 = CARTESIAN_POINT('',(-0.625301358331,-2.027148891724,
    16.878864306999));
#95 = CARTESIAN_POINT('',(-0.418170904514,-2.075693230289,
    16.872821245869));
#96 = CARTESIAN_POINT('',(-0.209172225227,-2.1,16.869795493722));
#97 = CARTESIAN_POINT('',(0.209171632129,-2.1,16.869795493722));
#98 = CARTESIAN_POINT('',(0.418175024607,-2.075693389921,16.872821225281
    ));
#99 = CARTESIAN_POINT('',(0.625308422804,-2.027147043265,16.87886453764)
  );
#100 = CARTESIAN_POINT('',(0.828708776622,-1.953857705366,16.88776342707
    ));
#101 = CARTESIAN_POINT('',(1.026058627963,-1.854903375824,
    16.899189278446));
#102 = CARTESIAN_POINT('',(1.214234987154,-1.729093261272,
    16.912543109017));
#103 = CARTESIAN_POINT('',(1.55687860241,-1.427012279508,16.940655113451
    ));
#104 = CARTESIAN_POINT('',(1.716790485895,-1.248826379456,
    16.955709905447));
#105 = CARTESIAN_POINT('',(1.858820169593,-1.041032242295,
    16.970886704407));
#106 = CARTESIAN_POINT('',(1.974520194984,-0.806547213736,
    16.984500225935));
#107 = CARTESIAN_POINT('',(2.056795725308,-0.550323989144,
    16.994662851203));
#108 = CARTESIAN_POINT('',(2.1,-0.278870054211,17.));
#109 = CARTESIAN_POINT('',(2.1,-4.440892098501E-16,17.));
#110 = PCURVE('',#32,#111);
#111 = DEFINITIONAL_REPRESENTATION('',(#112),#139);
#112 = B_SPLINE_CURVE_WITH_KNOTS('',7,(#113,#114,#115,#116,#117,#118,
    #119,#120,#121,#122,#123,#124,#125,#126,#127,#128,#129,#130,#131,
    #132,#133,#134,#135,#136,#137,#138),.UNSPECIFIED.,.F.,.F.,(8,6,6,6,8
    ),(0.,0.245413438469,0.500053663044,0.754693165598,1.),
  .UNSPECIFIED.);
#113 = CARTESIAN_POINT('',(0.,4.9));
#114 = CARTESIAN_POINT('',(1.641173049704E-02,4.9));
#115 = CARTESIAN_POINT('',(3.238076693968E-02,4.943244373087));
#116 = CARTESIAN_POINT('',(4.745646157512E-02,5.025536868238));
#117 = CARTESIAN_POINT('',(6.126477432895E-02,5.141209184295));
#118 = CARTESIAN_POINT('',(7.351561280852E-02,5.283180862092));
#119 = CARTESIAN_POINT('',(8.403383995422E-02,5.443054224045));
#120 = CARTESIAN_POINT('',(0.101883294959,5.785759397591));
#121 = CARTESIAN_POINT('',(0.109325141712,5.973938666959));
#122 = CARTESIAN_POINT('',(0.115184616033,6.17129534203));
#123 = CARTESIAN_POINT('',(0.119527318498,6.374698641669));
#124 = CARTESIAN_POINT('',(0.122404910313,6.581829095486));
#125 = CARTESIAN_POINT('',(0.123845755375,6.790827774773));
#126 = CARTESIAN_POINT('',(0.123845755375,7.209171632129));
#127 = CARTESIAN_POINT('',(0.122404919808,7.418175024607));
#128 = CARTESIAN_POINT('',(0.119527208836,7.625308422804));
#129 = CARTESIAN_POINT('',(0.115184433914,7.828708776621));
#130 = CARTESIAN_POINT('',(0.109325130166,8.026058627963));
#131 = CARTESIAN_POINT('',(0.101883587423,8.214234987154));
#132 = CARTESIAN_POINT('',(8.403733862088E-02,8.55687860241));
#133 = CARTESIAN_POINT('',(7.351885822396E-02,8.716790485895));
#134 = CARTESIAN_POINT('',(6.126440501337E-02,8.858820169593));
#135 = CARTESIAN_POINT('',(4.74511259259E-02,8.974520194984));
#136 = CARTESIAN_POINT('',(3.23720075359E-02,9.056795725308));
#137 = CARTESIAN_POINT('',(1.640412083596E-02,9.1));
#138 = CARTESIAN_POINT('',(0.,9.1));
#139 = ( GEOMETRIC_REPRESENTATION_CONTEXT(2) 
PARAMETRIC_REPRESENTATION_CONTEXT() REPRESENTATION_CONTEXT('2D SPACE',''
  ) );
#140 = PCURVE('',#141,#146);
#141 = CYLINDRICAL_SURFACE('',#142,2.1);
#142 = AXIS2_PLACEMENT_3D('',#143,#144,#145);
#143 = CARTESIAN_POINT('',(0.,0.,-18.));
#144 = DIRECTION('',(0.,0.,1.));
#145 = DIRECTION('',(1.,0.,-0.));
#146 = DEFINITIONAL_REPRESENTATION('',(#147),#174);
#147 = B_SPLINE_CURVE_WITH_KNOTS('',7,(#148,#149,#150,#151,#152,#153,
    #154,#155,#156,#157,#158,#159,#160,#161,#162,#163,#164,#165,#166,
    #167,#168,#169,#170,#171,#172,#173),.UNSPECIFIED.,.F.,.F.,(8,6,6,6,8
    ),(0.,0.245413438469,0.500053663044,0.754693165598,1.),
  .UNSPECIFIED.);
#148 = CARTESIAN_POINT('',(3.14159265359,35.));
#149 = CARTESIAN_POINT('',(3.274449519518,35.));
#150 = CARTESIAN_POINT('',(3.403722513504,34.994657900753));
#151 = CARTESIAN_POINT('',(3.529536325039,34.984493160459));
#152 = CARTESIAN_POINT('',(3.651716686035,34.970884385458));
#153 = CARTESIAN_POINT('',(3.76983320233,34.955713808497));
#154 = CARTESIAN_POINT('',(3.883050635392,34.940660624667));
#155 = CARTESIAN_POINT('',(4.100609002934,34.912543569717));
#156 = CARTESIAN_POINT('',(4.207446494201,34.899189364119));
#157 = CARTESIAN_POINT('',(4.311324231844,34.887763039315));
#158 = CARTESIAN_POINT('',(4.413011756179,34.878864306999));
#159 = CARTESIAN_POINT('',(4.513260136265,34.872821245869));
#160 = CARTESIAN_POINT('',(4.612783158848,34.869795493722));
#161 = CARTESIAN_POINT('',(4.811994519494,34.869795493722));
#162 = CARTESIAN_POINT('',(4.91151977607,34.872821225281));
#163 = CARTESIAN_POINT('',(5.011769581217,34.87886453764));
#164 = CARTESIAN_POINT('',(5.113455966673,34.88776342707));
#165 = CARTESIAN_POINT('',(5.217330562445,34.899189278446));
#166 = CARTESIAN_POINT('',(5.324165393123,34.912543109017));
#167 = CARTESIAN_POINT('',(5.541684681823,34.940655113451));
#168 = CARTESIAN_POINT('',(5.65491720423,34.955709905447));
#169 = CARTESIAN_POINT('',(5.773071231937,34.970886704407));
#170 = CARTESIAN_POINT('',(5.895289999892,34.984500225935));
#171 = CARTESIAN_POINT('',(6.02112637111,34.994662851203));
#172 = CARTESIAN_POINT('',(6.150390043269,35.));
#173 = CARTESIAN_POINT('',(6.28318530718,35.));
#174 = ( GEOMETRIC_REPRESENTATION_CONTEXT(2) 
PARAMETRIC_REPRESENTATION_CONTEXT() REPRESENTATION_CONTEXT('2D SPACE',''
  ) );
#175 = ORIENTED_EDGE('',*,*,#176,.F.);
#176 = EDGE_CURVE('',#177,#80,#179,.T.);
#177 = VERTEX_POINT('',#178);
#178 = CARTESIAN_POINT('',(-7.,4.163799117101E-15,17.));
#179 = SEAM_CURVE('',#180,(#184,#191),.PCURVE_S1.);
#180 = LINE('',#181,#182);
#181 = CARTESIAN_POINT('',(-7.,4.163799117101E-15,17.));
#182 = VECTOR('',#183,1.);
#183 = DIRECTION('',(1.,0.,0.));
#184 = PCURVE('',#32,#185);
#185 = DEFINITIONAL_REPRESENTATION('',(#186),#190);
#186 = LINE('',#187,#188);
#187 = CARTESIAN_POINT('',(6.28318530718,-0.));
#188 = VECTOR('',#189,1.);
#189 = DIRECTION('',(0.,1.));
#190 = ( GEOMETRIC_REPRESENTATION_CONTEXT(2) 
PARAMETRIC_REPRESENTATION_CONTEXT() REPRESENTATION_CONTEXT('2D SPACE',''
  ) );
#191 = PCURVE('',#32,#192);
#192 = DEFINITIONAL_REPRESENTATION('',(#193),#197);
#193 = LINE('',#194,#195);
#194 = CARTESIAN_POINT('',(0.,-0.));
#195 = VECTOR('',#196,1.);
#196 = DIRECTION('',(0.,1.));
#197 = ( GEOMETRIC_REPRESENTATION_CONTEXT(2) 
PARAMETRIC_REPRESENTATION_CONTEXT() REPRESENTATION_CONTEXT('2D SPACE',''
  ) );
#198 = ORIENTED_EDGE('',*,*,#199,.T.);
#199 = EDGE_CURVE('',#177,#177,#200,.T.);
#200 = SURFACE_CURVE('',#201,(#206,#213),.PCURVE_S1.);
#201 = CIRCLE('',#202,17.);
#202 = AXIS2_PLACEMENT_3D('',#203,#204,#205);
#203 = CARTESIAN_POINT('',(-7.,0.,0.));
#204 = DIRECTION('',(1.,0.,0.));
#205 = DIRECTION('',(-0.,0.,1.));
#206 = PCURVE('',#32,#207);
#207 = DEFINITIONAL_REPRESENTATION('',(#208),#212);
#208 = LINE('',#209,#210);
#209 = CARTESIAN_POINT('',(0.,0.));
#210 = VECTOR('',#211,1.);
#211 = DIRECTION('',(1.,0.));
#212 = ( GEOMETRIC_REPRESENTATION_CONTEXT(2) 
PARAMETRIC_REPRESENTATION_CONTEXT() REPRESENTATION_CONTEXT('2D SPACE',''
  ) );
#213 = PCURVE('',#214,#219);
#214 = PLANE('',#215);
#215 = AXIS2_PLACEMENT_3D('',#216,#217,#218);
#216 = CARTESIAN_POINT('',(-7.,0.,0.));
#217 = DIRECTION('',(1.,0.,0.));
#218 = DIRECTION('',(-0.,0.,1.));
#219 = DEFINITIONAL_REPRESENTATION('',(#220),#224);
#220 = CIRCLE('',#221,17.);
#221 = AXIS2_PLACEMENT_2D('',#222,#223);
#222 = CARTESIAN_POINT('',(0.,0.));
#223 = DIRECTION('',(1.,0.));
#224 = ( GEOMETRIC_REPRESENTATION_CONTEXT(2) 
PARAMETRIC_REPRESENTATION_CONTEXT() REPRESENTATION_CONTEXT('2D SPACE',''
  ) );
#225 = ORIENTED_EDGE('',*,*,#176,.T.);
#226 = ORIENTED_EDGE('',*,*,#227,.F.);
#227 = EDGE_CURVE('',#22,#80,#228,.T.);
#228 = SURFACE_CURVE('',#229,(#256,#286),.PCURVE_S1.);
#229 = B_SPLINE_CURVE_WITH_KNOTS('',7,(#230,#231,#232,#233,#234,#235,
    #236,#237,#238,#239,#240,#241,#242,#243,#244,#245,#246,#247,#248,
    #249,#250,#251,#252,#253,#254,#255),.UNSPECIFIED.,.F.,.F.,(8,6,6,6,8
    ),(0.,0.245388204781,0.500010346582,0.754645727992,1.),
  .UNSPECIFIED.);
#230 = CARTESIAN_POINT('',(2.1,1.82472373073E-15,17.));
#231 = CARTESIAN_POINT('',(2.1,0.278999418449,17.));
#232 = CARTESIAN_POINT('',(2.056755626913,0.550472901491,16.994657900753
    ));
#233 = CARTESIAN_POINT('',(1.974463131763,0.806637734835,16.984493160459
    ));
#234 = CARTESIAN_POINT('',(1.858790815704,1.041038338695,16.970884385458
    ));
#235 = CARTESIAN_POINT('',(1.716819137908,1.248771335965,16.955713808497
    ));
#236 = CARTESIAN_POINT('',(1.556945775955,1.426953058062,16.940660624667
    ));
#237 = CARTESIAN_POINT('',(1.214235050869,1.7290932051,16.912543114244)
  );
#238 = CARTESIAN_POINT('',(1.026060501835,1.854901793688,16.899189425933
    ));
#239 = CARTESIAN_POINT('',(0.82871052161,1.953857542309,16.887763503364)
  );
#240 = CARTESIAN_POINT('',(0.625305894419,2.027149266282,16.8788642531)
  );
#241 = CARTESIAN_POINT('',(0.418166319286,2.075695874102,16.872820918917
    ));
#242 = CARTESIAN_POINT('',(0.209160749736,2.1,16.869795493722));
#243 = CARTESIAN_POINT('',(-0.209171625486,2.1,16.869795493722));
#244 = CARTESIAN_POINT('',(-0.418175040845,2.075693391604,
    16.872821225149));
#245 = CARTESIAN_POINT('',(-0.625308411066,2.027147035299,
    16.878864538349));
#246 = CARTESIAN_POINT('',(-0.828708770785,1.953857720333,
    16.887763425674));
#247 = CARTESIAN_POINT('',(-1.026058640929,1.854903362392,
    16.899189279712));
#248 = CARTESIAN_POINT('',(-1.214234981357,1.729093266383,
    16.912543108541));
#249 = CARTESIAN_POINT('',(-1.556913841393,1.426981212166,
    16.940658004614));
#250 = CARTESIAN_POINT('',(-1.716800978252,1.248801523859,
    16.955711583142));
#251 = CARTESIAN_POINT('',(-1.858800272501,1.04104297115,16.970884917));
#252 = CARTESIAN_POINT('',(-1.974489427278,0.806600866758,16.98449640028
    ));
#253 = CARTESIAN_POINT('',(-2.056776171408,0.550401825964,
    16.994660441865));
#254 = CARTESIAN_POINT('',(-2.1,0.278933156591,17.));
#255 = CARTESIAN_POINT('',(-2.1,2.467663300282E-15,17.));
#256 = PCURVE('',#32,#257);
#257 = DEFINITIONAL_REPRESENTATION('',(#258),#285);
#258 = B_SPLINE_CURVE_WITH_KNOTS('',7,(#259,#260,#261,#262,#263,#264,
    #265,#266,#267,#268,#269,#270,#271,#272,#273,#274,#275,#276,#277,
    #278,#279,#280,#281,#282,#283,#284),.UNSPECIFIED.,.F.,.F.,(8,6,6,6,8
    ),(0.,0.245388204781,0.500010346582,0.754645727992,1.),
  .UNSPECIFIED.);
#259 = CARTESIAN_POINT('',(6.28318530718,9.1));
#260 = CARTESIAN_POINT('',(6.266773576683,9.1));
#261 = CARTESIAN_POINT('',(6.25080454024,9.056755626913));
#262 = CARTESIAN_POINT('',(6.235728845605,8.974463131763));
#263 = CARTESIAN_POINT('',(6.221920532851,8.858790815704));
#264 = CARTESIAN_POINT('',(6.209669694371,8.716819137908));
#265 = CARTESIAN_POINT('',(6.199151467225,8.556945775955));
#266 = CARTESIAN_POINT('',(6.181301723075,8.214235050869));
#267 = CARTESIAN_POINT('',(6.173860270454,8.026060501835));
#268 = CARTESIAN_POINT('',(6.168000883341,7.82871052161));
#269 = CARTESIAN_POINT('',(6.163657966482,7.625305894419));
#270 = CARTESIAN_POINT('',(6.160780240153,7.418166319286));
#271 = CARTESIAN_POINT('',(6.159339551804,7.209160749736));
#272 = CARTESIAN_POINT('',(6.159339551804,6.790828374514));
#273 = CARTESIAN_POINT('',(6.160780387272,6.581824959155));
#274 = CARTESIAN_POINT('',(6.163658098814,6.374691588934));
#275 = CARTESIAN_POINT('',(6.168000872382,6.171291229215));
#276 = CARTESIAN_POINT('',(6.173860177808,5.973941359071));
#277 = CARTESIAN_POINT('',(6.181301719454,5.785765018643));
#278 = CARTESIAN_POINT('',(6.199149803946,5.443086158607));
#279 = CARTESIAN_POINT('',(6.209667913922,5.283199021748));
#280 = CARTESIAN_POINT('',(6.221920264532,5.141199727499));
#281 = CARTESIAN_POINT('',(6.23573101974,5.025510572722));
#282 = CARTESIAN_POINT('',(6.250808721168,4.943223828592));
#283 = CARTESIAN_POINT('',(6.266777474439,4.9));
#284 = CARTESIAN_POINT('',(6.28318530718,4.9));
#285 = ( GEOMETRIC_REPRESENTATION_CONTEXT(2) 
PARAMETRIC_REPRESENTATION_CONTEXT() REPRESENTATION_CONTEXT('2D SPACE',''
  ) );
#286 = PCURVE('',#141,#287);
#287 = DEFINITIONAL_REPRESENTATION('',(#288),#315);
#288 = B_SPLINE_CURVE_WITH_KNOTS('',7,(#289,#290,#291,#292,#293,#294,
    #295,#296,#297,#298,#299,#300,#301,#302,#303,#304,#305,#306,#307,
    #308,#309,#310,#311,#312,#313,#314),.UNSPECIFIED.,.F.,.F.,(8,6,6,6,8
    ),(0.,0.245388204781,0.500010346582,0.754645727992,1.),
  .UNSPECIFIED.);
#289 = CARTESIAN_POINT('',(0.,35.));
#290 = CARTESIAN_POINT('',(0.132856865928,35.));
#291 = CARTESIAN_POINT('',(0.262129859914,34.994657900753));
#292 = CARTESIAN_POINT('',(0.387943671449,34.984493160459));
#293 = CARTESIAN_POINT('',(0.510124032446,34.970884385458));
#294 = CARTESIAN_POINT('',(0.62824054874,34.955713808497));
#295 = CARTESIAN_POINT('',(0.741457981802,34.940660624667));
#296 = CARTESIAN_POINT('',(0.959019873609,34.912543114244));
#297 = CARTESIAN_POINT('',(1.065853585147,34.899189425933));
#298 = CARTESIAN_POINT('',(1.16972863053,34.887763503364));
#299 = CARTESIAN_POINT('',(1.271417201679,34.8788642531));
#300 = CARTESIAN_POINT('',(1.371669661727,34.872820918917));
#301 = CARTESIAN_POINT('',(1.471195969778,34.869795493722));
#302 = CARTESIAN_POINT('',(1.67040186274,34.869795493722));
#303 = CARTESIAN_POINT('',(1.769927129815,34.872821225149));
#304 = CARTESIAN_POINT('',(1.870176923585,34.878864538349));
#305 = CARTESIAN_POINT('',(1.971863307637,34.887763425674));
#306 = CARTESIAN_POINT('',(2.07573791738,34.899189279712));
#307 = CARTESIAN_POINT('',(2.182572735853,34.912543108541));
#308 = CARTESIAN_POINT('',(2.400114398878,34.940658004614));
#309 = CARTESIAN_POINT('',(2.513336115462,34.955711583142));
#310 = CARTESIAN_POINT('',(2.631469387111,34.970884917));
#311 = CARTESIAN_POINT('',(2.753669231281,34.98449640028));
#312 = CARTESIAN_POINT('',(2.879496646385,34.994660441865));
#313 = CARTESIAN_POINT('',(3.008767340927,35.));
#314 = CARTESIAN_POINT('',(3.14159265359,35.));
#315 = ( GEOMETRIC_REPRESENTATION_CONTEXT(2) 
PARAMETRIC_REPRESENTATION_CONTEXT() REPRESENTATION_CONTEXT('2D SPACE',''
  ) );
#316 = FACE_BOUND('',#317,.T.);
#317 = EDGE_LOOP('',(#318));
#318 = ORIENTED_EDGE('',*,*,#319,.T.);
#319 = EDGE_CURVE('',#320,#320,#322,.T.);
#320 = VERTEX_POINT('',#321);
#321 = CARTESIAN_POINT('',(2.1,-5.143516556419E-16,-17.));
#322 = SURFACE_CURVE('',#323,(#374,#428),.PCURVE_S1.);
#323 = B_SPLINE_CURVE_WITH_KNOTS('',7,(#324,#325,#326,#327,#328,#329,
    #330,#331,#332,#333,#334,#335,#336,#337,#338,#339,#340,#341,#342,
    #343,#344,#345,#346,#347,#348,#349,#350,#351,#352,#353,#354,#355,
    #356,#357,#358,#359,#360,#361,#362,#363,#364,#365,#366,#367,#368,
    #369,#370,#371,#372,#373),.UNSPECIFIED.,.T.,.F.,(8,6,6,6,6,6,6,6,8),
  (0.,0.122694327723,0.250005627981,0.377323548148,0.500000909325,
    0.622707413076,0.750027297454,0.87734681348,1.),.UNSPECIFIED.);
#324 = CARTESIAN_POINT('',(2.1,-1.33226762955E-15,-17.));
#325 = CARTESIAN_POINT('',(2.1,0.27899941845,-17.));
#326 = CARTESIAN_POINT('',(2.056755626913,0.550472901491,-16.99465790075
    ));
#327 = CARTESIAN_POINT('',(1.974463131762,0.806637734836,-16.98449316045
    ));
#328 = CARTESIAN_POINT('',(1.858790815705,1.041038338694,-16.97088438545
    ));
#329 = CARTESIAN_POINT('',(1.716819137907,1.248771335965,-16.95571380849
    ));
#330 = CARTESIAN_POINT('',(1.556945775955,1.426953058062,-16.94066062466
    ));
#331 = CARTESIAN_POINT('',(1.214235056973,1.729093199719,-16.91254311474
    ));
#332 = CARTESIAN_POINT('',(1.026060488515,1.854901807554,-16.89918942462
    ));
#333 = CARTESIAN_POINT('',(0.828710527083,1.953857527286,-16.88776350476
    ));
#334 = CARTESIAN_POINT('',(0.625305906625,2.027149274003,-16.8788642524)
  );
#335 = CARTESIAN_POINT('',(0.418166303431,2.075695872483,-16.87282091904
    ));
#336 = CARTESIAN_POINT('',(0.209160756228,2.1,-16.86979549372));
#337 = CARTESIAN_POINT('',(-0.209171632129,2.1,-16.86979549372));
#338 = CARTESIAN_POINT('',(-0.418175024607,2.075693389921,
    -16.87282122528));
#339 = CARTESIAN_POINT('',(-0.625308422804,2.027147043265,
    -16.87886453764));
#340 = CARTESIAN_POINT('',(-0.828708776622,1.953857705366,
    -16.88776342707));
#341 = CARTESIAN_POINT('',(-1.026058627963,1.854903375824,
    -16.89918927844));
#342 = CARTESIAN_POINT('',(-1.214234987154,1.729093261272,
    -16.91254310901));
#343 = CARTESIAN_POINT('',(-1.556913841393,1.426981212166,
    -16.94065800461));
#344 = CARTESIAN_POINT('',(-1.716800978251,1.248801523859,
    -16.95571158314));
#345 = CARTESIAN_POINT('',(-1.858800272502,1.04104297115,-16.970884917)
  );
#346 = CARTESIAN_POINT('',(-1.974489427278,0.806600866758,
    -16.98449640028));
#347 = CARTESIAN_POINT('',(-2.056776171408,0.550401825964,
    -16.99466044186));
#348 = CARTESIAN_POINT('',(-2.1,0.278933156591,-17.));
#349 = CARTESIAN_POINT('',(-2.1,-0.27899941845,-17.));
#350 = CARTESIAN_POINT('',(-2.056755626913,-0.550472901491,
    -16.99465790075));
#351 = CARTESIAN_POINT('',(-1.974463131762,-0.806637734836,
    -16.98449316045));
#352 = CARTESIAN_POINT('',(-1.858790815705,-1.041038338694,
    -16.97088438545));
#353 = CARTESIAN_POINT('',(-1.716819137908,-1.248771335966,
    -16.95571380849));
#354 = CARTESIAN_POINT('',(-1.556945775955,-1.426953058062,
    -16.94066062466));
#355 = CARTESIAN_POINT('',(-1.214240608334,-1.729088305535,
    -16.9125435702));
#356 = CARTESIAN_POINT('',(-1.026061320087,-1.854903594578,
    -16.89918936285));
#357 = CARTESIAN_POINT('',(-0.828704663356,-1.95386076498,
    -16.88776304066));
#358 = CARTESIAN_POINT('',(-0.625301370058,-2.027148899093,
    -16.87886430635));
#359 = CARTESIAN_POINT('',(-0.418170889515,-2.075693228877,
    -16.87282124597));
#360 = CARTESIAN_POINT('',(-0.209172230648,-2.1,-16.86979549372));
#361 = CARTESIAN_POINT('',(0.209171625486,-2.1,-16.86979549372));
#362 = CARTESIAN_POINT('',(0.418175040844,-2.075693391604,
    -16.87282122514));
#363 = CARTESIAN_POINT('',(0.625308411068,-2.027147035298,
    -16.87886453835));
#364 = CARTESIAN_POINT('',(0.828708770783,-1.953857720333,
    -16.88776342567));
#365 = CARTESIAN_POINT('',(1.02605864093,-1.854903362391,-16.89918927971
    ));
#366 = CARTESIAN_POINT('',(1.214234981357,-1.729093266383,
    -16.91254310854));
#367 = CARTESIAN_POINT('',(1.556878602441,-1.427012279481,
    -16.94065511345));
#368 = CARTESIAN_POINT('',(1.716790485886,-1.24882637945,-16.95570990544
    ));
#369 = CARTESIAN_POINT('',(1.858820169572,-1.041032242322,-16.9708867044
    ));
#370 = CARTESIAN_POINT('',(1.974520194978,-0.806547213768,
    -16.98450022593));
#371 = CARTESIAN_POINT('',(2.05679572532,-0.550323989139,-16.9946628512)
  );
#372 = CARTESIAN_POINT('',(2.1,-0.278870054174,-17.));
#373 = CARTESIAN_POINT('',(2.1,-1.33226762955E-15,-17.));
#374 = PCURVE('',#32,#375);
#375 = DEFINITIONAL_REPRESENTATION('',(#376),#427);
#376 = B_SPLINE_CURVE_WITH_KNOTS('',7,(#377,#378,#379,#380,#381,#382,
    #383,#384,#385,#386,#387,#388,#389,#390,#391,#392,#393,#394,#395,
    #396,#397,#398,#399,#400,#401,#402,#403,#404,#405,#406,#407,#408,
    #409,#410,#411,#412,#413,#414,#415,#416,#417,#418,#419,#420,#421,
    #422,#423,#424,#425,#426),.UNSPECIFIED.,.T.,.F.,(8,6,6,6,6,6,6,6,8),
  (0.,0.122694327723,0.250005627981,0.377323548148,0.500000909325,
    0.622707413076,0.750027297454,0.87734681348,1.),.UNSPECIFIED.);
#377 = CARTESIAN_POINT('',(3.14159265359,9.1));
#378 = CARTESIAN_POINT('',(3.158004384087,9.1));
#379 = CARTESIAN_POINT('',(3.173973420529,9.056755626913));
#380 = CARTESIAN_POINT('',(3.189049115165,8.974463131762));
#381 = CARTESIAN_POINT('',(3.202857427919,8.858790815705));
#382 = CARTESIAN_POINT('',(3.215108266398,8.716819137907));
#383 = CARTESIAN_POINT('',(3.225626493544,8.556945775955));
#384 = CARTESIAN_POINT('',(3.243476237377,8.214235056973));
#385 = CARTESIAN_POINT('',(3.250917691135,8.026060488515));
#386 = CARTESIAN_POINT('',(3.25677707654,7.828710527083));
#387 = CARTESIAN_POINT('',(3.261119994743,7.625305906625));
#388 = CARTESIAN_POINT('',(3.263997720521,7.418166303431));
#389 = CARTESIAN_POINT('',(3.265438408965,7.209160756228));
#390 = CARTESIAN_POINT('',(3.265438408965,6.790828367871));
#391 = CARTESIAN_POINT('',(3.263997573398,6.581824975393));
#392 = CARTESIAN_POINT('',(3.261119862425,6.374691577196));
#393 = CARTESIAN_POINT('',(3.256777087503,6.171291223378));
#394 = CARTESIAN_POINT('',(3.250917783755,5.973941372037));
#395 = CARTESIAN_POINT('',(3.243476241013,5.785765012846));
#396 = CARTESIAN_POINT('',(3.225628156824,5.443086158607));
#397 = CARTESIAN_POINT('',(3.215110046847,5.283199021748));
#398 = CARTESIAN_POINT('',(3.202857696237,5.141199727498));
#399 = CARTESIAN_POINT('',(3.18904694103,5.025510572722));
#400 = CARTESIAN_POINT('',(3.173969239602,4.943223828592));
#401 = CARTESIAN_POINT('',(3.15800048633,4.9));
#402 = CARTESIAN_POINT('',(3.125180923093,4.9));
#403 = CARTESIAN_POINT('',(3.10921188665,4.943244373087));
#404 = CARTESIAN_POINT('',(3.094136192015,5.025536868238));
#405 = CARTESIAN_POINT('',(3.080327879261,5.141209184295));
#406 = CARTESIAN_POINT('',(3.068077040781,5.283180862092));
#407 = CARTESIAN_POINT('',(3.057558813636,5.443054224045));
#408 = CARTESIAN_POINT('',(3.03970935894,5.785759391666));
#409 = CARTESIAN_POINT('',(3.032267511083,5.973938679913));
#410 = CARTESIAN_POINT('',(3.026408038417,6.171295336644));
#411 = CARTESIAN_POINT('',(3.022065334657,6.374698629942));
#412 = CARTESIAN_POINT('',(3.01918774336,6.581829110485));
#413 = CARTESIAN_POINT('',(3.017746898214,6.790827769352));
#414 = CARTESIAN_POINT('',(3.017746898214,7.209171625486));
#415 = CARTESIAN_POINT('',(3.019187733682,7.418175040844));
#416 = CARTESIAN_POINT('',(3.022065445225,7.625308411068));
#417 = CARTESIAN_POINT('',(3.026408218792,7.828708770783));
#418 = CARTESIAN_POINT('',(3.032267524218,8.02605864093));
#419 = CARTESIAN_POINT('',(3.039709065864,8.214234981357));
#420 = CARTESIAN_POINT('',(3.057555314971,8.556878602441));
#421 = CARTESIAN_POINT('',(3.068073795366,8.716790485886));
#422 = CARTESIAN_POINT('',(3.080328248575,8.858820169572));
#423 = CARTESIAN_POINT('',(3.094141527662,8.974520194978));
#424 = CARTESIAN_POINT('',(3.109220646054,9.05679572532));
#425 = CARTESIAN_POINT('',(3.125188532756,9.1));
#426 = CARTESIAN_POINT('',(3.14159265359,9.1));
#427 = ( GEOMETRIC_REPRESENTATION_CONTEXT(2) 
PARAMETRIC_REPRESENTATION_CONTEXT() REPRESENTATION_CONTEXT('2D SPACE',''
  ) );
#428 = PCURVE('',#429,#434);
#429 = CYLINDRICAL_SURFACE('',#430,2.1);
#430 = AXIS2_PLACEMENT_3D('',#431,#432,#433);
#431 = CARTESIAN_POINT('',(0.,0.,-18.));
#432 = DIRECTION('',(0.,0.,1.));
#433 = DIRECTION('',(1.,0.,-0.));
#434 = DEFINITIONAL_REPRESENTATION('',(#435),#486);
#435 = B_SPLINE_CURVE_WITH_KNOTS('',7,(#436,#437,#438,#439,#440,#441,
    #442,#443,#444,#445,#446,#447,#448,#449,#450,#451,#452,#453,#454,
    #455,#456,#457,#458,#459,#460,#461,#462,#463,#464,#465,#466,#467,
    #468,#469,#470,#471,#472,#473,#474,#475,#476,#477,#478,#479,#480,
    #481,#482,#483,#484,#485),.UNSPECIFIED.,.F.,.F.,(8,6,6,6,6,6,6,6,8),
  (0.,0.122694327723,0.250005627981,0.377323548148,0.500000909325,
    0.622707413076,0.750027297454,0.87734681348,1.),.UNSPECIFIED.);
#436 = CARTESIAN_POINT('',(0.,1.));
#437 = CARTESIAN_POINT('',(0.132856865928,1.));
#438 = CARTESIAN_POINT('',(0.262129859914,1.005342099247));
#439 = CARTESIAN_POINT('',(0.38794367145,1.015506839541));
#440 = CARTESIAN_POINT('',(0.510124032445,1.029115614542));
#441 = CARTESIAN_POINT('',(0.62824054874,1.044286191503));
#442 = CARTESIAN_POINT('',(0.741457981802,1.059339375333));
#443 = CARTESIAN_POINT('',(0.959019869734,1.087456885255));
#444 = CARTESIAN_POINT('',(1.065853593911,1.100810575375));
#445 = CARTESIAN_POINT('',(1.169728625259,1.112236495233));
#446 = CARTESIAN_POINT('',(1.271417197349,1.121135747591));
#447 = CARTESIAN_POINT('',(1.371669668913,1.127179080952));
#448 = CARTESIAN_POINT('',(1.471195966686,1.130204506278));
#449 = CARTESIAN_POINT('',(1.670401865904,1.130204506278));
#450 = CARTESIAN_POINT('',(1.76992712248,1.127178774719));
#451 = CARTESIAN_POINT('',(1.870176927627,1.12113546236));
#452 = CARTESIAN_POINT('',(1.971863313083,1.11223657293));
#453 = CARTESIAN_POINT('',(2.075737908855,1.100810721554));
#454 = CARTESIAN_POINT('',(2.182572739533,1.087456890983));
#455 = CARTESIAN_POINT('',(2.400114398878,1.059341995386));
#456 = CARTESIAN_POINT('',(2.513336115462,1.044288416858));
#457 = CARTESIAN_POINT('',(2.631469387111,1.029115083));
#458 = CARTESIAN_POINT('',(2.753669231282,1.01550359972));
#459 = CARTESIAN_POINT('',(2.879496646385,1.005339558135));
#460 = CARTESIAN_POINT('',(3.008767340927,1.));
#461 = CARTESIAN_POINT('',(3.274449519518,1.));
#462 = CARTESIAN_POINT('',(3.403722513504,1.005342099247));
#463 = CARTESIAN_POINT('',(3.529536325039,1.015506839541));
#464 = CARTESIAN_POINT('',(3.651716686035,1.029115614542));
#465 = CARTESIAN_POINT('',(3.76983320233,1.044286191503));
#466 = CARTESIAN_POINT('',(3.883050635391,1.059339375333));
#467 = CARTESIAN_POINT('',(4.100608999172,1.087456429796));
#468 = CARTESIAN_POINT('',(4.207446502738,1.100810637146));
#469 = CARTESIAN_POINT('',(4.311324226644,1.112236959337));
#470 = CARTESIAN_POINT('',(4.413011752085,1.121135693644));
#471 = CARTESIAN_POINT('',(4.513260143038,1.127178754028));
#472 = CARTESIAN_POINT('',(4.612783156266,1.130204506278));
#473 = CARTESIAN_POINT('',(4.81199451633,1.130204506278));
#474 = CARTESIAN_POINT('',(4.911519783404,1.127178774851));
#475 = CARTESIAN_POINT('',(5.011769577175,1.12113546165));
#476 = CARTESIAN_POINT('',(5.113455961226,1.112236574326));
#477 = CARTESIAN_POINT('',(5.217330570971,1.100810720288));
#478 = CARTESIAN_POINT('',(5.324165389443,1.087456891459));
#479 = CARTESIAN_POINT('',(5.541684681843,1.059344886546));
#480 = CARTESIAN_POINT('',(5.654917204229,1.044290094553));
#481 = CARTESIAN_POINT('',(5.773071231921,1.029113295596));
#482 = CARTESIAN_POINT('',(5.895289999879,1.015499774065));
#483 = CARTESIAN_POINT('',(6.021126371112,1.005337148796));
#484 = CARTESIAN_POINT('',(6.150390043287,1.));
#485 = CARTESIAN_POINT('',(6.28318530718,1.));
#486 = ( GEOMETRIC_REPRESENTATION_CONTEXT(2) 
PARAMETRIC_REPRESENTATION_CONTEXT() REPRESENTATION_CONTEXT('2D SPACE',''
  ) );
#487 = ADVANCED_FACE('',(#488),#141,.F.);
#488 = FACE_BOUND('',#489,.F.);
#489 = EDGE_LOOP('',(#490,#491,#514,#545,#546));
#490 = ORIENTED_EDGE('',*,*,#227,.F.);
#491 = ORIENTED_EDGE('',*,*,#492,.F.);
#492 = EDGE_CURVE('',#493,#22,#495,.T.);
#493 = VERTEX_POINT('',#494);
#494 = CARTESIAN_POINT('',(2.1,-5.143516556419E-16,6.375));
#495 = SEAM_CURVE('',#496,(#500,#507),.PCURVE_S1.);
#496 = LINE('',#497,#498);
#497 = CARTESIAN_POINT('',(2.1,-5.143516556419E-16,-18.));
#498 = VECTOR('',#499,1.);
#499 = DIRECTION('',(0.,0.,1.));
#500 = PCURVE('',#141,#501);
#501 = DEFINITIONAL_REPRESENTATION('',(#502),#506);
#502 = LINE('',#503,#504);
#503 = CARTESIAN_POINT('',(6.28318530718,-0.));
#504 = VECTOR('',#505,1.);
#505 = DIRECTION('',(0.,1.));
#506 = ( GEOMETRIC_REPRESENTATION_CONTEXT(2) 
PARAMETRIC_REPRESENTATION_CONTEXT() REPRESENTATION_CONTEXT('2D SPACE',''
  ) );
#507 = PCURVE('',#141,#508);
#508 = DEFINITIONAL_REPRESENTATION('',(#509),#513);
#509 = LINE('',#510,#511);
#510 = CARTESIAN_POINT('',(0.,-0.));
#511 = VECTOR('',#512,1.);
#512 = DIRECTION('',(0.,1.));
#513 = ( GEOMETRIC_REPRESENTATION_CONTEXT(2) 
PARAMETRIC_REPRESENTATION_CONTEXT() REPRESENTATION_CONTEXT('2D SPACE',''
  ) );
#514 = ORIENTED_EDGE('',*,*,#515,.T.);
#515 = EDGE_CURVE('',#493,#493,#516,.T.);
#516 = SURFACE_CURVE('',#517,(#522,#529),.PCURVE_S1.);
#517 = CIRCLE('',#518,2.1);
#518 = AXIS2_PLACEMENT_3D('',#519,#520,#521);
#519 = CARTESIAN_POINT('',(0.,0.,6.375));
#520 = DIRECTION('',(0.,0.,1.));
#521 = DIRECTION('',(1.,0.,-0.));
#522 = PCURVE('',#141,#523);
#523 = DEFINITIONAL_REPRESENTATION('',(#524),#528);
#524 = LINE('',#525,#526);
#525 = CARTESIAN_POINT('',(0.,24.375));
#526 = VECTOR('',#527,1.);
#527 = DIRECTION('',(1.,0.));
#528 = ( GEOMETRIC_REPRESENTATION_CONTEXT(2) 
PARAMETRIC_REPRESENTATION_CONTEXT() REPRESENTATION_CONTEXT('2D SPACE',''
  ) );
#529 = PCURVE('',#530,#535);
#530 = PLANE('',#531);
#531 = AXIS2_PLACEMENT_3D('',#532,#533,#534);
#532 = CARTESIAN_POINT('',(-8.,3.680607966084,6.375));
#533 = DIRECTION('',(0.,-1.206564822829E-16,-1.));
#534 = DIRECTION('',(0.,-1.,1.206564822829E-16));
#535 = DEFINITIONAL_REPRESENTATION('',(#536),#544);
#536 = ( BOUNDED_CURVE() B_SPLINE_CURVE(2,(#537,#538,#539,#540,#541,#542
,#543),.UNSPECIFIED.,.T.,.F.) B_SPLINE_CURVE_WITH_KNOTS((1,2,2,2,2,1),(
    -2.094395102393,0.,2.094395102393,4.188790204786,6.28318530718,
8.377580409573),.UNSPECIFIED.) CURVE() GEOMETRIC_REPRESENTATION_ITEM() 
RATIONAL_B_SPLINE_CURVE((1.,0.5,1.,0.5,1.,0.5,1.)) REPRESENTATION_ITEM(
  '') );
#537 = CARTESIAN_POINT('',(3.680607966084,-10.1));
#538 = CARTESIAN_POINT('',(4.330127018922E-02,-10.1));
#539 = CARTESIAN_POINT('',(1.861954618137,-6.95));
#540 = CARTESIAN_POINT('',(3.680607966084,-3.8));
#541 = CARTESIAN_POINT('',(5.499261314031,-6.95));
#542 = CARTESIAN_POINT('',(7.317914661979,-10.1));
#543 = CARTESIAN_POINT('',(3.680607966084,-10.1));
#544 = ( GEOMETRIC_REPRESENTATION_CONTEXT(2) 
PARAMETRIC_REPRESENTATION_CONTEXT() REPRESENTATION_CONTEXT('2D SPACE',''
  ) );
#545 = ORIENTED_EDGE('',*,*,#492,.T.);
#546 = ORIENTED_EDGE('',*,*,#79,.F.);
#547 = ADVANCED_FACE('',(#548,#551),#214,.F.);
#548 = FACE_BOUND('',#549,.F.);
#549 = EDGE_LOOP('',(#550));
#550 = ORIENTED_EDGE('',*,*,#199,.T.);
#551 = FACE_BOUND('',#552,.F.);
#552 = EDGE_LOOP('',(#553,#576,#602,#628,#654,#680));
#553 = ORIENTED_EDGE('',*,*,#554,.T.);
#554 = EDGE_CURVE('',#555,#557,#559,.T.);
#555 = VERTEX_POINT('',#556);
#556 = CARTESIAN_POINT('',(-7.,-3.680607966084,6.375));
#557 = VERTEX_POINT('',#558);
#558 = CARTESIAN_POINT('',(-7.,3.680607966084,6.375));
#559 = SURFACE_CURVE('',#560,(#564,#570),.PCURVE_S1.);
#560 = LINE('',#561,#562);
#561 = CARTESIAN_POINT('',(-7.,1.840303983042,6.375));
#562 = VECTOR('',#563,1.);
#563 = DIRECTION('',(0.,1.,-1.206564822829E-16));
#564 = PCURVE('',#214,#565);
#565 = DEFINITIONAL_REPRESENTATION('',(#566),#569);
#566 = B_SPLINE_CURVE_WITH_KNOTS('',1,(#567,#568),.UNSPECIFIED.,.F.,.F.,
  (2,2),(-5.520911949126,1.840303983042),.PIECEWISE_BEZIER_KNOTS.);
#567 = CARTESIAN_POINT('',(6.375,3.680607966084));
#568 = CARTESIAN_POINT('',(6.375,-3.680607966084));
#569 = ( GEOMETRIC_REPRESENTATION_CONTEXT(2) 
PARAMETRIC_REPRESENTATION_CONTEXT() REPRESENTATION_CONTEXT('2D SPACE',''
  ) );
#570 = PCURVE('',#530,#571);
#571 = DEFINITIONAL_REPRESENTATION('',(#572),#575);
#572 = B_SPLINE_CURVE_WITH_KNOTS('',1,(#573,#574),.UNSPECIFIED.,.F.,.F.,
  (2,2),(-5.520911949126,1.840303983042),.PIECEWISE_BEZIER_KNOTS.);
#573 = CARTESIAN_POINT('',(7.361215932168,-1.));
#574 = CARTESIAN_POINT('',(0.,-1.));
#575 = ( GEOMETRIC_REPRESENTATION_CONTEXT(2) 
PARAMETRIC_REPRESENTATION_CONTEXT() REPRESENTATION_CONTEXT('2D SPACE',''
  ) );
#576 = ORIENTED_EDGE('',*,*,#577,.T.);
#577 = EDGE_CURVE('',#557,#578,#580,.T.);
#578 = VERTEX_POINT('',#579);
#579 = CARTESIAN_POINT('',(-7.,7.361215932168,0.));
#580 = SURFACE_CURVE('',#581,(#585,#591),.PCURVE_S1.);
#581 = LINE('',#582,#583);
#582 = CARTESIAN_POINT('',(-7.,6.441063940647,1.59375));
#583 = VECTOR('',#584,1.);
#584 = DIRECTION('',(0.,0.5,-0.866025403784));
#585 = PCURVE('',#214,#586);
#586 = DEFINITIONAL_REPRESENTATION('',(#587),#590);
#587 = B_SPLINE_CURVE_WITH_KNOTS('',1,(#588,#589),.UNSPECIFIED.,.F.,.F.,
  (2,2),(-5.520911949126,1.840303983042),.PIECEWISE_BEZIER_KNOTS.);
#588 = CARTESIAN_POINT('',(6.375,-3.680607966084));
#589 = CARTESIAN_POINT('',(0.,-7.361215932168));
#590 = ( GEOMETRIC_REPRESENTATION_CONTEXT(2) 
PARAMETRIC_REPRESENTATION_CONTEXT() REPRESENTATION_CONTEXT('2D SPACE',''
  ) );
#591 = PCURVE('',#592,#597);
#592 = PLANE('',#593);
#593 = AXIS2_PLACEMENT_3D('',#594,#595,#596);
#594 = CARTESIAN_POINT('',(-8.,7.361215932168,0.));
#595 = DIRECTION('',(0.,-0.866025403784,-0.5));
#596 = DIRECTION('',(0.,-0.5,0.866025403784));
#597 = DEFINITIONAL_REPRESENTATION('',(#598),#601);
#598 = B_SPLINE_CURVE_WITH_KNOTS('',1,(#599,#600),.UNSPECIFIED.,.F.,.F.,
  (2,2),(-5.520911949126,1.840303983042),.PIECEWISE_BEZIER_KNOTS.);
#599 = CARTESIAN_POINT('',(7.361215932168,-1.));
#600 = CARTESIAN_POINT('',(0.,-1.));
#601 = ( GEOMETRIC_REPRESENTATION_CONTEXT(2) 
PARAMETRIC_REPRESENTATION_CONTEXT() REPRESENTATION_CONTEXT('2D SPACE',''
  ) );
#602 = ORIENTED_EDGE('',*,*,#603,.T.);
#603 = EDGE_CURVE('',#578,#604,#606,.T.);
#604 = VERTEX_POINT('',#605);
#605 = CARTESIAN_POINT('',(-7.,3.680607966084,-6.375));
#606 = SURFACE_CURVE('',#607,(#611,#617),.PCURVE_S1.);
#607 = LINE('',#608,#609);
#608 = CARTESIAN_POINT('',(-7.,4.600759957605,-4.78125));
#609 = VECTOR('',#610,1.);
#610 = DIRECTION('',(0.,-0.5,-0.866025403784));
#611 = PCURVE('',#214,#612);
#612 = DEFINITIONAL_REPRESENTATION('',(#613),#616);
#613 = B_SPLINE_CURVE_WITH_KNOTS('',1,(#614,#615),.UNSPECIFIED.,.F.,.F.,
  (2,2),(-5.520911949126,1.840303983042),.PIECEWISE_BEZIER_KNOTS.);
#614 = CARTESIAN_POINT('',(8.881784197001E-16,-7.361215932168));
#615 = CARTESIAN_POINT('',(-6.375,-3.680607966084));
#616 = ( GEOMETRIC_REPRESENTATION_CONTEXT(2) 
PARAMETRIC_REPRESENTATION_CONTEXT() REPRESENTATION_CONTEXT('2D SPACE',''
  ) );
#617 = PCURVE('',#618,#623);
#618 = PLANE('',#619);
#619 = AXIS2_PLACEMENT_3D('',#620,#621,#622);
#620 = CARTESIAN_POINT('',(-8.,3.680607966084,-6.375));
#621 = DIRECTION('',(0.,-0.866025403784,0.5));
#622 = DIRECTION('',(0.,0.5,0.866025403784));
#623 = DEFINITIONAL_REPRESENTATION('',(#624),#627);
#624 = B_SPLINE_CURVE_WITH_KNOTS('',1,(#625,#626),.UNSPECIFIED.,.F.,.F.,
  (2,2),(-5.520911949126,1.840303983042),.PIECEWISE_BEZIER_KNOTS.);
#625 = CARTESIAN_POINT('',(7.361215932168,-1.));
#626 = CARTESIAN_POINT('',(0.,-1.));
#627 = ( GEOMETRIC_REPRESENTATION_CONTEXT(2) 
PARAMETRIC_REPRESENTATION_CONTEXT() REPRESENTATION_CONTEXT('2D SPACE',''
  ) );
#628 = ORIENTED_EDGE('',*,*,#629,.T.);
#629 = EDGE_CURVE('',#604,#630,#632,.T.);
#630 = VERTEX_POINT('',#631);
#631 = CARTESIAN_POINT('',(-7.,-3.680607966084,-6.375));
#632 = SURFACE_CURVE('',#633,(#637,#643),.PCURVE_S1.);
#633 = LINE('',#634,#635);
#634 = CARTESIAN_POINT('',(-7.,-1.840303983042,-6.375));
#635 = VECTOR('',#636,1.);
#636 = DIRECTION('',(0.,-1.,1.206564822829E-16));
#637 = PCURVE('',#214,#638);
#638 = DEFINITIONAL_REPRESENTATION('',(#639),#642);
#639 = B_SPLINE_CURVE_WITH_KNOTS('',1,(#640,#641),.UNSPECIFIED.,.F.,.F.,
  (2,2),(-5.520911949126,1.840303983042),.PIECEWISE_BEZIER_KNOTS.);
#640 = CARTESIAN_POINT('',(-6.375,-3.680607966084));
#641 = CARTESIAN_POINT('',(-6.375,3.680607966084));
#642 = ( GEOMETRIC_REPRESENTATION_CONTEXT(2) 
PARAMETRIC_REPRESENTATION_CONTEXT() REPRESENTATION_CONTEXT('2D SPACE',''
  ) );
#643 = PCURVE('',#644,#649);
#644 = PLANE('',#645);
#645 = AXIS2_PLACEMENT_3D('',#646,#647,#648);
#646 = CARTESIAN_POINT('',(-8.,-3.680607966084,-6.375));
#647 = DIRECTION('',(-0.,1.206564822829E-16,1.));
#648 = DIRECTION('',(0.,1.,-1.206564822829E-16));
#649 = DEFINITIONAL_REPRESENTATION('',(#650),#653);
#650 = B_SPLINE_CURVE_WITH_KNOTS('',1,(#651,#652),.UNSPECIFIED.,.F.,.F.,
  (2,2),(-5.520911949126,1.840303983042),.PIECEWISE_BEZIER_KNOTS.);
#651 = CARTESIAN_POINT('',(7.361215932168,-1.));
#652 = CARTESIAN_POINT('',(0.,-1.));
#653 = ( GEOMETRIC_REPRESENTATION_CONTEXT(2) 
PARAMETRIC_REPRESENTATION_CONTEXT() REPRESENTATION_CONTEXT('2D SPACE',''
  ) );
#654 = ORIENTED_EDGE('',*,*,#655,.T.);
#655 = EDGE_CURVE('',#630,#656,#658,.T.);
#656 = VERTEX_POINT('',#657);
#657 = CARTESIAN_POINT('',(-7.,-7.361215932168,9.014889529162E-16));
#658 = SURFACE_CURVE('',#659,(#663,#669),.PCURVE_S1.);
#659 = LINE('',#660,#661);
#660 = CARTESIAN_POINT('',(-7.,-6.441063940647,-1.59375));
#661 = VECTOR('',#662,1.);
#662 = DIRECTION('',(0.,-0.5,0.866025403784));
#663 = PCURVE('',#214,#664);
#664 = DEFINITIONAL_REPRESENTATION('',(#665),#668);
#665 = B_SPLINE_CURVE_WITH_KNOTS('',1,(#666,#667),.UNSPECIFIED.,.F.,.F.,
  (2,2),(-5.520911949126,1.840303983042),.PIECEWISE_BEZIER_KNOTS.);
#666 = CARTESIAN_POINT('',(-6.375,3.680607966084));
#667 = CARTESIAN_POINT('',(8.881784197001E-16,7.361215932168));
#668 = ( GEOMETRIC_REPRESENTATION_CONTEXT(2) 
PARAMETRIC_REPRESENTATION_CONTEXT() REPRESENTATION_CONTEXT('2D SPACE',''
  ) );
#669 = PCURVE('',#670,#675);
#670 = PLANE('',#671);
#671 = AXIS2_PLACEMENT_3D('',#672,#673,#674);
#672 = CARTESIAN_POINT('',(-8.,-7.361215932168,9.014889529162E-16));
#673 = DIRECTION('',(-0.,0.866025403784,0.5));
#674 = DIRECTION('',(0.,0.5,-0.866025403784));
#675 = DEFINITIONAL_REPRESENTATION('',(#676),#679);
#676 = B_SPLINE_CURVE_WITH_KNOTS('',1,(#677,#678),.UNSPECIFIED.,.F.,.F.,
  (2,2),(-5.520911949126,1.840303983042),.PIECEWISE_BEZIER_KNOTS.);
#677 = CARTESIAN_POINT('',(7.361215932168,-1.));
#678 = CARTESIAN_POINT('',(0.,-1.));
#679 = ( GEOMETRIC_REPRESENTATION_CONTEXT(2) 
PARAMETRIC_REPRESENTATION_CONTEXT() REPRESENTATION_CONTEXT('2D SPACE',''
  ) );
#680 = ORIENTED_EDGE('',*,*,#681,.T.);
#681 = EDGE_CURVE('',#656,#555,#682,.T.);
#682 = SURFACE_CURVE('',#683,(#687,#693),.PCURVE_S1.);
#683 = LINE('',#684,#685);
#684 = CARTESIAN_POINT('',(-7.,-4.600759957605,4.78125));
#685 = VECTOR('',#686,1.);
#686 = DIRECTION('',(-0.,0.5,0.866025403784));
#687 = PCURVE('',#214,#688);
#688 = DEFINITIONAL_REPRESENTATION('',(#689),#692);
#689 = B_SPLINE_CURVE_WITH_KNOTS('',1,(#690,#691),.UNSPECIFIED.,.F.,.F.,
  (2,2),(-5.520911949126,1.840303983042),.PIECEWISE_BEZIER_KNOTS.);
#690 = CARTESIAN_POINT('',(8.881784197001E-16,7.361215932168));
#691 = CARTESIAN_POINT('',(6.375,3.680607966084));
#692 = ( GEOMETRIC_REPRESENTATION_CONTEXT(2) 
PARAMETRIC_REPRESENTATION_CONTEXT() REPRESENTATION_CONTEXT('2D SPACE',''
  ) );
#693 = PCURVE('',#694,#699);
#694 = PLANE('',#695);
#695 = AXIS2_PLACEMENT_3D('',#696,#697,#698);
#696 = CARTESIAN_POINT('',(-8.,-3.680607966084,6.375));
#697 = DIRECTION('',(0.,0.866025403784,-0.5));
#698 = DIRECTION('',(0.,-0.5,-0.866025403784));
#699 = DEFINITIONAL_REPRESENTATION('',(#700),#703);
#700 = B_SPLINE_CURVE_WITH_KNOTS('',1,(#701,#702),.UNSPECIFIED.,.F.,.F.,
  (2,2),(-5.520911949126,1.840303983042),.PIECEWISE_BEZIER_KNOTS.);
#701 = CARTESIAN_POINT('',(7.361215932168,-1.));
#702 = CARTESIAN_POINT('',(0.,-1.));
#703 = ( GEOMETRIC_REPRESENTATION_CONTEXT(2) 
PARAMETRIC_REPRESENTATION_CONTEXT() REPRESENTATION_CONTEXT('2D SPACE',''
  ) );
#704 = ADVANCED_FACE('',(#705,#708),#66,.T.);
#705 = FACE_BOUND('',#706,.T.);
#706 = EDGE_LOOP('',(#707));
#707 = ORIENTED_EDGE('',*,*,#51,.T.);
#708 = FACE_BOUND('',#709,.T.);
#709 = EDGE_LOOP('',(#710,#733,#754,#775,#796,#817));
#710 = ORIENTED_EDGE('',*,*,#711,.T.);
#711 = EDGE_CURVE('',#712,#714,#716,.T.);
#712 = VERTEX_POINT('',#713);
#713 = CARTESIAN_POINT('',(7.,-3.680607966084,6.375));
#714 = VERTEX_POINT('',#715);
#715 = CARTESIAN_POINT('',(7.,3.680607966084,6.375));
#716 = SURFACE_CURVE('',#717,(#721,#727),.PCURVE_S1.);
#717 = LINE('',#718,#719);
#718 = CARTESIAN_POINT('',(7.,1.840303983042,6.375));
#719 = VECTOR('',#720,1.);
#720 = DIRECTION('',(0.,1.,-1.206564822829E-16));
#721 = PCURVE('',#66,#722);
#722 = DEFINITIONAL_REPRESENTATION('',(#723),#726);
#723 = B_SPLINE_CURVE_WITH_KNOTS('',1,(#724,#725),.UNSPECIFIED.,.F.,.F.,
  (2,2),(-5.520911949126,1.840303983042),.PIECEWISE_BEZIER_KNOTS.);
#724 = CARTESIAN_POINT('',(6.375,3.680607966084));
#725 = CARTESIAN_POINT('',(6.375,-3.680607966084));
#726 = ( GEOMETRIC_REPRESENTATION_CONTEXT(2) 
PARAMETRIC_REPRESENTATION_CONTEXT() REPRESENTATION_CONTEXT('2D SPACE',''
  ) );
#727 = PCURVE('',#530,#728);
#728 = DEFINITIONAL_REPRESENTATION('',(#729),#732);
#729 = B_SPLINE_CURVE_WITH_KNOTS('',1,(#730,#731),.UNSPECIFIED.,.F.,.F.,
  (2,2),(-5.520911949126,1.840303983042),.PIECEWISE_BEZIER_KNOTS.);
#730 = CARTESIAN_POINT('',(7.361215932168,-15.));
#731 = CARTESIAN_POINT('',(0.,-15.));
#732 = ( GEOMETRIC_REPRESENTATION_CONTEXT(2) 
PARAMETRIC_REPRESENTATION_CONTEXT() REPRESENTATION_CONTEXT('2D SPACE',''
  ) );
#733 = ORIENTED_EDGE('',*,*,#734,.T.);
#734 = EDGE_CURVE('',#714,#735,#737,.T.);
#735 = VERTEX_POINT('',#736);
#736 = CARTESIAN_POINT('',(7.,7.361215932168,0.));
#737 = SURFACE_CURVE('',#738,(#742,#748),.PCURVE_S1.);
#738 = LINE('',#739,#740);
#739 = CARTESIAN_POINT('',(7.,6.441063940647,1.59375));
#740 = VECTOR('',#741,1.);
#741 = DIRECTION('',(0.,0.5,-0.866025403784));
#742 = PCURVE('',#66,#743);
#743 = DEFINITIONAL_REPRESENTATION('',(#744),#747);
#744 = B_SPLINE_CURVE_WITH_KNOTS('',1,(#745,#746),.UNSPECIFIED.,.F.,.F.,
  (2,2),(-5.520911949126,1.840303983042),.PIECEWISE_BEZIER_KNOTS.);
#745 = CARTESIAN_POINT('',(6.375,-3.680607966084));
#746 = CARTESIAN_POINT('',(0.,-7.361215932168));
#747 = ( GEOMETRIC_REPRESENTATION_CONTEXT(2) 
PARAMETRIC_REPRESENTATION_CONTEXT() REPRESENTATION_CONTEXT('2D SPACE',''
  ) );
#748 = PCURVE('',#592,#749);
#749 = DEFINITIONAL_REPRESENTATION('',(#750),#753);
#750 = B_SPLINE_CURVE_WITH_KNOTS('',1,(#751,#752),.UNSPECIFIED.,.F.,.F.,
  (2,2),(-5.520911949126,1.840303983042),.PIECEWISE_BEZIER_KNOTS.);
#751 = CARTESIAN_POINT('',(7.361215932168,-15.));
#752 = CARTESIAN_POINT('',(0.,-15.));
#753 = ( GEOMETRIC_REPRESENTATION_CONTEXT(2) 
PARAMETRIC_REPRESENTATION_CONTEXT() REPRESENTATION_CONTEXT('2D SPACE',''
  ) );
#754 = ORIENTED_EDGE('',*,*,#755,.T.);
#755 = EDGE_CURVE('',#735,#756,#758,.T.);
#756 = VERTEX_POINT('',#757);
#757 = CARTESIAN_POINT('',(7.,3.680607966084,-6.375));
#758 = SURFACE_CURVE('',#759,(#763,#769),.PCURVE_S1.);
#759 = LINE('',#760,#761);
#760 = CARTESIAN_POINT('',(7.,4.600759957605,-4.78125));
#761 = VECTOR('',#762,1.);
#762 = DIRECTION('',(0.,-0.5,-0.866025403784));
#763 = PCURVE('',#66,#764);
#764 = DEFINITIONAL_REPRESENTATION('',(#765),#768);
#765 = B_SPLINE_CURVE_WITH_KNOTS('',1,(#766,#767),.UNSPECIFIED.,.F.,.F.,
  (2,2),(-5.520911949126,1.840303983042),.PIECEWISE_BEZIER_KNOTS.);
#766 = CARTESIAN_POINT('',(8.881784197001E-16,-7.361215932168));
#767 = CARTESIAN_POINT('',(-6.375,-3.680607966084));
#768 = ( GEOMETRIC_REPRESENTATION_CONTEXT(2) 
PARAMETRIC_REPRESENTATION_CONTEXT() REPRESENTATION_CONTEXT('2D SPACE',''
  ) );
#769 = PCURVE('',#618,#770);
#770 = DEFINITIONAL_REPRESENTATION('',(#771),#774);
#771 = B_SPLINE_CURVE_WITH_KNOTS('',1,(#772,#773),.UNSPECIFIED.,.F.,.F.,
  (2,2),(-5.520911949126,1.840303983042),.PIECEWISE_BEZIER_KNOTS.);
#772 = CARTESIAN_POINT('',(7.361215932168,-15.));
#773 = CARTESIAN_POINT('',(0.,-15.));
#774 = ( GEOMETRIC_REPRESENTATION_CONTEXT(2) 
PARAMETRIC_REPRESENTATION_CONTEXT() REPRESENTATION_CONTEXT('2D SPACE',''
  ) );
#775 = ORIENTED_EDGE('',*,*,#776,.T.);
#776 = EDGE_CURVE('',#756,#777,#779,.T.);
#777 = VERTEX_POINT('',#778);
#778 = CARTESIAN_POINT('',(7.,-3.680607966084,-6.375));
#779 = SURFACE_CURVE('',#780,(#784,#790),.PCURVE_S1.);
#780 = LINE('',#781,#782);
#781 = CARTESIAN_POINT('',(7.,-1.840303983042,-6.375));
#782 = VECTOR('',#783,1.);
#783 = DIRECTION('',(0.,-1.,1.206564822829E-16));
#784 = PCURVE('',#66,#785);
#785 = DEFINITIONAL_REPRESENTATION('',(#786),#789);
#786 = B_SPLINE_CURVE_WITH_KNOTS('',1,(#787,#788),.UNSPECIFIED.,.F.,.F.,
  (2,2),(-5.520911949126,1.840303983042),.PIECEWISE_BEZIER_KNOTS.);
#787 = CARTESIAN_POINT('',(-6.375,-3.680607966084));
#788 = CARTESIAN_POINT('',(-6.375,3.680607966084));
#789 = ( GEOMETRIC_REPRESENTATION_CONTEXT(2) 
PARAMETRIC_REPRESENTATION_CONTEXT() REPRESENTATION_CONTEXT('2D SPACE',''
  ) );
#790 = PCURVE('',#644,#791);
#791 = DEFINITIONAL_REPRESENTATION('',(#792),#795);
#792 = B_SPLINE_CURVE_WITH_KNOTS('',1,(#793,#794),.UNSPECIFIED.,.F.,.F.,
  (2,2),(-5.520911949126,1.840303983042),.PIECEWISE_BEZIER_KNOTS.);
#793 = CARTESIAN_POINT('',(7.361215932168,-15.));
#794 = CARTESIAN_POINT('',(0.,-15.));
#795 = ( GEOMETRIC_REPRESENTATION_CONTEXT(2) 
PARAMETRIC_REPRESENTATION_CONTEXT() REPRESENTATION_CONTEXT('2D SPACE',''
  ) );
#796 = ORIENTED_EDGE('',*,*,#797,.T.);
#797 = EDGE_CURVE('',#777,#798,#800,.T.);
#798 = VERTEX_POINT('',#799);
#799 = CARTESIAN_POINT('',(7.,-7.361215932168,9.014889529162E-16));
#800 = SURFACE_CURVE('',#801,(#805,#811),.PCURVE_S1.);
#801 = LINE('',#802,#803);
#802 = CARTESIAN_POINT('',(7.,-6.441063940647,-1.59375));
#803 = VECTOR('',#804,1.);
#804 = DIRECTION('',(0.,-0.5,0.866025403784));
#805 = PCURVE('',#66,#806);
#806 = DEFINITIONAL_REPRESENTATION('',(#807),#810);
#807 = B_SPLINE_CURVE_WITH_KNOTS('',1,(#808,#809),.UNSPECIFIED.,.F.,.F.,
  (2,2),(-5.520911949126,1.840303983042),.PIECEWISE_BEZIER_KNOTS.);
#808 = CARTESIAN_POINT('',(-6.375,3.680607966084));
#809 = CARTESIAN_POINT('',(8.881784197001E-16,7.361215932168));
#810 = ( GEOMETRIC_REPRESENTATION_CONTEXT(2) 
PARAMETRIC_REPRESENTATION_CONTEXT() REPRESENTATION_CONTEXT('2D SPACE',''
  ) );
#811 = PCURVE('',#670,#812);
#812 = DEFINITIONAL_REPRESENTATION('',(#813),#816);
#813 = B_SPLINE_CURVE_WITH_KNOTS('',1,(#814,#815),.UNSPECIFIED.,.F.,.F.,
  (2,2),(-5.520911949126,1.840303983042),.PIECEWISE_BEZIER_KNOTS.);
#814 = CARTESIAN_POINT('',(7.361215932168,-15.));
#815 = CARTESIAN_POINT('',(0.,-15.));
#816 = ( GEOMETRIC_REPRESENTATION_CONTEXT(2) 
PARAMETRIC_REPRESENTATION_CONTEXT() REPRESENTATION_CONTEXT('2D SPACE',''
  ) );
#817 = ORIENTED_EDGE('',*,*,#818,.T.);
#818 = EDGE_CURVE('',#798,#712,#819,.T.);
#819 = SURFACE_CURVE('',#820,(#824,#830),.PCURVE_S1.);
#820 = LINE('',#821,#822);
#821 = CARTESIAN_POINT('',(7.,-4.600759957605,4.78125));
#822 = VECTOR('',#823,1.);
#823 = DIRECTION('',(-0.,0.5,0.866025403784));
#824 = PCURVE('',#66,#825);
#825 = DEFINITIONAL_REPRESENTATION('',(#826),#829);
#826 = B_SPLINE_CURVE_WITH_KNOTS('',1,(#827,#828),.UNSPECIFIED.,.F.,.F.,
  (2,2),(-5.520911949126,1.840303983042),.PIECEWISE_BEZIER_KNOTS.);
#827 = CARTESIAN_POINT('',(8.881784197001E-16,7.361215932168));
#828 = CARTESIAN_POINT('',(6.375,3.680607966084));
#829 = ( GEOMETRIC_REPRESENTATION_CONTEXT(2) 
PARAMETRIC_REPRESENTATION_CONTEXT() REPRESENTATION_CONTEXT('2D SPACE',''
  ) );
#830 = PCURVE('',#694,#831);
#831 = DEFINITIONAL_REPRESENTATION('',(#832),#835);
#832 = B_SPLINE_CURVE_WITH_KNOTS('',1,(#833,#834),.UNSPECIFIED.,.F.,.F.,
  (2,2),(-5.520911949126,1.840303983042),.PIECEWISE_BEZIER_KNOTS.);
#833 = CARTESIAN_POINT('',(7.361215932168,-15.));
#834 = CARTESIAN_POINT('',(0.,-15.));
#835 = ( GEOMETRIC_REPRESENTATION_CONTEXT(2) 
PARAMETRIC_REPRESENTATION_CONTEXT() REPRESENTATION_CONTEXT('2D SPACE',''
  ) );
#836 = ADVANCED_FACE('',(#837),#429,.F.);
#837 = FACE_BOUND('',#838,.F.);
#838 = EDGE_LOOP('',(#839,#863,#884,#885));
#839 = ORIENTED_EDGE('',*,*,#840,.F.);
#840 = EDGE_CURVE('',#841,#841,#843,.T.);
#841 = VERTEX_POINT('',#842);
#842 = CARTESIAN_POINT('',(2.1,-5.143516556419E-16,-6.375));
#843 = SURFACE_CURVE('',#844,(#849,#856),.PCURVE_S1.);
#844 = CIRCLE('',#845,2.1);
#845 = AXIS2_PLACEMENT_3D('',#846,#847,#848);
#846 = CARTESIAN_POINT('',(0.,0.,-6.375));
#847 = DIRECTION('',(0.,0.,1.));
#848 = DIRECTION('',(1.,0.,-0.));
#849 = PCURVE('',#429,#850);
#850 = DEFINITIONAL_REPRESENTATION('',(#851),#855);
#851 = LINE('',#852,#853);
#852 = CARTESIAN_POINT('',(0.,11.625));
#853 = VECTOR('',#854,1.);
#854 = DIRECTION('',(1.,0.));
#855 = ( GEOMETRIC_REPRESENTATION_CONTEXT(2) 
PARAMETRIC_REPRESENTATION_CONTEXT() REPRESENTATION_CONTEXT('2D SPACE',''
  ) );
#856 = PCURVE('',#644,#857);
#857 = DEFINITIONAL_REPRESENTATION('',(#858),#862);
#858 = CIRCLE('',#859,2.1);
#859 = AXIS2_PLACEMENT_2D('',#860,#861);
#860 = CARTESIAN_POINT('',(3.680607966084,-8.));
#861 = DIRECTION('',(0.,-1.));
#862 = ( GEOMETRIC_REPRESENTATION_CONTEXT(2) 
PARAMETRIC_REPRESENTATION_CONTEXT() REPRESENTATION_CONTEXT('2D SPACE',''
  ) );
#863 = ORIENTED_EDGE('',*,*,#864,.F.);
#864 = EDGE_CURVE('',#320,#841,#865,.T.);
#865 = SEAM_CURVE('',#866,(#870,#877),.PCURVE_S1.);
#866 = LINE('',#867,#868);
#867 = CARTESIAN_POINT('',(2.1,-5.143516556419E-16,-18.));
#868 = VECTOR('',#869,1.);
#869 = DIRECTION('',(0.,0.,1.));
#870 = PCURVE('',#429,#871);
#871 = DEFINITIONAL_REPRESENTATION('',(#872),#876);
#872 = LINE('',#873,#874);
#873 = CARTESIAN_POINT('',(6.28318530718,-0.));
#874 = VECTOR('',#875,1.);
#875 = DIRECTION('',(0.,1.));
#876 = ( GEOMETRIC_REPRESENTATION_CONTEXT(2) 
PARAMETRIC_REPRESENTATION_CONTEXT() REPRESENTATION_CONTEXT('2D SPACE',''
  ) );
#877 = PCURVE('',#429,#878);
#878 = DEFINITIONAL_REPRESENTATION('',(#879),#883);
#879 = LINE('',#880,#881);
#880 = CARTESIAN_POINT('',(0.,-0.));
#881 = VECTOR('',#882,1.);
#882 = DIRECTION('',(0.,1.));
#883 = ( GEOMETRIC_REPRESENTATION_CONTEXT(2) 
PARAMETRIC_REPRESENTATION_CONTEXT() REPRESENTATION_CONTEXT('2D SPACE',''
  ) );
#884 = ORIENTED_EDGE('',*,*,#319,.T.);
#885 = ORIENTED_EDGE('',*,*,#864,.T.);
#886 = ADVANCED_FACE('',(#887,#933),#530,.T.);
#887 = FACE_BOUND('',#888,.T.);
#888 = EDGE_LOOP('',(#889,#890,#911,#912));
#889 = ORIENTED_EDGE('',*,*,#554,.T.);
#890 = ORIENTED_EDGE('',*,*,#891,.T.);
#891 = EDGE_CURVE('',#557,#714,#892,.T.);
#892 = SURFACE_CURVE('',#893,(#897,#904),.PCURVE_S1.);
#893 = LINE('',#894,#895);
#894 = CARTESIAN_POINT('',(-8.,3.680607966084,6.375));
#895 = VECTOR('',#896,1.);
#896 = DIRECTION('',(1.,0.,0.));
#897 = PCURVE('',#530,#898);
#898 = DEFINITIONAL_REPRESENTATION('',(#899),#903);
#899 = LINE('',#900,#901);
#900 = CARTESIAN_POINT('',(0.,0.));
#901 = VECTOR('',#902,1.);
#902 = DIRECTION('',(0.,-1.));
#903 = ( GEOMETRIC_REPRESENTATION_CONTEXT(2) 
PARAMETRIC_REPRESENTATION_CONTEXT() REPRESENTATION_CONTEXT('2D SPACE',''
  ) );
#904 = PCURVE('',#592,#905);
#905 = DEFINITIONAL_REPRESENTATION('',(#906),#910);
#906 = LINE('',#907,#908);
#907 = CARTESIAN_POINT('',(7.361215932168,0.));
#908 = VECTOR('',#909,1.);
#909 = DIRECTION('',(0.,-1.));
#910 = ( GEOMETRIC_REPRESENTATION_CONTEXT(2) 
PARAMETRIC_REPRESENTATION_CONTEXT() REPRESENTATION_CONTEXT('2D SPACE',''
  ) );
#911 = ORIENTED_EDGE('',*,*,#711,.F.);
#912 = ORIENTED_EDGE('',*,*,#913,.F.);
#913 = EDGE_CURVE('',#555,#712,#914,.T.);
#914 = SURFACE_CURVE('',#915,(#919,#926),.PCURVE_S1.);
#915 = LINE('',#916,#917);
#916 = CARTESIAN_POINT('',(-8.,-3.680607966084,6.375));
#917 = VECTOR('',#918,1.);
#918 = DIRECTION('',(1.,0.,0.));
#919 = PCURVE('',#530,#920);
#920 = DEFINITIONAL_REPRESENTATION('',(#921),#925);
#921 = LINE('',#922,#923);
#922 = CARTESIAN_POINT('',(7.361215932168,0.));
#923 = VECTOR('',#924,1.);
#924 = DIRECTION('',(0.,-1.));
#925 = ( GEOMETRIC_REPRESENTATION_CONTEXT(2) 
PARAMETRIC_REPRESENTATION_CONTEXT() REPRESENTATION_CONTEXT('2D SPACE',''
  ) );
#926 = PCURVE('',#694,#927);
#927 = DEFINITIONAL_REPRESENTATION('',(#928),#932);
#928 = LINE('',#929,#930);
#929 = CARTESIAN_POINT('',(0.,0.));
#930 = VECTOR('',#931,1.);
#931 = DIRECTION('',(0.,-1.));
#932 = ( GEOMETRIC_REPRESENTATION_CONTEXT(2) 
PARAMETRIC_REPRESENTATION_CONTEXT() REPRESENTATION_CONTEXT('2D SPACE',''
  ) );
#933 = FACE_BOUND('',#934,.T.);
#934 = EDGE_LOOP('',(#935));
#935 = ORIENTED_EDGE('',*,*,#515,.T.);
#936 = ADVANCED_FACE('',(#937),#694,.T.);
#937 = FACE_BOUND('',#938,.T.);
#938 = EDGE_LOOP('',(#939,#940,#941,#942));
#939 = ORIENTED_EDGE('',*,*,#681,.T.);
#940 = ORIENTED_EDGE('',*,*,#913,.T.);
#941 = ORIENTED_EDGE('',*,*,#818,.F.);
#942 = ORIENTED_EDGE('',*,*,#943,.F.);
#943 = EDGE_CURVE('',#656,#798,#944,.T.);
#944 = SURFACE_CURVE('',#945,(#949,#956),.PCURVE_S1.);
#945 = LINE('',#946,#947);
#946 = CARTESIAN_POINT('',(-8.,-7.361215932168,9.014889529162E-16));
#947 = VECTOR('',#948,1.);
#948 = DIRECTION('',(1.,0.,0.));
#949 = PCURVE('',#694,#950);
#950 = DEFINITIONAL_REPRESENTATION('',(#951),#955);
#951 = LINE('',#952,#953);
#952 = CARTESIAN_POINT('',(7.361215932168,0.));
#953 = VECTOR('',#954,1.);
#954 = DIRECTION('',(0.,-1.));
#955 = ( GEOMETRIC_REPRESENTATION_CONTEXT(2) 
PARAMETRIC_REPRESENTATION_CONTEXT() REPRESENTATION_CONTEXT('2D SPACE',''
  ) );
#956 = PCURVE('',#670,#957);
#957 = DEFINITIONAL_REPRESENTATION('',(#958),#962);
#958 = LINE('',#959,#960);
#959 = CARTESIAN_POINT('',(0.,0.));
#960 = VECTOR('',#961,1.);
#961 = DIRECTION('',(0.,-1.));
#962 = ( GEOMETRIC_REPRESENTATION_CONTEXT(2) 
PARAMETRIC_REPRESENTATION_CONTEXT() REPRESENTATION_CONTEXT('2D SPACE',''
  ) );
#963 = ADVANCED_FACE('',(#964),#670,.T.);
#964 = FACE_BOUND('',#965,.T.);
#965 = EDGE_LOOP('',(#966,#967,#968,#969));
#966 = ORIENTED_EDGE('',*,*,#655,.T.);
#967 = ORIENTED_EDGE('',*,*,#943,.T.);
#968 = ORIENTED_EDGE('',*,*,#797,.F.);
#969 = ORIENTED_EDGE('',*,*,#970,.F.);
#970 = EDGE_CURVE('',#630,#777,#971,.T.);
#971 = SURFACE_CURVE('',#972,(#976,#983),.PCURVE_S1.);
#972 = LINE('',#973,#974);
#973 = CARTESIAN_POINT('',(-8.,-3.680607966084,-6.375));
#974 = VECTOR('',#975,1.);
#975 = DIRECTION('',(1.,0.,0.));
#976 = PCURVE('',#670,#977);
#977 = DEFINITIONAL_REPRESENTATION('',(#978),#982);
#978 = LINE('',#979,#980);
#979 = CARTESIAN_POINT('',(7.361215932168,0.));
#980 = VECTOR('',#981,1.);
#981 = DIRECTION('',(0.,-1.));
#982 = ( GEOMETRIC_REPRESENTATION_CONTEXT(2) 
PARAMETRIC_REPRESENTATION_CONTEXT() REPRESENTATION_CONTEXT('2D SPACE',''
  ) );
#983 = PCURVE('',#644,#984);
#984 = DEFINITIONAL_REPRESENTATION('',(#985),#989);
#985 = LINE('',#986,#987);
#986 = CARTESIAN_POINT('',(0.,0.));
#987 = VECTOR('',#988,1.);
#988 = DIRECTION('',(0.,-1.));
#989 = ( GEOMETRIC_REPRESENTATION_CONTEXT(2) 
PARAMETRIC_REPRESENTATION_CONTEXT() REPRESENTATION_CONTEXT('2D SPACE',''
  ) );
#990 = ADVANCED_FACE('',(#991,#1017),#644,.T.);
#991 = FACE_BOUND('',#992,.T.);
#992 = EDGE_LOOP('',(#993,#994,#995,#996));
#993 = ORIENTED_EDGE('',*,*,#629,.T.);
#994 = ORIENTED_EDGE('',*,*,#970,.T.);
#995 = ORIENTED_EDGE('',*,*,#776,.F.);
#996 = ORIENTED_EDGE('',*,*,#997,.F.);
#997 = EDGE_CURVE('',#604,#756,#998,.T.);
#998 = SURFACE_CURVE('',#999,(#1003,#1010),.PCURVE_S1.);
#999 = LINE('',#1000,#1001);
#1000 = CARTESIAN_POINT('',(-8.,3.680607966084,-6.375));
#1001 = VECTOR('',#1002,1.);
#1002 = DIRECTION('',(1.,0.,0.));
#1003 = PCURVE('',#644,#1004);
#1004 = DEFINITIONAL_REPRESENTATION('',(#1005),#1009);
#1005 = LINE('',#1006,#1007);
#1006 = CARTESIAN_POINT('',(7.361215932168,0.));
#1007 = VECTOR('',#1008,1.);
#1008 = DIRECTION('',(0.,-1.));
#1009 = ( GEOMETRIC_REPRESENTATION_CONTEXT(2) 
PARAMETRIC_REPRESENTATION_CONTEXT() REPRESENTATION_CONTEXT('2D SPACE',''
  ) );
#1010 = PCURVE('',#618,#1011);
#1011 = DEFINITIONAL_REPRESENTATION('',(#1012),#1016);
#1012 = LINE('',#1013,#1014);
#1013 = CARTESIAN_POINT('',(0.,0.));
#1014 = VECTOR('',#1015,1.);
#1015 = DIRECTION('',(0.,-1.));
#1016 = ( GEOMETRIC_REPRESENTATION_CONTEXT(2) 
PARAMETRIC_REPRESENTATION_CONTEXT() REPRESENTATION_CONTEXT('2D SPACE',''
  ) );
#1017 = FACE_BOUND('',#1018,.T.);
#1018 = EDGE_LOOP('',(#1019));
#1019 = ORIENTED_EDGE('',*,*,#840,.F.);
#1020 = ADVANCED_FACE('',(#1021),#618,.T.);
#1021 = FACE_BOUND('',#1022,.T.);
#1022 = EDGE_LOOP('',(#1023,#1024,#1025,#1026));
#1023 = ORIENTED_EDGE('',*,*,#603,.T.);
#1024 = ORIENTED_EDGE('',*,*,#997,.T.);
#1025 = ORIENTED_EDGE('',*,*,#755,.F.);
#1026 = ORIENTED_EDGE('',*,*,#1027,.F.);
#1027 = EDGE_CURVE('',#578,#735,#1028,.T.);
#1028 = SURFACE_CURVE('',#1029,(#1033,#1040),.PCURVE_S1.);
#1029 = LINE('',#1030,#1031);
#1030 = CARTESIAN_POINT('',(-8.,7.361215932168,0.));
#1031 = VECTOR('',#1032,1.);
#1032 = DIRECTION('',(1.,0.,0.));
#1033 = PCURVE('',#618,#1034);
#1034 = DEFINITIONAL_REPRESENTATION('',(#1035),#1039);
#1035 = LINE('',#1036,#1037);
#1036 = CARTESIAN_POINT('',(7.361215932168,0.));
#1037 = VECTOR('',#1038,1.);
#1038 = DIRECTION('',(0.,-1.));
#1039 = ( GEOMETRIC_REPRESENTATION_CONTEXT(2) 
PARAMETRIC_REPRESENTATION_CONTEXT() REPRESENTATION_CONTEXT('2D SPACE',''
  ) );
#1040 = PCURVE('',#592,#1041);
#1041 = DEFINITIONAL_REPRESENTATION('',(#1042),#1046);
#1042 = LINE('',#1043,#1044);
#1043 = CARTESIAN_POINT('',(0.,0.));
#1044 = VECTOR('',#1045,1.);
#1045 = DIRECTION('',(0.,-1.));
#1046 = ( GEOMETRIC_REPRESENTATION_CONTEXT(2) 
PARAMETRIC_REPRESENTATION_CONTEXT() REPRESENTATION_CONTEXT('2D SPACE',''
  ) );
#1047 = ADVANCED_FACE('',(#1048),#592,.T.);
#1048 = FACE_BOUND('',#1049,.T.);
#1049 = EDGE_LOOP('',(#1050,#1051,#1052,#1053));
#1050 = ORIENTED_EDGE('',*,*,#577,.T.);
#1051 = ORIENTED_EDGE('',*,*,#1027,.T.);
#1052 = ORIENTED_EDGE('',*,*,#734,.F.);
#1053 = ORIENTED_EDGE('',*,*,#891,.F.);
#1054 = ( GEOMETRIC_REPRESENTATION_CONTEXT(3) 
GLOBAL_UNCERTAINTY_ASSIGNED_CONTEXT((#1058)) 
GLOBAL_UNIT_ASSIGNED_CONTEXT((#1055,#1056,#1057)) REPRESENTATION_CONTEXT
('Context #1','3D Context with UNIT and UNCERTAINTY') );
#1055 = ( LENGTH_UNIT() NAMED_UNIT(*) SI_UNIT(.MILLI.,.METRE.) );
#1056 = ( NAMED_UNIT(*) PLANE_ANGLE_UNIT() SI_UNIT($,.RADIAN.) );
#1057 = ( NAMED_UNIT(*) SI_UNIT($,.STERADIAN.) SOLID_ANGLE_UNIT() );
#1058 = UNCERTAINTY_MEASURE_WITH_UNIT(LENGTH_MEASURE(1.E-07),#1055,
  'distance_accuracy_value','confusion accuracy');
#1059 = PRODUCT_RELATED_PRODUCT_CATEGORY('part',$,(#7));
ENDSEC;
END-ISO-10303-21;
