ISO-10303-21;
HEADER;
FILE_DESCRIPTION(('Open CASCADE Model'),'2;1');
FILE_NAME('Open CASCADE Shape Model','2026-09-12T17:59:04',('Author'),(
    'Open CASCADE'),'Open CASCADE STEP processor 7.8','Open CASCADE 7.8'
  ,'Unknown');
FILE_SCHEMA(('AUTOMOTIVE_DESIGN { 1 0 10303 214 1 1 1 1 }'));
ENDSEC;
DATA;
#1 = APPLICATION_PROTOCOL_DEFINITION('international standard',
  'automotive_design',2000,#2);
#2 = APPLICATION_CONTEXT(
  'core data for automotive mechanical design processes');
#3 = SHAPE_DEFINITION_REPRESENTATION(#4,#10);
#4 = PRODUCT_DEFINITION_SHAPE('','',#5);
#5 = PRODUCT_DEFINITION('design','',#6,#9);
#6 = PRODUCT_DEFINITION_FORMATION('','',#7);
#7 = PRODUCT('Open CASCADE STEP translator 7.8 3',
  'Open CASCADE STEP translator 7.8 3','',(#8));
#8 = PRODUCT_CONTEXT('',#2,'mechanical');
#9 = PRODUCT_DEFINITION_CONTEXT('part definition',#2,'design');
#10 = ADVANCED_BREP_SHAPE_REPRESENTATION('',(#11,#15),#1027);
#11 = AXIS2_PLACEMENT_3D('',#12,#13,#14);
#12 = CARTESIAN_POINT('',(0.,0.,0.));
#13 = DIRECTION('',(0.,0.,1.));
#14 = DIRECTION('',(1.,0.,-0.));
#15 = MANIFOLD_SOLID_BREP('',#16);
#16 = CLOSED_SHELL('',(#17,#171,#213,#255,#297,#329,#361,#403,#445,#471,
    #489,#507,#527,#645,#663,#693,#753,#784,#808,#832,#856,#880,#897,
    #915,#939,#957,#975,#995,#1015));
#17 = ADVANCED_FACE('',(#18),#154,.F.);
#18 = FACE_BOUND('',#19,.F.);
#19 = EDGE_LOOP('',(#20,#31,#138,#147));
#20 = ORIENTED_EDGE('',*,*,#21,.T.);
#21 = EDGE_CURVE('',#22,#24,#26,.T.);
#22 = VERTEX_POINT('',#23);
#23 = CARTESIAN_POINT('',(-0.375,7.029146824527,-12.17483943394));
#24 = VERTEX_POINT('',#25);
#25 = CARTESIAN_POINT('',(0.,7.1374,-12.36233943394));
#26 = CIRCLE('',#27,0.25);
#27 = AXIS2_PLACEMENT_3D('',#28,#29,#30);
#28 = CARTESIAN_POINT('',(-0.25,7.1374,-12.36233943394));
#29 = DIRECTION('',(0.,0.866025403784,0.5));
#30 = DIRECTION('',(0.,0.5,-0.866025403784));
#31 = ORIENTED_EDGE('',*,*,#32,.T.);
#32 = EDGE_CURVE('',#24,#33,#35,.T.);
#33 = VERTEX_POINT('',#34);
#34 = CARTESIAN_POINT('',(0.,-7.1374,12.362339433942));
#35 = B_SPLINE_CURVE_WITH_KNOTS('',3,(#36,#37,#38,#39,#40,#41,#42,#43,
    #44,#45,#46,#47,#48,#49,#50,#51,#52,#53,#54,#55,#56,#57,#58,#59,#60,
    #61,#62,#63,#64,#65,#66,#67,#68,#69,#70,#71,#72,#73,#74,#75,#76,#77,
    #78,#79,#80,#81,#82,#83,#84,#85,#86,#87,#88,#89,#90,#91,#92,#93,#94,
    #95,#96,#97,#98,#99,#100,#101,#102,#103,#104,#105,#106,#107,#108,
    #109,#110,#111,#112,#113,#114,#115,#116,#117,#118,#119,#120,#121,
    #122,#123,#124,#125,#126,#127,#128,#129,#130,#131,#132,#133,#134,
    #135,#136,#137),.UNSPECIFIED.,.F.,.F.,(4,1,1,1,1,2,2,1,1,1,1,2,2,1,1
    ,1,2,2,2,1,1,1,2,2,1,1,1,1,2,2,1,1,1,1,2,2,2,1,1,1,1,2,2,1,1,1,1,2,2
    ,1,1,1,2,2,2,1,1,1,2,2,1,1,1,1,2,2,1,1,1,1,2,2,4),(0.,3.125E-02,
    4.6875E-02,5.46875E-02,5.859375E-02,6.0546875E-02,6.25E-02,9.375E-02
    ,0.109375,0.1171875,0.12109375,0.123046875,0.125,0.15625,0.171875,
    0.1796875,0.18359375,0.1875,0.25,0.28125,0.296875,0.3046875,
    0.30859375,0.3125,0.34375,0.359375,0.3671875,0.37109375,0.373046875,
    0.375,0.40625,0.421875,0.4296875,0.43359375,0.435546875,0.4375,0.5,
    0.53125,0.546875,0.5546875,0.55859375,0.560546875,0.5625,0.59375,
    0.609375,0.6171875,0.62109375,0.623046875,0.625,0.65625,0.671875,
    0.6796875,0.68359375,0.6875,0.75,0.78125,0.796875,0.8046875,
    0.80859375,0.8125,0.84375,0.859375,0.8671875,0.87109375,0.873046875,
    0.875,0.90625,0.921875,0.9296875,0.93359375,0.935546875,0.9375,1.),
  .UNSPECIFIED.);
#36 = CARTESIAN_POINT('',(0.,7.1374,-12.36233943394));
#37 = CARTESIAN_POINT('',(1.7763568394E-15,7.515393720731,
    -12.14410465752));
#38 = CARTESIAN_POINT('',(1.7763568394E-15,8.06518060564,-11.79228760113
    ));
#39 = CARTESIAN_POINT('',(0.,8.676492169708,-11.33902080808));
#40 = CARTESIAN_POINT('',(0.,8.97462133466,-11.1016840214));
#41 = CARTESIAN_POINT('',(1.7763568394E-15,9.121804262866,
    -10.98033978053));
#42 = CARTESIAN_POINT('',(1.7763568394E-15,9.184479449039,
    -10.92776170996));
#43 = CARTESIAN_POINT('',(0.,9.226173303904,-10.89258224161));
#44 = CARTESIAN_POINT('',(1.7763568394E-15,9.245733327204,
    -10.87598897815));
#45 = CARTESIAN_POINT('',(-8.881784197001E-16,9.6197235979,
    -10.55677425153));
#46 = CARTESIAN_POINT('',(-8.881784197001E-16,10.123597981225,
    -10.08268467897));
#47 = CARTESIAN_POINT('',(-1.7763568394E-15,10.669255636361,
    -9.488571573813));
#48 = CARTESIAN_POINT('',(0.,10.93153551591,-9.181262870268));
#49 = CARTESIAN_POINT('',(0.,11.060038218679,-9.025045480755));
#50 = CARTESIAN_POINT('',(1.7763568394E-15,11.114545683365,
    -8.957545948591));
#51 = CARTESIAN_POINT('',(2.6645352591E-15,11.150758410441,
    -8.912424211065));
#52 = CARTESIAN_POINT('',(0.,11.168060760131,-8.890737376493));
#53 = CARTESIAN_POINT('',(2.6645352591E-15,11.486334816474,
    -8.489231766174));
#54 = CARTESIAN_POINT('',(0.,11.90499657015,-7.902622081386));
#55 = CARTESIAN_POINT('',(-8.881784197001E-16,12.339769212505,
    -7.183632204679));
#56 = CARTESIAN_POINT('',(1.7763568394E-15,12.543739016116,
    -6.815484288546));
#57 = CARTESIAN_POINT('',(2.6645352591E-15,12.628279678185,
    -6.655852400679));
#58 = CARTESIAN_POINT('',(1.7763568394E-15,12.684001237776,
    -6.54901909554));
#59 = CARTESIAN_POINT('',(1.7763568394E-15,12.710978904807,
    -6.496511026889));
#60 = CARTESIAN_POINT('',(1.7763568394E-15,13.183333592703,
    -5.562474819285));
#61 = CARTESIAN_POINT('',(1.7763568394E-15,13.533396283565,
    -4.646125833472));
#62 = CARTESIAN_POINT('',(1.7763568394E-15,13.915898835884,
    -3.218822240808));
#63 = CARTESIAN_POINT('',(1.7763568394E-15,14.069584414348,
    -2.499025198406));
#64 = CARTESIAN_POINT('',(0.,14.183144284921,-1.648507801647));
#65 = CARTESIAN_POINT('',(1.7763568394E-15,14.223489227465,
    -1.220560558111));
#66 = CARTESIAN_POINT('',(1.7763568394E-15,14.237258132968,
    -1.036578479777));
#67 = CARTESIAN_POINT('',(1.7763568394E-15,14.245654784602,
    -0.913795734928));
#68 = CARTESIAN_POINT('',(0.,14.249535941069,-0.851005033548));
#69 = CARTESIAN_POINT('',(-8.881784197001E-16,14.279610045089,
    -0.309348291868));
#70 = CARTESIAN_POINT('',(0.,14.283249479179,0.411328731047));
#71 = CARTESIAN_POINT('',(0.,14.223691585898,1.249437650632));
#72 = CARTESIAN_POINT('',(-8.881784197001E-16,14.177961664327,
    1.667821875303));
#73 = CARTESIAN_POINT('',(0.,14.151108959809,1.876846428859));
#74 = CARTESIAN_POINT('',(-1.7763568394E-15,14.138746141358,
    1.96639247493));
#75 = CARTESIAN_POINT('',(-1.7763568394E-15,14.130314369833,
    2.026081859987));
#76 = CARTESIAN_POINT('',(-8.881784197001E-16,14.125822860687,
    2.057146140465));
#77 = CARTESIAN_POINT('',(0.,14.053996139977,2.5435694541));
#78 = CARTESIAN_POINT('',(0.,13.919932433159,3.222301517456));
#79 = CARTESIAN_POINT('',(-8.881784197001E-16,13.706367539436,
    4.000184986207));
#80 = CARTESIAN_POINT('',(0.,13.585295783634,4.385634069291));
#81 = CARTESIAN_POINT('',(0.,13.521187578497,4.577485448011));
#82 = CARTESIAN_POINT('',(0.,13.492947134745,4.659520361143));
#83 = CARTESIAN_POINT('',(1.7763568394E-15,13.473950061423,
    4.714168724048));
#84 = CARTESIAN_POINT('',(-8.881784197001E-16,13.463808198208,
    4.743047423065));
#85 = CARTESIAN_POINT('',(0.,13.163165779034,5.591388161889));
#86 = CARTESIAN_POINT('',(-1.7763568394E-15,12.798693277526,
    6.381548122881));
#87 = CARTESIAN_POINT('',(-8.881784197001E-16,12.14416251215,
    7.515325938559));
#88 = CARTESIAN_POINT('',(0.,11.792388846725,8.06506198684));
#89 = CARTESIAN_POINT('',(0.,11.339096742274,8.676403205608));
#90 = CARTESIAN_POINT('',(0.,11.101728316351,8.974569438935));
#91 = CARTESIAN_POINT('',(0.,10.980363509965,9.121776461585));
#92 = CARTESIAN_POINT('',(1.7763568394E-15,10.927775608638,
    9.184463165432));
#93 = CARTESIAN_POINT('',(-8.881784197001E-16,10.892589360447,
    9.226164963519));
#94 = CARTESIAN_POINT('',(1.7763568394E-15,10.875988978156,
    9.245733327204));
#95 = CARTESIAN_POINT('',(2.6645352591E-15,10.556774251543,
    9.619723597894));
#96 = CARTESIAN_POINT('',(0.,10.082684678992,10.123597981215));
#97 = CARTESIAN_POINT('',(0.,9.488571573824,10.669255636353));
#98 = CARTESIAN_POINT('',(1.7763568394E-15,9.181262870274,
    10.931535515905));
#99 = CARTESIAN_POINT('',(1.7763568394E-15,9.025045480759,
    11.060038218676));
#100 = CARTESIAN_POINT('',(0.,8.957545948593,11.114545683363));
#101 = CARTESIAN_POINT('',(-1.7763568394E-15,8.912424211066,
    11.15075841044));
#102 = CARTESIAN_POINT('',(0.,8.890737376493,11.168060760131));
#103 = CARTESIAN_POINT('',(0.,8.489231766168,11.486334816478));
#104 = CARTESIAN_POINT('',(1.7763568394E-15,7.902622081375,
    11.904996570158));
#105 = CARTESIAN_POINT('',(0.,7.183632204672,12.339769212512));
#106 = CARTESIAN_POINT('',(1.7763568394E-15,6.815484288542,
    12.54373901612));
#107 = CARTESIAN_POINT('',(0.,6.655852400676,12.628279678188));
#108 = CARTESIAN_POINT('',(1.7763568394E-15,6.549019095539,
    12.684001237777));
#109 = CARTESIAN_POINT('',(1.7763568394E-15,6.496511026889,
    12.710978904807));
#110 = CARTESIAN_POINT('',(1.7763568394E-15,5.562474819285,
    13.183333592699));
#111 = CARTESIAN_POINT('',(1.7763568394E-15,4.64612583346,
    13.533396283565));
#112 = CARTESIAN_POINT('',(-8.881784197001E-16,3.218822240814,
    13.915898835884));
#113 = CARTESIAN_POINT('',(0.,2.499025198416,14.069584414348));
#114 = CARTESIAN_POINT('',(0.,1.648507801654,14.183144284921));
#115 = CARTESIAN_POINT('',(0.,1.220560558116,14.223489227466));
#116 = CARTESIAN_POINT('',(1.7763568394E-15,1.03657847978,
    14.237258132968));
#117 = CARTESIAN_POINT('',(2.6645352591E-15,0.913795734929,
    14.245654784602));
#118 = CARTESIAN_POINT('',(2.6645352591E-15,0.851005033549,
    14.249535941069));
#119 = CARTESIAN_POINT('',(0.,0.309348291862,14.279610045088));
#120 = CARTESIAN_POINT('',(0.,-0.411328731059,14.283249479179));
#121 = CARTESIAN_POINT('',(-8.881784197001E-16,-1.24943765064,
    14.223691585898));
#122 = CARTESIAN_POINT('',(0.,-1.667821875308,14.177961664327));
#123 = CARTESIAN_POINT('',(0.,-1.876846428861,14.151108959809));
#124 = CARTESIAN_POINT('',(-8.881784197001E-16,-1.966392474931,
    14.138746141358));
#125 = CARTESIAN_POINT('',(0.,-2.026081859988,14.130314369833));
#126 = CARTESIAN_POINT('',(-2.6645352591E-15,-2.057146140464,
    14.125822860687));
#127 = CARTESIAN_POINT('',(-8.881784197001E-16,-2.54356945411,
    14.053996139975));
#128 = CARTESIAN_POINT('',(-8.881784197001E-16,-3.222301517474,
    13.919932433155));
#129 = CARTESIAN_POINT('',(0.,-4.00018498622,13.706367539433));
#130 = CARTESIAN_POINT('',(1.7763568394E-15,-4.385634069299,
    13.585295783632));
#131 = CARTESIAN_POINT('',(-1.7763568394E-15,-4.577485448015,
    13.521187578496));
#132 = CARTESIAN_POINT('',(-1.7763568394E-15,-4.659520361145,
    13.492947134744));
#133 = CARTESIAN_POINT('',(0.,-4.71416872405,13.473950061422));
#134 = CARTESIAN_POINT('',(-8.881784197001E-16,-4.743042171117,
    13.46381005944));
#135 = CARTESIAN_POINT('',(1.7763568394E-15,-5.591556224224,
    13.16310621963));
#136 = CARTESIAN_POINT('',(2.6645352591E-15,-6.381104651497,
    12.798986756987));
#137 = CARTESIAN_POINT('',(0.,-7.1374,12.362339433942));
#138 = ORIENTED_EDGE('',*,*,#139,.F.);
#139 = EDGE_CURVE('',#140,#33,#142,.T.);
#140 = VERTEX_POINT('',#141);
#141 = CARTESIAN_POINT('',(-0.375,-7.029146824527,12.174839433942));
#142 = CIRCLE('',#143,0.25);
#143 = AXIS2_PLACEMENT_3D('',#144,#145,#146);
#144 = CARTESIAN_POINT('',(-0.25,-7.1374,12.362339433942));
#145 = DIRECTION('',(-0.,-0.866025403784,-0.5));
#146 = DIRECTION('',(0.,-0.5,0.866025403784));
#147 = ORIENTED_EDGE('',*,*,#148,.T.);
#148 = EDGE_CURVE('',#140,#22,#149,.T.);
#149 = CIRCLE('',#150,14.058293649054);
#150 = AXIS2_PLACEMENT_3D('',#151,#152,#153);
#151 = CARTESIAN_POINT('',(-0.375,0.,0.));
#152 = DIRECTION('',(-1.,0.,-0.));
#153 = DIRECTION('',(0.,0.5,-0.866025403784));
#154 = ( BOUNDED_SURFACE() B_SPLINE_SURFACE(3,3,(
    (#155,#156,#157,#158)
    ,(#159,#160,#161,#162)
    ,(#163,#164,#165,#166)
    ,(#167,#168,#169,#170
)),.UNSPECIFIED.,.F.,.F.,.F.) B_SPLINE_SURFACE_WITH_KNOTS((4,4),(4,4),(
    0.,1.),(0.,1.),.PIECEWISE_BEZIER_KNOTS.) 
GEOMETRIC_REPRESENTATION_ITEM() RATIONAL_B_SPLINE_SURFACE((
    (1.,0.333333333333,0.333333333333,1.)
    ,(0.666666666667,0.222222222222,0.222222222222,0.666666666667)
    ,(0.666666666667,0.222222222222,0.222222222222,0.666666666667)
,(1.,0.333333333333,0.333333333333,1.
))) REPRESENTATION_ITEM('') SURFACE() );
#155 = CARTESIAN_POINT('',(-0.375,7.029146824527,-12.17483943394));
#156 = CARTESIAN_POINT('',(-0.375,31.378825692411,1.883454215112));
#157 = CARTESIAN_POINT('',(-0.375,17.320532043357,26.233133082996));
#158 = CARTESIAN_POINT('',(-0.375,-7.029146824527,12.174839433942));
#159 = CARTESIAN_POINT('',(-0.1875,6.97502023679,-12.08108943394));
#160 = CARTESIAN_POINT('',(-0.1875,31.137199104675,1.868951039639));
#161 = CARTESIAN_POINT('',(-0.1875,17.187158631094,26.031129907523));
#162 = CARTESIAN_POINT('',(-0.1875,-6.97502023679,12.081089433942));
#163 = CARTESIAN_POINT('',(0.,7.029146824527,-12.17483943394));
#164 = CARTESIAN_POINT('',(-1.7763568394E-15,31.378825692411,
    1.883454215112));
#165 = CARTESIAN_POINT('',(-1.7763568394E-15,17.320532043357,
    26.233133082996));
#166 = CARTESIAN_POINT('',(0.,-7.029146824527,12.174839433942));
#167 = CARTESIAN_POINT('',(0.,7.1374,-12.36233943394));
#168 = CARTESIAN_POINT('',(0.,31.862078867884,1.912460566058));
#169 = CARTESIAN_POINT('',(0.,17.587278867884,26.637139433942));
#170 = CARTESIAN_POINT('',(0.,-7.1374,12.362339433942));
#171 = ADVANCED_FACE('',(#172),#208,.F.);
#172 = FACE_BOUND('',#173,.F.);
#173 = EDGE_LOOP('',(#174,#184,#193,#201));
#174 = ORIENTED_EDGE('',*,*,#175,.T.);
#175 = EDGE_CURVE('',#176,#178,#180,.T.);
#176 = VERTEX_POINT('',#177);
#177 = CARTESIAN_POINT('',(1.2065,6.35,-10.99852262806));
#178 = VERTEX_POINT('',#179);
#179 = CARTESIAN_POINT('',(1.5875,6.35,-10.99852262806));
#180 = LINE('',#181,#182);
#181 = CARTESIAN_POINT('',(-6.35,6.35,-10.99852262806));
#182 = VECTOR('',#183,1.);
#183 = DIRECTION('',(1.,0.,0.));
#184 = ORIENTED_EDGE('',*,*,#185,.T.);
#185 = EDGE_CURVE('',#178,#186,#188,.T.);
#186 = VERTEX_POINT('',#187);
#187 = CARTESIAN_POINT('',(1.5875,-6.35,10.998522628062));
#188 = CIRCLE('',#189,12.7);
#189 = AXIS2_PLACEMENT_3D('',#190,#191,#192);
#190 = CARTESIAN_POINT('',(1.5875,0.,0.));
#191 = DIRECTION('',(-1.,0.,-0.));
#192 = DIRECTION('',(0.,0.5,-0.866025403784));
#193 = ORIENTED_EDGE('',*,*,#194,.F.);
#194 = EDGE_CURVE('',#195,#186,#197,.T.);
#195 = VERTEX_POINT('',#196);
#196 = CARTESIAN_POINT('',(1.2065,-6.35,10.998522628062));
#197 = LINE('',#198,#199);
#198 = CARTESIAN_POINT('',(-6.35,-6.35,10.998522628062));
#199 = VECTOR('',#200,1.);
#200 = DIRECTION('',(1.,0.,0.));
#201 = ORIENTED_EDGE('',*,*,#202,.T.);
#202 = EDGE_CURVE('',#195,#176,#203,.T.);
#203 = CIRCLE('',#204,12.7);
#204 = AXIS2_PLACEMENT_3D('',#205,#206,#207);
#205 = CARTESIAN_POINT('',(1.2065,0.,0.));
#206 = DIRECTION('',(1.,-0.,0.));
#207 = DIRECTION('',(0.,0.5,-0.866025403784));
#208 = CYLINDRICAL_SURFACE('',#209,12.7);
#209 = AXIS2_PLACEMENT_3D('',#210,#211,#212);
#210 = CARTESIAN_POINT('',(-6.35,0.,0.));
#211 = DIRECTION('',(1.,0.,0.));
#212 = DIRECTION('',(0.,0.5,-0.866025403784));
#213 = ADVANCED_FACE('',(#214),#250,.T.);
#214 = FACE_BOUND('',#215,.T.);
#215 = EDGE_LOOP('',(#216,#227,#235,#244));
#216 = ORIENTED_EDGE('',*,*,#217,.T.);
#217 = EDGE_CURVE('',#218,#220,#222,.T.);
#218 = VERTEX_POINT('',#219);
#219 = CARTESIAN_POINT('',(0.,7.77875,-13.47319021937));
#220 = VERTEX_POINT('',#221);
#221 = CARTESIAN_POINT('',(0.,-7.77875,13.473190219376));
#222 = CIRCLE('',#223,15.5575);
#223 = AXIS2_PLACEMENT_3D('',#224,#225,#226);
#224 = CARTESIAN_POINT('',(0.,0.,0.));
#225 = DIRECTION('',(1.,-0.,0.));
#226 = DIRECTION('',(0.,0.5,-0.866025403784));
#227 = ORIENTED_EDGE('',*,*,#228,.T.);
#228 = EDGE_CURVE('',#220,#229,#231,.T.);
#229 = VERTEX_POINT('',#230);
#230 = CARTESIAN_POINT('',(1.5875,-7.77875,13.473190219376));
#231 = LINE('',#232,#233);
#232 = CARTESIAN_POINT('',(-6.35,-7.77875,13.473190219376));
#233 = VECTOR('',#234,1.);
#234 = DIRECTION('',(1.,0.,0.));
#235 = ORIENTED_EDGE('',*,*,#236,.F.);
#236 = EDGE_CURVE('',#237,#229,#239,.T.);
#237 = VERTEX_POINT('',#238);
#238 = CARTESIAN_POINT('',(1.5875,7.77875,-13.47319021937));
#239 = CIRCLE('',#240,15.5575);
#240 = AXIS2_PLACEMENT_3D('',#241,#242,#243);
#241 = CARTESIAN_POINT('',(1.5875,0.,0.));
#242 = DIRECTION('',(1.,-0.,0.));
#243 = DIRECTION('',(0.,0.5,-0.866025403784));
#244 = ORIENTED_EDGE('',*,*,#245,.F.);
#245 = EDGE_CURVE('',#218,#237,#246,.T.);
#246 = LINE('',#247,#248);
#247 = CARTESIAN_POINT('',(-6.35,7.77875,-13.47319021937));
#248 = VECTOR('',#249,1.);
#249 = DIRECTION('',(1.,0.,0.));
#250 = CYLINDRICAL_SURFACE('',#251,15.5575);
#251 = AXIS2_PLACEMENT_3D('',#252,#253,#254);
#252 = CARTESIAN_POINT('',(-6.35,0.,0.));
#253 = DIRECTION('',(1.,0.,0.));
#254 = DIRECTION('',(0.,0.5,-0.866025403784));
#255 = ADVANCED_FACE('',(#256),#292,.T.);
#256 = FACE_BOUND('',#257,.T.);
#257 = EDGE_LOOP('',(#258,#269,#277,#286));
#258 = ORIENTED_EDGE('',*,*,#259,.F.);
#259 = EDGE_CURVE('',#260,#262,#264,.T.);
#260 = VERTEX_POINT('',#261);
#261 = CARTESIAN_POINT('',(1.2065,-4.826,8.358877197327));
#262 = VERTEX_POINT('',#263);
#263 = CARTESIAN_POINT('',(1.2065,4.826,-8.358877197327));
#264 = CIRCLE('',#265,9.652);
#265 = AXIS2_PLACEMENT_3D('',#266,#267,#268);
#266 = CARTESIAN_POINT('',(1.2065,0.,0.));
#267 = DIRECTION('',(-1.,0.,-0.));
#268 = DIRECTION('',(0.,0.5,-0.866025403784));
#269 = ORIENTED_EDGE('',*,*,#270,.T.);
#270 = EDGE_CURVE('',#260,#271,#273,.T.);
#271 = VERTEX_POINT('',#272);
#272 = CARTESIAN_POINT('',(1.5875,-4.826,8.358877197327));
#273 = LINE('',#274,#275);
#274 = CARTESIAN_POINT('',(-6.35,-4.826,8.358877197327));
#275 = VECTOR('',#276,1.);
#276 = DIRECTION('',(1.,0.,0.));
#277 = ORIENTED_EDGE('',*,*,#278,.T.);
#278 = EDGE_CURVE('',#271,#279,#281,.T.);
#279 = VERTEX_POINT('',#280);
#280 = CARTESIAN_POINT('',(1.5875,4.826,-8.358877197327));
#281 = CIRCLE('',#282,9.652);
#282 = AXIS2_PLACEMENT_3D('',#283,#284,#285);
#283 = CARTESIAN_POINT('',(1.5875,0.,0.));
#284 = DIRECTION('',(-1.,0.,-0.));
#285 = DIRECTION('',(0.,0.5,-0.866025403784));
#286 = ORIENTED_EDGE('',*,*,#287,.F.);
#287 = EDGE_CURVE('',#262,#279,#288,.T.);
#288 = LINE('',#289,#290);
#289 = CARTESIAN_POINT('',(-6.35,4.826,-8.358877197327));
#290 = VECTOR('',#291,1.);
#291 = DIRECTION('',(1.,0.,0.));
#292 = CYLINDRICAL_SURFACE('',#293,9.652);
#293 = AXIS2_PLACEMENT_3D('',#294,#295,#296);
#294 = CARTESIAN_POINT('',(-6.35,0.,0.));
#295 = DIRECTION('',(1.,0.,0.));
#296 = DIRECTION('',(0.,0.5,-0.866025403784));
#297 = ADVANCED_FACE('',(#298),#324,.T.);
#298 = FACE_BOUND('',#299,.T.);
#299 = EDGE_LOOP('',(#300,#301,#309,#318));
#300 = ORIENTED_EDGE('',*,*,#148,.T.);
#301 = ORIENTED_EDGE('',*,*,#302,.T.);
#302 = EDGE_CURVE('',#22,#303,#305,.T.);
#303 = VERTEX_POINT('',#304);
#304 = CARTESIAN_POINT('',(-0.75,7.1374,-12.36233943394));
#305 = LINE('',#306,#307);
#306 = CARTESIAN_POINT('',(-0.75,7.1374,-12.36233943394));
#307 = VECTOR('',#308,1.);
#308 = DIRECTION('',(-0.866025403784,0.25,-0.433012701892));
#309 = ORIENTED_EDGE('',*,*,#310,.T.);
#310 = EDGE_CURVE('',#303,#311,#313,.T.);
#311 = VERTEX_POINT('',#312);
#312 = CARTESIAN_POINT('',(-0.75,-7.1374,12.362339433942));
#313 = CIRCLE('',#314,14.2748);
#314 = AXIS2_PLACEMENT_3D('',#315,#316,#317);
#315 = CARTESIAN_POINT('',(-0.75,0.,0.));
#316 = DIRECTION('',(1.,0.,0.));
#317 = DIRECTION('',(0.,-0.5,0.866025403784));
#318 = ORIENTED_EDGE('',*,*,#319,.F.);
#319 = EDGE_CURVE('',#140,#311,#320,.T.);
#320 = LINE('',#321,#322);
#321 = CARTESIAN_POINT('',(-0.75,-7.1374,12.362339433942));
#322 = VECTOR('',#323,1.);
#323 = DIRECTION('',(-0.866025403784,-0.25,0.433012701892));
#324 = CONICAL_SURFACE('',#325,14.2748,0.523598775598);
#325 = AXIS2_PLACEMENT_3D('',#326,#327,#328);
#326 = CARTESIAN_POINT('',(-0.75,0.,0.));
#327 = DIRECTION('',(-1.,0.,0.));
#328 = DIRECTION('',(0.,-0.5,0.866025403784));
#329 = ADVANCED_FACE('',(#330),#356,.T.);
#330 = FACE_BOUND('',#331,.T.);
#331 = EDGE_LOOP('',(#332,#343,#349,#350));
#332 = ORIENTED_EDGE('',*,*,#333,.T.);
#333 = EDGE_CURVE('',#334,#336,#338,.T.);
#334 = VERTEX_POINT('',#335);
#335 = CARTESIAN_POINT('',(-6.35,7.1374,-12.36233943394));
#336 = VERTEX_POINT('',#337);
#337 = CARTESIAN_POINT('',(-6.35,-7.1374,12.362339433942));
#338 = CIRCLE('',#339,14.2748);
#339 = AXIS2_PLACEMENT_3D('',#340,#341,#342);
#340 = CARTESIAN_POINT('',(-6.35,0.,0.));
#341 = DIRECTION('',(1.,-0.,0.));
#342 = DIRECTION('',(0.,0.5,-0.866025403784));
#343 = ORIENTED_EDGE('',*,*,#344,.T.);
#344 = EDGE_CURVE('',#336,#311,#345,.T.);
#345 = LINE('',#346,#347);
#346 = CARTESIAN_POINT('',(-6.35,-7.1374,12.362339433942));
#347 = VECTOR('',#348,1.);
#348 = DIRECTION('',(1.,0.,0.));
#349 = ORIENTED_EDGE('',*,*,#310,.F.);
#350 = ORIENTED_EDGE('',*,*,#351,.F.);
#351 = EDGE_CURVE('',#334,#303,#352,.T.);
#352 = LINE('',#353,#354);
#353 = CARTESIAN_POINT('',(-6.35,7.1374,-12.36233943394));
#354 = VECTOR('',#355,1.);
#355 = DIRECTION('',(1.,0.,0.));
#356 = CYLINDRICAL_SURFACE('',#357,14.2748);
#357 = AXIS2_PLACEMENT_3D('',#358,#359,#360);
#358 = CARTESIAN_POINT('',(-6.35,0.,0.));
#359 = DIRECTION('',(1.,0.,0.));
#360 = DIRECTION('',(0.,0.5,-0.866025403784));
#361 = ADVANCED_FACE('',(#362),#398,.T.);
#362 = FACE_BOUND('',#363,.T.);
#363 = EDGE_LOOP('',(#364,#375,#383,#392));
#364 = ORIENTED_EDGE('',*,*,#365,.F.);
#365 = EDGE_CURVE('',#366,#368,#370,.T.);
#366 = VERTEX_POINT('',#367);
#367 = CARTESIAN_POINT('',(-6.35,-4.826,8.358877197327));
#368 = VERTEX_POINT('',#369);
#369 = CARTESIAN_POINT('',(-6.35,4.826,-8.358877197327));
#370 = CIRCLE('',#371,9.652);
#371 = AXIS2_PLACEMENT_3D('',#372,#373,#374);
#372 = CARTESIAN_POINT('',(-6.35,0.,0.));
#373 = DIRECTION('',(-1.,0.,-0.));
#374 = DIRECTION('',(0.,0.5,-0.866025403784));
#375 = ORIENTED_EDGE('',*,*,#376,.T.);
#376 = EDGE_CURVE('',#366,#377,#379,.T.);
#377 = VERTEX_POINT('',#378);
#378 = CARTESIAN_POINT('',(-5.969,-4.826,8.358877197327));
#379 = LINE('',#380,#381);
#380 = CARTESIAN_POINT('',(-6.35,-4.826,8.358877197327));
#381 = VECTOR('',#382,1.);
#382 = DIRECTION('',(1.,0.,0.));
#383 = ORIENTED_EDGE('',*,*,#384,.T.);
#384 = EDGE_CURVE('',#377,#385,#387,.T.);
#385 = VERTEX_POINT('',#386);
#386 = CARTESIAN_POINT('',(-5.969,4.826,-8.358877197327));
#387 = CIRCLE('',#388,9.652);
#388 = AXIS2_PLACEMENT_3D('',#389,#390,#391);
#389 = CARTESIAN_POINT('',(-5.969,0.,0.));
#390 = DIRECTION('',(-1.,0.,-0.));
#391 = DIRECTION('',(0.,0.5,-0.866025403784));
#392 = ORIENTED_EDGE('',*,*,#393,.F.);
#393 = EDGE_CURVE('',#368,#385,#394,.T.);
#394 = LINE('',#395,#396);
#395 = CARTESIAN_POINT('',(-6.35,4.826,-8.358877197327));
#396 = VECTOR('',#397,1.);
#397 = DIRECTION('',(1.,0.,0.));
#398 = CYLINDRICAL_SURFACE('',#399,9.652);
#399 = AXIS2_PLACEMENT_3D('',#400,#401,#402);
#400 = CARTESIAN_POINT('',(-6.35,0.,0.));
#401 = DIRECTION('',(1.,0.,0.));
#402 = DIRECTION('',(0.,0.5,-0.866025403784));
#403 = ADVANCED_FACE('',(#404),#440,.F.);
#404 = FACE_BOUND('',#405,.F.);
#405 = EDGE_LOOP('',(#406,#416,#425,#433));
#406 = ORIENTED_EDGE('',*,*,#407,.T.);
#407 = EDGE_CURVE('',#408,#410,#412,.T.);
#408 = VERTEX_POINT('',#409);
#409 = CARTESIAN_POINT('',(-6.35,6.35,-10.99852262806));
#410 = VERTEX_POINT('',#411);
#411 = CARTESIAN_POINT('',(-5.969,6.35,-10.99852262806));
#412 = LINE('',#413,#414);
#413 = CARTESIAN_POINT('',(-6.35,6.35,-10.99852262806));
#414 = VECTOR('',#415,1.);
#415 = DIRECTION('',(1.,0.,0.));
#416 = ORIENTED_EDGE('',*,*,#417,.T.);
#417 = EDGE_CURVE('',#410,#418,#420,.T.);
#418 = VERTEX_POINT('',#419);
#419 = CARTESIAN_POINT('',(-5.969,-6.35,10.998522628062));
#420 = CIRCLE('',#421,12.7);
#421 = AXIS2_PLACEMENT_3D('',#422,#423,#424);
#422 = CARTESIAN_POINT('',(-5.969,0.,0.));
#423 = DIRECTION('',(-1.,0.,-0.));
#424 = DIRECTION('',(0.,0.5,-0.866025403784));
#425 = ORIENTED_EDGE('',*,*,#426,.F.);
#426 = EDGE_CURVE('',#427,#418,#429,.T.);
#427 = VERTEX_POINT('',#428);
#428 = CARTESIAN_POINT('',(-6.35,-6.35,10.998522628062));
#429 = LINE('',#430,#431);
#430 = CARTESIAN_POINT('',(-6.35,-6.35,10.998522628062));
#431 = VECTOR('',#432,1.);
#432 = DIRECTION('',(1.,0.,0.));
#433 = ORIENTED_EDGE('',*,*,#434,.T.);
#434 = EDGE_CURVE('',#427,#408,#435,.T.);
#435 = CIRCLE('',#436,12.7);
#436 = AXIS2_PLACEMENT_3D('',#437,#438,#439);
#437 = CARTESIAN_POINT('',(-6.35,0.,0.));
#438 = DIRECTION('',(1.,-0.,0.));
#439 = DIRECTION('',(0.,0.5,-0.866025403784));
#440 = CYLINDRICAL_SURFACE('',#441,12.7);
#441 = AXIS2_PLACEMENT_3D('',#442,#443,#444);
#442 = CARTESIAN_POINT('',(-6.35,0.,0.));
#443 = DIRECTION('',(1.,0.,0.));
#444 = DIRECTION('',(0.,0.5,-0.866025403784));
#445 = ADVANCED_FACE('',(#446,#456),#466,.T.);
#446 = FACE_BOUND('',#447,.T.);
#447 = EDGE_LOOP('',(#448,#449));
#448 = ORIENTED_EDGE('',*,*,#185,.T.);
#449 = ORIENTED_EDGE('',*,*,#450,.T.);
#450 = EDGE_CURVE('',#186,#178,#451,.T.);
#451 = CIRCLE('',#452,12.7);
#452 = AXIS2_PLACEMENT_3D('',#453,#454,#455);
#453 = CARTESIAN_POINT('',(1.5875,0.,0.));
#454 = DIRECTION('',(-1.,0.,-0.));
#455 = DIRECTION('',(0.,0.5,-0.866025403784));
#456 = FACE_BOUND('',#457,.T.);
#457 = EDGE_LOOP('',(#458,#459));
#458 = ORIENTED_EDGE('',*,*,#236,.T.);
#459 = ORIENTED_EDGE('',*,*,#460,.T.);
#460 = EDGE_CURVE('',#229,#237,#461,.T.);
#461 = CIRCLE('',#462,15.5575);
#462 = AXIS2_PLACEMENT_3D('',#463,#464,#465);
#463 = CARTESIAN_POINT('',(1.5875,0.,0.));
#464 = DIRECTION('',(1.,-0.,0.));
#465 = DIRECTION('',(0.,0.5,-0.866025403784));
#466 = PLANE('',#467);
#467 = AXIS2_PLACEMENT_3D('',#468,#469,#470);
#468 = CARTESIAN_POINT('',(1.5875,10.998522628062,6.35));
#469 = DIRECTION('',(1.,0.,0.));
#470 = DIRECTION('',(0.,0.5,-0.866025403784));
#471 = ADVANCED_FACE('',(#472),#484,.F.);
#472 = FACE_BOUND('',#473,.F.);
#473 = EDGE_LOOP('',(#474,#475,#476,#483));
#474 = ORIENTED_EDGE('',*,*,#450,.T.);
#475 = ORIENTED_EDGE('',*,*,#175,.F.);
#476 = ORIENTED_EDGE('',*,*,#477,.T.);
#477 = EDGE_CURVE('',#176,#195,#478,.T.);
#478 = CIRCLE('',#479,12.7);
#479 = AXIS2_PLACEMENT_3D('',#480,#481,#482);
#480 = CARTESIAN_POINT('',(1.2065,0.,0.));
#481 = DIRECTION('',(1.,-0.,0.));
#482 = DIRECTION('',(0.,0.5,-0.866025403784));
#483 = ORIENTED_EDGE('',*,*,#194,.T.);
#484 = CYLINDRICAL_SURFACE('',#485,12.7);
#485 = AXIS2_PLACEMENT_3D('',#486,#487,#488);
#486 = CARTESIAN_POINT('',(-6.35,0.,0.));
#487 = DIRECTION('',(1.,0.,0.));
#488 = DIRECTION('',(0.,0.5,-0.866025403784));
#489 = ADVANCED_FACE('',(#490),#502,.T.);
#490 = FACE_BOUND('',#491,.T.);
#491 = EDGE_LOOP('',(#492,#493,#500,#501));
#492 = ORIENTED_EDGE('',*,*,#228,.F.);
#493 = ORIENTED_EDGE('',*,*,#494,.T.);
#494 = EDGE_CURVE('',#220,#218,#495,.T.);
#495 = CIRCLE('',#496,15.5575);
#496 = AXIS2_PLACEMENT_3D('',#497,#498,#499);
#497 = CARTESIAN_POINT('',(0.,0.,0.));
#498 = DIRECTION('',(1.,-0.,0.));
#499 = DIRECTION('',(0.,0.5,-0.866025403784));
#500 = ORIENTED_EDGE('',*,*,#245,.T.);
#501 = ORIENTED_EDGE('',*,*,#460,.F.);
#502 = CYLINDRICAL_SURFACE('',#503,15.5575);
#503 = AXIS2_PLACEMENT_3D('',#504,#505,#506);
#504 = CARTESIAN_POINT('',(-6.35,0.,0.));
#505 = DIRECTION('',(1.,0.,0.));
#506 = DIRECTION('',(0.,0.5,-0.866025403784));
#507 = ADVANCED_FACE('',(#508,#518),#522,.T.);
#508 = FACE_BOUND('',#509,.T.);
#509 = EDGE_LOOP('',(#510,#517));
#510 = ORIENTED_EDGE('',*,*,#511,.T.);
#511 = EDGE_CURVE('',#262,#260,#512,.T.);
#512 = CIRCLE('',#513,9.652);
#513 = AXIS2_PLACEMENT_3D('',#514,#515,#516);
#514 = CARTESIAN_POINT('',(1.2065,0.,0.));
#515 = DIRECTION('',(-1.,0.,-0.));
#516 = DIRECTION('',(0.,0.5,-0.866025403784));
#517 = ORIENTED_EDGE('',*,*,#259,.T.);
#518 = FACE_BOUND('',#519,.T.);
#519 = EDGE_LOOP('',(#520,#521));
#520 = ORIENTED_EDGE('',*,*,#477,.T.);
#521 = ORIENTED_EDGE('',*,*,#202,.T.);
#522 = PLANE('',#523);
#523 = AXIS2_PLACEMENT_3D('',#524,#525,#526);
#524 = CARTESIAN_POINT('',(1.2065,8.358877197327,4.826));
#525 = DIRECTION('',(1.,0.,0.));
#526 = DIRECTION('',(0.,0.5,-0.866025403784));
#527 = ADVANCED_FACE('',(#528,#532),#640,.T.);
#528 = FACE_BOUND('',#529,.T.);
#529 = EDGE_LOOP('',(#530,#531));
#530 = ORIENTED_EDGE('',*,*,#217,.F.);
#531 = ORIENTED_EDGE('',*,*,#494,.F.);
#532 = FACE_BOUND('',#533,.T.);
#533 = EDGE_LOOP('',(#534,#535));
#534 = ORIENTED_EDGE('',*,*,#32,.T.);
#535 = ORIENTED_EDGE('',*,*,#536,.T.);
#536 = EDGE_CURVE('',#33,#24,#537,.T.);
#537 = B_SPLINE_CURVE_WITH_KNOTS('',3,(#538,#539,#540,#541,#542,#543,
    #544,#545,#546,#547,#548,#549,#550,#551,#552,#553,#554,#555,#556,
    #557,#558,#559,#560,#561,#562,#563,#564,#565,#566,#567,#568,#569,
    #570,#571,#572,#573,#574,#575,#576,#577,#578,#579,#580,#581,#582,
    #583,#584,#585,#586,#587,#588,#589,#590,#591,#592,#593,#594,#595,
    #596,#597,#598,#599,#600,#601,#602,#603,#604,#605,#606,#607,#608,
    #609,#610,#611,#612,#613,#614,#615,#616,#617,#618,#619,#620,#621,
    #622,#623,#624,#625,#626,#627,#628,#629,#630,#631,#632,#633,#634,
    #635,#636,#637,#638,#639),.UNSPECIFIED.,.F.,.F.,(4,1,1,1,1,2,2,1,1,1
    ,1,2,2,1,1,1,2,2,2,1,1,1,2,2,1,1,1,1,2,2,1,1,1,1,2,2,2,1,1,1,1,2,2,1
    ,1,1,1,2,2,1,1,1,2,2,2,1,1,1,2,2,1,1,1,1,2,2,1,1,1,1,2,2,4),(0.,
    3.125E-02,4.6875E-02,5.46875E-02,5.859375E-02,6.0546875E-02,6.25E-02
    ,9.375E-02,0.109375,0.1171875,0.12109375,0.123046875,0.125,0.15625,
    0.171875,0.1796875,0.18359375,0.1875,0.25,0.28125,0.296875,0.3046875
    ,0.30859375,0.3125,0.34375,0.359375,0.3671875,0.37109375,0.373046875
    ,0.375,0.40625,0.421875,0.4296875,0.43359375,0.435546875,0.4375,0.5,
    0.53125,0.546875,0.5546875,0.55859375,0.560546875,0.5625,0.59375,
    0.609375,0.6171875,0.62109375,0.623046875,0.625,0.65625,0.671875,
    0.6796875,0.68359375,0.6875,0.75,0.78125,0.796875,0.8046875,
    0.80859375,0.8125,0.84375,0.859375,0.8671875,0.87109375,0.873046875,
    0.875,0.90625,0.921875,0.9296875,0.93359375,0.935546875,0.9375,1.),
  .UNSPECIFIED.);
#538 = CARTESIAN_POINT('',(0.,-7.1374,12.362339433942));
#539 = CARTESIAN_POINT('',(-8.881784197001E-16,-7.515393720723,
    12.144104657531));
#540 = CARTESIAN_POINT('',(0.,-8.065180605627,11.792287601142));
#541 = CARTESIAN_POINT('',(1.7763568394E-15,-8.676492169698,
    11.339020808086));
#542 = CARTESIAN_POINT('',(2.6645352591E-15,-8.974621334654,
    11.101684021408));
#543 = CARTESIAN_POINT('',(-8.881784197001E-16,-9.121804262863,
    10.980339780532));
#544 = CARTESIAN_POINT('',(2.6645352591E-15,-9.184479449037,
    10.927761709969));
#545 = CARTESIAN_POINT('',(1.7763568394E-15,-9.226173303903,
    10.892582241617));
#546 = CARTESIAN_POINT('',(0.,-9.245733327204,10.875988978157));
#547 = CARTESIAN_POINT('',(-8.881784197001E-16,-9.619723597899,
    10.556774251538));
#548 = CARTESIAN_POINT('',(0.,-10.12359798122,10.082684678984));
#549 = CARTESIAN_POINT('',(0.,-10.66925563636,9.488571573817));
#550 = CARTESIAN_POINT('',(-1.7763568394E-15,-10.9315355159,
    9.181262870271));
#551 = CARTESIAN_POINT('',(0.,-11.06003821867,9.025045480756));
#552 = CARTESIAN_POINT('',(1.7763568394E-15,-11.11454568336,
    8.957545948592));
#553 = CARTESIAN_POINT('',(2.6645352591E-15,-11.15075841044,
    8.912424211066));
#554 = CARTESIAN_POINT('',(1.7763568394E-15,-11.16806076013,
    8.890737376494));
#555 = CARTESIAN_POINT('',(1.7763568394E-15,-11.48633481648,
    8.489231766162));
#556 = CARTESIAN_POINT('',(0.,-11.90499657016,7.902622081366));
#557 = CARTESIAN_POINT('',(0.,-12.33976921251,7.183632204664));
#558 = CARTESIAN_POINT('',(1.7763568394E-15,-12.54373901612,
    6.815484288537));
#559 = CARTESIAN_POINT('',(-8.881784197001E-16,-12.62827967818,
    6.655852400674));
#560 = CARTESIAN_POINT('',(1.7763568394E-15,-12.68400123777,
    6.549019095537));
#561 = CARTESIAN_POINT('',(1.7763568394E-15,-12.7109789048,6.49651102689
    ));
#562 = CARTESIAN_POINT('',(1.7763568394E-15,-13.1833335927,
    5.562474819275));
#563 = CARTESIAN_POINT('',(0.,-13.53339628356,4.646125833476));
#564 = CARTESIAN_POINT('',(0.,-13.91589883588,3.218822240806));
#565 = CARTESIAN_POINT('',(0.,-14.06958441435,2.499025198403));
#566 = CARTESIAN_POINT('',(-8.881784197001E-16,-14.18314428492,
    1.648507801644));
#567 = CARTESIAN_POINT('',(1.7763568394E-15,-14.22348922746,
    1.22056055811));
#568 = CARTESIAN_POINT('',(1.7763568394E-15,-14.23725813296,
    1.036578479776));
#569 = CARTESIAN_POINT('',(-1.7763568394E-15,-14.2456547846,
    0.913795734927));
#570 = CARTESIAN_POINT('',(1.7763568394E-15,-14.24953594106,
    0.85100503355));
#571 = CARTESIAN_POINT('',(0.,-14.27961004508,0.309348291852));
#572 = CARTESIAN_POINT('',(1.7763568394E-15,-14.28324947917,
    -0.411328731075));
#573 = CARTESIAN_POINT('',(0.,-14.22369158589,-1.249437650653));
#574 = CARTESIAN_POINT('',(1.7763568394E-15,-14.17796166432,
    -1.667821875316));
#575 = CARTESIAN_POINT('',(-1.7763568394E-15,-14.1511089598,
    -1.876846428865));
#576 = CARTESIAN_POINT('',(-8.881784197001E-16,-14.13874614135,
    -1.966392474934));
#577 = CARTESIAN_POINT('',(1.7763568394E-15,-14.13031436983,
    -2.026081859989));
#578 = CARTESIAN_POINT('',(1.7763568394E-15,-14.12582286068,
    -2.057146140464));
#579 = CARTESIAN_POINT('',(0.,-14.05399613997,-2.543569454113));
#580 = CARTESIAN_POINT('',(1.7763568394E-15,-13.91993243315,
    -3.22230151748));
#581 = CARTESIAN_POINT('',(1.7763568394E-15,-13.70636753943,
    -4.000184986225));
#582 = CARTESIAN_POINT('',(0.,-13.58529578363,-4.385634069302));
#583 = CARTESIAN_POINT('',(0.,-13.52118757849,-4.577485448016));
#584 = CARTESIAN_POINT('',(0.,-13.49294713474,-4.659520361146));
#585 = CARTESIAN_POINT('',(1.7763568394E-15,-13.47395006142,
    -4.71416872405));
#586 = CARTESIAN_POINT('',(1.7763568394E-15,-13.4638081982,
    -4.743047423065));
#587 = CARTESIAN_POINT('',(-1.7763568394E-15,-13.16316577903,
    -5.591388161894));
#588 = CARTESIAN_POINT('',(-8.881784197001E-16,-12.79869327752,
    -6.381548122885));
#589 = CARTESIAN_POINT('',(0.,-12.14416251215,-7.515325938558));
#590 = CARTESIAN_POINT('',(1.7763568394E-15,-11.79238884672,
    -8.065061986837));
#591 = CARTESIAN_POINT('',(-8.881784197001E-16,-11.33909674227,
    -8.676403205606));
#592 = CARTESIAN_POINT('',(0.,-11.10172831635,-8.974569438934));
#593 = CARTESIAN_POINT('',(0.,-10.98036350996,-9.121776461584));
#594 = CARTESIAN_POINT('',(-8.881784197001E-16,-10.92777560863,
    -9.184463165431));
#595 = CARTESIAN_POINT('',(-8.881784197001E-16,-10.89258936044,
    -9.226164963519));
#596 = CARTESIAN_POINT('',(1.7763568394E-15,-10.87598897815,
    -9.245733327203));
#597 = CARTESIAN_POINT('',(1.7763568394E-15,-10.55677425153,
    -9.619723597902));
#598 = CARTESIAN_POINT('',(0.,-10.08268467898,-10.12359798123));
#599 = CARTESIAN_POINT('',(0.,-9.488571573815,-10.66925563636));
#600 = CARTESIAN_POINT('',(1.7763568394E-15,-9.181262870269,
    -10.93153551591));
#601 = CARTESIAN_POINT('',(0.,-9.025045480756,-11.06003821868));
#602 = CARTESIAN_POINT('',(0.,-8.957545948591,-11.11454568336));
#603 = CARTESIAN_POINT('',(2.6645352591E-15,-8.912424211065,
    -11.15075841044));
#604 = CARTESIAN_POINT('',(1.7763568394E-15,-8.890737376494,
    -11.16806076013));
#605 = CARTESIAN_POINT('',(1.7763568394E-15,-8.489231766154,
    -11.48633481648));
#606 = CARTESIAN_POINT('',(0.,-7.90262208135,-11.90499657017));
#607 = CARTESIAN_POINT('',(0.,-7.183632204653,-12.33976921252));
#608 = CARTESIAN_POINT('',(0.,-6.815484288531,-12.54373901612));
#609 = CARTESIAN_POINT('',(1.7763568394E-15,-6.65585240067,
    -12.62827967819));
#610 = CARTESIAN_POINT('',(0.,-6.549019095535,-12.68400123777));
#611 = CARTESIAN_POINT('',(-1.7763568394E-15,-6.496511026889,
    -12.7109789048));
#612 = CARTESIAN_POINT('',(-8.881784197001E-16,-5.562474819289,
    -13.18333359269));
#613 = CARTESIAN_POINT('',(-1.7763568394E-15,-4.646125833447,
    -13.53339628356));
#614 = CARTESIAN_POINT('',(-8.881784197001E-16,-3.218822240821,
    -13.91589883588));
#615 = CARTESIAN_POINT('',(0.,-2.499025198428,-14.06958441434));
#616 = CARTESIAN_POINT('',(-1.7763568394E-15,-1.648507801663,
    -14.18314428492));
#617 = CARTESIAN_POINT('',(1.7763568394E-15,-1.220560558121,
    -14.22348922746));
#618 = CARTESIAN_POINT('',(2.6645352591E-15,-1.036578479783,
    -14.23725813296));
#619 = CARTESIAN_POINT('',(-8.881784197001E-16,-0.913795734931,
    -14.2456547846));
#620 = CARTESIAN_POINT('',(1.7763568394E-15,-0.851005033549,
    -14.24953594106));
#621 = CARTESIAN_POINT('',(1.7763568394E-15,-0.309348291855,
    -14.27961004508));
#622 = CARTESIAN_POINT('',(0.,0.41132873107,-14.28324947918));
#623 = CARTESIAN_POINT('',(0.,1.249437650649,-14.22369158589));
#624 = CARTESIAN_POINT('',(0.,1.667821875313,-14.17796166432));
#625 = CARTESIAN_POINT('',(1.7763568394E-15,1.876846428864,
    -14.1511089598));
#626 = CARTESIAN_POINT('',(0.,1.966392474933,-14.13874614135));
#627 = CARTESIAN_POINT('',(4.440892098501E-15,2.026081859989,
    -14.13031436983));
#628 = CARTESIAN_POINT('',(1.7763568394E-15,2.057146140464,
    -14.12582286068));
#629 = CARTESIAN_POINT('',(-8.881784197001E-16,2.543569454117,
    -14.05399613997));
#630 = CARTESIAN_POINT('',(0.,3.222301517486,-13.91993243315));
#631 = CARTESIAN_POINT('',(0.,4.00018498623,-13.70636753943));
#632 = CARTESIAN_POINT('',(1.7763568394E-15,4.385634069304,
    -13.58529578363));
#633 = CARTESIAN_POINT('',(-8.881784197001E-16,4.577485448018,
    -13.52118757849));
#634 = CARTESIAN_POINT('',(0.,4.659520361147,-13.49294713474));
#635 = CARTESIAN_POINT('',(2.6645352591E-15,4.714168724051,
    -13.47395006142));
#636 = CARTESIAN_POINT('',(1.7763568394E-15,4.743042171117,
    -13.46381005944));
#637 = CARTESIAN_POINT('',(0.,5.591556224224,-13.16310621963));
#638 = CARTESIAN_POINT('',(1.7763568394E-15,6.381104651497,
    -12.79898675698));
#639 = CARTESIAN_POINT('',(0.,7.1374,-12.36233943394));
#640 = PLANE('',#641);
#641 = AXIS2_PLACEMENT_3D('',#642,#643,#644);
#642 = CARTESIAN_POINT('',(0.,13.473190219376,7.77875));
#643 = DIRECTION('',(-1.,0.,0.));
#644 = DIRECTION('',(0.,-0.5,0.866025403784));
#645 = ADVANCED_FACE('',(#646),#658,.T.);
#646 = FACE_BOUND('',#647,.T.);
#647 = EDGE_LOOP('',(#648,#649,#650,#651));
#648 = ORIENTED_EDGE('',*,*,#270,.F.);
#649 = ORIENTED_EDGE('',*,*,#511,.F.);
#650 = ORIENTED_EDGE('',*,*,#287,.T.);
#651 = ORIENTED_EDGE('',*,*,#652,.T.);
#652 = EDGE_CURVE('',#279,#271,#653,.T.);
#653 = CIRCLE('',#654,9.652);
#654 = AXIS2_PLACEMENT_3D('',#655,#656,#657);
#655 = CARTESIAN_POINT('',(1.5875,0.,0.));
#656 = DIRECTION('',(-1.,0.,-0.));
#657 = DIRECTION('',(0.,0.5,-0.866025403784));
#658 = CYLINDRICAL_SURFACE('',#659,9.652);
#659 = AXIS2_PLACEMENT_3D('',#660,#661,#662);
#660 = CARTESIAN_POINT('',(-6.35,0.,0.));
#661 = DIRECTION('',(1.,0.,0.));
#662 = DIRECTION('',(0.,0.5,-0.866025403784));
#663 = ADVANCED_FACE('',(#664),#676,.F.);
#664 = FACE_BOUND('',#665,.F.);
#665 = EDGE_LOOP('',(#666,#667,#668,#675));
#666 = ORIENTED_EDGE('',*,*,#536,.T.);
#667 = ORIENTED_EDGE('',*,*,#21,.F.);
#668 = ORIENTED_EDGE('',*,*,#669,.T.);
#669 = EDGE_CURVE('',#22,#140,#670,.T.);
#670 = CIRCLE('',#671,14.058293649054);
#671 = AXIS2_PLACEMENT_3D('',#672,#673,#674);
#672 = CARTESIAN_POINT('',(-0.375,0.,0.));
#673 = DIRECTION('',(-1.,0.,-0.));
#674 = DIRECTION('',(0.,0.5,-0.866025403784));
#675 = ORIENTED_EDGE('',*,*,#139,.T.);
#676 = ( BOUNDED_SURFACE() B_SPLINE_SURFACE(3,3,(
    (#677,#678,#679,#680)
    ,(#681,#682,#683,#684)
    ,(#685,#686,#687,#688)
    ,(#689,#690,#691,#692
)),.UNSPECIFIED.,.F.,.F.,.F.) B_SPLINE_SURFACE_WITH_KNOTS((4,4),(4,4),(
    0.,1.),(0.,1.),.PIECEWISE_BEZIER_KNOTS.) 
GEOMETRIC_REPRESENTATION_ITEM() RATIONAL_B_SPLINE_SURFACE((
    (1.,0.333333333333,0.333333333333,1.)
    ,(0.666666666667,0.222222222222,0.222222222222,0.666666666667)
    ,(0.666666666667,0.222222222222,0.222222222222,0.666666666667)
,(1.,0.333333333333,0.333333333333,1.
))) REPRESENTATION_ITEM('') SURFACE() );
#677 = CARTESIAN_POINT('',(-0.375,-7.029146824527,12.174839433942));
#678 = CARTESIAN_POINT('',(-0.375,-31.37882569241,-1.883454215112));
#679 = CARTESIAN_POINT('',(-0.375,-17.32053204335,-26.23313308299));
#680 = CARTESIAN_POINT('',(-0.375,7.029146824527,-12.17483943394));
#681 = CARTESIAN_POINT('',(-0.1875,-6.97502023679,12.081089433942));
#682 = CARTESIAN_POINT('',(-0.1875,-31.13719910467,-1.868951039639));
#683 = CARTESIAN_POINT('',(-0.1875,-17.18715863109,-26.03112990752));
#684 = CARTESIAN_POINT('',(-0.1875,6.97502023679,-12.08108943394));
#685 = CARTESIAN_POINT('',(0.,-7.029146824527,12.174839433942));
#686 = CARTESIAN_POINT('',(-1.7763568394E-15,-31.37882569241,
    -1.883454215112));
#687 = CARTESIAN_POINT('',(-1.7763568394E-15,-17.32053204335,
    -26.23313308299));
#688 = CARTESIAN_POINT('',(0.,7.029146824527,-12.17483943394));
#689 = CARTESIAN_POINT('',(0.,-7.1374,12.362339433942));
#690 = CARTESIAN_POINT('',(0.,-31.86207886788,-1.912460566058));
#691 = CARTESIAN_POINT('',(0.,-17.58727886788,-26.63713943394));
#692 = CARTESIAN_POINT('',(0.,7.1374,-12.36233943394));
#693 = ADVANCED_FACE('',(#694,#698),#748,.T.);
#694 = FACE_BOUND('',#695,.T.);
#695 = EDGE_LOOP('',(#696,#697));
#696 = ORIENTED_EDGE('',*,*,#652,.F.);
#697 = ORIENTED_EDGE('',*,*,#278,.F.);
#698 = FACE_BOUND('',#699,.T.);
#699 = EDGE_LOOP('',(#700,#710,#718,#726,#734,#742));
#700 = ORIENTED_EDGE('',*,*,#701,.T.);
#701 = EDGE_CURVE('',#702,#704,#706,.T.);
#702 = VERTEX_POINT('',#703);
#703 = CARTESIAN_POINT('',(1.5875,-6.36,-3.671947712046));
#704 = VERTEX_POINT('',#705);
#705 = CARTESIAN_POINT('',(1.5875,-6.36,3.671947712046));
#706 = LINE('',#707,#708);
#707 = CARTESIAN_POINT('',(1.5875,-6.36,-3.671947712046));
#708 = VECTOR('',#709,1.);
#709 = DIRECTION('',(0.,-5.551115123126E-16,1.));
#710 = ORIENTED_EDGE('',*,*,#711,.T.);
#711 = EDGE_CURVE('',#704,#712,#714,.T.);
#712 = VERTEX_POINT('',#713);
#713 = CARTESIAN_POINT('',(1.5875,8.881784197001E-16,7.343895424092));
#714 = LINE('',#715,#716);
#715 = CARTESIAN_POINT('',(1.5875,2.319261314031,8.682921568069));
#716 = VECTOR('',#717,1.);
#717 = DIRECTION('',(0.,0.866025403784,0.5));
#718 = ORIENTED_EDGE('',*,*,#719,.T.);
#719 = EDGE_CURVE('',#712,#720,#722,.T.);
#720 = VERTEX_POINT('',#721);
#721 = CARTESIAN_POINT('',(1.5875,6.36,3.671947712046));
#722 = LINE('',#723,#724);
#723 = CARTESIAN_POINT('',(1.5875,0.,7.343895424092));
#724 = VECTOR('',#725,1.);
#725 = DIRECTION('',(0.,0.866025403784,-0.5));
#726 = ORIENTED_EDGE('',*,*,#727,.T.);
#727 = EDGE_CURVE('',#720,#728,#730,.T.);
#728 = VERTEX_POINT('',#729);
#729 = CARTESIAN_POINT('',(1.5875,6.36,-3.671947712046));
#730 = LINE('',#731,#732);
#731 = CARTESIAN_POINT('',(1.5875,6.36,3.671947712046));
#732 = VECTOR('',#733,1.);
#733 = DIRECTION('',(0.,-5.551115123126E-17,-1.));
#734 = ORIENTED_EDGE('',*,*,#735,.T.);
#735 = EDGE_CURVE('',#728,#736,#738,.T.);
#736 = VERTEX_POINT('',#737);
#737 = CARTESIAN_POINT('',(1.5875,6.661338147751E-15,-7.343895424092));
#738 = LINE('',#739,#740);
#739 = CARTESIAN_POINT('',(1.5875,8.679261314031,-2.332921568069));
#740 = VECTOR('',#741,1.);
#741 = DIRECTION('',(0.,-0.866025403784,-0.5));
#742 = ORIENTED_EDGE('',*,*,#743,.T.);
#743 = EDGE_CURVE('',#736,#702,#744,.T.);
#744 = LINE('',#745,#746);
#745 = CARTESIAN_POINT('',(1.5875,7.993605777301E-15,-7.343895424092));
#746 = VECTOR('',#747,1.);
#747 = DIRECTION('',(0.,-0.866025403784,0.5));
#748 = PLANE('',#749);
#749 = AXIS2_PLACEMENT_3D('',#750,#751,#752);
#750 = CARTESIAN_POINT('',(1.5875,5.499261314031,3.175));
#751 = DIRECTION('',(1.,0.,0.));
#752 = DIRECTION('',(0.,0.5,-0.866025403784));
#753 = ADVANCED_FACE('',(#754),#779,.F.);
#754 = FACE_BOUND('',#755,.T.);
#755 = EDGE_LOOP('',(#756,#764,#772,#778));
#756 = ORIENTED_EDGE('',*,*,#757,.F.);
#757 = EDGE_CURVE('',#758,#704,#760,.T.);
#758 = VERTEX_POINT('',#759);
#759 = CARTESIAN_POINT('',(-6.35,-6.36,3.671947712046));
#760 = LINE('',#761,#762);
#761 = CARTESIAN_POINT('',(-6.35,-6.36,3.671947712046));
#762 = VECTOR('',#763,1.);
#763 = DIRECTION('',(1.,0.,0.));
#764 = ORIENTED_EDGE('',*,*,#765,.F.);
#765 = EDGE_CURVE('',#766,#758,#768,.T.);
#766 = VERTEX_POINT('',#767);
#767 = CARTESIAN_POINT('',(-6.35,-8.881784197001E-16,7.343895424092));
#768 = LINE('',#769,#770);
#769 = CARTESIAN_POINT('',(-6.35,0.,7.343895424092));
#770 = VECTOR('',#771,1.);
#771 = DIRECTION('',(0.,-0.866025403784,-0.5));
#772 = ORIENTED_EDGE('',*,*,#773,.F.);
#773 = EDGE_CURVE('',#712,#766,#774,.T.);
#774 = LINE('',#775,#776);
#775 = CARTESIAN_POINT('',(-6.35,0.,7.343895424092));
#776 = VECTOR('',#777,1.);
#777 = DIRECTION('',(-1.,-0.,0.));
#778 = ORIENTED_EDGE('',*,*,#711,.F.);
#779 = PLANE('',#780);
#780 = AXIS2_PLACEMENT_3D('',#781,#782,#783);
#781 = CARTESIAN_POINT('',(-6.35,0.,7.343895424092));
#782 = DIRECTION('',(0.,-0.5,0.866025403784));
#783 = DIRECTION('',(0.,-0.866025403784,-0.5));
#784 = ADVANCED_FACE('',(#785),#803,.F.);
#785 = FACE_BOUND('',#786,.T.);
#786 = EDGE_LOOP('',(#787,#795,#801,#802));
#787 = ORIENTED_EDGE('',*,*,#788,.F.);
#788 = EDGE_CURVE('',#789,#702,#791,.T.);
#789 = VERTEX_POINT('',#790);
#790 = CARTESIAN_POINT('',(-6.35,-6.36,-3.671947712046));
#791 = LINE('',#792,#793);
#792 = CARTESIAN_POINT('',(-6.35,-6.36,-3.671947712046));
#793 = VECTOR('',#794,1.);
#794 = DIRECTION('',(1.,0.,0.));
#795 = ORIENTED_EDGE('',*,*,#796,.F.);
#796 = EDGE_CURVE('',#758,#789,#797,.T.);
#797 = LINE('',#798,#799);
#798 = CARTESIAN_POINT('',(-6.35,-6.36,3.671947712046));
#799 = VECTOR('',#800,1.);
#800 = DIRECTION('',(0.,2.775557561563E-16,-1.));
#801 = ORIENTED_EDGE('',*,*,#757,.T.);
#802 = ORIENTED_EDGE('',*,*,#701,.F.);
#803 = PLANE('',#804);
#804 = AXIS2_PLACEMENT_3D('',#805,#806,#807);
#805 = CARTESIAN_POINT('',(-6.35,-6.36,3.671947712046));
#806 = DIRECTION('',(0.,-1.,-3.330669073875E-16));
#807 = DIRECTION('',(0.,3.330669073875E-16,-1.));
#808 = ADVANCED_FACE('',(#809),#827,.F.);
#809 = FACE_BOUND('',#810,.T.);
#810 = EDGE_LOOP('',(#811,#819,#825,#826));
#811 = ORIENTED_EDGE('',*,*,#812,.F.);
#812 = EDGE_CURVE('',#813,#736,#815,.T.);
#813 = VERTEX_POINT('',#814);
#814 = CARTESIAN_POINT('',(-6.35,7.549516567451E-15,-7.343895424092));
#815 = LINE('',#816,#817);
#816 = CARTESIAN_POINT('',(-6.35,7.549516567451E-15,-7.343895424092));
#817 = VECTOR('',#818,1.);
#818 = DIRECTION('',(1.,0.,0.));
#819 = ORIENTED_EDGE('',*,*,#820,.F.);
#820 = EDGE_CURVE('',#789,#813,#821,.T.);
#821 = LINE('',#822,#823);
#822 = CARTESIAN_POINT('',(-6.35,-6.36,-3.671947712046));
#823 = VECTOR('',#824,1.);
#824 = DIRECTION('',(0.,0.866025403784,-0.5));
#825 = ORIENTED_EDGE('',*,*,#788,.T.);
#826 = ORIENTED_EDGE('',*,*,#743,.F.);
#827 = PLANE('',#828);
#828 = AXIS2_PLACEMENT_3D('',#829,#830,#831);
#829 = CARTESIAN_POINT('',(-6.35,-6.36,-3.671947712046));
#830 = DIRECTION('',(0.,-0.5,-0.866025403784));
#831 = DIRECTION('',(0.,0.866025403784,-0.5));
#832 = ADVANCED_FACE('',(#833),#851,.F.);
#833 = FACE_BOUND('',#834,.T.);
#834 = EDGE_LOOP('',(#835,#843,#849,#850));
#835 = ORIENTED_EDGE('',*,*,#836,.F.);
#836 = EDGE_CURVE('',#837,#728,#839,.T.);
#837 = VERTEX_POINT('',#838);
#838 = CARTESIAN_POINT('',(-6.35,6.36,-3.671947712046));
#839 = LINE('',#840,#841);
#840 = CARTESIAN_POINT('',(-6.35,6.36,-3.671947712046));
#841 = VECTOR('',#842,1.);
#842 = DIRECTION('',(1.,0.,0.));
#843 = ORIENTED_EDGE('',*,*,#844,.F.);
#844 = EDGE_CURVE('',#813,#837,#845,.T.);
#845 = LINE('',#846,#847);
#846 = CARTESIAN_POINT('',(-6.35,6.661338147751E-15,-7.343895424092));
#847 = VECTOR('',#848,1.);
#848 = DIRECTION('',(0.,0.866025403784,0.5));
#849 = ORIENTED_EDGE('',*,*,#812,.T.);
#850 = ORIENTED_EDGE('',*,*,#735,.F.);
#851 = PLANE('',#852);
#852 = AXIS2_PLACEMENT_3D('',#853,#854,#855);
#853 = CARTESIAN_POINT('',(-6.35,6.661338147751E-15,-7.343895424092));
#854 = DIRECTION('',(0.,0.5,-0.866025403784));
#855 = DIRECTION('',(0.,0.866025403784,0.5));
#856 = ADVANCED_FACE('',(#857),#875,.F.);
#857 = FACE_BOUND('',#858,.T.);
#858 = EDGE_LOOP('',(#859,#867,#873,#874));
#859 = ORIENTED_EDGE('',*,*,#860,.F.);
#860 = EDGE_CURVE('',#861,#720,#863,.T.);
#861 = VERTEX_POINT('',#862);
#862 = CARTESIAN_POINT('',(-6.35,6.36,3.671947712046));
#863 = LINE('',#864,#865);
#864 = CARTESIAN_POINT('',(-6.35,6.36,3.671947712046));
#865 = VECTOR('',#866,1.);
#866 = DIRECTION('',(1.,0.,0.));
#867 = ORIENTED_EDGE('',*,*,#868,.F.);
#868 = EDGE_CURVE('',#837,#861,#869,.T.);
#869 = LINE('',#870,#871);
#870 = CARTESIAN_POINT('',(-6.35,6.36,-3.671947712046));
#871 = VECTOR('',#872,1.);
#872 = DIRECTION('',(0.,-1.110223024625E-16,1.));
#873 = ORIENTED_EDGE('',*,*,#836,.T.);
#874 = ORIENTED_EDGE('',*,*,#727,.F.);
#875 = PLANE('',#876);
#876 = AXIS2_PLACEMENT_3D('',#877,#878,#879);
#877 = CARTESIAN_POINT('',(-6.35,6.36,-3.671947712046));
#878 = DIRECTION('',(0.,1.,1.665334536938E-16));
#879 = DIRECTION('',(0.,-1.665334536938E-16,1.));
#880 = ADVANCED_FACE('',(#881),#892,.F.);
#881 = FACE_BOUND('',#882,.T.);
#882 = EDGE_LOOP('',(#883,#884,#890,#891));
#883 = ORIENTED_EDGE('',*,*,#773,.T.);
#884 = ORIENTED_EDGE('',*,*,#885,.F.);
#885 = EDGE_CURVE('',#861,#766,#886,.T.);
#886 = LINE('',#887,#888);
#887 = CARTESIAN_POINT('',(-6.35,6.36,3.671947712046));
#888 = VECTOR('',#889,1.);
#889 = DIRECTION('',(0.,-0.866025403784,0.5));
#890 = ORIENTED_EDGE('',*,*,#860,.T.);
#891 = ORIENTED_EDGE('',*,*,#719,.F.);
#892 = PLANE('',#893);
#893 = AXIS2_PLACEMENT_3D('',#894,#895,#896);
#894 = CARTESIAN_POINT('',(-6.35,6.36,3.671947712046));
#895 = DIRECTION('',(0.,0.5,0.866025403784));
#896 = DIRECTION('',(0.,-0.866025403784,0.5));
#897 = ADVANCED_FACE('',(#898),#910,.T.);
#898 = FACE_BOUND('',#899,.T.);
#899 = EDGE_LOOP('',(#900,#901,#902,#903));
#900 = ORIENTED_EDGE('',*,*,#302,.F.);
#901 = ORIENTED_EDGE('',*,*,#669,.T.);
#902 = ORIENTED_EDGE('',*,*,#319,.T.);
#903 = ORIENTED_EDGE('',*,*,#904,.T.);
#904 = EDGE_CURVE('',#311,#303,#905,.T.);
#905 = CIRCLE('',#906,14.2748);
#906 = AXIS2_PLACEMENT_3D('',#907,#908,#909);
#907 = CARTESIAN_POINT('',(-0.75,0.,0.));
#908 = DIRECTION('',(1.,0.,0.));
#909 = DIRECTION('',(0.,-0.5,0.866025403784));
#910 = CONICAL_SURFACE('',#911,14.2748,0.523598775598);
#911 = AXIS2_PLACEMENT_3D('',#912,#913,#914);
#912 = CARTESIAN_POINT('',(-0.75,0.,0.));
#913 = DIRECTION('',(-1.,0.,0.));
#914 = DIRECTION('',(0.,-0.5,0.866025403784));
#915 = ADVANCED_FACE('',(#916,#926),#934,.T.);
#916 = FACE_BOUND('',#917,.T.);
#917 = EDGE_LOOP('',(#918,#925));
#918 = ORIENTED_EDGE('',*,*,#919,.T.);
#919 = EDGE_CURVE('',#368,#366,#920,.T.);
#920 = CIRCLE('',#921,9.652);
#921 = AXIS2_PLACEMENT_3D('',#922,#923,#924);
#922 = CARTESIAN_POINT('',(-6.35,0.,0.));
#923 = DIRECTION('',(-1.,0.,-0.));
#924 = DIRECTION('',(0.,0.5,-0.866025403784));
#925 = ORIENTED_EDGE('',*,*,#365,.T.);
#926 = FACE_BOUND('',#927,.T.);
#927 = EDGE_LOOP('',(#928,#929,#930,#931,#932,#933));
#928 = ORIENTED_EDGE('',*,*,#844,.T.);
#929 = ORIENTED_EDGE('',*,*,#868,.T.);
#930 = ORIENTED_EDGE('',*,*,#885,.T.);
#931 = ORIENTED_EDGE('',*,*,#765,.T.);
#932 = ORIENTED_EDGE('',*,*,#796,.T.);
#933 = ORIENTED_EDGE('',*,*,#820,.T.);
#934 = PLANE('',#935);
#935 = AXIS2_PLACEMENT_3D('',#936,#937,#938);
#936 = CARTESIAN_POINT('',(-6.35,8.358877197327,4.826));
#937 = DIRECTION('',(-1.,0.,0.));
#938 = DIRECTION('',(0.,-0.5,0.866025403784));
#939 = ADVANCED_FACE('',(#940),#952,.T.);
#940 = FACE_BOUND('',#941,.T.);
#941 = EDGE_LOOP('',(#942,#943,#950,#951));
#942 = ORIENTED_EDGE('',*,*,#344,.F.);
#943 = ORIENTED_EDGE('',*,*,#944,.T.);
#944 = EDGE_CURVE('',#336,#334,#945,.T.);
#945 = CIRCLE('',#946,14.2748);
#946 = AXIS2_PLACEMENT_3D('',#947,#948,#949);
#947 = CARTESIAN_POINT('',(-6.35,0.,0.));
#948 = DIRECTION('',(1.,-0.,0.));
#949 = DIRECTION('',(0.,0.5,-0.866025403784));
#950 = ORIENTED_EDGE('',*,*,#351,.T.);
#951 = ORIENTED_EDGE('',*,*,#904,.F.);
#952 = CYLINDRICAL_SURFACE('',#953,14.2748);
#953 = AXIS2_PLACEMENT_3D('',#954,#955,#956);
#954 = CARTESIAN_POINT('',(-6.35,0.,0.));
#955 = DIRECTION('',(1.,0.,0.));
#956 = DIRECTION('',(0.,0.5,-0.866025403784));
#957 = ADVANCED_FACE('',(#958),#970,.T.);
#958 = FACE_BOUND('',#959,.T.);
#959 = EDGE_LOOP('',(#960,#961,#962,#963));
#960 = ORIENTED_EDGE('',*,*,#376,.F.);
#961 = ORIENTED_EDGE('',*,*,#919,.F.);
#962 = ORIENTED_EDGE('',*,*,#393,.T.);
#963 = ORIENTED_EDGE('',*,*,#964,.T.);
#964 = EDGE_CURVE('',#385,#377,#965,.T.);
#965 = CIRCLE('',#966,9.652);
#966 = AXIS2_PLACEMENT_3D('',#967,#968,#969);
#967 = CARTESIAN_POINT('',(-5.969,0.,0.));
#968 = DIRECTION('',(-1.,0.,-0.));
#969 = DIRECTION('',(0.,0.5,-0.866025403784));
#970 = CYLINDRICAL_SURFACE('',#971,9.652);
#971 = AXIS2_PLACEMENT_3D('',#972,#973,#974);
#972 = CARTESIAN_POINT('',(-6.35,0.,0.));
#973 = DIRECTION('',(1.,0.,0.));
#974 = DIRECTION('',(0.,0.5,-0.866025403784));
#975 = ADVANCED_FACE('',(#976,#980),#990,.T.);
#976 = FACE_BOUND('',#977,.T.);
#977 = EDGE_LOOP('',(#978,#979));
#978 = ORIENTED_EDGE('',*,*,#333,.F.);
#979 = ORIENTED_EDGE('',*,*,#944,.F.);
#980 = FACE_BOUND('',#981,.T.);
#981 = EDGE_LOOP('',(#982,#989));
#982 = ORIENTED_EDGE('',*,*,#983,.T.);
#983 = EDGE_CURVE('',#408,#427,#984,.T.);
#984 = CIRCLE('',#985,12.7);
#985 = AXIS2_PLACEMENT_3D('',#986,#987,#988);
#986 = CARTESIAN_POINT('',(-6.35,0.,0.));
#987 = DIRECTION('',(1.,-0.,0.));
#988 = DIRECTION('',(0.,0.5,-0.866025403784));
#989 = ORIENTED_EDGE('',*,*,#434,.T.);
#990 = PLANE('',#991);
#991 = AXIS2_PLACEMENT_3D('',#992,#993,#994);
#992 = CARTESIAN_POINT('',(-6.35,12.362339433942,7.1374));
#993 = DIRECTION('',(-1.,0.,0.));
#994 = DIRECTION('',(0.,-0.5,0.866025403784));
#995 = ADVANCED_FACE('',(#996,#1006),#1010,.T.);
#996 = FACE_BOUND('',#997,.T.);
#997 = EDGE_LOOP('',(#998,#999));
#998 = ORIENTED_EDGE('',*,*,#417,.T.);
#999 = ORIENTED_EDGE('',*,*,#1000,.T.);
#1000 = EDGE_CURVE('',#418,#410,#1001,.T.);
#1001 = CIRCLE('',#1002,12.7);
#1002 = AXIS2_PLACEMENT_3D('',#1003,#1004,#1005);
#1003 = CARTESIAN_POINT('',(-5.969,0.,0.));
#1004 = DIRECTION('',(-1.,0.,-0.));
#1005 = DIRECTION('',(0.,0.5,-0.866025403784));
#1006 = FACE_BOUND('',#1007,.T.);
#1007 = EDGE_LOOP('',(#1008,#1009));
#1008 = ORIENTED_EDGE('',*,*,#964,.F.);
#1009 = ORIENTED_EDGE('',*,*,#384,.F.);
#1010 = PLANE('',#1011);
#1011 = AXIS2_PLACEMENT_3D('',#1012,#1013,#1014);
#1012 = CARTESIAN_POINT('',(-5.969,8.358877197327,4.826));
#1013 = DIRECTION('',(-1.,0.,0.));
#1014 = DIRECTION('',(0.,-0.5,0.866025403784));
#1015 = ADVANCED_FACE('',(#1016),#1022,.F.);
#1016 = FACE_BOUND('',#1017,.F.);
#1017 = EDGE_LOOP('',(#1018,#1019,#1020,#1021));
#1018 = ORIENTED_EDGE('',*,*,#1000,.T.);
#1019 = ORIENTED_EDGE('',*,*,#407,.F.);
#1020 = ORIENTED_EDGE('',*,*,#983,.T.);
#1021 = ORIENTED_EDGE('',*,*,#426,.T.);
#1022 = CYLINDRICAL_SURFACE('',#1023,12.7);
#1023 = AXIS2_PLACEMENT_3D('',#1024,#1025,#1026);
#1024 = CARTESIAN_POINT('',(-6.35,0.,0.));
#1025 = DIRECTION('',(1.,0.,0.));
#1026 = DIRECTION('',(0.,0.5,-0.866025403784));
#1027 = ( GEOMETRIC_REPRESENTATION_CONTEXT(3) 
GLOBAL_UNCERTAINTY_ASSIGNED_CONTEXT((#1031)) 
GLOBAL_UNIT_ASSIGNED_CONTEXT((#1028,#1029,#1030)) REPRESENTATION_CONTEXT
('Context #1','3D Context with UNIT and UNCERTAINTY') );
#1028 = ( LENGTH_UNIT() NAMED_UNIT(*) SI_UNIT(.MILLI.,.METRE.) );
#1029 = ( NAMED_UNIT(*) PLANE_ANGLE_UNIT() SI_UNIT($,.RADIAN.) );
#1030 = ( NAMED_UNIT(*) SI_UNIT($,.STERADIAN.) SOLID_ANGLE_UNIT() );
#1031 = UNCERTAINTY_MEASURE_WITH_UNIT(LENGTH_MEASURE(1.E-05),#1028,
  'distance_accuracy_value','confusion accuracy');
#1032 = PRODUCT_RELATED_PRODUCT_CATEGORY('part',$,(#7));
ENDSEC;
END-ISO-10303-21;
